<svg width="160" height="67" viewBox="0 0 160 67" fill="none" xmlns="http://www.w3.org/2000/svg">
    <g clip-path="url(#s59fy67sba)" fill="#F2F2F2">
        <path d="M75.709 6.465 58.907 3.581 38.1.006a.367.367 0 0 0-.132 0l-20.834 3.59L.333 6.482A.397.397 0 0 0 0 6.874V60.06c0 .197.144.365.337.397l16.802 2.78 20.802 3.439c.024.004.044.008.068.008.02 0 .044-.004.064-.008l20.834-3.454 16.802-2.78a.4.4 0 0 0 .337-.394V6.858a.4.4 0 0 0-.337-.393zM16.802 62.367l-16-2.648V33.867l16-.049v28.55zm0-29.351-16 .048V7.211l16-2.744v28.549zm20.834 32.797L17.604 62.5V33.82l20.032-.009v32.003zm0-32.805-20.032.008V4.331L37.636.88v32.127zM58.44 62.483l-20.003 3.322V33.81l20.003-.008v28.681zm0-29.483-20.003.008V.881l20.003 3.43V33zm16.802 26.707-16 2.644V33.802l16 .053v25.852zm0-26.655-16-.052V4.45l16 2.744v25.857z"/>
        <path d="m46.34 19.28 3.56.866c.407.11.716.3.932.572.212.265.319.602.319.997 0 .46-.142.83-.424 1.115-.286.291-.648.42-1.092.394a1.98 1.98 0 0 1-1.316-.598 2.496 2.496 0 0 1-.702-1.39l-5.756-.394c.076 1.54.469 2.931 1.17 4.165.695 1.225 1.618 2.181 2.763 2.877 1.132.688 2.387 1.05 3.756 1.087 1.293.035 2.416-.236 3.378-.804A5.638 5.638 0 0 0 55.12 25.8c.51-1.009.764-2.159.764-3.458 0-1.57-.375-2.874-1.13-3.916-.764-1.047-1.876-1.776-3.357-2.177l-3.499-.93c-.39-.124-.689-.311-.895-.565-.209-.256-.312-.572-.312-.95 0-.468.182-.83.545-1.085.362-.253.824-.343 1.383-.278a2.6 2.6 0 0 1 1.458.656c.421.374.683.816.788 1.338l5.178.553c-.085-1.415-.448-2.711-1.09-3.894a8.668 8.668 0 0 0-2.596-2.957 8.448 8.448 0 0 0-3.738-1.494c-1.352-.2-2.578-.079-3.664.362A5.345 5.345 0 0 0 42.367 9.2c-.628 1.022-.946 2.249-.946 3.673 0 1.665.433 3.06 1.289 4.179.849 1.104 2.063 1.85 3.628 2.227h.002zM73.224 24.288l-7.615-.46v-2.642l6.502.494v-3.666l-6.502-.642V14.73l7.615.872v-4.953L61.71 8.974v19.928l11.515.338v-4.952zM55.55 52.345l-7.976.825V38.242l-5.577.129v22.215L55.551 58.7v-6.355zM72.808 50.562l-6.477.67V37.808l-4.494.104v19.913l10.97-1.526v-5.738zM12.024 28.292c.653-.487 1.162-1.161 1.522-2.023.365-.863.546-1.852.546-2.958 0-.898-.117-1.707-.346-2.42-.234-.708-.56-1.284-.979-1.728a2.775 2.775 0 0 0-1.469-.837c.423-.412.748-.959.98-1.645.23-.688.346-1.46.346-2.325 0-1.05-.169-1.94-.506-2.667-.338-.723-.807-1.241-1.41-1.563-.6-.316-1.293-.42-2.072-.307l-5.919.86v18.58l7.058-.207c.85-.025 1.599-.277 2.249-.76zm-4.57-14.82c.564-.07 1.023.647 1.023 1.595s-.459 1.773-1.023 1.831c-.564.059-1.016-.659-1.016-1.599s.452-1.757 1.016-1.827zm.05 11.776c-.565.03-1.017-.711-1.017-1.651 0-.94.452-1.731 1.017-1.773.564-.041 1.026.696 1.026 1.644s-.462 1.75-1.026 1.78zM24.977 22.39l3.54-.224 1.502 6.293 5.532-.163-5.329-21.614-6.303.916-4.706 21.177 4.32-.127 1.444-6.258zm1.899-8.69c.705-.077 1.279.726 1.279 1.786 0 1.061-.574 1.982-1.28 2.044-.704.063-1.269-.74-1.269-1.79s.565-1.962 1.27-2.04zM24.977 53.124l3.54.372 1.502 6.546 5.532.77L30.222 38.3l-6.303-.146-4.706 20.384 4.32.601 1.444-6.015zm1.899-8.37c.705.042 1.279.94 1.279 2.002 0 1.06-.574 1.884-1.28 1.828-.704-.056-1.269-.954-1.269-2.004s.565-1.867 1.27-1.825zM6.671 49.843l3.594.348v7.101l3.723.518V37.923l-3.723-.085v7.1l-3.594-.235v-6.949l-3.547-.082v18.626l3.547.494v-6.949zM159.728 6.481 122.104.014c-.02-.004-.04 0-.056 0-.02 0-.04-.004-.06 0L84.364 6.481a.335.335 0 0 0-.273.33v53.27c0 .164.117.3.277.328l37.624 6.263a.228.228 0 0 0 .052.004h.004c.016 0 .036 0 .052-.004l37.624-6.263a.332.332 0 0 0 .276-.329V6.81c0-.16-.116-.3-.272-.329zm-38.013 59.473-36.962-6.155V7.087L121.715.732v65.222zm37.624-6.155-36.962 6.155V.732l36.962 6.355v52.712z"/>
        <path d="M94.813 53.817c1.82 2.163 4.073 3.434 6.697 3.775.45.059.893.088 1.327.088 2.237 0 4.249-.779 5.995-2.325 2.041-1.807 3.628-4.583 4.715-8.249 1.072-3.617 1.616-7.998 1.616-13.02 0-5.024-.544-9.405-1.616-13.024-1.087-3.667-2.673-6.444-4.714-8.255-2.085-1.85-4.548-2.604-7.321-2.249-2.625.338-4.879 1.605-6.699 3.766-1.692 2.009-2.989 4.758-3.855 8.17-.833 3.285-1.256 7.178-1.256 11.573 0 4.395.423 8.29 1.256 11.575.867 3.414 2.164 6.165 3.855 8.175zm3.175-25.656c.38-1.576.925-2.796 1.62-3.627.617-.738 1.317-1.124 2.139-1.18a2.9 2.9 0 0 1 .204-.007c.735 0 1.355.285 1.935.886.741.768 1.33 1.976 1.75 3.588.45 1.73.678 3.837.678 6.26 0 2.422-.228 4.527-.678 6.257-.42 1.612-1.009 2.818-1.749 3.584-.633.655-1.312.934-2.138.875-.824-.057-1.524-.444-2.14-1.184-.695-.831-1.24-2.053-1.621-3.63-.398-1.652-.6-3.64-.6-5.911 0-2.27.202-4.26.6-5.91zM141.589 56.635l7.7-1.02V12.125l-7.182-.607-9.723 10.68v12.784l9.205-11.458v33.11z"/>
    </g>
    <defs>
        <clipPath id="s59fy67sba">
            <path fill="#fff" d="M0 0h160v66.684H0z"/>
        </clipPath>
    </defs>
</svg>
