<svg width="38" height="36" viewBox="0 0 38 36" fill="none" xmlns="http://www.w3.org/2000/svg">
    <g clip-path="url(#3l3la6hkia)" fill="#000">
        <path d="M18.545 35.5c8.863 0 16.217-6.893 17.607-15.928H.937C2.327 28.607 9.681 35.5 18.545 35.5zM33.174.625v2.19l4.125.045V.5l-4.125.125zM24.864 6.387c-5.606 0-10.18 4.501-10.3 10.08h-2.598V2.584l20.09.219V.658L1.5 1.578v.891l2.656.03v13.967H.701c0 .672.032 1.335.096 1.988h35.496c.063-.653.096-1.316.096-1.988h-1.225c-.119-5.578-4.693-10.08-10.3-10.08zm0 1.274c4.904 0 8.907 3.93 9.025 8.806h-1.96c-.118-3.795-3.242-6.846-7.065-6.846-3.823 0-6.946 3.05-7.065 6.845h-1.96c.119-4.875 4.122-8.805 9.025-8.805zm0 4.804a4.23 4.23 0 0 0-4.219 4.002h-1.57a5.8 5.8 0 0 1 5.79-5.571 5.8 5.8 0 0 1 5.788 5.57h-1.57a4.23 4.23 0 0 0-4.219-4.001zm2.94 4.002h-5.88a2.953 2.953 0 0 1 2.94-2.727 2.953 2.953 0 0 1 2.94 2.726zm-16.956 0H9.735V2.559l1.113.012v13.895zm-2.23 0H7.505V2.534l1.112.012v13.92zM5.274 2.51l1.113.013v13.944H5.274V2.51z"/>
    </g>
    <defs>
        <clipPath id="3l3la6hkia">
            <path fill="#fff" transform="translate(.7 .5)" d="M0 0h36.599v35H0z"/>
        </clipPath>
    </defs>
</svg>
