<svg width="201" height="191" viewBox="0 0 201 191" fill="none" xmlns="http://www.w3.org/2000/svg">
    <g clip-path="url(#4hlsonmbpa)" fill="#fff">
        <path fill-rule="evenodd" clip-rule="evenodd" d="M115.625 165.465c-7.002 0-12.137 5.037-12.137 12.549 0 7.651 5.09 12.549 12.98 12.549l-.002.002c3.453 0 6.863-.934 9.712-2.753l-2.382-5.321c-2.242 1.168-4.716 1.867-7.238 1.867-3.266 0-5.553-1.258-6.535-3.592h17.461c.187-.887.279-1.772.279-2.845 0-7.465-5.182-12.456-12.138-12.456zm-5.973 10.357c.701-2.752 2.8-4.245 5.975-4.245 3.221 0 5.323 1.493 5.976 4.245h-11.951zM160.721 165.467c-7.051 0-12.278 5.084-12.278 12.549s5.228 12.549 12.277 12.549h.003c7.05 0 12.276-5.084 12.276-12.549s-5.227-12.549-12.278-12.549zm.003 18.614h-.003c-3.592 0-6.255-2.379-6.255-6.065 0-3.732 2.663-6.064 6.255-6.064 3.643 0 6.258 2.332 6.258 6.063 0 3.687-2.614 6.066-6.255 6.066zM19.782 190.053v-.001.001zM144.476 165.421c-2.8 0-5.135 1.256-6.627 3.592l-.655-3.035h-6.398l1.028 4.712v19.359h6.206v-15.347c.841-1.587 2.428-2.564 4.483-2.564l.004.002c1.26 0 2.426.323 3.5 1.07l2.942-6.576c-1.357-.842-2.942-1.213-4.483-1.213zM188.222 165.467c-7.053 0-12.28 5.084-12.28 12.549s5.228 12.549 12.278 12.549c7.05 0 12.278-5.084 12.278-12.549h.002c0-7.465-5.23-12.549-12.278-12.549zm-.002 18.613v.001c-3.594 0-6.255-2.379-6.255-6.065 0-3.732 2.661-6.064 6.255-6.064 3.641 0 6.255 2.332 6.255 6.063 0 3.687-2.614 6.065-6.255 6.065zM57.549 190.051v.001h6.208v-34.757h-6.208v34.756z"/>
        <path d="M75.52 165.98h-6.206v24.072h6.206V165.98z"/>
        <path fill-rule="evenodd" clip-rule="evenodd" d="M25.197 185.059v-29.762h-6.208v13.577c-1.87-2.145-4.438-3.405-7.47-3.405C5.307 165.469.5 170.553.5 178.018s4.808 12.549 11.018 12.549c3.083 0 5.742-1.306 7.612-3.546l.652 3.031h6.49l-1.075-4.993zm-12.419-.978c-3.594 0-6.257-2.379-6.257-6.065v-.001c0-3.732 2.66-6.063 6.255-6.063 3.643 0 6.256 2.332 6.256 6.063 0 3.687-2.613 6.066-6.254 6.066zM72.442 154.827c-2.242 0-3.923 1.681-3.923 3.919s1.682 3.918 3.923 3.918h-.001v.001c2.192 0 3.874-1.68 3.874-3.92s-1.68-3.918-3.873-3.918zM90.28 185.481l-4.762-19.501h-6.68l6.492 24.072h-.002 9.99l6.491-24.072h-6.77l-4.76 19.501zM41.463 165.4c-7.002 0-12.137 5.038-12.137 12.549 0 7.65 5.088 12.548 12.979 12.548h-.002l-.003.001c3.458 0 6.865-.934 9.712-2.752l-2.38-5.318c-2.241 1.166-4.715 1.866-7.236 1.866-3.266 0-5.553-1.259-6.536-3.593h17.46a13.33 13.33 0 0 0 .281-2.846c0-7.463-5.183-12.455-12.138-12.455zm-6.087 10.422c.7-2.752 2.8-4.245 5.975-4.245 3.221 0 5.323 1.493 5.976 4.245h-11.95zM44.502 123.547l90.528 18.969 20.705-45.844L165.59 4.2 129.277.433l-6.675 62.653-11.392-52.822-35.704 7.488 11.382 52.817L35.41 81.357l9.092 42.19zm71.876-34.188a5.464 5.464 0 0 1 1.145-2.643c.843-1.052 2.25-2.424 3.878-2.469 2.645-.072 4.92 1.1 6.207 3.216 1.291 2.111.646 4.44-.713 6.766h-.012c-1.355 2.325-4.917 2.632-8.419.942-2.36-1.141-2.342-4.044-2.086-5.813zm-25.445-5.107c.738-2.799 4.213-3.218 5.95-3.244a4.417 4.417 0 0 1 1.907.385c1.231.549 3.309 1.719 3.732 3.503.606 2.575.021 4.737-1.845 6.422h-.004l.002.005c-1.868 1.687-4.338 1.533-6.953.672-2.616-.856-3.776-3.976-2.789-7.743z"/>
    </g>
    <defs>
        <clipPath id="4hlsonmbpa">
            <path fill="#fff" transform="translate(.5 .433)" d="M0 0h200v190.133H0z"/>
        </clipPath>
    </defs>
</svg>
