<svg width="150" height="162" viewBox="0 0 150 162" fill="none" xmlns="http://www.w3.org/2000/svg">
    <g clip-path="url(#oq2t1eq8pa)">
        <path d="m149.294 121.27-74.275 39.398L.707 121.27V14.317L75.019 1.333l74.275 12.984V121.27z" fill="#fff"/>
        <path d="M30.555 73.1.707 67.797v-53.48l29.848-5.215V73.1z" stroke="#1A1A1A" stroke-width="2" stroke-linejoin="round"/>
        <path d="M30.555 73.1v63.998L.707 121.276v-53.48" stroke="#1A1A1A" stroke-width="2" stroke-linejoin="round"/>
        <path d="M25.317 45.464c-.473-1.693-1.132-3.096-1.976-4.209-.84-1.102-1.82-1.84-2.925-2.213.837-.864 1.483-2.06 1.945-3.596.46-1.544.693-3.307.693-5.3 0-2.422-.338-4.491-1.012-6.201-.672-1.696-1.6-2.926-2.789-3.715-1.172-.77-2.517-1.06-4.018-.867l-10.99 1.42V61.34l13.19 1.742c1.658.219 3.13-.114 4.42-1.011 1.305-.91 2.33-2.308 3.056-4.194.74-1.892 1.11-4.138 1.11-6.71 0-2.084-.238-3.994-.704-5.704zM12.984 27.452c1.07-.088 1.946 1.583 1.946 3.719 0 2.135-.876 3.916-1.946 3.953-1.065.037-1.914-1.635-1.914-3.728 0-2.094.849-3.858 1.914-3.944zm.093 26.384c-1.065-.084-1.915-1.855-1.915-3.949s.85-3.754 1.915-3.72c1.072.035 1.954 1.8 1.954 3.936s-.881 3.818-1.954 3.733zM57.803 14.023 43.416 15.87 33.341 65.32l9.227 1.226 3.19-14.675 8.047.451 3.518 16.182L70.845 70.3 57.803 14.023zm-7.77 26.447c-1.598.003-2.869-2.076-2.869-4.635 0-2.559 1.27-4.693 2.868-4.77 1.612-.078 2.934 2 2.934 4.624 0 2.624-1.322 4.778-2.934 4.782zM17.164 94.43V78.393l7.313 1.633v45.842l-7.313-3.543v-16.035l-6.782-2.639v15.388l-6.442-3.12V75.441l6.442 1.439v15.388l6.782 2.161zM57.803 87.469l-14.387-3.213-10.075 45.907 9.227 4.47 3.19-13.552 8.047 3.281 3.518 17.419 13.522 6.551-13.042-60.864zm-7.77 23.714c-1.598-.559-2.869-3.084-2.869-5.643 0-2.56 1.27-4.246 2.868-3.762 1.612.488 2.934 3.031 2.934 5.655 0 2.625-1.322 4.314-2.934 3.75z" fill="#1A1A1A"/>
        <path d="m149.294 67.795-29.843 5.302V9.104l29.843 5.215v53.476zM119.45 9.104 75.02 1.333 30.554 9.102M30.555 73.1 75.019 81l44.431-7.903M119.45 73.097v63.992l-44.43 23.579-44.465-23.57M149.294 67.795v53.475l-29.843 15.819" stroke="#1A1A1A" stroke-width="2" stroke-linejoin="round"/>
        <path d="M111.235 41.471c-1.588-2.258-3.928-3.732-7.086-4.387L96.48 35.53c-.875-.227-1.546-.62-2.01-1.194-.472-.575-.706-1.318-.706-2.225 0-1.124.412-2.02 1.231-2.686.813-.661 1.846-.94 3.087-.866a5.154 5.154 0 0 1 3.207 1.339A5.23 5.23 0 0 1 103 32.923l10.891.435c-.174-3.218-.919-6.132-2.242-8.764-1.342-2.67-3.148-4.865-5.449-6.58-2.362-1.755-5.058-2.842-8.118-3.234-3.02-.388-5.794-.015-8.287 1.127-2.554 1.18-4.586 3.046-6.065 5.602-1.5 2.592-2.262 5.669-2.262 9.193 0 4.119 1.037 7.483 3.075 10.058 2 2.515 4.83 4.049 8.42 4.589l7.935 1.214c.888.162 1.559.535 2.026 1.119.457.571.688 1.334.688 2.26 0 1.08-.306 1.982-.915 2.73-.619.762-1.409 1.166-2.378 1.23-1.11.072-2.08-.277-2.906-1.053-.834-.782-1.357-1.832-1.566-3.125L82.52 50.3c.183 3.78 1.118 7.088 2.778 9.896 1.635 2.766 3.786 4.774 6.422 6.056 2.572 1.25 5.387 1.662 8.412 1.26 2.817-.374 5.231-1.398 7.276-3.044 1.997-1.612 3.519-3.66 4.584-6.155 1.053-2.458 1.572-5.157 1.572-8.127 0-3.585-.769-6.484-2.331-8.715h.002zM145.761 31.703V20.901l-22.023-2.827v46.305l22.023-2.925V50.651l-14.248.901v-6.009l12.239-.34V37.16l-12.239-.286v-6.008l14.248.838zM95.49 86.73v37.157l17.799-7.192v15.095l-31.285 15.157V89.742l13.487-3.011zM133.469 78.25v30.291l12.021-4.857v12.506l-20.877 10.114V80.228l8.856-1.978z" fill="#1A1A1A"/>
        <path d="M75.019 1.333v159.335" stroke="#1A1A1A" stroke-width="2" stroke-linejoin="round"/>
    </g>
    <defs>
        <clipPath id="oq2t1eq8pa">
            <path fill="#fff" transform="translate(0 .613)" d="M0 0h150v160.773H0z"/>
        </clipPath>
    </defs>
</svg>
