<svg width="29" height="28" viewBox="0 0 29 28" fill="none" xmlns="http://www.w3.org/2000/svg">
    <path d="M14.451 3.839c-5.763 0-10.454 4.517-10.456 10.07a9.763 9.763 0 0 0 1.396 5.034l-1.484 5.218 5.544-1.4a10.764 10.764 0 0 0 4.996 1.226h.004c5.764 0 10.454-4.518 10.456-10.07.002-2.69-1.085-5.221-3.06-7.124-1.974-1.904-4.599-2.954-7.396-2.954zm0 18.447h-.003c-1.56 0-3.09-.404-4.424-1.166l-.318-.182-3.288.83.878-3.088-.207-.317A8.118 8.118 0 0 1 5.76 13.91c.002-4.616 3.901-8.37 8.695-8.37 2.32.001 4.502.873 6.144 2.455 1.641 1.582 2.544 3.685 2.543 5.922-.002 4.615-3.9 8.37-8.691 8.37zm4.767-6.27c-.261-.125-1.546-.734-1.785-.818-.24-.084-.414-.127-.588.125-.173.252-.674.819-.826.986-.153.168-.306.189-.567.063-.262-.126-1.104-.391-2.1-1.249-.778-.666-1.302-1.49-1.455-1.743-.152-.251-.016-.387.115-.513.117-.112.261-.293.391-.44.13-.147.174-.252.262-.42.087-.167.043-.315-.022-.44-.066-.127-.588-1.365-.807-1.869-.21-.49-.426-.424-.587-.433a11.666 11.666 0 0 0-.501-.008.979.979 0 0 0-.697.315c-.239.252-.914.86-.914 2.098 0 1.24.936 2.436 1.067 2.604.13.167 1.842 2.71 4.463 3.8.624.258 1.11.413 1.49.53.626.191 1.196.164 1.645.1.502-.073 1.546-.61 1.763-1.196.218-.588.218-1.092.153-1.197-.064-.105-.238-.168-.5-.294z" fill="#1A1A1A"/>
</svg>
