<svg width="29" height="28" viewBox="0 0 29 28" fill="none" xmlns="http://www.w3.org/2000/svg">
    <path fill-rule="evenodd" clip-rule="evenodd" d="M14.407 3.5c-2.852 0-3.209.012-4.329.063-1.117.051-1.881.229-2.549.489-.7.263-1.335.676-1.86 1.21a5.15 5.15 0 0 0-1.21 1.86c-.26.668-.438 1.432-.489 2.55-.05 1.12-.063 1.476-.063 4.328 0 2.852.012 3.209.063 4.329.051 1.118.23 1.881.489 2.55.263.7.676 1.334 1.21 1.86a5.151 5.151 0 0 0 1.86 1.21c.668.26 1.432.437 2.55.488 1.12.051 1.476.063 4.328.063 2.852 0 3.209-.012 4.329-.063 1.118-.051 1.882-.229 2.55-.489a5.142 5.142 0 0 0 1.86-1.21 5.15 5.15 0 0 0 1.21-1.86c.26-.668.437-1.431.488-2.55.051-1.12.063-1.476.063-4.328 0-2.852-.012-3.209-.063-4.329-.05-1.118-.229-1.881-.488-2.55a5.147 5.147 0 0 0-1.211-1.86 5.15 5.15 0 0 0-1.86-1.21c-.667-.258-1.432-.437-2.55-.488-1.119-.05-1.475-.063-4.328-.063zm0 1.892c2.804 0 3.136.01 4.244.061 1.023.047 1.579.217 1.95.362.49.19.84.418 1.207.785.367.367.595.717.784 1.207.145.37.315.926.362 1.95.05 1.107.061 1.44.061 4.243 0 2.803-.01 3.136-.06 4.243-.048 1.024-.218 1.58-.363 1.95a3.252 3.252 0 0 1-.784 1.207 3.25 3.25 0 0 1-1.208.785c-.37.144-.926.315-1.95.362-1.107.05-1.439.06-4.243.06-2.804 0-3.136-.01-4.243-.06-1.024-.047-1.58-.217-1.95-.362a3.252 3.252 0 0 1-1.207-.785 3.253 3.253 0 0 1-.785-1.207c-.144-.37-.315-.926-.362-1.95-.05-1.107-.06-1.44-.06-4.243 0-2.803.01-3.136.06-4.243.047-1.024.217-1.58.362-1.95.19-.49.418-.84.785-1.207a3.25 3.25 0 0 1 1.207-.785c.37-.144.926-.315 1.95-.362 1.107-.05 1.44-.06 4.243-.06z" fill="#1A1A1A"/>
    <path fill-rule="evenodd" clip-rule="evenodd" d="M14.407 17.503a3.503 3.503 0 1 1 0-7.006 3.503 3.503 0 0 1 0 7.006zm0-8.9a5.397 5.397 0 1 0 0 10.794 5.397 5.397 0 0 0 0-10.794zm6.967-.098a1.276 1.276 0 1 1-2.551 0 1.276 1.276 0 0 1 2.551 0z" fill="#1A1A1A"/>
</svg>
