<svg width="28" height="28" viewBox="0 0 28 28" fill="none" xmlns="http://www.w3.org/2000/svg">
    <path fill-rule="evenodd" clip-rule="evenodd" d="M14 3.5c-2.852 0-3.209.012-4.329.063-1.118.051-1.881.229-2.55.489-.7.263-1.334.676-1.86 1.21a5.15 5.15 0 0 0-1.21 1.86c-.258.668-.437 1.432-.488 2.55-.05 1.12-.063 1.476-.063 4.328 0 2.852.012 3.209.063 4.329.051 1.118.229 1.881.489 2.55.263.7.676 1.334 1.21 1.86a5.151 5.151 0 0 0 1.86 1.21c.668.26 1.431.437 2.55.488 1.12.051 1.476.063 4.328.063 2.852 0 3.209-.012 4.329-.063 1.118-.051 1.881-.229 2.55-.489a5.142 5.142 0 0 0 1.86-1.21 5.15 5.15 0 0 0 1.21-1.86c.26-.668.437-1.431.488-2.55.051-1.12.063-1.476.063-4.328 0-2.852-.012-3.209-.063-4.329-.051-1.118-.229-1.881-.489-2.55a5.147 5.147 0 0 0-1.21-1.86 5.15 5.15 0 0 0-1.86-1.21c-.668-.258-1.432-.437-2.55-.488-1.12-.05-1.476-.063-4.328-.063zm0 1.892c2.803 0 3.136.01 4.243.061 1.024.047 1.58.217 1.95.362.49.19.84.418 1.207.785.368.367.595.717.785 1.207.144.37.315.926.362 1.95.05 1.107.06 1.44.06 4.243 0 2.803-.01 3.136-.06 4.243-.047 1.024-.217 1.58-.362 1.95A3.252 3.252 0 0 1 21.4 21.4a3.25 3.25 0 0 1-1.207.785c-.37.144-.926.315-1.95.362-1.107.05-1.439.06-4.243.06-2.804 0-3.136-.01-4.243-.06-1.024-.047-1.58-.217-1.95-.362A3.252 3.252 0 0 1 6.6 21.4a3.253 3.253 0 0 1-.785-1.207c-.144-.37-.315-.926-.362-1.95-.05-1.107-.06-1.44-.06-4.243 0-2.803.01-3.136.06-4.243.047-1.024.217-1.58.362-1.95.19-.49.418-.84.785-1.207a3.25 3.25 0 0 1 1.207-.785c.37-.144.926-.315 1.95-.362 1.107-.05 1.44-.06 4.243-.06z" fill="#1A1A1A"/>
    <path fill-rule="evenodd" clip-rule="evenodd" d="M14 17.503a3.502 3.502 0 1 1 0-7.004 3.502 3.502 0 0 1 0 7.004zm0-8.9a5.397 5.397 0 1 0 0 10.795 5.397 5.397 0 0 0 0-10.795zm6.967-.098a1.276 1.276 0 1 1-2.551 0 1.276 1.276 0 0 1 2.551 0z" fill="#1A1A1A"/>
</svg>
