<?xml version="1.0" standalone="no"?>
<!DOCTYPE svg PUBLIC "-//W3C//DTD SVG 1.1//EN" "http://www.w3.org/Graphics/SVG/1.1/DTD/svg11.dtd" >
<svg xmlns="http://www.w3.org/2000/svg" xmlns:xlink="http://www.w3.org/1999/xlink" version="1.1">
<metadata>
Created by FontForge 20190801 at Sun Nov 14 17:53:07 2021
 By www-data
Copyright (c) 2021 by NaN. All rights reserved.
</metadata>
<defs>
<font id="NaNTragedyTextBold" horiz-adv-x="0" >
  <font-face 
    font-family="NaNTragedyTextBold"
    font-weight="700"
    font-stretch="normal"
    units-per-em="2000"
    panose-1="0 0 8 0 0 0 0 0 0 0"
    ascent="1500"
    descent="-500"
    x-height="890"
    cap-height="1250"
    bbox="-1054 -570 2654 2026"
    underline-thickness="50"
    underline-position="-100"
    unicode-range="U+000D-FB02"
  />
<missing-glyph horiz-adv-x="1440" 
d="M1264 0h-1088v1250h1088v-1250zM398 1072v-894h644v894h-644zM914 802l86 -240l-154 24l42 64l-94 184l94 72l-18 44l-162 -150l-74 76l256 156l112 -164zM970 290l-234 -68l88 122l-88 102l-136 -104l-94 132l122 188l-182 -12l54 372l148 8l-100 -274l272 -26
l-248 -228l72 -64l120 184zM744 326l-244 -108l-44 204l94 -124z" />
    <glyph glyph-name="fl" unicode="fl" horiz-adv-x="1316" 
d="M56 0v84h150v648h-172v46l172 112v28q0 133 58.5 243.5t157 174.5t214.5 64q68 0 125 -20.5t93 -57.5l264 78h20v-1316h150v-84h-556v84h150v898q0 59 -45 113.5t-125.5 88.5t-181.5 34q-162 0 -162 -86q0 -20 7.5 -42t26.5 -66l60 -134h288l-78 -158h-210v-648h140v-84
h-546z" />
    <glyph glyph-name="f_k.liga" unicode="fk" horiz-adv-x="1854" 
d="M1756 84h110v-84h-492v84h82l-217 312l-101 -95v-217h150v-84h-556v84h150v898q0 59 -45 113.5t-125.5 88.5t-181.5 34q-162 0 -162 -86q0 -20 7.5 -42t26.5 -66l60 -134h288l-78 -158h-210v-648h140v-84h-546v84h150v648h-172v46l172 112v28q0 133 58.5 243.5t157 174.5
t214.5 64q68 0 125 -20.5t93 -57.5l264 78h20v-985l200 191q59 57 87.5 87.5t39.5 48.5t11 34q0 18 -14.5 29t-55.5 15l-50 6v64h446v-84h-124l-261 -244z" />
    <glyph glyph-name=".notdef" horiz-adv-x="1440" 
d="M1264 0h-1088v1250h1088v-1250zM398 1072v-894h644v894h-644zM914 802l86 -240l-154 24l42 64l-94 184l94 72l-18 44l-162 -150l-74 76l256 156l112 -164zM970 290l-234 -68l88 122l-88 102l-136 -104l-94 132l122 188l-182 -12l54 372l148 8l-100 -274l272 -26
l-248 -228l72 -64l120 184zM744 326l-244 -108l-44 204l94 -124z" />
    <glyph glyph-name=".null" 
 />
    <glyph glyph-name="nonmarkingreturn" unicode="&#xd;" horiz-adv-x="428" 
 />
    <glyph glyph-name="space" unicode=" " horiz-adv-x="428" 
 />
    <glyph glyph-name="exclam" unicode="!" horiz-adv-x="540" 
d="M338 350h-136v168l-72 572q-3 23 -3 41q0 72 37 110.5t106 38.5q65 0 104 -36.5t39 -111.5q0 -19 -3 -42l-72 -572v-168zM203 -1q-32 19 -51.5 51t-19.5 68q0 35 19.5 66.5t51.5 50.5t67 19q36 0 68 -19t51 -50.5t19 -66.5q0 -36 -19 -68t-51 -51t-68 -19q-35 0 -67 19z
" />
    <glyph glyph-name="quotedbl" unicode="&#x22;" horiz-adv-x="692" 
d="M148 766q-5 110 -19 182t-37 148q-13 45 -18.5 69.5t-5.5 50.5q0 64 34.5 94t83.5 30q50 0 84 -30t34 -94q0 -26 -5.5 -50.5t-18.5 -69.5q-23 -76 -37 -148t-19 -182h-76zM468 766q-5 110 -19 182t-37 148q-13 45 -18.5 69.5t-5.5 50.5q0 64 34.5 94t83.5 30q50 0 84 -30
t34 -94q0 -26 -5.5 -50.5t-18.5 -69.5q-23 -76 -37 -148t-19 -182h-76z" />
    <glyph glyph-name="numbersign" unicode="#" horiz-adv-x="1138" 
d="M1076 914v-164h-198l-67 -280h195v-164h-235l-73 -306h-158l73 306h-242l-73 -306h-158l73 306h-151v164h191l67 280h-188v164h227l81 336h158l-81 -336h242l81 336h158l-81 -336h159zM411 470h242l67 280h-242z" />
    <glyph glyph-name="dollar" unicode="$" horiz-adv-x="1116" 
d="M756 724q150 -43 216 -123t66 -213q0 -120 -48 -214.5t-143.5 -149t-232.5 -54.5q-51 0 -93 7l-13 -107h-78l15 124q-95 30 -207 104l-76 -98h-58v492h66q55 -102 132 -179.5t168 -120.5l40 330l-84 24q-161 46 -234.5 130.5t-73.5 219.5q0 120 53 206.5t146 132
t211 45.5q35 0 75 -5l13 105h78l-15 -122q82 -25 162 -82l67 92h58v-444h-60q-119 151 -253 222l-35 -283zM543 785l36 294q-75 27 -153 27q-81 0 -125.5 -33t-44.5 -103q0 -52 35.5 -88t112.5 -58zM839.5 188.5q60.5 44.5 60.5 121.5q0 54 -38.5 88t-127.5 60l-148 42
l-42 -337q68 -19 134 -19q101 0 161.5 44.5z" />
    <glyph glyph-name="percent" unicode="%" horiz-adv-x="1266" 
d="M169 650q-59 44 -89 118.5t-30 165.5t30 165.5t89 118.5t143 44t143 -44t89 -118.5t30 -165.5t-30 -165.5t-89 -118.5t-143 -44t-143 44zM1072 1250l-714 -1250h-162l714 1250h162zM200 818.5q40 -42.5 116 -42.5q67 0 107.5 43.5t40.5 114.5q0 72 -40 115t-106 43
q-77 0 -117.5 -42.5t-40.5 -115.5t40 -115.5zM811 28q-59 44 -89 118.5t-30 165.5t30 165.5t89 118.5t143 44t143 -44t89 -118.5t30 -165.5t-30 -165.5t-89 -118.5t-143 -44t-143 44zM839 197q37 -43 105 -43q76 0 119 43.5t43 114.5q0 73 -40.5 115.5t-111.5 42.5
q-70 0 -111 -43t-41 -115t37 -115z" />
    <glyph glyph-name="ampersand" unicode="&#x26;" horiz-adv-x="1356" 
d="M1312 84v-84h-426l-113 142q-151 -172 -339 -172q-107 0 -192.5 44t-134.5 121t-49 173q0 112 75 200.5t221 162.5q-61 82 -92.5 151t-31.5 142q0 87 46 159.5t127.5 114.5t182.5 42q84 0 153 -32.5t109 -92.5t40 -139q0 -88 -60 -174t-204 -153l236 -279l42 52
q70 88 70 138q0 24 -13.5 34.5t-38.5 13.5l-74 8v70h452v-84h-94l-267 -323l39 -47q78 -93 150 -140.5t146 -47.5h40zM475.5 1116q-31.5 -36 -31.5 -98q0 -56 28.5 -115t92.5 -141q65 48 99 111t34 127q0 75 -37.5 113.5t-96.5 38.5q-57 0 -88.5 -36zM696 239l-285 359
q-141 -69 -141 -192q0 -67 34.5 -125t91.5 -92.5t120 -34.5q95 0 180 85z" />
    <glyph glyph-name="quotesingle" unicode="'" horiz-adv-x="372" 
d="M148 766q-5 110 -19 182t-37 148q-13 45 -18.5 69.5t-5.5 50.5q0 64 34.5 94t83.5 30q50 0 84 -30t34 -94q0 -26 -5.5 -50.5t-18.5 -69.5q-23 -76 -37 -148t-19 -182h-76z" />
    <glyph glyph-name="parenleft" unicode="(" horiz-adv-x="620" 
d="M588 1342q-262 -309 -262 -770q0 -431 262 -770l-42 -54q-120 87 -230 207t-185 278.5t-75 338.5t74.5 338.5t184 278.5t229.5 207z" />
    <glyph glyph-name="parenright" unicode=")" horiz-adv-x="620" 
d="M32 -198q262 339 262 770q0 461 -262 770l44 54q120 -87 229.5 -207t184 -278.5t74.5 -338.5q0 -179 -75 -338t-185 -279t-230 -207z" />
    <glyph glyph-name="asterisk" unicode="*" horiz-adv-x="952" 
d="M860 699q0 -30 -20 -61q-15 -26 -37.5 -40.5t-48.5 -14.5q-30 0 -66 21q-26 16 -44 35.5t-49 58.5q-46 60 -86 99q12 -51 42 -126q17 -42 25 -68.5t8 -56.5q0 -57 -29 -85.5t-79 -28.5t-79 28.5t-29 85.5q0 29 7.5 55t24.5 70q30 75 42 127q-46 -42 -90 -104
q-28 -37 -46 -56t-42 -34q-36 -21 -67 -21q-51 0 -87 55q-18 30 -18 60q0 56 60 92q25 15 50.5 21.5t72.5 14.5q76 11 138 32q-62 21 -138 32q-47 8 -72.5 14.5t-50.5 21.5q-60 36 -60 92q0 30 18 60q36 55 87 55q31 0 67 -21q24 -15 42 -34t46 -56q44 -62 90 -104
q-12 52 -42 127q-17 44 -24.5 70t-7.5 55q0 57 29 85.5t79 28.5t79 -28.5t29 -85.5q0 -30 -8 -56.5t-25 -68.5q-30 -75 -42 -126q40 39 86 99q31 39 49 58.5t44 35.5q36 21 66 21q26 0 48.5 -14.5t37.5 -40.5q20 -31 20 -61q0 -55 -62 -91q-25 -15 -51.5 -21.5t-70.5 -13.5
q-42 -6 -74 -13t-69 -20q37 -13 69 -20t74 -13q44 -7 70.5 -13.5t51.5 -21.5q62 -36 62 -91z" />
    <glyph glyph-name="plus" unicode="+" horiz-adv-x="1220" 
d="M696 710h390v-170h-390v-390h-170v390h-390v170h390v390h170v-390z" />
    <glyph glyph-name="comma" unicode="," horiz-adv-x="440" 
d="M-26 -234q113 45 161.5 96t48.5 108q0 46 -31.5 92t-92.5 84l102 188q100 -31 155 -101.5t55 -162.5q0 -113 -87 -207t-273 -179z" />
    <glyph glyph-name="hyphen" unicode="-" horiz-adv-x="770" 
d="M690 398h-610v170h610v-170z" />
    <glyph glyph-name="period" unicode="." horiz-adv-x="460" 
d="M155 1.5q-36 21.5 -57.5 57t-21.5 75.5t21.5 75t57.5 56t75 21q40 0 75.5 -21t57 -56t21.5 -75t-21.5 -75.5t-57 -57t-75.5 -21.5q-39 0 -75 21.5z" />
    <glyph glyph-name="slash" unicode="/" horiz-adv-x="838" 
d="M254 -232h-230l560 1602h230z" />
    <glyph glyph-name="zero" unicode="0" horiz-adv-x="1138" 
d="M325.5 48q-110.5 78 -176 223t-65.5 335q0 196 61.5 349.5t172 240t250.5 86.5q133 0 244 -78t176.5 -223t65.5 -335q0 -196 -62 -350t-172.5 -240t-251.5 -86q-132 0 -242.5 78zM726.5 857q-27.5 157 -78 241t-120.5 84q-72 0 -108 -109t-36 -307q0 -216 26 -372.5
t75.5 -240t118.5 -83.5q74 0 112 110t38 306q0 214 -27.5 371z" />
    <glyph glyph-name="one" unicode="1" horiz-adv-x="846" 
d="M844 104v-104h-760v104h250v848h-278v80q115 15 214 78.5t172 169.5h158v-1176h244z" />
    <glyph glyph-name="two" unicode="2" horiz-adv-x="1074" 
d="M1022 400l-108 -400h-822v204q201 167 317 287t165.5 208.5t49.5 164.5q0 79 -46.5 120.5t-127.5 41.5q-91 0 -169.5 -60.5t-142.5 -199.5l-74 22q63 251 185.5 371.5t296.5 120.5q104 0 187 -43t130 -117.5t47 -165.5q0 -99 -60 -206t-186.5 -234t-331.5 -286h198
q142 0 222.5 16.5t127.5 56t82 115.5z" />
    <glyph glyph-name="three" unicode="3" horiz-adv-x="1020" 
d="M866 586.5q66 -98.5 66 -220.5q0 -111 -57 -201.5t-157 -142.5t-224 -52q-128 0 -237 54.5t-207 153.5l70 204h28q215 -194 426 -194q67 0 122 19t87.5 54t32.5 83q0 99 -148 147.5t-400 46.5l-26 90q201 53 291.5 118.5t90.5 159.5q0 71 -46.5 105.5t-125.5 34.5
q-90 0 -159.5 -47t-138.5 -155l-66 28q77 210 192 309t274 99q96 0 176.5 -33.5t128 -97t47.5 -147.5q0 -88 -54.5 -157.5t-162.5 -112.5q111 -47 177 -145.5z" />
    <glyph glyph-name="four" unicode="4" horiz-adv-x="1118" 
d="M1074 508v-170h-240v-248h186v-90h-620v90h168v248h-516v170l622 762h160v-762h240zM568 952l-369 -444h369v444z" />
    <glyph glyph-name="five" unicode="5" horiz-adv-x="1034" 
d="M763 795.5q90 -52.5 139.5 -146.5t49.5 -215q0 -134 -58.5 -239.5t-161.5 -165t-232 -59.5q-80 0 -162 24t-152 68t-114 102l48 198l26 4q78 -87 176 -130.5t224 -43.5q142 0 216 54t74 156q0 104 -77.5 159t-224.5 55q-102 0 -179 -30.5t-151 -93.5l-60 -4v762h736v-230
h-630v-283q61 54 141.5 82.5t164.5 28.5q117 0 207 -52.5z" />
    <glyph glyph-name="six" unicode="6" horiz-adv-x="1100" 
d="M840.5 774q85.5 -54 136.5 -148.5t51 -209.5q0 -130 -61.5 -231.5t-169 -158t-239.5 -56.5q-122 0 -233 70.5t-179 198t-68 291.5q0 227 102 392.5t303 257.5t493 100l10 -48q-317 -60 -462.5 -209.5t-176.5 -373.5q57 95 130 137t179 42q99 0 184.5 -54zM710 154.5
q48 58.5 48 175.5q0 158 -51 240t-165 82q-96 0 -146.5 -65.5t-51.5 -208.5q32 -282 226 -282q92 0 140 58.5z" />
    <glyph glyph-name="seven" unicode="7" horiz-adv-x="970" 
d="M94 1250h840v-124l-452 -1126h-320l585 1038h-341q-92 0 -148 -14.5t-88.5 -46.5t-55.5 -89h-80z" />
    <glyph glyph-name="eight" unicode="8" horiz-adv-x="1076" 
d="M845 597q66 -47 108.5 -110t42.5 -143q0 -100 -65.5 -186t-177.5 -137t-245 -51q-117 0 -216.5 39t-158.5 109t-59 158q0 91 67.5 171t201.5 146q-102 61 -159.5 131.5t-57.5 167.5q0 100 63 189.5t172.5 144t240.5 54.5q101 0 181.5 -33t126.5 -95.5t46 -147.5
q0 -98 -63.5 -169.5t-209.5 -140.5q96 -50 162 -97zM366 1089.5q-42 -30.5 -42 -85.5q0 -59 40 -107t99 -84.5t161 -88.5q41 41 60.5 99t19.5 115q0 85 -55.5 133.5t-168.5 48.5q-72 0 -114 -30.5zM759.5 147.5q44.5 31.5 44.5 88.5q0 60 -40.5 107.5t-100.5 83t-163 85.5
q-58 28 -87 43q-69 -70 -69 -181q0 -85 42.5 -143t110.5 -86.5t147 -28.5q71 0 115.5 31.5z" />
    <glyph glyph-name="nine" unicode="9" horiz-adv-x="1098" 
d="M773 1209.5q111 -70.5 179 -198t68 -291.5q0 -227 -102 -392.5t-303 -257.5t-493 -100l-10 48q317 60 462.5 209.5t176.5 373.5q-57 -95 -130 -137t-179 -42q-99 0 -184.5 54t-136.5 148.5t-51 209.5q0 130 61.5 231.5t169 158t239.5 56.5q122 0 233 -70.5zM702.5 663.5
q50.5 65.5 51.5 208.5q-32 282 -226 282q-92 0 -140 -58.5t-48 -175.5q0 -158 51 -240t165 -82q96 0 146.5 65.5z" />
    <glyph glyph-name="colon" unicode=":" horiz-adv-x="512" 
d="M181 601.5q-36 21.5 -57.5 57t-21.5 75.5t21.5 75t57.5 56t75 21q40 0 75.5 -21t57 -56t21.5 -75t-21.5 -75.5t-57 -57t-75.5 -21.5q-39 0 -75 21.5zM181 1.5q-36 21.5 -57.5 57t-21.5 75.5t21.5 75t57.5 56t75 21q40 0 75.5 -21t57 -56t21.5 -75t-21.5 -75.5t-57 -57
t-75.5 -21.5q-39 0 -75 21.5z" />
    <glyph glyph-name="semicolon" unicode=";" horiz-adv-x="502" 
d="M171 601.5q-36 21.5 -57.5 57t-21.5 75.5t21.5 75t57.5 56t75 21q40 0 75.5 -21t57 -56t21.5 -75t-21.5 -75.5t-57 -57t-75.5 -21.5q-39 0 -75 21.5zM8 -234q113 45 161.5 96t48.5 108q0 46 -31.5 92t-92.5 84l102 188q100 -31 155 -101.5t55 -162.5q0 -113 -87 -207
t-273 -179z" />
    <glyph glyph-name="less" unicode="&#x3c;" horiz-adv-x="1220" 
d="M128 710l950 370v-196l-713 -258l713 -260v-196l-950 370v170z" />
    <glyph glyph-name="equal" unicode="=" horiz-adv-x="1220" 
d="M134 720v170h950v-170h-950zM134 360v170h950v-170h-950z" />
    <glyph glyph-name="greater" unicode="&#x3e;" horiz-adv-x="1220" 
d="M142 884v196l950 -370v-170l-950 -370v196l713 260z" />
    <glyph glyph-name="question" unicode="?" horiz-adv-x="870" 
d="M645 1235q84 -45 130.5 -121.5t46.5 -165.5q0 -126 -93.5 -230.5t-260.5 -173.5v-194h-146l-56 252q160 82 222 152t62 146q0 78 -49 125t-141 47q-91 0 -149.5 -47t-96.5 -151l-84 26q39 189 152 284.5t270 95.5q109 0 193 -45zM462 235q32 -19 51 -50.5t19 -66.5
q0 -36 -19 -68t-51 -51t-68 -19q-35 0 -67 19t-51.5 51t-19.5 68q0 35 19.5 66.5t51.5 50.5t67 19q36 0 68 -19z" />
    <glyph glyph-name="at" unicode="@" horiz-adv-x="1776" 
d="M1368.5 1095q164.5 -83 253 -234.5t88.5 -352.5q0 -151 -67.5 -274.5t-180.5 -193.5t-244 -70q-101 0 -164 51.5t-85 146.5q-74 -100 -154.5 -150t-158.5 -50q-63 0 -121.5 33t-95.5 97t-37 152q0 122 91 259.5t228.5 230t266.5 92.5q55 0 100.5 -20t74.5 -60l145 78h28
l-138 -558q-21 -81 -21 -132q0 -49 20 -71.5t63 -22.5q73 0 136 60.5t100.5 162.5t37.5 221q0 200 -66 337t-190 206t-298 69q-221 0 -391 -110t-262.5 -294t-92.5 -398q0 -199 60.5 -337t160.5 -206.5t219 -68.5q114 0 230.5 52.5t217.5 163.5l34 -46q-101 -126 -237 -185
t-285 -59q-156 0 -288 85.5t-210 238.5t-78 344q0 228 126.5 435.5t339.5 334t460 126.5q220 0 384.5 -83zM863 181q50 39 95 106l90 362q-56 57 -130 57q-69 0 -133 -54t-103.5 -145t-39.5 -195q0 -86 32.5 -128t93.5 -42q45 0 95 39z" />
    <glyph glyph-name="A" unicode="A" horiz-adv-x="1322" 
d="M1211 88h123v-88h-542v88h126l-119 288h-429l-40 -102q-23 -60 -29.5 -85.5t-6.5 -44.5q0 -29 26 -40t90 -18l80 -8v-78h-494v88h142l384 962l-76 186v14h276zM579 913l-163 -417h334z" />
    <glyph glyph-name="B" unicode="B" horiz-adv-x="1252" 
d="M806 662q195 -14 287.5 -92.5t92.5 -205.5q0 -107 -65 -189.5t-183 -128.5t-270 -46h-592v88h150v1074h-150v88h600q202 0 316 -69t114 -211q0 -117 -78.5 -192.5t-221.5 -112.5v-3zM496 1162v-476h94q226 0 226 274q0 107 -53 154.5t-173 47.5h-94zM670 88q112 0 169 67
t57 197t-66.5 189t-209.5 59h-124v-378q0 -56 13.5 -84.5t41.5 -39t79 -10.5h40z" />
    <glyph glyph-name="C" unicode="C" horiz-adv-x="1324" 
d="M1282 554q-60 -285 -212 -434.5t-378 -149.5q-172 0 -315 84.5t-225 225t-82 300.5q0 179 87 340.5t237 260.5t328 99q167 0 307 -95l77 75h54v-520h-60q-232 386 -498 386q-91 0 -161 -38.5t-109.5 -115t-39.5 -186.5q0 -158 66.5 -291t186 -211t269.5 -78
q155 0 253.5 97.5t142.5 270.5z" />
    <glyph glyph-name="D" unicode="D" horiz-adv-x="1500" 
d="M76 0v88h150v1074h-150v88h546q248 0 429.5 -71.5t279 -207t97.5 -321.5q0 -187 -92 -334.5t-271.5 -231.5t-430.5 -84h-558zM1023.5 217.5q114.5 127.5 114.5 398.5q0 266 -143 405t-421 139h-78v-908q0 -76 11.5 -108t46 -43t114.5 -11q241 0 355.5 127.5z" />
    <glyph glyph-name="E" unicode="E" horiz-adv-x="1230" 
d="M1142 464v-464h-1066v88h150v1074h-150v88h1006v-426h-60q-39 136 -92.5 206.5t-147.5 100t-260 29.5h-32v-488q117 2 176 22.5t80.5 59.5t25.5 110h64v-494h-64q-4 79 -25.5 122t-80.5 65.5t-176 24.5v-336q0 -63 13.5 -96t44.5 -46.5t88 -13.5h70q100 0 170 28.5
t122.5 110t83.5 235.5h60z" />
    <glyph glyph-name="F" unicode="F" horiz-adv-x="1170" 
d="M76 1250h1046v-426h-60q-39 137 -91 207.5t-141 99.5t-248 29h-86v-506h22q122 0 184.5 20t85 60.5t26.5 113.5h64v-498h-64q-4 80 -26.5 124.5t-85 67t-184.5 22.5h-22v-476h200v-88h-620v88h150v1074h-150v88z" />
    <glyph glyph-name="G" unicode="G" horiz-adv-x="1388" 
d="M1358 578v-90h-116v-508h-50l-192 220h-18q-56 -127 -127.5 -178.5t-178.5 -51.5q-163 0 -302 83t-220.5 224.5t-81.5 308.5q0 180 88 340t234.5 257t313.5 97q173 0 322 -99l86 79h44v-186l2 -2l-2 1v-317h-50q-109 178 -231 274t-275 96q-149 0 -230.5 -87.5
t-81.5 -256.5q0 -164 63.5 -295.5t173.5 -206t245 -74.5q93 0 140.5 40.5t47.5 131.5v110h-242v90h638z" />
    <glyph glyph-name="H" unicode="H" horiz-adv-x="1560" 
d="M1484 1250v-88h-150v-1074h150v-88h-570v88h150v502h-568v-502h150v-88h-570v88h150v1074h-150v88h570v-88h-150v-474h568v474h-150v88h570z" />
    <glyph glyph-name="I" unicode="I" horiz-adv-x="722" 
d="M496 1162v-1074h150v-88h-570v88h150v1074h-150v88h570v-88h-150z" />
    <glyph glyph-name="J" unicode="J" horiz-adv-x="692" 
d="M634 1162h-150v-994q0 -109 -43.5 -186.5t-137 -148t-271.5 -169.5l-30 56q85 57 130 110t63.5 119.5t18.5 168.5v1044h-170v88h590v-88z" />
    <glyph glyph-name="K" unicode="K" horiz-adv-x="1402" 
d="M1284 88h126v-88h-582v88h125l-334 498l-123 -122v-376h150v-88h-570v88h150v1074h-150v88h570v-88h-150v-551l358 353q71 70 90.5 104t19.5 56q0 20 -15 31.5t-55 14.5l-50 4v76h486v-88h-130l-396 -393z" />
    <glyph glyph-name="L" unicode="L" horiz-adv-x="1206" 
d="M496 242q0 -68 13 -99t48 -42t113 -11h60q92 0 156 33t114 118t92 241h60v-482h-1076v88h150v1074h-150v88h570v-88h-150v-920z" />
    <glyph glyph-name="M" unicode="M" horiz-adv-x="1798" 
d="M1626 88h150v-88h-590v88h170l-103 918l-403 -1006h-62l-387 1039l-87 -777q-4 -35 -4 -68q0 -45 11 -68t34 -31.5t65 -10.5l80 -4v-80h-474v88h150l116 986q2 16 2 22q0 34 -23.5 50t-80.5 20l-54 4v80h468l295 -825l327 825h410v-88h-141z" />
    <glyph glyph-name="N" unicode="N" horiz-adv-x="1464" 
d="M944 1250h464v-88h-144l-10 -318v-844h-76l-826 855v-611q0 -67 11.5 -98.5t40.5 -44t92 -17.5l50 -4v-80h-464v88h144l10 258v586q0 79 -13.5 119.5t-41 61t-87.5 47.5l-32 14v76h274l692 -714l110 -118v588q0 67 -11.5 98.5t-40.5 44t-92 17.5l-50 4v80z" />
    <glyph glyph-name="O" unicode="O" horiz-adv-x="1466" 
d="M388.5 51q-146.5 81 -231.5 223t-85 316q0 185 86.5 343.5t242.5 252.5t353 94q176 0 322.5 -75.5t232 -211.5t85.5 -309q0 -191 -87 -355t-243 -261.5t-352 -97.5q-177 0 -323.5 81zM1009.5 173.5q69.5 43.5 108 128t38.5 204.5q0 158 -75 300t-199 228t-262 86
q-94 0 -163.5 -40t-108 -119t-38.5 -193q0 -161 76.5 -308.5t201.5 -238.5t260 -91q92 0 161.5 43.5z" />
    <glyph glyph-name="P" unicode="P" horiz-adv-x="1214" 
d="M76 1162v88h598q253 0 382.5 -88t129.5 -256q0 -122 -67 -214t-193 -143t-298 -51h-142v-410h190v-88h-600v88h150v1074h-150zM626 588q132 0 201 76t69 218q0 134 -72.5 206t-223.5 72h-114v-572h140z" />
    <glyph glyph-name="Q" unicode="Q" horiz-adv-x="1466" 
d="M1564 -106q-107 -96 -184 -149t-147.5 -77t-152.5 -24q-199 0 -434 329q-162 15 -293 99t-206 219.5t-75 298.5q0 185 86.5 343.5t242.5 252.5t353 94q176 0 322.5 -75.5t232 -211.5t85.5 -309q0 -169 -69 -318.5t-194.5 -251.5t-288.5 -132q106 -71 202.5 -106.5
t171.5 -35.5q84 0 167.5 29t150.5 75zM386.5 459.5q76.5 -147.5 201.5 -238.5t260 -91q92 0 161.5 43.5t108 128t38.5 204.5q0 158 -75 300t-199 228t-262 86q-94 0 -163.5 -40t-108 -119t-38.5 -193q0 -161 76.5 -308.5z" />
    <glyph glyph-name="R" unicode="R" horiz-adv-x="1388" 
d="M1304 100q51 -32 105 -32q9 0 27 2v-72q-41 -4 -100 -7t-96 -3q-108 0 -186.5 34.5t-151.5 127.5q-40 51 -84.5 114t-71.5 103t-41 61q-37 56 -99 146h-110v-486h150v-88h-570v88h150v1074h-150v88h644q137 0 242.5 -34t165.5 -103t60 -171q0 -126 -85 -208t-238 -123
l20 -26q92 -119 157 -200.5t148 -178.5q63 -74 114 -106zM496 1160v-496h156q129 20 187.5 80.5t58.5 177.5q0 119 -59.5 178.5t-186.5 59.5h-156z" />
    <glyph glyph-name="S" unicode="S" horiz-adv-x="1114" 
d="M754 724q150 -43 216 -123t66 -213q0 -120 -48 -214.5t-143.5 -149t-232.5 -54.5q-103 0 -192 32t-184 96l-76 -98h-58v492h66q86 -160 220 -254t288 -94q101 0 161.5 44.5t60.5 121.5q0 54 -38.5 88t-127.5 60l-308 88q-161 46 -234.5 130.5t-73.5 219.5q0 120 53 206.5
t146 132t211 45.5q89 0 165.5 -26.5t147.5 -77.5l67 92h58v-444h-60q-105 135 -228.5 208.5t-251.5 73.5q-81 0 -125.5 -33t-44.5 -103q0 -52 35.5 -88t112.5 -58z" />
    <glyph glyph-name="T" unicode="T" horiz-adv-x="1278" 
d="M1222 784h-74q-25 150 -69.5 230t-116 112t-188.5 34v-1072h192v-88h-654v88h192v1072q-117 -2 -188.5 -33t-116 -111.5t-69.5 -231.5h-74v466h1166v-466z" />
    <glyph glyph-name="U" unicode="U" horiz-adv-x="1412" 
d="M914 1250h458v-88h-144l-10 -318v-276q0 -296 -126.5 -447t-367.5 -151q-164 0 -284 63t-184 180t-64 277v672h-150v88h570v-88h-150v-612q0 -133 33 -215.5t105.5 -122.5t191.5 -40q113 0 182 37t101.5 119t32.5 218v460q0 67 -11.5 98.5t-40.5 44t-92 17.5l-50 4v80z
" />
    <glyph glyph-name="V" unicode="V" horiz-adv-x="1262" 
d="M1280 1250v-88h-132l-468 -1172h-102l-463 1172h-115v88h532v-88h-118l294 -811l214 563q33 85 42.5 121t9.5 61q0 33 -22.5 47.5t-83.5 20.5l-80 8v78h492z" />
    <glyph glyph-name="W" unicode="W" horiz-adv-x="1884" 
d="M1900 1250v-88h-138l-432 -1172h-102l-271 718l-297 -718h-102l-443 1172h-115v88h532v-88h-124l292 -802l199 501l-114 301h-105v88h532v-88h-134l286 -785l192 537q32 91 42 126t10 56q0 33 -22.5 47.5t-83.5 20.5l-74 8v78h472z" />
    <glyph glyph-name="X" unicode="X" horiz-adv-x="1326" 
d="M1198 88h138v-88h-622v88h163l-281 431l-184 -277l-12 -19q-25 -37 -36.5 -58.5t-11.5 -34.5q0 -20 17 -30t65 -14l90 -8v-78h-502v88h145l360 537l-350 537h-147v88h602v-88h-140l234 -355l94 145q53 83 72.5 120t19.5 50q0 19 -15 28.5t-63 13.5l-90 8v78h502v-88h-146
l-310 -453z" />
    <glyph glyph-name="Y" unicode="Y" horiz-adv-x="1244" 
d="M1149 1162l-387 -648v-426h170v-88h-610v88h170v408l-405 666h-95v88h526v-88h-118l304 -514l152 256q48 80 66 126t18 74q0 18 -8 28.5t-27 17t-57 12.5l-56 10v78h440v-88h-83z" />
    <glyph glyph-name="Z" unicode="Z" horiz-adv-x="1188" 
d="M1126 490l-52 -490h-1004v60l651 1090h-103q-145 0 -236 -31t-144 -99.5t-78 -185.5h-70l28 416h928v-62l-640 -1086h208q145 0 226.5 36t128.5 118.5t87 241.5z" />
    <glyph glyph-name="bracketleft" unicode="[" horiz-adv-x="686" 
d="M438 1250v-1370h220v-120h-490v1610h490v-120h-220z" />
    <glyph glyph-name="backslash" unicode="\" horiz-adv-x="838" 
d="M254 1370l560 -1602h-230l-560 1602h230z" />
    <glyph glyph-name="bracketright" unicode="]" horiz-adv-x="686" 
d="M28 1250v120h490v-1610h-490v120h220v1370h-220z" />
    <glyph glyph-name="asciicircum" unicode="^" horiz-adv-x="1220" 
d="M700 1250l370 -850h-196l-264 633l-266 -633h-196l372 850h180z" />
    <glyph glyph-name="underscore" unicode="_" horiz-adv-x="1172" 
d="M1086 -198h-1000v132h1000v-132z" />
    <glyph glyph-name="grave" unicode="`" horiz-adv-x="1020" 
d="M530 986l-314 324h284l90 -324h-60z" />
    <glyph glyph-name="a" unicode="a" horiz-adv-x="998" 
d="M478 0.5q-57 -30.5 -130 -30.5q-74 0 -135 28.5t-97 80.5t-36 117q0 77 54 125.5t172 72.5l252 52l4 52q1 9 1 27q0 86 -48 127.5t-149 41.5q-89 0 -161.5 -38t-142.5 -122l-38 32q83 134 159 211t153 110t170 33q147 0 232 -91.5t82 -272.5l-6 -308q-1 -66 22 -94
t66 -28q29 0 49 18t41 56l44 -22q-41 -106 -102 -157t-138 -51q-63 0 -111 31.5t-93 92.5q-57 -63 -114 -93.5zM562 364l-72 -20q-52 -15 -80 -28t-41 -30.5t-13 -45.5q0 -38 19.5 -69t50.5 -48t64 -17q39 0 58.5 24.5t17.5 67.5z" />
    <glyph glyph-name="b" unicode="b" horiz-adv-x="1058" 
d="M843.5 866q74.5 -54 116.5 -148t42 -210q0 -159 -72.5 -282t-182.5 -189.5t-217 -66.5q-176 0 -410 156v968q0 37 -13 55.5t-55 44.5l-72 44v48l376 114h20v-550l-8 -150q46 109 130.5 164.5t177.5 55.5t167.5 -54zM768 176q44 46 44 136q0 86 -34.5 178t-102.5 154
t-163 62q-73 0 -104.5 -37.5t-31.5 -130.5v-30l-5 -216q50 -86 121.5 -124t147.5 -38q84 0 128 46z" />
    <glyph glyph-name="c" unicode="c" horiz-adv-x="846" 
d="M309 701.5q-45 -50.5 -45 -147.5q0 -92 44 -176.5t119 -136t163 -51.5q60 0 107.5 31t78.5 95l42 -18q-43 -161 -133 -244.5t-235 -83.5q-119 0 -208 57t-137.5 157.5t-48.5 227.5q0 143 62 259t166.5 182.5t227.5 66.5q100 0 173.5 -44t102.5 -130l-90 -134h-28
q-68 72 -121.5 106t-118.5 34q-76 0 -121 -50.5z" />
    <glyph glyph-name="d" unicode="d" horiz-adv-x="1104" 
d="M956 172q16 -38 46 -56t78 -24v-58l-362 -64l-24 2l-8 197q-58 -107 -135.5 -153t-162.5 -46q-100 0 -174.5 55.5t-115 152.5t-40.5 216q0 153 65.5 273.5t173 186.5t227.5 66q82 0 160 -36v210q0 39 -14 58t-54 42l-72 44v48l376 114h20v-1126q0 -64 16 -102zM653 220
q31 36 31 120v252q-48 80 -117 124t-147 44q-82 0 -127 -49.5t-45 -146.5q0 -95 41.5 -183t113.5 -142.5t157 -54.5q62 0 93 36z" />
    <glyph glyph-name="e" unicode="e" horiz-adv-x="970" 
d="M956 380q-59 -204 -180 -307t-294 -103q-122 0 -218 56t-151 164t-55 258q0 139 55 246.5t151 166.5t216 59q106 0 190.5 -47t135 -148t50.5 -255h-580q16 -86 63 -155t116 -108t149 -39q108 0 184.5 58t119.5 168zM311.5 743q-39.5 -57 -43.5 -165h323q-7 108 -49 165
t-116 57q-75 0 -114.5 -57z" />
    <glyph glyph-name="f" unicode="f" horiz-adv-x="770" 
d="M56 0v84h150v648h-172v46l172 112v28q0 133 52 243.5t140 174.5t190 64q71 0 133 -28t113 -80l-72 -150l-12 -6q-172 82 -286 82q-48 0 -77 -23.5t-29 -62.5q0 -41 30 -98l74 -144h324l-78 -158h-246v-648h190v-84h-596z" />
    <glyph glyph-name="g" unicode="g" horiz-adv-x="952" 
d="M676 180q134 -7 192 -53t58 -133q0 -97 -65 -188t-186.5 -148.5t-280.5 -57.5q-103 0 -185.5 24t-129.5 68.5t-47 103.5q0 52 40 101t141 113q-151 99 -151 196q0 46 35.5 89t122.5 98q-70 38 -103 97t-33 126q0 91 45 159.5t128 106.5t195 38h468v-132h-157
q53 -67 53 -156q0 -110 -76 -189t-242 -109l-190 -34q-77 -14 -102.5 -26t-25.5 -30q0 -15 10 -23.5t40.5 -14t91.5 -8.5zM345.5 787.5q-31.5 -44.5 -31.5 -137.5q0 -71 19 -123.5t52 -80.5t75 -28q55 0 90.5 46t35.5 138q0 68 -20.5 120t-56 81t-79.5 29q-53 0 -84.5 -44.5
zM734.5 -197.5q63.5 20.5 63.5 63.5q0 104 -382 104q-56 0 -160 -4q-26 -23 -26 -56q0 -61 86 -94.5t236 -33.5q119 0 182.5 20.5z" />
    <glyph glyph-name="h" unicode="h" horiz-adv-x="1188" 
d="M28 0v84h140v1010q0 39 -14 58t-54 42l-72 44v48l376 114h20v-480l-8 -198h16q51 87 136.5 142.5t179.5 55.5q80 0 144.5 -39t101 -112.5t34.5 -170.5l-10 -514h140v-84h-520v84h124v450q0 89 -56 130.5t-150 41.5q-71 0 -101.5 -40t-30.5 -120v-462h124v-84h-520z" />
    <glyph glyph-name="i" unicode="i" horiz-adv-x="626" 
d="M240.5 1009q-38.5 23 -61.5 61.5t-23 81.5q0 44 23 82.5t61.5 61t81.5 22.5q44 0 82.5 -22.5t61 -61t22.5 -82.5q0 -43 -22.5 -81.5t-61 -61.5t-82.5 -23q-43 0 -81.5 23zM598 84v-84h-556v84h150v530q0 39 -14 58t-54 42l-72 44v48l376 114h20v-836h150z" />
    <glyph glyph-name="j" unicode="j" horiz-adv-x="558" 
d="M206.5 1009q-38.5 23 -61.5 61.5t-23 81.5q0 44 23 82.5t61.5 61t81.5 22.5q44 0 82.5 -22.5t61 -61t22.5 -82.5q0 -43 -22.5 -81.5t-61 -61.5t-82.5 -23q-43 0 -81.5 23zM-54 -138l12 6q65 -40 92.5 -53t57.5 -13q24 0 42 18q11 15 16.5 40.5t5.5 77.5v676
q0 37 -13 55.5t-55 44.5l-72 44v48l376 114h20v-764q0 -128 -75 -257.5t-185 -214t-206 -84.5q-79 0 -130 62z" />
    <glyph glyph-name="k" unicode="k" horiz-adv-x="1148" 
d="M1050 84h110v-84h-492v84h82l-217 312l-103 -97v-215h150v-84h-556v84h150v1010q0 39 -14 58t-54 42l-72 44v48l376 114h20v-987l202 193q59 57 87.5 87.5t39.5 48.5t11 34q0 18 -14.5 29t-55.5 15l-50 6v64h446v-84h-124l-261 -244z" />
    <glyph glyph-name="l" unicode="l" horiz-adv-x="612" 
d="M584 84v-84h-556v84h150v1010q0 39 -14 58t-54 42l-72 44v48l376 114h20v-1316h150z" />
    <glyph glyph-name="m" unicode="m" horiz-adv-x="1766" 
d="M42 0v84h150v540q0 41 -14.5 61t-53.5 39l-72 34v48l376 114h20l-8 -198h16q51 87 129.5 142.5t166.5 55.5q89 0 155.5 -52t96.5 -146h16q50 86 133.5 142t172.5 56q80 0 144.5 -39t101 -112.5t34.5 -170.5l-10 -514h150v-84h-510v84h104v450q0 88 -50.5 130t-135.5 42
q-71 0 -101.5 -40t-30.5 -120v-462h150v-84h-510v84h104v450q0 88 -50.5 130t-135.5 42q-71 0 -101.5 -40t-30.5 -120v-462h124v-84h-530z" />
    <glyph glyph-name="n" unicode="n" horiz-adv-x="1212" 
d="M478.5 666q-30.5 -40 -30.5 -120v-462h124v-84h-530v84h150v540q0 41 -14.5 61t-53.5 39l-72 34v48l376 114h20l-8 -198h16q51 87 136.5 142.5t179.5 55.5q80 0 144.5 -38t101 -108.5t34.5 -165.5l-10 -524h150v-84h-530v84h124v450q0 89 -56 130.5t-150 41.5
q-71 0 -101.5 -40z" />
    <glyph glyph-name="o" unicode="o" horiz-adv-x="1054" 
d="M788.5 864q100.5 -56 156 -156.5t55.5 -229.5q0 -138 -70 -254.5t-187 -185t-249 -68.5q-128 0 -228.5 56t-156 156.5t-55.5 229.5q0 138 70 254.5t187 185t249 68.5q128 0 228.5 -56zM306 707q-36 -47 -36 -127q0 -108 57 -211.5t144.5 -168t170.5 -64.5q72 0 107 47.5
t35 126.5q0 108 -56 211.5t-142.5 168t-171.5 64.5q-72 0 -108 -47z" />
    <glyph glyph-name="p" unicode="p" horiz-adv-x="1110" 
d="M426 7v-293h190v-84h-596v84h150v910q0 41 -14.5 61t-53.5 39l-72 34v48l366 114h20v-225q46 112 129.5 168.5t178.5 56.5q91 0 165.5 -49t118.5 -141.5t44 -215.5q0 -171 -69 -294.5t-177 -186.5t-222 -63q-88 0 -158 37zM464 667.5q-38 -38.5 -38 -129.5v-240
q53 -89 122.5 -128.5t145.5 -39.5q82 0 125 46.5t43 139.5q0 100 -41 190t-110 145t-147 55q-62 0 -100 -38.5z" />
    <glyph glyph-name="q" unicode="q" horiz-adv-x="1072" 
d="M1090 -286v-84h-566v84h160v450q-58 -104 -135 -149t-161 -45q-100 0 -174.5 55.5t-115 152.5t-40.5 216q0 153 65.5 273.5t173 186.5t227.5 66q63 0 118 -19t114 -58l158 77h26v-1206h150zM653 220q31 36 31 120v252q-48 80 -117 124t-147 44q-82 0 -127 -49.5
t-45 -146.5q0 -95 41.5 -183t113.5 -142.5t157 -54.5q62 0 93 36z" />
    <glyph glyph-name="r" unicode="r" horiz-adv-x="878" 
d="M796.5 892q47.5 -28 77.5 -86l-98 -182h-16l-26 13q-58 30 -90 42.5t-68 12.5q-62 0 -95 -38t-33 -114v-456h190v-84h-596v84h150v540q0 41 -14.5 61t-53.5 39l-72 34v48l372 114h20l-10 -212h14q99 212 246 212q55 0 102.5 -28z" />
    <glyph glyph-name="s" unicode="s" horiz-adv-x="818" 
d="M544 538q113 -55 159.5 -125t46.5 -153q0 -86 -44 -152t-121.5 -102t-176.5 -36q-88 0 -168 26.5t-144 73.5l-28 262h42q68 -134 138 -192t148 -58q58 0 87 28t29 74q0 42 -26 75t-84 61l-110 54q-109 53 -156.5 129t-47.5 159q0 75 36 134t102 91.5t152 32.5
q124 0 216 -70l80 56h28l14 -318h-40q-87 122 -153.5 174t-124.5 52q-40 0 -63 -22.5t-23 -63.5q0 -43 29 -74.5t95 -63.5z" />
    <glyph glyph-name="t" unicode="t" horiz-adv-x="780" 
d="M289 4.5q-59 34.5 -93 105t-34 174.5v448h-136v54q119 60 201 145.5t127 190.5h64v-232h324l-78 -158h-246v-400q0 -74 31 -106t91 -32q57 0 106.5 28t93.5 90l38 -22q-130 -320 -356 -320q-74 0 -133 34.5z" />
    <glyph glyph-name="u" unicode="u" horiz-adv-x="1160" 
d="M736 144q-55 -85 -125 -129.5t-163 -44.5q-85 0 -148.5 40.5t-97.5 116t-34 177.5v300q0 43 -13.5 64.5t-54.5 45.5l-72 44v48l374 114h22v-564q0 -88 47.5 -135t130.5 -47q71 0 101.5 35t30.5 109v286q0 43 -13.5 64.5t-54.5 45.5l-72 44v48l374 114h22v-664
q0 -88 34 -125t106 -47v-50l-352 -64h-34z" />
    <glyph glyph-name="v" unicode="v" horiz-adv-x="1022" 
d="M630 890h404v-84h-90l-392 -820h-94l-367 820h-89v84h462v-84h-95l213 -505l156 357q28 62 28 96q0 25 -15 37.5t-47 16.5l-74 8v74z" />
    <glyph glyph-name="w" unicode="w" horiz-adv-x="1616" 
d="M1222 890h408v-84h-94l-386 -820h-100l-240 550l-260 -550h-100l-358 820h-88v84h468v-84h-93l203 -499l168 367l-58 132h-88v84h468v-84h-93l201 -494l150 346q28 62 28 96q0 25 -15 37.5t-47 16.5l-74 8v74z" />
    <glyph glyph-name="x" unicode="x" horiz-adv-x="1092" 
d="M1000 84h104v-84h-504v84h92l-215 268l-143 -184q-26 -32 -26 -54q0 -15 11.5 -23.5t32.5 -10.5l84 -6v-74h-420v84h100l288 359l-290 363h-94v84h498v-84h-96l177 -221l101 119q36 44 36 70q0 14 -10 21.5t-30 10.5l-76 10v74h410v-84h-94l-268 -308z" />
    <glyph glyph-name="y" unicode="y" horiz-adv-x="1068" 
d="M1082 806h-99l-495 -1092h106v-84h-492v84h121l170 371l-277 721h-108v84h510v-84h-127l179 -500l23 -76l183 426q18 42 26 66.5t8 40.5q0 21 -15.5 30t-52.5 15l-58 8v74h398v-84z" />
    <glyph glyph-name="z" unicode="z" horiz-adv-x="916" 
d="M856 322l-34 -322h-766v60l476 752l-38 -2q-120 -5 -220.5 -56.5t-139.5 -149.5l-56 4l16 282h744v-60l-473 -752l39 2q144 6 253 69.5t143 182.5z" />
    <glyph glyph-name="braceleft" unicode="{" horiz-adv-x="568" 
d="M221 488q-27 20 -87 20h-52v118h52q63 0 96.5 21.5t33.5 62.5q0 46 -19.5 86.5t-60.5 102.5q-47 70 -71.5 123t-24.5 118q0 114 76.5 172t223.5 58h98v-98h-68q-50 0 -76 -19.5t-26 -56.5q0 -33 14.5 -66t46.5 -90q42 -73 64.5 -128.5t22.5 -119.5q0 -81 -47 -139
t-125 -85q78 -27 125 -85t47 -141q0 -64 -22.5 -119.5t-64.5 -128.5q-32 -57 -46.5 -90t-14.5 -66q0 -37 26 -56.5t76 -19.5h68v-98h-98q-147 0 -223.5 58t-76.5 172q0 64 22 116.5t65 124.5q38 63 55.5 103t17.5 86q0 44 -27 64z" />
    <glyph glyph-name="bar" unicode="|" horiz-adv-x="596" 
d="M428 -240h-260v1720h260v-1720z" />
    <glyph glyph-name="braceright" unicode="}" horiz-adv-x="568" 
d="M82 -236v98h68q50 0 76 19.5t26 56.5q0 33 -14.5 66t-46.5 90q-42 73 -64.5 128.5t-22.5 119.5q0 83 47 141t125 85q-78 27 -125 85t-47 139q0 64 22.5 119.5t64.5 128.5q32 57 46.5 90t14.5 66q0 37 -26 56.5t-76 19.5h-68v98h98q146 0 223 -58.5t77 -171.5
q0 -65 -24.5 -118t-71.5 -123q-41 -62 -60.5 -102.5t-19.5 -86.5q0 -41 33.5 -62.5t96.5 -21.5h52v-118h-52q-60 0 -87 -20t-27 -64q0 -46 17.5 -86t55.5 -103q43 -72 65 -124.5t22 -116.5q0 -113 -77 -171.5t-223 -58.5h-98z" />
    <glyph glyph-name="asciitilde" unicode="~" horiz-adv-x="1220" 
d="M138 672q54 50 113 75t131 25q54 0 109 -11.5t130 -33.5q85 -23 135.5 -34t103.5 -11q75 0 131 27t97 83v-190q-54 -52 -112.5 -76t-129.5 -24q-55 0 -110.5 11.5t-134.5 34.5q-78 22 -130 33t-103 11q-150 0 -230 -110v190z" />
    <glyph glyph-name="uni00A0" unicode="&#xa0;" horiz-adv-x="428" 
 />
    <glyph glyph-name="exclamdown" unicode="&#xa1;" horiz-adv-x="512" 
d="M189 645q-32 19 -51.5 50.5t-19.5 66.5q0 36 19.5 68t51.5 51t67 19q36 0 68 -19t51 -51t19 -68q0 -35 -19 -66.5t-51 -50.5t-68 -19q-35 0 -67 19zM150 -361.5q-37 38.5 -37 110.5q0 18 3 41l72 572v168h136v-168l72 -572q3 -23 3 -42q0 -75 -39 -111.5t-104 -36.5
q-69 0 -106 38.5z" />
    <glyph glyph-name="cent" unicode="&#xa2;" horiz-adv-x="928" 
d="M862 478q-79 -291 -306 -324v-154h-100v152q-108 9 -188.5 68t-124 155.5t-43.5 216.5q0 125 48 230.5t131.5 175t186.5 92.5v160h100v-150q96 -2 167 -46t99 -128l-90 -134h-28q-68 72 -121.5 106t-118.5 34q-76 0 -121 -50.5t-45 -147.5q0 -92 44 -176.5t119 -136
t163 -51.5q60 0 107.5 31t78.5 95z" />
    <glyph glyph-name="sterling" unicode="&#xa3;" horiz-adv-x="1070" 
d="M1026 388l-70 -388h-856v162q149 76 216.5 138t67.5 118q0 35 -19.5 66.5t-60.5 79.5h-230v100h149q-28 43 -43.5 88t-15.5 98q0 109 60 208.5t161 160.5t217 61q99 0 184 -49.5t150 -148.5l-92 -150l-14 -6q-114 74 -191.5 106t-166.5 32q-61 0 -98.5 -22t-37.5 -68
q0 -51 35 -103.5t106 -132.5q53 -60 64 -74h287v-100h-221q21 -45 21 -84q0 -45 -25.5 -85t-80 -82t-147.5 -95l263 -14q17 -1 47 -1q76 0 124 18.5t80 61.5t57 121z" />
    <glyph glyph-name="currency" unicode="&#xa4;" horiz-adv-x="1024" 
d="M839.5 533.5q-20.5 -57.5 -57.5 -104.5l86 -95l-68 -58l-82 91q-44 -32 -96 -49.5t-108 -17.5q-63 0 -119.5 21t-102.5 60l-96 -105l-68 58l104 114q-64 91 -64 206q0 57 16.5 110t47.5 97l-104 113l68 58l96 -104q46 39 103 60.5t119 21.5q113 0 205 -68l81 90l68 -58
l-85 -95q37 -47 57 -104.5t20 -120.5t-20.5 -120.5zM612.5 486.5q43.5 24.5 67.5 68.5t24 99q0 56 -24 100t-67.5 68t-98.5 24t-99 -24t-68.5 -68t-24.5 -100q0 -55 24.5 -99t68.5 -68.5t99 -24.5t98.5 24.5z" />
    <glyph glyph-name="yen" unicode="&#xa5;" horiz-adv-x="1306" 
d="M1270 1162h-83l-347 -582h286v-100h-326v-120h326v-100h-326v-172h170v-88h-610v88h170v172h-326v100h326v120h-326v100h275l-354 582h-95v88h526v-88h-118l304 -514l152 256q48 80 66 126t18 74q0 18 -8 28.5t-27 17t-57 12.5l-56 10v78h440v-88z" />
    <glyph glyph-name="brokenbar" unicode="&#xa6;" horiz-adv-x="596" 
d="M428 1480v-668h-260v668h260zM428 -240h-260v668h260v-668z" />
    <glyph glyph-name="section" unicode="&#xa7;" horiz-adv-x="994" 
d="M436.5 956.5q30.5 -56.5 75.5 -101t122 -109.5q90 -76 144 -131.5t92 -132t38 -172.5q0 -133 -68 -240t-180.5 -167.5t-241.5 -60.5h-28q-90 1 -155 15.5t-135 50.5l-42 260l46 22q61 -90 108.5 -142.5t92.5 -77t97 -24.5q95 0 147.5 56t52.5 160q0 67 -30.5 123.5
t-75.5 101t-122 109.5q-90 76 -144 131.5t-92 132t-38 172.5q0 132 64 235t169.5 163.5t226.5 69.5h6q99 0 169.5 -14.5t142.5 -51.5l42 -260l-46 -24q-62 91 -108.5 143t-91.5 76.5t-98 24.5q-80 0 -125 -55t-45 -159q0 -67 30.5 -123.5zM758 119.5q38 71.5 38 158.5
q0 76 -34.5 141.5t-85 117t-135.5 124.5q-85 74 -135.5 125t-85 116.5t-34.5 141.5q0 103 65 201q-67 -51 -102 -122t-35 -159q0 -76 34.5 -141.5t84.5 -117t135 -124.5t135 -124.5t84.5 -117t34.5 -141.5q0 -52 -19.5 -103.5t-54.5 -97.5q72 51 110 122.5z" />
    <glyph glyph-name="dieresis" unicode="&#xa8;" horiz-adv-x="1020" 
d="M241.5 1054q-35.5 36 -35.5 94q0 59 36 95.5t94 36.5t93 -36.5t35 -95.5t-35 -94.5t-93 -35.5q-59 0 -94.5 36zM589.5 1054q-35.5 36 -35.5 94q0 59 36 95.5t94 36.5t94 -36.5t36 -95.5q0 -58 -36 -94t-94 -36q-59 0 -94.5 36z" />
    <glyph glyph-name="copyright" unicode="&#xa9;" horiz-adv-x="1490" 
d="M1069 1193.5q147 -82.5 232 -230.5t85 -337q0 -190 -85 -338.5t-232 -231t-325 -82.5q-179 0 -325 82.5t-230.5 231t-84.5 338.5q0 189 84.5 337t230.5 230.5t325 82.5q178 0 325 -82.5zM1020 141.5q124 71.5 196 198.5t72 286q0 157 -72 283t-196.5 197.5t-275.5 71.5
t-275 -71.5t-195.5 -197.5t-71.5 -283q0 -158 71.5 -285t195.5 -199t275 -72q152 0 276 71.5zM984.5 425.5q63.5 57.5 91.5 160.5l50 -14q-39 -179 -137.5 -272.5t-246.5 -93.5q-114 0 -208 53.5t-148 142t-54 188.5q0 120 54.5 222t152.5 162t223 60q105 0 197 -60l49 46
h36v-328h-50q-66 108 -149 165t-175 57q-75 0 -121.5 -51t-46.5 -145q0 -95 41.5 -175t115 -127.5t167.5 -47.5q95 0 158.5 57.5z" />
    <glyph glyph-name="ordfeminine" unicode="&#xaa;" horiz-adv-x="888" 
d="M415.5 524q-45.5 -24 -104.5 -24t-108 23t-77.5 64.5t-28.5 93.5q0 61 43.5 100.5t137.5 57.5l201 42l4 41q1 7 1 21q0 70 -39 103t-119 33q-71 0 -129 -30.5t-114 -97.5l-31 26q67 107 127.5 169t122.5 88t136 26q117 0 185 -73t66 -218l-5 -247q-1 -52 17.5 -74.5
t53.5 -22.5q23 0 39 14t33 45l35 -18q-65 -166 -192 -166q-51 0 -89.5 25t-73.5 74q-46 -51 -91.5 -75zM483 815l-58 -16q-61 -17 -84 -34t-23 -49q0 -31 15.5 -55.5t40 -38t51.5 -13.5q31 0 46.5 19.5t14.5 53.5z" />
    <glyph glyph-name="guillemotleft" unicode="&#xab;" horiz-adv-x="1114" 
d="M594 858l16 -146l-297 -220l291 -370l-16 -106l-504 356v128zM1014 856l16 -146l-297 -220l291 -370l-16 -106l-504 356v128z" />
    <glyph glyph-name="logicalnot" unicode="&#xac;" horiz-adv-x="1220" 
d="M128 640v170h950v-404h-174v234h-776z" />
    <glyph glyph-name="uni00AD" unicode="&#xad;" horiz-adv-x="770" 
 />
    <glyph glyph-name="registered" unicode="&#xae;" horiz-adv-x="1300" 
d="M927.5 1210.5q125.5 -69.5 198 -194t72.5 -284.5t-72.5 -284.5t-198 -194t-277.5 -69.5q-153 0 -278.5 69.5t-197.5 194t-72 284.5t72 284.5t197.5 194t278.5 69.5q152 0 277.5 -69.5zM887.5 328q104.5 58 163.5 163t59 241t-59 240.5t-163.5 162t-237.5 57.5
t-237.5 -57.5t-163.5 -162t-59 -240.5t59 -241t163.5 -163t237.5 -58t237.5 58zM953 495q17 -11 39 -13v-48q-48 -8 -88 -8q-49 0 -90.5 18.5t-79.5 63.5q-18 21 -44 60l-34 51q-46 72 -73 107h-5v-232h54v-58h-292v58h78v504h-78v58h358q101 0 163.5 -40t62.5 -118
q0 -68 -48 -110.5t-127 -52.5q30 -40 79 -101t80 -96q28 -32 45 -43zM578 998v-220h52q124 0 124 112q0 54 -29.5 81t-94.5 27h-52z" />
    <glyph glyph-name="macron" unicode="&#xaf;" horiz-adv-x="1020" 
d="M810 1054h-600v120h600v-120z" />
    <glyph glyph-name="degree" unicode="&#xb0;" horiz-adv-x="636" 
d="M191 806.5q-59 34.5 -94 92.5t-35 127t35 127t94 92.5t127 34.5t127 -34.5t94 -92.5t35 -127t-35 -127t-94 -92.5t-127 -34.5t-127 34.5zM383 913.5q30 17.5 47.5 47.5t17.5 65t-17.5 65t-47.5 47.5t-65 17.5t-65 -17.5t-47.5 -47.5t-17.5 -65t17.5 -65t47.5 -47.5
t65 -17.5t65 17.5z" />
    <glyph glyph-name="plusminus" unicode="&#xb1;" horiz-adv-x="1220" 
d="M1086 810v-170h-390v-350h390v-170h-950v170h390v350h-390v170h390v350h170v-350h390z" />
    <glyph glyph-name="uni00B2" unicode="&#xb2;" horiz-adv-x="566" 
d="M532 1022l-48 -198h-448v82q278 187 278 340q0 47 -23.5 68.5t-62.5 21.5q-45 0 -82 -25t-60 -75l-48 20q36 107 105.5 157.5t146.5 50.5q49 0 93 -19t71.5 -57.5t27.5 -93.5q0 -159 -261 -340h115q48 0 75.5 7t43.5 23t27 46z" />
    <glyph glyph-name="uni00B3" unicode="&#xb3;" horiz-adv-x="526" 
d="M441.5 1113.5q38.5 -42.5 38.5 -105.5q0 -57 -30 -103t-83 -72.5t-121 -26.5q-70 0 -130 34.5t-88 93.5l44 82l12 4q39 -51 77.5 -72.5t88.5 -21.5q49 0 79.5 22.5t30.5 53.5q0 56 -56.5 81t-151.5 23l-8 44q76 21 115 57.5t39 76.5q0 30 -22 49t-58 19q-78 0 -132 -100
l-44 24q30 89 92 137.5t144 48.5q84 0 136 -41.5t52 -108.5q0 -43 -33.5 -78t-97.5 -56q68 -22 106.5 -64.5z" />
    <glyph glyph-name="acute" unicode="&#xb4;" horiz-adv-x="1020" 
d="M542 986h-60l90 324h284z" />
    <glyph glyph-name="uni00B5" unicode="&#xb5;" horiz-adv-x="1164" 
d="M994 256q0 -88 34 -125t106 -47v-50l-352 -64h-34l-8 174q-55 -85 -125 -129.5t-163 -44.5q-14 0 -38 2l14 -342h-256v974q0 43 -13.5 64.5t-54.5 45.5l-72 44v48l374 114h22v-564q0 -88 47.5 -135t130.5 -47q71 0 101.5 35t30.5 109v286q0 43 -13.5 64.5t-54.5 45.5
l-72 44v48l374 114h22v-664z" />
    <glyph glyph-name="paragraph" unicode="&#xb6;" horiz-adv-x="1190" 
d="M1122 1250v-94h-140v-1256h-270v1256h-112v-1254h-190v525q-98 10 -177 58t-126 136.5t-47 214.5q0 146 67.5 238.5t181.5 134t259 41.5h554z" />
    <glyph glyph-name="periodcentered" unicode="&#xb7;" horiz-adv-x="476" 
d="M162.5 479.5q-35.5 21.5 -57 57t-21.5 75.5t21.5 75.5t57 57t75.5 21.5t75.5 -21.5t57 -57t21.5 -75.5t-21.5 -75.5t-57 -57t-75.5 -21.5t-75.5 21.5z" />
    <glyph glyph-name="cedilla" unicode="&#xb8;" horiz-adv-x="1020" 
d="M501 -93q110 -11 167.5 -62.5t57.5 -138.5q0 -60 -26 -106t-71.5 -71t-102.5 -25q-69 0 -130 35.5t-106 92.5l62 86h16q51 -44 88.5 -62t81.5 -18q36 0 57 14t21 42q0 41 -53.5 60.5t-162.5 19.5l-24 16l86 218h82z" />
    <glyph glyph-name="uni00B9" unicode="&#xb9;" horiz-adv-x="464" 
d="M456 890v-68h-412v68h130v424h-136v56q67 10 121.5 31t106.5 61h66v-572h124z" />
    <glyph glyph-name="ordmasculine" unicode="&#xba;" horiz-adv-x="874" 
d="M648 1215q80 -45 124.5 -125.5t44.5 -183.5q0 -110 -56 -203.5t-149.5 -148t-199.5 -54.5q-103 0 -183 45t-124.5 125.5t-44.5 183.5q0 110 56 203.5t149.5 148t199.5 54.5q103 0 183 -45zM261.5 1089.5q-28.5 -37.5 -28.5 -101.5q0 -86 46 -168.5t115.5 -134.5
t136.5 -52q57 0 85 37.5t28 101.5q0 87 -45 169.5t-114 134t-137 51.5q-58 0 -86.5 -37.5z" />
    <glyph glyph-name="guillemotright" unicode="&#xbb;" horiz-adv-x="1114" 
d="M106 856l504 -356v-128l-510 -358l-16 146l297 220l-291 370zM510 748l16 106l504 -356v-128l-510 -358l-16 146l297 220z" />
    <glyph glyph-name="onequarter" unicode="&#xbc;" horiz-adv-x="1342" 
d="M476 694v-68h-412v68h130v424h-136v56q67 10 121.5 31t106.5 61h66v-572h124zM1176 1250l-794 -1250h-162l794 1250h162zM1308 254v-106h-134v-78h106v-70h-380v70h116v78h-270v106l276 380h152v-380h134zM1016 484l-163 -230h163v230z" />
    <glyph glyph-name="onehalf" unicode="&#xbd;" horiz-adv-x="1424" 
d="M482 694v-68h-412v68h130v424h-136v56q67 10 121.5 31t106.5 61h66v-572h124zM1182 1250l-794 -1250h-162l794 1250h162zM1380 200l-48 -198h-448v82q278 187 278 340q0 47 -23.5 68.5t-62.5 21.5q-45 0 -82 -25t-60 -75l-48 20q36 107 105.5 157.5t146.5 50.5
q49 0 93 -19t71.5 -57.5t27.5 -93.5q0 -159 -261 -340h115q48 0 75.5 7t43.5 23t27 46z" />
    <glyph glyph-name="threequarters" unicode="&#xbe;" horiz-adv-x="1344" 
d="M471.5 917.5q38.5 -42.5 38.5 -105.5q0 -57 -30 -103t-83 -72.5t-121 -26.5q-70 0 -130 34.5t-88 93.5l44 82l12 4q39 -51 77.5 -72.5t88.5 -21.5q49 0 79.5 22.5t30.5 53.5q0 56 -56.5 81t-151.5 23l-8 44q76 21 115 57.5t39 76.5q0 30 -22 49t-58 19q-78 0 -132 -100
l-44 24q30 89 92 137.5t144 48.5q84 0 136 -41.5t52 -108.5q0 -43 -33.5 -78t-97.5 -56q68 -22 106.5 -64.5zM1170 1250l-794 -1250h-162l794 1250h162zM1302 254v-106h-134v-78h106v-70h-380v70h116v78h-270v106l276 380h152v-380h134zM1010 484l-163 -230h163v230z" />
    <glyph glyph-name="questiondown" unicode="&#xbf;" horiz-adv-x="858" 
d="M400 645q-32 19 -51 50.5t-19 66.5q0 36 19 68t51 51t68 19q35 0 67 -19t51.5 -51t19.5 -68q0 -35 -19.5 -66.5t-51.5 -50.5t-67 -19q-36 0 -68 19zM832 -20q-39 -189 -152 -284.5t-270 -95.5q-109 0 -193 45t-130.5 121.5t-46.5 165.5q0 126 93.5 230.5t260.5 173.5v194
h146l56 -252q-160 -82 -222 -152t-62 -146q0 -78 49 -125t141 -47q91 0 149.5 47t96.5 151z" />
    <glyph glyph-name="Agrave" unicode="&#xc0;" horiz-adv-x="1322" 
d="M1211 88h123v-88h-542v88h126l-119 288h-429l-40 -102q-23 -60 -29.5 -85.5t-6.5 -44.5q0 -29 26 -40t90 -18l80 -8v-78h-494v88h142l384 962l-76 186v14h276zM579 913l-163 -417h334zM560 1330l-316 306h284l112 -306h-80z" />
    <glyph glyph-name="Aacute" unicode="&#xc1;" horiz-adv-x="1322" 
d="M1211 88h123v-88h-542v88h126l-119 288h-429l-40 -102q-23 -60 -29.5 -85.5t-6.5 -44.5q0 -29 26 -40t90 -18l80 -8v-78h-494v88h142l384 962l-76 186v14h276zM579 913l-163 -417h334zM676 1636h284l-316 -306h-80z" />
    <glyph glyph-name="Acircumflex" unicode="&#xc2;" horiz-adv-x="1322" 
d="M1211 88h123v-88h-542v88h126l-119 288h-429l-40 -102q-23 -60 -29.5 -85.5t-6.5 -44.5q0 -29 26 -40t90 -18l80 -8v-78h-494v88h142l384 962l-76 186v14h276zM579 913l-163 -417h334zM770 1636l114 -306h-70l-277 240l-127 -240h-94l146 306h308z" />
    <glyph glyph-name="Atilde" unicode="&#xc3;" horiz-adv-x="1322" 
d="M1211 88h123v-88h-542v88h126l-119 288h-429l-40 -102q-23 -60 -29.5 -85.5t-6.5 -44.5q0 -29 26 -40t90 -18l80 -8v-78h-494v88h142l384 962l-76 186v14h276zM579 913l-163 -417h334zM270 1366q23 98 54 150.5t68 71t88 18.5q43 0 78 -9t80 -26q40 -15 67.5 -22t58.5 -7
q42 0 71.5 22.5t44.5 65.5l52 -6q-33 -139 -84.5 -189.5t-119.5 -50.5q-33 0 -65 8t-76 23q-52 17 -84.5 25t-68.5 8q-42 0 -69.5 -21t-42.5 -65z" />
    <glyph glyph-name="Adieresis" unicode="&#xc4;" horiz-adv-x="1322" 
d="M1211 88h123v-88h-542v88h126l-119 288h-429l-40 -102q-23 -60 -29.5 -85.5t-6.5 -44.5q0 -29 26 -40t90 -18l80 -8v-78h-494v88h142l384 962l-76 186v14h276zM579 913l-163 -417h334zM319 1403q-37 37 -37 97t37 98t97 38t96 -38t36 -98t-36 -97t-96 -37t-97 37z
M687 1403q-37 37 -37 97t37 98t97 38t97 -38t37 -98t-37 -97t-97 -37t-97 37z" />
    <glyph glyph-name="Aring" unicode="&#xc5;" horiz-adv-x="1322" 
d="M1211 88h123v-88h-542v88h126l-119 288h-429l-40 -102q-23 -60 -29.5 -85.5t-6.5 -44.5q0 -29 26 -40t90 -18l80 -8v-78h-494v88h142l384 962l-76 186v14h276zM579 913l-163 -417h334zM420.5 1630.5q28.5 46.5 76 72t103.5 25.5t103.5 -25.5t76 -72t28.5 -104.5
t-28.5 -105t-76 -73t-103.5 -26t-103.5 26t-76 73t-28.5 105t28.5 104.5zM517.5 1447q31.5 -31 82.5 -31q53 0 83.5 30.5t30.5 79.5t-30.5 78.5t-83.5 29.5q-51 0 -82.5 -30t-31.5 -78t31.5 -79z" />
    <glyph glyph-name="AE" unicode="&#xc6;" horiz-adv-x="1768" 
d="M1680 464v-464h-1016v88h150v386h-367l-97 -184q-29 -55 -39.5 -83.5t-10.5 -50.5q0 -37 23 -50.5t83 -19.5l80 -8v-78h-502v88h114l580 1074h-124v88h1066v-426h-60q-38 136 -92.5 206.5t-145.5 99.5t-248 30v-497q109 3 165 23.5t76.5 59.5t24.5 108h64v-494h-64
q-4 77 -24.5 120t-76 65.5t-165.5 25.5v-325q0 -63 12 -96t41.5 -46.5t86.5 -13.5h30q103 0 173 30t121 111.5t82 232.5h60zM809 1162l-315 -598h320v598h-5z" />
    <glyph glyph-name="Ccedilla" unicode="&#xc7;" horiz-adv-x="1324" 
d="M650 -29l-27 -64q110 -11 167.5 -62.5t57.5 -138.5q0 -60 -26 -106t-71.5 -71t-102.5 -25q-69 0 -130 35.5t-106 92.5l62 86h16q51 -44 88.5 -62t81.5 -18q36 0 57 14t21 42q0 41 -53.5 60.5t-162.5 19.5l-24 16l75 191q-144 28 -259 115.5t-179.5 215t-64.5 268.5
q0 179 87 340.5t237 260.5t328 99q167 0 307 -95l77 75h54v-520h-60q-232 386 -498 386q-91 0 -161 -38.5t-109.5 -115t-39.5 -186.5q0 -158 66.5 -291t186 -211t269.5 -78q155 0 253.5 97.5t142.5 270.5l72 -20q-60 -285 -212 -434.5t-378 -149.5q-28 0 -42 1z" />
    <glyph glyph-name="Egrave" unicode="&#xc8;" horiz-adv-x="1230" 
d="M1142 464v-464h-1066v88h150v1074h-150v88h1006v-426h-60q-39 136 -92.5 206.5t-147.5 100t-260 29.5h-32v-488q117 2 176 22.5t80.5 59.5t25.5 110h64v-494h-64q-4 79 -25.5 122t-80.5 65.5t-176 24.5v-336q0 -63 13.5 -96t44.5 -46.5t88 -13.5h70q100 0 170 28.5
t122.5 110t83.5 235.5h60zM582 1330l-316 306h284l112 -306h-80z" />
    <glyph glyph-name="Eacute" unicode="&#xc9;" horiz-adv-x="1230" 
d="M1142 464v-464h-1066v88h150v1074h-150v88h1006v-426h-60q-39 136 -92.5 206.5t-147.5 100t-260 29.5h-32v-488q117 2 176 22.5t80.5 59.5t25.5 110h64v-494h-64q-4 79 -25.5 122t-80.5 65.5t-176 24.5v-336q0 -63 13.5 -96t44.5 -46.5t88 -13.5h70q100 0 170 28.5
t122.5 110t83.5 235.5h60zM698 1636h284l-316 -306h-80z" />
    <glyph glyph-name="Ecircumflex" unicode="&#xca;" horiz-adv-x="1230" 
d="M1142 464v-464h-1066v88h150v1074h-150v88h1006v-426h-60q-39 136 -92.5 206.5t-147.5 100t-260 29.5h-32v-488q117 2 176 22.5t80.5 59.5t25.5 110h64v-494h-64q-4 79 -25.5 122t-80.5 65.5t-176 24.5v-336q0 -63 13.5 -96t44.5 -46.5t88 -13.5h70q100 0 170 28.5
t122.5 110t83.5 235.5h60zM792 1636l114 -306h-70l-277 240l-127 -240h-94l146 306h308z" />
    <glyph glyph-name="Edieresis" unicode="&#xcb;" horiz-adv-x="1230" 
d="M1142 464v-464h-1066v88h150v1074h-150v88h1006v-426h-60q-39 136 -92.5 206.5t-147.5 100t-260 29.5h-32v-488q117 2 176 22.5t80.5 59.5t25.5 110h64v-494h-64q-4 79 -25.5 122t-80.5 65.5t-176 24.5v-336q0 -63 13.5 -96t44.5 -46.5t88 -13.5h70q100 0 170 28.5
t122.5 110t83.5 235.5h60zM341 1403q-37 37 -37 97t37 98t97 38t96 -38t36 -98t-36 -97t-96 -37t-97 37zM709 1403q-37 37 -37 97t37 98t97 38t97 -38t37 -98t-37 -97t-97 -37t-97 37z" />
    <glyph glyph-name="Igrave" unicode="&#xcc;" horiz-adv-x="722" 
d="M496 1162v-1074h150v-88h-570v88h150v1074h-150v88h570v-88h-150zM320 1330l-316 306h284l112 -306h-80z" />
    <glyph glyph-name="Iacute" unicode="&#xcd;" horiz-adv-x="722" 
d="M496 1162v-1074h150v-88h-570v88h150v1074h-150v88h570v-88h-150zM436 1636h284l-316 -306h-80z" />
    <glyph glyph-name="Icircumflex" unicode="&#xce;" horiz-adv-x="722" 
d="M496 1162v-1074h150v-88h-570v88h150v1074h-150v88h570v-88h-150zM530 1636l114 -306h-70l-277 240l-127 -240h-94l146 306h308z" />
    <glyph glyph-name="Idieresis" unicode="&#xcf;" horiz-adv-x="722" 
d="M496 1162v-1074h150v-88h-570v88h150v1074h-150v88h570v-88h-150zM79 1403q-37 37 -37 97t37 98t97 38t96 -38t36 -98t-36 -97t-96 -37t-97 37zM447 1403q-37 37 -37 97t37 98t97 38t97 -38t37 -98t-37 -97t-97 -37t-97 37z" />
    <glyph glyph-name="Eth" unicode="&#xd0;" horiz-adv-x="1502" 
d="M624 1250q248 0 429.5 -71.5t279 -207t97.5 -321.5q0 -187 -92 -334.5t-271.5 -231.5t-430.5 -84h-558v88h150v490h-152v114h152v470h-150v88h546zM1025.5 217.5q114.5 127.5 114.5 398.5q0 266 -143 405t-421 139h-78v-468h220v-114h-220v-326q0 -76 11.5 -108t46 -43
t114.5 -11q241 0 355.5 127.5z" />
    <glyph glyph-name="Ntilde" unicode="&#xd1;" horiz-adv-x="1464" 
d="M944 1250h464v-88h-144l-10 -318v-844h-76l-826 855v-611q0 -67 11.5 -98.5t40.5 -44t92 -17.5l50 -4v-80h-464v88h144l10 258v586q0 79 -13.5 119.5t-41 61t-87.5 47.5l-32 14v76h274l692 -714l110 -118v588q0 67 -11.5 98.5t-40.5 44t-92 17.5l-50 4v80zM402 1366
q23 98 54 150.5t68 71t88 18.5q43 0 78 -9t80 -26q40 -15 67.5 -22t58.5 -7q42 0 71.5 22.5t44.5 65.5l52 -6q-33 -139 -84.5 -189.5t-119.5 -50.5q-33 0 -65 8t-76 23q-52 17 -84.5 25t-68.5 8q-42 0 -69.5 -21t-42.5 -65z" />
    <glyph glyph-name="Ograve" unicode="&#xd2;" horiz-adv-x="1466" 
d="M388.5 51q-146.5 81 -231.5 223t-85 316q0 185 86.5 343.5t242.5 252.5t353 94q176 0 322.5 -75.5t232 -211.5t85.5 -309q0 -191 -87 -355t-243 -261.5t-352 -97.5q-177 0 -323.5 81zM1009.5 173.5q69.5 43.5 108 128t38.5 204.5q0 158 -75 300t-199 228t-262 86
q-94 0 -163.5 -40t-108 -119t-38.5 -193q0 -161 76.5 -308.5t201.5 -238.5t260 -91q92 0 161.5 43.5zM694 1330l-316 306h284l112 -306h-80z" />
    <glyph glyph-name="Oacute" unicode="&#xd3;" horiz-adv-x="1466" 
d="M388.5 51q-146.5 81 -231.5 223t-85 316q0 185 86.5 343.5t242.5 252.5t353 94q176 0 322.5 -75.5t232 -211.5t85.5 -309q0 -191 -87 -355t-243 -261.5t-352 -97.5q-177 0 -323.5 81zM1009.5 173.5q69.5 43.5 108 128t38.5 204.5q0 158 -75 300t-199 228t-262 86
q-94 0 -163.5 -40t-108 -119t-38.5 -193q0 -161 76.5 -308.5t201.5 -238.5t260 -91q92 0 161.5 43.5zM810 1636h284l-316 -306h-80z" />
    <glyph glyph-name="Ocircumflex" unicode="&#xd4;" horiz-adv-x="1466" 
d="M388.5 51q-146.5 81 -231.5 223t-85 316q0 185 86.5 343.5t242.5 252.5t353 94q176 0 322.5 -75.5t232 -211.5t85.5 -309q0 -191 -87 -355t-243 -261.5t-352 -97.5q-177 0 -323.5 81zM1009.5 173.5q69.5 43.5 108 128t38.5 204.5q0 158 -75 300t-199 228t-262 86
q-94 0 -163.5 -40t-108 -119t-38.5 -193q0 -161 76.5 -308.5t201.5 -238.5t260 -91q92 0 161.5 43.5zM904 1636l114 -306h-70l-277 240l-127 -240h-94l146 306h308z" />
    <glyph glyph-name="Otilde" unicode="&#xd5;" horiz-adv-x="1466" 
d="M388.5 51q-146.5 81 -231.5 223t-85 316q0 185 86.5 343.5t242.5 252.5t353 94q176 0 322.5 -75.5t232 -211.5t85.5 -309q0 -191 -87 -355t-243 -261.5t-352 -97.5q-177 0 -323.5 81zM1009.5 173.5q69.5 43.5 108 128t38.5 204.5q0 158 -75 300t-199 228t-262 86
q-94 0 -163.5 -40t-108 -119t-38.5 -193q0 -161 76.5 -308.5t201.5 -238.5t260 -91q92 0 161.5 43.5zM404 1366q23 98 54 150.5t68 71t88 18.5q43 0 78 -9t80 -26q40 -15 67.5 -22t58.5 -7q42 0 71.5 22.5t44.5 65.5l52 -6q-33 -139 -84.5 -189.5t-119.5 -50.5q-33 0 -65 8
t-76 23q-52 17 -84.5 25t-68.5 8q-42 0 -69.5 -21t-42.5 -65z" />
    <glyph glyph-name="Odieresis" unicode="&#xd6;" horiz-adv-x="1466" 
d="M388.5 51q-146.5 81 -231.5 223t-85 316q0 185 86.5 343.5t242.5 252.5t353 94q176 0 322.5 -75.5t232 -211.5t85.5 -309q0 -191 -87 -355t-243 -261.5t-352 -97.5q-177 0 -323.5 81zM1009.5 173.5q69.5 43.5 108 128t38.5 204.5q0 158 -75 300t-199 228t-262 86
q-94 0 -163.5 -40t-108 -119t-38.5 -193q0 -161 76.5 -308.5t201.5 -238.5t260 -91q92 0 161.5 43.5zM453 1403q-37 37 -37 97t37 98t97 38t96 -38t36 -98t-36 -97t-96 -37t-97 37zM821 1403q-37 37 -37 97t37 98t97 38t97 -38t37 -98t-37 -97t-97 -37t-97 37z" />
    <glyph glyph-name="multiply" unicode="&#xd7;" horiz-adv-x="1220" 
d="M887 1029l120 -120l-276 -276l276 -276l-120 -120l-276 276l-276 -276l-120 120l276 276l-276 276l120 120l276 -276z" />
    <glyph glyph-name="Oslash" unicode="&#xd8;" horiz-adv-x="1486" 
d="M1406 1250l-157 -165q75 -78 116 -180.5t41 -220.5q0 -191 -87 -355t-243 -261.5t-352 -97.5q-115 0 -219.5 35.5t-188.5 101.5l-102 -107h-130l163 171q-78 82 -120.5 189.5t-42.5 229.5q0 185 86.5 343.5t242.5 252.5t353 94q117 0 222.5 -34t190.5 -98l97 102h130z
M355 565q33 -100 91 -185l545 571q-76 79 -168.5 124t-190.5 45q-94 0 -163.5 -40t-108 -119t-38.5 -193q0 -103 33 -203zM1137 700.5q-31 95.5 -87 176.5l-545 -571q75 -82 167.5 -129t187.5 -47q92 0 161.5 43.5t108 128t38.5 204.5q0 99 -31 194.5z" />
    <glyph glyph-name="Ugrave" unicode="&#xd9;" horiz-adv-x="1412" 
d="M914 1250h458v-88h-144l-10 -318v-276q0 -296 -126.5 -447t-367.5 -151q-164 0 -284 63t-184 180t-64 277v672h-150v88h570v-88h-150v-612q0 -133 33 -215.5t105.5 -122.5t191.5 -40q113 0 182 37t101.5 119t32.5 218v460q0 67 -11.5 98.5t-40.5 44t-92 17.5l-50 4v80z
M714 1330l-316 306h284l112 -306h-80z" />
    <glyph glyph-name="Uacute" unicode="&#xda;" horiz-adv-x="1412" 
d="M914 1250h458v-88h-144l-10 -318v-276q0 -296 -126.5 -447t-367.5 -151q-164 0 -284 63t-184 180t-64 277v672h-150v88h570v-88h-150v-612q0 -133 33 -215.5t105.5 -122.5t191.5 -40q113 0 182 37t101.5 119t32.5 218v460q0 67 -11.5 98.5t-40.5 44t-92 17.5l-50 4v80z
M830 1636h284l-316 -306h-80z" />
    <glyph glyph-name="Ucircumflex" unicode="&#xdb;" horiz-adv-x="1412" 
d="M914 1250h458v-88h-144l-10 -318v-276q0 -296 -126.5 -447t-367.5 -151q-164 0 -284 63t-184 180t-64 277v672h-150v88h570v-88h-150v-612q0 -133 33 -215.5t105.5 -122.5t191.5 -40q113 0 182 37t101.5 119t32.5 218v460q0 67 -11.5 98.5t-40.5 44t-92 17.5l-50 4v80z
M924 1636l114 -306h-70l-277 240l-127 -240h-94l146 306h308z" />
    <glyph glyph-name="Udieresis" unicode="&#xdc;" horiz-adv-x="1412" 
d="M914 1250h458v-88h-144l-10 -318v-276q0 -296 -126.5 -447t-367.5 -151q-164 0 -284 63t-184 180t-64 277v672h-150v88h570v-88h-150v-612q0 -133 33 -215.5t105.5 -122.5t191.5 -40q113 0 182 37t101.5 119t32.5 218v460q0 67 -11.5 98.5t-40.5 44t-92 17.5l-50 4v80z
M473 1403q-37 37 -37 97t37 98t97 38t96 -38t36 -98t-36 -97t-96 -37t-97 37zM841 1403q-37 37 -37 97t37 98t97 38t97 -38t37 -98t-37 -97t-97 -37t-97 37z" />
    <glyph glyph-name="Yacute" unicode="&#xdd;" horiz-adv-x="1244" 
d="M1149 1162l-387 -648v-426h170v-88h-610v88h170v408l-405 666h-95v88h526v-88h-118l304 -514l152 256q48 80 66 126t18 74q0 18 -8 28.5t-27 17t-57 12.5l-56 10v78h440v-88h-83zM716 1636h284l-316 -306h-80z" />
    <glyph glyph-name="Thorn" unicode="&#xde;" horiz-adv-x="1248" 
d="M694 1010q141 0 252 -37.5t176.5 -118t65.5 -202.5q0 -117 -64 -206.5t-181 -138.5t-269 -49h-178v-170h150v-88h-570v88h150v1074h-150v88h570v-88h-150v-152h198zM622 356q135 0 205.5 71.5t70.5 210.5q0 136 -70.5 205t-219.5 69h-112v-556h126z" />
    <glyph glyph-name="germandbls" unicode="&#xdf;" horiz-adv-x="1198" 
d="M1013.5 614.5q78.5 -84.5 106.5 -158t28 -150.5q0 -95 -41.5 -171.5t-120 -120.5t-184.5 -44q-76 0 -143.5 23t-112.5 61v270h70q34 -118 95 -185t141 -67q53 0 87.5 31t34.5 87q0 79 -86.5 175.5t-315.5 228.5v28q97 114 146.5 212.5t49.5 191.5q0 97 -56 145.5
t-154 48.5q-79 0 -122.5 -30.5t-43.5 -95.5q0 -32 12 -74l50 -170v-850h-406v84h150v634h-152v56l152 76v20q0 152 73 273.5t190.5 189t244.5 67.5q96 0 171 -33t117 -92t42 -135q0 -87 -63 -179.5t-181 -170.5q143 -91 221.5 -175.5z" />
    <glyph glyph-name="agrave" unicode="&#xe0;" horiz-adv-x="998" 
d="M478 0.5q-57 -30.5 -130 -30.5q-74 0 -135 28.5t-97 80.5t-36 117q0 77 54 125.5t172 72.5l252 52l4 52q1 9 1 27q0 86 -48 127.5t-149 41.5q-89 0 -161.5 -38t-142.5 -122l-38 32q83 134 159 211t153 110t170 33q147 0 232 -91.5t82 -272.5l-6 -308q-1 -66 22 -94
t66 -28q29 0 49 18t41 56l44 -22q-41 -106 -102 -157t-138 -51q-63 0 -111 31.5t-93 92.5q-57 -63 -114 -93.5zM562 364l-72 -20q-52 -15 -80 -28t-41 -30.5t-13 -45.5q0 -38 19.5 -69t50.5 -48t64 -17q39 0 58.5 24.5t17.5 67.5zM452 986l-314 324h284l90 -324h-60z" />
    <glyph glyph-name="aacute" unicode="&#xe1;" horiz-adv-x="998" 
d="M478 0.5q-57 -30.5 -130 -30.5q-74 0 -135 28.5t-97 80.5t-36 117q0 77 54 125.5t172 72.5l252 52l4 52q1 9 1 27q0 86 -48 127.5t-149 41.5q-89 0 -161.5 -38t-142.5 -122l-38 32q83 134 159 211t153 110t170 33q147 0 232 -91.5t82 -272.5l-6 -308q-1 -66 22 -94
t66 -28q29 0 49 18t41 56l44 -22q-41 -106 -102 -157t-138 -51q-63 0 -111 31.5t-93 92.5q-57 -63 -114 -93.5zM562 364l-72 -20q-52 -15 -80 -28t-41 -30.5t-13 -45.5q0 -38 19.5 -69t50.5 -48t64 -17q39 0 58.5 24.5t17.5 67.5zM516 986h-60l90 324h284z" />
    <glyph glyph-name="acircumflex" unicode="&#xe2;" horiz-adv-x="998" 
d="M478 0.5q-57 -30.5 -130 -30.5q-74 0 -135 28.5t-97 80.5t-36 117q0 77 54 125.5t172 72.5l252 52l4 52q1 9 1 27q0 86 -48 127.5t-149 41.5q-89 0 -161.5 -38t-142.5 -122l-38 32q83 134 159 211t153 110t170 33q147 0 232 -91.5t82 -272.5l-6 -308q-1 -66 22 -94
t66 -28q29 0 49 18t41 56l44 -22q-41 -106 -102 -157t-138 -51q-63 0 -111 31.5t-93 92.5q-57 -63 -114 -93.5zM562 364l-72 -20q-52 -15 -80 -28t-41 -30.5t-13 -45.5q0 -38 19.5 -69t50.5 -48t64 -17q39 0 58.5 24.5t17.5 67.5zM654 1310l130 -324h-80l-249 214l-167 -214
h-104l176 324h294z" />
    <glyph glyph-name="atilde" unicode="&#xe3;" horiz-adv-x="998" 
d="M478 0.5q-57 -30.5 -130 -30.5q-74 0 -135 28.5t-97 80.5t-36 117q0 77 54 125.5t172 72.5l252 52l4 52q1 9 1 27q0 86 -48 127.5t-149 41.5q-89 0 -161.5 -38t-142.5 -122l-38 32q83 134 159 211t153 110t170 33q147 0 232 -91.5t82 -272.5l-6 -308q-1 -66 22 -94
t66 -28q29 0 49 18t41 56l44 -22q-41 -106 -102 -157t-138 -51q-63 0 -111 31.5t-93 92.5q-57 -63 -114 -93.5zM562 364l-72 -20q-52 -15 -80 -28t-41 -30.5t-13 -45.5q0 -38 19.5 -69t50.5 -48t64 -17q39 0 58.5 24.5t17.5 67.5zM172 1010q16 125 64.5 194.5t131.5 69.5
q26 0 57.5 -10t78.5 -30t77 -30t55 -10q36 0 60.5 20t37.5 68l62 -6q-14 -121 -64 -192.5t-124 -71.5q-29 0 -60.5 10t-80.5 30t-79 30t-58 10q-39 0 -61 -19t-35 -67z" />
    <glyph glyph-name="adieresis" unicode="&#xe4;" horiz-adv-x="998" 
d="M478 0.5q-57 -30.5 -130 -30.5q-74 0 -135 28.5t-97 80.5t-36 117q0 77 54 125.5t172 72.5l252 52l4 52q1 9 1 27q0 86 -48 127.5t-149 41.5q-89 0 -161.5 -38t-142.5 -122l-38 32q83 134 159 211t153 110t170 33q147 0 232 -91.5t82 -272.5l-6 -308q-1 -66 22 -94
t66 -28q29 0 49 18t41 56l44 -22q-41 -106 -102 -157t-138 -51q-63 0 -111 31.5t-93 92.5q-57 -63 -114 -93.5zM562 364l-72 -20q-52 -15 -80 -28t-41 -30.5t-13 -45.5q0 -38 19.5 -69t50.5 -48t64 -17q39 0 58.5 24.5t17.5 67.5zM215.5 1054q-35.5 36 -35.5 94
q0 59 36 95.5t94 36.5t93 -36.5t35 -95.5t-35 -94.5t-93 -35.5q-59 0 -94.5 36zM563.5 1054q-35.5 36 -35.5 94q0 59 36 95.5t94 36.5t94 -36.5t36 -95.5q0 -58 -36 -94t-94 -36q-59 0 -94.5 36z" />
    <glyph glyph-name="aring" unicode="&#xe5;" horiz-adv-x="998" 
d="M478 0.5q-57 -30.5 -130 -30.5q-74 0 -135 28.5t-97 80.5t-36 117q0 77 54 125.5t172 72.5l252 52l4 52q1 9 1 27q0 86 -48 127.5t-149 41.5q-89 0 -161.5 -38t-142.5 -122l-38 32q83 134 159 211t153 110t170 33q147 0 232 -91.5t82 -272.5l-6 -308q-1 -66 22 -94
t66 -28q29 0 49 18t41 56l44 -22q-41 -106 -102 -157t-138 -51q-63 0 -111 31.5t-93 92.5q-57 -63 -114 -93.5zM562 364l-72 -20q-52 -15 -80 -28t-41 -30.5t-13 -45.5q0 -38 19.5 -69t50.5 -48t64 -17q39 0 58.5 24.5t17.5 67.5zM304.5 1284.5q28.5 46.5 76 72t103.5 25.5
t103.5 -25.5t76 -72t28.5 -104.5t-28.5 -105t-76 -73t-103.5 -26t-103.5 26t-76 73t-28.5 105t28.5 104.5zM401.5 1101q31.5 -31 82.5 -31q53 0 83.5 30.5t30.5 79.5t-30.5 78.5t-83.5 29.5q-51 0 -82.5 -30t-31.5 -78t31.5 -79z" />
    <glyph glyph-name="ae" unicode="&#xe6;" horiz-adv-x="1522" 
d="M1508 380q-59 -204 -180 -307t-294 -103q-106 0 -193 42t-144 123q-84 -71 -146 -107t-107.5 -47t-95.5 -11q-74 0 -135 28.5t-97 80.5t-36 117q0 77 54 125.5t172 72.5l252 52l4 52q1 9 1 27q0 86 -48 127.5t-149 41.5q-92 0 -167 -36.5t-143 -117.5l-32 26
q83 134 159 211t153 110t170 33q79 0 141.5 -27t103.5 -82q56 53 127.5 81t153.5 28q106 0 190.5 -47t135 -148t50.5 -255h-580q16 -86 63 -155t116 -108t149 -39q108 0 184.5 58t119.5 168zM863.5 743q-39.5 -57 -43.5 -165h323q-7 108 -49 165t-116 57q-75 0 -114.5 -57z
M548.5 130.5q19.5 24.5 17.5 67.5l-4 166l-72 -20q-52 -15 -80 -28t-41 -30.5t-13 -45.5q0 -38 19.5 -69t50.5 -48t64 -17q39 0 58.5 24.5z" />
    <glyph glyph-name="ccedilla" unicode="&#xe7;" horiz-adv-x="846" 
d="M818 298q-40 -149 -119.5 -231.5t-205.5 -94.5l-28 -65q110 -11 167.5 -62.5t57.5 -138.5q0 -60 -26 -106t-71.5 -71t-102.5 -25q-69 0 -130 35.5t-106 92.5l62 86h16q51 -44 88.5 -62t81.5 -18q36 0 57 14t21 42q0 41 -53.5 60.5t-162.5 19.5l-24 16l72 182
q-108 9 -188.5 68t-124 155.5t-43.5 216.5q0 143 62 259t166.5 182.5t227.5 66.5q100 0 173.5 -44t102.5 -130l-90 -134h-28q-68 72 -121.5 106t-118.5 34q-76 0 -121 -50.5t-45 -147.5q0 -92 44 -176.5t119 -136t163 -51.5q60 0 107.5 31t78.5 95z" />
    <glyph glyph-name="egrave" unicode="&#xe8;" horiz-adv-x="970" 
d="M956 380q-59 -204 -180 -307t-294 -103q-122 0 -218 56t-151 164t-55 258q0 139 55 246.5t151 166.5t216 59q106 0 190.5 -47t135 -148t50.5 -255h-580q16 -86 63 -155t116 -108t149 -39q108 0 184.5 58t119.5 168zM311.5 743q-39.5 -57 -43.5 -165h323q-7 108 -49 165
t-116 57q-75 0 -114.5 -57zM448 986l-314 324h284l90 -324h-60z" />
    <glyph glyph-name="eacute" unicode="&#xe9;" horiz-adv-x="970" 
d="M956 380q-59 -204 -180 -307t-294 -103q-122 0 -218 56t-151 164t-55 258q0 139 55 246.5t151 166.5t216 59q106 0 190.5 -47t135 -148t50.5 -255h-580q16 -86 63 -155t116 -108t149 -39q108 0 184.5 58t119.5 168zM311.5 743q-39.5 -57 -43.5 -165h323q-7 108 -49 165
t-116 57q-75 0 -114.5 -57zM512 986h-60l90 324h284z" />
    <glyph glyph-name="ecircumflex" unicode="&#xea;" horiz-adv-x="970" 
d="M956 380q-59 -204 -180 -307t-294 -103q-122 0 -218 56t-151 164t-55 258q0 139 55 246.5t151 166.5t216 59q106 0 190.5 -47t135 -148t50.5 -255h-580q16 -86 63 -155t116 -108t149 -39q108 0 184.5 58t119.5 168zM311.5 743q-39.5 -57 -43.5 -165h323q-7 108 -49 165
t-116 57q-75 0 -114.5 -57zM650 1310l130 -324h-80l-249 214l-167 -214h-104l176 324h294z" />
    <glyph glyph-name="edieresis" unicode="&#xeb;" horiz-adv-x="970" 
d="M956 380q-59 -204 -180 -307t-294 -103q-122 0 -218 56t-151 164t-55 258q0 139 55 246.5t151 166.5t216 59q106 0 190.5 -47t135 -148t50.5 -255h-580q16 -86 63 -155t116 -108t149 -39q108 0 184.5 58t119.5 168zM311.5 743q-39.5 -57 -43.5 -165h323q-7 108 -49 165
t-116 57q-75 0 -114.5 -57zM211.5 1054q-35.5 36 -35.5 94q0 59 36 95.5t94 36.5t93 -36.5t35 -95.5t-35 -94.5t-93 -35.5q-59 0 -94.5 36zM559.5 1054q-35.5 36 -35.5 94q0 59 36 95.5t94 36.5t94 -36.5t36 -95.5q0 -58 -36 -94t-94 -36q-59 0 -94.5 36z" />
    <glyph glyph-name="igrave" unicode="&#xec;" horiz-adv-x="626" 
d="M598 84v-84h-556v84h150v530q0 39 -14 58t-54 42l-72 44v48l376 114h20v-836h150zM268 986l-314 324h284l90 -324h-60z" />
    <glyph glyph-name="iacute" unicode="&#xed;" horiz-adv-x="626" 
d="M598 84v-84h-556v84h150v530q0 39 -14 58t-54 42l-72 44v48l376 114h20v-836h150zM332 986h-60l90 324h284z" />
    <glyph glyph-name="icircumflex" unicode="&#xee;" horiz-adv-x="626" 
d="M598 84v-84h-556v84h150v530q0 39 -14 58t-54 42l-72 44v48l376 114h20v-836h150zM470 1310l130 -324h-80l-249 214l-167 -214h-104l176 324h294z" />
    <glyph glyph-name="idieresis" unicode="&#xef;" horiz-adv-x="626" 
d="M226.5 1054q-35.5 -36 -92.5 -36q-58 0 -94 36t-36 94q0 59 36 95.5t94 36.5q57 0 92.5 -36.5t35.5 -95.5q0 -58 -35.5 -94zM372 1054q-36 36 -36 94q0 59 36 95.5t94 36.5t94 -36.5t36 -95.5q0 -58 -35.5 -94t-94.5 -36q-58 0 -94 36zM598 84v-84h-556v84h150v530
q0 39 -14 58t-54 42l-72 44v48l376 114h20v-836h150z" />
    <glyph glyph-name="eth" unicode="&#xf0;" horiz-adv-x="1118" 
d="M796 1128q120 -138 186 -294.5t66 -313.5q0 -152 -61 -277.5t-177.5 -199t-275.5 -73.5q-147 0 -255 63t-165.5 171.5t-57.5 239.5q0 133 57.5 232.5t151.5 152.5t201 53q106 0 185 -53.5t121 -148.5q-41 210 -153 393l-329 -101l-22 96l293 92q-87 116 -191 200l98 38
q139 -82 251 -189l183 57l24 -98zM690.5 135q43.5 33 67.5 96t24 149q0 101 -32.5 183.5t-92 130.5t-137.5 48q-85 0 -134.5 -61.5t-49.5 -192.5q0 -105 32 -193.5t90 -140.5t132 -52q57 0 100.5 33z" />
    <glyph glyph-name="ntilde" unicode="&#xf1;" horiz-adv-x="1212" 
d="M478.5 666q-30.5 -40 -30.5 -120v-462h124v-84h-530v84h150v540q0 41 -14.5 61t-53.5 39l-72 34v48l376 114h20l-8 -198h16q51 87 136.5 142.5t179.5 55.5q80 0 144.5 -38t101 -108.5t34.5 -165.5l-10 -524h150v-84h-530v84h124v450q0 89 -56 130.5t-150 41.5
q-71 0 -101.5 -40zM298 1010q16 125 64.5 194.5t131.5 69.5q26 0 57.5 -10t78.5 -30t77 -30t55 -10q36 0 60.5 20t37.5 68l62 -6q-14 -121 -64 -192.5t-124 -71.5q-29 0 -60.5 10t-80.5 30t-79 30t-58 10q-39 0 -61 -19t-35 -67z" />
    <glyph glyph-name="ograve" unicode="&#xf2;" horiz-adv-x="1054" 
d="M788.5 864q100.5 -56 156 -156.5t55.5 -229.5q0 -138 -70 -254.5t-187 -185t-249 -68.5q-128 0 -228.5 56t-156 156.5t-55.5 229.5q0 138 70 254.5t187 185t249 68.5q128 0 228.5 -56zM306 707q-36 -47 -36 -127q0 -108 57 -211.5t144.5 -168t170.5 -64.5q72 0 107 47.5
t35 126.5q0 108 -56 211.5t-142.5 168t-171.5 64.5q-72 0 -108 -47zM478 986l-314 324h284l90 -324h-60z" />
    <glyph glyph-name="oacute" unicode="&#xf3;" horiz-adv-x="1054" 
d="M788.5 864q100.5 -56 156 -156.5t55.5 -229.5q0 -138 -70 -254.5t-187 -185t-249 -68.5q-128 0 -228.5 56t-156 156.5t-55.5 229.5q0 138 70 254.5t187 185t249 68.5q128 0 228.5 -56zM306 707q-36 -47 -36 -127q0 -108 57 -211.5t144.5 -168t170.5 -64.5q72 0 107 47.5
t35 126.5q0 108 -56 211.5t-142.5 168t-171.5 64.5q-72 0 -108 -47zM542 986h-60l90 324h284z" />
    <glyph glyph-name="ocircumflex" unicode="&#xf4;" horiz-adv-x="1054" 
d="M788.5 864q100.5 -56 156 -156.5t55.5 -229.5q0 -138 -70 -254.5t-187 -185t-249 -68.5q-128 0 -228.5 56t-156 156.5t-55.5 229.5q0 138 70 254.5t187 185t249 68.5q128 0 228.5 -56zM306 707q-36 -47 -36 -127q0 -108 57 -211.5t144.5 -168t170.5 -64.5q72 0 107 47.5
t35 126.5q0 108 -56 211.5t-142.5 168t-171.5 64.5q-72 0 -108 -47zM680 1310l130 -324h-80l-249 214l-167 -214h-104l176 324h294z" />
    <glyph glyph-name="otilde" unicode="&#xf5;" horiz-adv-x="1054" 
d="M788.5 864q100.5 -56 156 -156.5t55.5 -229.5q0 -138 -70 -254.5t-187 -185t-249 -68.5q-128 0 -228.5 56t-156 156.5t-55.5 229.5q0 138 70 254.5t187 185t249 68.5q128 0 228.5 -56zM306 707q-36 -47 -36 -127q0 -108 57 -211.5t144.5 -168t170.5 -64.5q72 0 107 47.5
t35 126.5q0 108 -56 211.5t-142.5 168t-171.5 64.5q-72 0 -108 -47zM198 1010q16 125 64.5 194.5t131.5 69.5q26 0 57.5 -10t78.5 -30t77 -30t55 -10q36 0 60.5 20t37.5 68l62 -6q-14 -121 -64 -192.5t-124 -71.5q-29 0 -60.5 10t-80.5 30t-79 30t-58 10q-39 0 -61 -19
t-35 -67z" />
    <glyph glyph-name="odieresis" unicode="&#xf6;" horiz-adv-x="1054" 
d="M788.5 864q100.5 -56 156 -156.5t55.5 -229.5q0 -138 -70 -254.5t-187 -185t-249 -68.5q-128 0 -228.5 56t-156 156.5t-55.5 229.5q0 138 70 254.5t187 185t249 68.5q128 0 228.5 -56zM306 707q-36 -47 -36 -127q0 -108 57 -211.5t144.5 -168t170.5 -64.5q72 0 107 47.5
t35 126.5q0 108 -56 211.5t-142.5 168t-171.5 64.5q-72 0 -108 -47zM241.5 1054q-35.5 36 -35.5 94q0 59 36 95.5t94 36.5t93 -36.5t35 -95.5t-35 -94.5t-93 -35.5q-59 0 -94.5 36zM589.5 1054q-35.5 36 -35.5 94q0 59 36 95.5t94 36.5t94 -36.5t36 -95.5q0 -58 -36 -94
t-94 -36q-59 0 -94.5 36z" />
    <glyph glyph-name="divide" unicode="&#xf7;" horiz-adv-x="1220" 
d="M134 540v170h950v-170h-950zM535 161.5q-36 21.5 -57.5 57t-21.5 75.5t21.5 75t57.5 56t75 21q40 0 75.5 -21t57 -56t21.5 -75t-21.5 -75.5t-57 -57t-75.5 -21.5q-39 0 -75 21.5zM535 845.5q-36 21.5 -57.5 57t-21.5 75.5t21.5 75t57.5 56t75 21q40 0 75.5 -21t57 -56
t21.5 -75t-21.5 -75.5t-57 -57t-75.5 -21.5q-39 0 -75 21.5z" />
    <glyph glyph-name="oslash" unicode="&#xf8;" horiz-adv-x="1074" 
d="M1010 890l-105 -112q51 -58 78 -134.5t27 -165.5q0 -138 -70 -254.5t-187 -185t-249 -68.5q-81 0 -152 23t-126 66l-56 -59h-106l105 112q-51 58 -78 134.5t-27 165.5q0 138 70 254.5t187 185t249 68.5q81 0 152 -23t126 -66l56 59h106zM303 446.5q23 -66.5 64 -125.5
l293 310q-53 57 -114.5 90t-121.5 33q-72 0 -108 -47t-36 -127q0 -67 23 -133.5zM771 444.5q-23 66.5 -63 125.5l-293 -310q54 -58 116.5 -91t120.5 -33q72 0 107 47.5t35 126.5q0 68 -23 134.5z" />
    <glyph glyph-name="ugrave" unicode="&#xf9;" horiz-adv-x="1160" 
d="M736 144q-55 -85 -125 -129.5t-163 -44.5q-85 0 -148.5 40.5t-97.5 116t-34 177.5v300q0 43 -13.5 64.5t-54.5 45.5l-72 44v48l374 114h22v-564q0 -88 47.5 -135t130.5 -47q71 0 101.5 35t30.5 109v286q0 43 -13.5 64.5t-54.5 45.5l-72 44v48l374 114h22v-664
q0 -88 34 -125t106 -47v-50l-352 -64h-34zM562 986l-314 324h284l90 -324h-60z" />
    <glyph glyph-name="uacute" unicode="&#xfa;" horiz-adv-x="1160" 
d="M736 144q-55 -85 -125 -129.5t-163 -44.5q-85 0 -148.5 40.5t-97.5 116t-34 177.5v300q0 43 -13.5 64.5t-54.5 45.5l-72 44v48l374 114h22v-564q0 -88 47.5 -135t130.5 -47q71 0 101.5 35t30.5 109v286q0 43 -13.5 64.5t-54.5 45.5l-72 44v48l374 114h22v-664
q0 -88 34 -125t106 -47v-50l-352 -64h-34zM626 986h-60l90 324h284z" />
    <glyph glyph-name="ucircumflex" unicode="&#xfb;" horiz-adv-x="1160" 
d="M736 144q-55 -85 -125 -129.5t-163 -44.5q-85 0 -148.5 40.5t-97.5 116t-34 177.5v300q0 43 -13.5 64.5t-54.5 45.5l-72 44v48l374 114h22v-564q0 -88 47.5 -135t130.5 -47q71 0 101.5 35t30.5 109v286q0 43 -13.5 64.5t-54.5 45.5l-72 44v48l374 114h22v-664
q0 -88 34 -125t106 -47v-50l-352 -64h-34zM764 1310l130 -324h-80l-249 214l-167 -214h-104l176 324h294z" />
    <glyph glyph-name="udieresis" unicode="&#xfc;" horiz-adv-x="1160" 
d="M736 144q-55 -85 -125 -129.5t-163 -44.5q-85 0 -148.5 40.5t-97.5 116t-34 177.5v300q0 43 -13.5 64.5t-54.5 45.5l-72 44v48l374 114h22v-564q0 -88 47.5 -135t130.5 -47q71 0 101.5 35t30.5 109v286q0 43 -13.5 64.5t-54.5 45.5l-72 44v48l374 114h22v-664
q0 -88 34 -125t106 -47v-50l-352 -64h-34zM325.5 1054q-35.5 36 -35.5 94q0 59 36 95.5t94 36.5t93 -36.5t35 -95.5t-35 -94.5t-93 -35.5q-59 0 -94.5 36zM673.5 1054q-35.5 36 -35.5 94q0 59 36 95.5t94 36.5t94 -36.5t36 -95.5q0 -58 -36 -94t-94 -36q-59 0 -94.5 36z" />
    <glyph glyph-name="yacute" unicode="&#xfd;" horiz-adv-x="1068" 
d="M1082 806h-99l-495 -1092h106v-84h-492v84h121l170 371l-277 721h-108v84h510v-84h-127l179 -500l23 -76l183 426q18 42 26 66.5t8 40.5q0 21 -15.5 30t-52.5 15l-58 8v74h398v-84zM642 986h-60l90 324h284z" />
    <glyph glyph-name="thorn" unicode="&#xfe;" horiz-adv-x="1068" 
d="M384 7v-293h190v-84h-596v84h150v1390q0 41 -14.5 61t-53.5 39l-72 34v48l366 114h20v-705q46 112 129.5 168.5t178.5 56.5q91 0 165.5 -49t118.5 -141.5t44 -215.5q0 -171 -69 -294.5t-177 -186.5t-222 -63q-88 0 -158 37zM422 667.5q-38 -38.5 -38 -129.5v-240
q53 -89 122.5 -128.5t145.5 -39.5q82 0 125 46.5t43 139.5q0 100 -41 190t-110 145t-147 55q-62 0 -100 -38.5z" />
    <glyph glyph-name="ydieresis" unicode="&#xff;" horiz-adv-x="1068" 
d="M1082 806h-99l-495 -1092h106v-84h-492v84h121l170 371l-277 721h-108v84h510v-84h-127l179 -500l23 -76l183 426q18 42 26 66.5t8 40.5q0 21 -15.5 30t-52.5 15l-58 8v74h398v-84zM341.5 1054q-35.5 36 -35.5 94q0 59 36 95.5t94 36.5t93 -36.5t35 -95.5t-35 -94.5
t-93 -35.5q-59 0 -94.5 36zM689.5 1054q-35.5 36 -35.5 94q0 59 36 95.5t94 36.5t94 -36.5t36 -95.5q0 -58 -36 -94t-94 -36q-59 0 -94.5 36z" />
    <glyph glyph-name="Amacron" unicode="&#x100;" horiz-adv-x="1322" 
d="M1211 88h123v-88h-542v88h126l-119 288h-429l-40 -102q-23 -60 -29.5 -85.5t-6.5 -44.5q0 -29 26 -40t90 -18l80 -8v-78h-494v88h142l384 962l-76 186v14h276zM579 913l-163 -417h334zM940 1384h-680v110h680v-110z" />
    <glyph glyph-name="amacron" unicode="&#x101;" horiz-adv-x="998" 
d="M478 0.5q-57 -30.5 -130 -30.5q-74 0 -135 28.5t-97 80.5t-36 117q0 77 54 125.5t172 72.5l252 52l4 52q1 9 1 27q0 86 -48 127.5t-149 41.5q-89 0 -161.5 -38t-142.5 -122l-38 32q83 134 159 211t153 110t170 33q147 0 232 -91.5t82 -272.5l-6 -308q-1 -66 22 -94
t66 -28q29 0 49 18t41 56l44 -22q-41 -106 -102 -157t-138 -51q-63 0 -111 31.5t-93 92.5q-57 -63 -114 -93.5zM562 364l-72 -20q-52 -15 -80 -28t-41 -30.5t-13 -45.5q0 -38 19.5 -69t50.5 -48t64 -17q39 0 58.5 24.5t17.5 67.5zM784 1054h-600v120h600v-120z" />
    <glyph glyph-name="Abreve" unicode="&#x102;" horiz-adv-x="1322" 
d="M1211 88h123v-88h-542v88h126l-119 288h-429l-40 -102q-23 -60 -29.5 -85.5t-6.5 -44.5q0 -29 26 -40t90 -18l80 -8v-78h-494v88h142l384 962l-76 186v14h276zM579 913l-163 -417h334zM892 1636q-36 -158 -106.5 -239t-185.5 -81t-185.5 81t-106.5 239h78l20 -38
q32 -60 81.5 -92t112.5 -32t112.5 32t81.5 92l20 38h78z" />
    <glyph glyph-name="abreve" unicode="&#x103;" horiz-adv-x="998" 
d="M478 0.5q-57 -30.5 -130 -30.5q-74 0 -135 28.5t-97 80.5t-36 117q0 77 54 125.5t172 72.5l252 52l4 52q1 9 1 27q0 86 -48 127.5t-149 41.5q-89 0 -161.5 -38t-142.5 -122l-38 32q83 134 159 211t153 110t170 33q147 0 232 -91.5t82 -272.5l-6 -308q-1 -66 22 -94
t66 -28q29 0 49 18t41 56l44 -22q-41 -106 -102 -157t-138 -51q-63 0 -111 31.5t-93 92.5q-57 -63 -114 -93.5zM562 364l-72 -20q-52 -15 -80 -28t-41 -30.5t-13 -45.5q0 -38 19.5 -69t50.5 -48t64 -17q39 0 58.5 24.5t17.5 67.5zM776 1312q-36 -165 -106.5 -249.5
t-185.5 -84.5t-185.5 84.5t-106.5 249.5h84l18 -38q31 -66 79.5 -102t110.5 -36q116 0 188 138l20 38h84z" />
    <glyph glyph-name="Aogonek" unicode="&#x104;" horiz-adv-x="1322" 
d="M1334 0q-95 -67 -130.5 -112.5t-35.5 -87.5q0 -33 18.5 -52.5t51.5 -19.5q40 0 76 18l8 -8v-160q-56 -38 -116 -38q-50 0 -90.5 21.5t-64 61t-23.5 91.5q0 50 31 107t95 127v52h-362v88h126l-119 288h-429l-40 -102q-23 -60 -29.5 -85.5t-6.5 -44.5q0 -29 26 -40t90 -18
l80 -8v-78h-494v88h142l384 962l-76 186v14h276l489 -1162h123v-88zM579 913l-163 -417h334z" />
    <glyph glyph-name="aogonek" unicode="&#x105;" horiz-adv-x="998" 
d="M781.5 -109.5q-33.5 -42.5 -33.5 -82.5q0 -33 18.5 -52.5t51.5 -19.5q40 0 76 18l8 -8v-160q-61 -38 -126 -38q-50 0 -93.5 21.5t-69 61.5t-25.5 91q0 55 34.5 113.5t111.5 133.5v10q-40 12 -74.5 41t-67.5 74q-57 -63 -114 -93.5t-130 -30.5q-74 0 -135 28.5t-97 80.5
t-36 117q0 77 54 125.5t172 72.5l252 52l4 52q1 9 1 27q0 86 -48 127.5t-149 41.5q-89 0 -161.5 -38t-142.5 -122l-38 32q83 134 159 211t153 110t170 33q147 0 232 -91.5t82 -272.5l-6 -308q-1 -66 22 -94t66 -28q29 0 49 18t41 56l44 -22q-51 -132 -135 -180
q-86 -65 -119.5 -107.5zM548.5 130.5q19.5 24.5 17.5 67.5l-4 166l-72 -20q-52 -15 -80 -28t-41 -30.5t-13 -45.5q0 -38 19.5 -69t50.5 -48t64 -17q39 0 58.5 24.5z" />
    <glyph glyph-name="Cacute" unicode="&#x106;" horiz-adv-x="1324" 
d="M1282 554q-60 -285 -212 -434.5t-378 -149.5q-172 0 -315 84.5t-225 225t-82 300.5q0 179 87 340.5t237 260.5t328 99q167 0 307 -95l77 75h54v-520h-60q-232 386 -498 386q-91 0 -161 -38.5t-109.5 -115t-39.5 -186.5q0 -158 66.5 -291t186 -211t269.5 -78
q155 0 253.5 97.5t142.5 270.5zM732 1636h284l-316 -306h-80z" />
    <glyph glyph-name="cacute" unicode="&#x107;" horiz-adv-x="846" 
d="M309 701.5q-45 -50.5 -45 -147.5q0 -92 44 -176.5t119 -136t163 -51.5q60 0 107.5 31t78.5 95l42 -18q-43 -161 -133 -244.5t-235 -83.5q-119 0 -208 57t-137.5 157.5t-48.5 227.5q0 143 62 259t166.5 182.5t227.5 66.5q100 0 173.5 -44t102.5 -130l-90 -134h-28
q-68 72 -121.5 106t-118.5 34q-76 0 -121 -50.5zM508 986h-60l90 324h284z" />
    <glyph glyph-name="Ccircumflex" unicode="&#x108;" horiz-adv-x="1324" 
d="M1282 554q-60 -285 -212 -434.5t-378 -149.5q-172 0 -315 84.5t-225 225t-82 300.5q0 179 87 340.5t237 260.5t328 99q167 0 307 -95l77 75h54v-520h-60q-232 386 -498 386q-91 0 -161 -38.5t-109.5 -115t-39.5 -186.5q0 -158 66.5 -291t186 -211t269.5 -78
q155 0 253.5 97.5t142.5 270.5zM826 1636l114 -306h-70l-277 240l-127 -240h-94l146 306h308z" />
    <glyph glyph-name="ccircumflex" unicode="&#x109;" horiz-adv-x="846" 
d="M309 701.5q-45 -50.5 -45 -147.5q0 -92 44 -176.5t119 -136t163 -51.5q60 0 107.5 31t78.5 95l42 -18q-43 -161 -133 -244.5t-235 -83.5q-119 0 -208 57t-137.5 157.5t-48.5 227.5q0 143 62 259t166.5 182.5t227.5 66.5q100 0 173.5 -44t102.5 -130l-90 -134h-28
q-68 72 -121.5 106t-118.5 34q-76 0 -121 -50.5zM646 1310l130 -324h-80l-249 214l-167 -214h-104l176 324h294z" />
    <glyph glyph-name="Cdotaccent" unicode="&#x10a;" horiz-adv-x="1324" 
d="M1282 554q-60 -285 -212 -434.5t-378 -149.5q-172 0 -315 84.5t-225 225t-82 300.5q0 179 87 340.5t237 260.5t328 99q167 0 307 -95l77 75h54v-520h-60q-232 386 -498 386q-91 0 -161 -38.5t-109.5 -115t-39.5 -186.5q0 -158 66.5 -291t186 -211t269.5 -78
q155 0 253.5 97.5t142.5 270.5zM580.5 1371.5q-35.5 21.5 -57 57t-21.5 75.5t21.5 75.5t57 57t75.5 21.5t75.5 -21.5t57 -57t21.5 -75.5t-21.5 -75.5t-57 -57t-75.5 -21.5t-75.5 21.5z" />
    <glyph glyph-name="cdotaccent" unicode="&#x10b;" horiz-adv-x="846" 
d="M309 701.5q-45 -50.5 -45 -147.5q0 -92 44 -176.5t119 -136t163 -51.5q60 0 107.5 31t78.5 95l42 -18q-43 -161 -133 -244.5t-235 -83.5q-119 0 -208 57t-137.5 157.5t-48.5 227.5q0 143 62 259t166.5 182.5t227.5 66.5q100 0 173.5 -44t102.5 -130l-90 -134h-28
q-68 72 -121.5 106t-118.5 34q-76 0 -121 -50.5zM408 1024.5q-32 18.5 -51 50t-19 67.5t19 68.5t51 52t68 19.5t68 -19.5t51 -52t19 -68.5t-19 -67.5t-51 -50t-68 -18.5t-68 18.5z" />
    <glyph glyph-name="Ccaron" unicode="&#x10c;" horiz-adv-x="1324" 
d="M1282 554q-60 -285 -212 -434.5t-378 -149.5q-172 0 -315 84.5t-225 225t-82 300.5q0 179 87 340.5t237 260.5t328 99q167 0 307 -95l77 75h54v-520h-60q-232 386 -498 386q-91 0 -161 -38.5t-109.5 -115t-39.5 -186.5q0 -158 66.5 -291t186 -211t269.5 -78
q155 0 253.5 97.5t142.5 270.5zM593 1396l277 240h70l-114 -306h-308l-146 306h94z" />
    <glyph glyph-name="ccaron" unicode="&#x10d;" horiz-adv-x="846" 
d="M309 701.5q-45 -50.5 -45 -147.5q0 -92 44 -176.5t119 -136t163 -51.5q60 0 107.5 31t78.5 95l42 -18q-43 -161 -133 -244.5t-235 -83.5q-119 0 -208 57t-137.5 157.5t-48.5 227.5q0 143 62 259t166.5 182.5t227.5 66.5q100 0 173.5 -44t102.5 -130l-90 -134h-28
q-68 72 -121.5 106t-118.5 34q-76 0 -121 -50.5zM499 1088l173 222h104l-176 -324h-314l-110 324h80z" />
    <glyph glyph-name="Dcaron" unicode="&#x10e;" horiz-adv-x="1500" 
d="M76 0v88h150v1074h-150v88h546q248 0 429.5 -71.5t279 -207t97.5 -321.5q0 -187 -92 -334.5t-271.5 -231.5t-430.5 -84h-558zM1023.5 217.5q114.5 127.5 114.5 398.5q0 266 -143 405t-421 139h-78v-908q0 -76 11.5 -108t46 -43t114.5 -11q241 0 355.5 127.5zM709 1396
l277 240h70l-114 -306h-308l-146 306h94z" />
    <glyph glyph-name="dcaron" unicode="&#x10f;" horiz-adv-x="1110" 
d="M956 172q16 -38 46 -56t78 -24v-58l-362 -64l-24 2l-8 197q-58 -107 -135.5 -153t-162.5 -46q-100 0 -174.5 55.5t-115 152.5t-40.5 216q0 153 65.5 273.5t173 186.5t227.5 66q82 0 160 -36v210q0 39 -14 58t-54 42l-72 44v48l376 114h20v-1126q0 -64 16 -102zM653 220
q31 36 31 120v252q-48 80 -117 124t-147 44q-82 0 -127 -49.5t-45 -146.5q0 -95 41.5 -183t113.5 -142.5t157 -54.5q62 0 93 36zM1068 1370h264l-236 -416h-64z" />
    <glyph glyph-name="Dcroat" unicode="&#x110;" horiz-adv-x="1502" 
d="M624 1250q248 0 429.5 -71.5t279 -207t97.5 -321.5q0 -187 -92 -334.5t-271.5 -231.5t-430.5 -84h-558v88h150v490h-152v114h152v470h-150v88h546zM1025.5 217.5q114.5 127.5 114.5 398.5q0 266 -143 405t-421 139h-78v-468h220v-114h-220v-326q0 -76 11.5 -108t46 -43
t114.5 -11q241 0 355.5 127.5z" />
    <glyph glyph-name="dcroat" unicode="&#x111;" horiz-adv-x="1104" 
d="M956 172q16 -38 46 -56t78 -24v-58l-362 -64l-24 2l-8 197q-58 -107 -135.5 -153t-162.5 -46q-100 0 -174.5 55.5t-115 152.5t-40.5 216q0 153 65.5 273.5t173 186.5t227.5 66q82 0 160 -36v120h-328v98h328q-1 35 -15.5 52.5t-52.5 39.5l-72 44v48l376 114h20v-298h124
v-98h-124v-730q0 -64 16 -102zM653 220q31 36 31 120v252q-48 80 -117 124t-147 44q-82 0 -127 -49.5t-45 -146.5q0 -95 41.5 -183t113.5 -142.5t157 -54.5q62 0 93 36z" />
    <glyph glyph-name="Emacron" unicode="&#x112;" horiz-adv-x="1230" 
d="M1142 464v-464h-1066v88h150v1074h-150v88h1006v-426h-60q-39 136 -92.5 206.5t-147.5 100t-260 29.5h-32v-488q117 2 176 22.5t80.5 59.5t25.5 110h64v-494h-64q-4 79 -25.5 122t-80.5 65.5t-176 24.5v-336q0 -63 13.5 -96t44.5 -46.5t88 -13.5h70q100 0 170 28.5
t122.5 110t83.5 235.5h60zM962 1384h-680v110h680v-110z" />
    <glyph glyph-name="emacron" unicode="&#x113;" horiz-adv-x="970" 
d="M956 380q-59 -204 -180 -307t-294 -103q-122 0 -218 56t-151 164t-55 258q0 139 55 246.5t151 166.5t216 59q106 0 190.5 -47t135 -148t50.5 -255h-580q16 -86 63 -155t116 -108t149 -39q108 0 184.5 58t119.5 168zM311.5 743q-39.5 -57 -43.5 -165h323q-7 108 -49 165
t-116 57q-75 0 -114.5 -57zM780 1054h-600v120h600v-120z" />
    <glyph glyph-name="Ebreve" unicode="&#x114;" horiz-adv-x="1230" 
d="M1142 464v-464h-1066v88h150v1074h-150v88h1006v-426h-60q-39 136 -92.5 206.5t-147.5 100t-260 29.5h-32v-488q117 2 176 22.5t80.5 59.5t25.5 110h64v-494h-64q-4 79 -25.5 122t-80.5 65.5t-176 24.5v-336q0 -63 13.5 -96t44.5 -46.5t88 -13.5h70q100 0 170 28.5
t122.5 110t83.5 235.5h60zM914 1636q-36 -158 -106.5 -239t-185.5 -81t-185.5 81t-106.5 239h78l20 -38q32 -60 81.5 -92t112.5 -32t112.5 32t81.5 92l20 38h78z" />
    <glyph glyph-name="ebreve" unicode="&#x115;" horiz-adv-x="970" 
d="M956 380q-59 -204 -180 -307t-294 -103q-122 0 -218 56t-151 164t-55 258q0 139 55 246.5t151 166.5t216 59q106 0 190.5 -47t135 -148t50.5 -255h-580q16 -86 63 -155t116 -108t149 -39q108 0 184.5 58t119.5 168zM311.5 743q-39.5 -57 -43.5 -165h323q-7 108 -49 165
t-116 57q-75 0 -114.5 -57zM772 1312q-36 -165 -106.5 -249.5t-185.5 -84.5t-185.5 84.5t-106.5 249.5h84l18 -38q31 -66 79.5 -102t110.5 -36q116 0 188 138l20 38h84z" />
    <glyph glyph-name="Edotaccent" unicode="&#x116;" horiz-adv-x="1230" 
d="M1142 464v-464h-1066v88h150v1074h-150v88h1006v-426h-60q-39 136 -92.5 206.5t-147.5 100t-260 29.5h-32v-488q117 2 176 22.5t80.5 59.5t25.5 110h64v-494h-64q-4 79 -25.5 122t-80.5 65.5t-176 24.5v-336q0 -63 13.5 -96t44.5 -46.5t88 -13.5h70q100 0 170 28.5
t122.5 110t83.5 235.5h60zM546.5 1371.5q-35.5 21.5 -57 57t-21.5 75.5t21.5 75.5t57 57t75.5 21.5t75.5 -21.5t57 -57t21.5 -75.5t-21.5 -75.5t-57 -57t-75.5 -21.5t-75.5 21.5z" />
    <glyph glyph-name="edotaccent" unicode="&#x117;" horiz-adv-x="970" 
d="M956 380q-59 -204 -180 -307t-294 -103q-122 0 -218 56t-151 164t-55 258q0 139 55 246.5t151 166.5t216 59q106 0 190.5 -47t135 -148t50.5 -255h-580q16 -86 63 -155t116 -108t149 -39q108 0 184.5 58t119.5 168zM311.5 743q-39.5 -57 -43.5 -165h323q-7 108 -49 165
t-116 57q-75 0 -114.5 -57zM412 1024.5q-32 18.5 -51 50t-19 67.5t19 68.5t51 52t68 19.5t68 -19.5t51 -52t19 -68.5t-19 -67.5t-51 -50t-68 -18.5t-68 18.5z" />
    <glyph glyph-name="Eogonek" unicode="&#x118;" horiz-adv-x="1230" 
d="M1142 0q-95 -67 -130.5 -112.5t-35.5 -87.5q0 -33 18.5 -52.5t51.5 -19.5q40 0 76 18l8 -8v-160q-56 -38 -116 -38q-50 0 -90.5 21.5t-64 61t-23.5 91.5q0 50 31 107t95 127v52h-886v88h150v1074h-150v88h1006v-426h-60q-39 136 -92.5 206.5t-147.5 100t-260 29.5h-32
v-488q117 2 176 22.5t80.5 59.5t25.5 110h64v-494h-64q-4 79 -25.5 122t-80.5 65.5t-176 24.5v-336q0 -63 13.5 -96t44.5 -46.5t88 -13.5h70q100 0 170 28.5t122.5 110t83.5 235.5h60v-464z" />
    <glyph glyph-name="eogonek" unicode="&#x119;" horiz-adv-x="970" 
d="M525 -109.5q-33 -42.5 -33 -82.5q0 -33 18.5 -52.5t51.5 -19.5q40 0 76 18l8 -8v-160q-61 -38 -126 -38q-50 0 -93.5 21.5t-69 61.5t-25.5 91q0 55 34.5 113.5t111.5 133.5v1q-121 1 -216.5 57.5t-149.5 164t-54 256.5q0 139 55 246.5t151 166.5t216 59q106 0 190.5 -47
t135 -148t50.5 -255h-580q16 -86 63 -155t116 -108t149 -39q108 0 184.5 58t119.5 168l48 -14q-89 -304 -313 -384q-85 -63 -118 -105.5zM311.5 743q-39.5 -57 -43.5 -165h323q-7 108 -49 165t-116 57q-75 0 -114.5 -57z" />
    <glyph glyph-name="Ecaron" unicode="&#x11a;" horiz-adv-x="1230" 
d="M1142 464v-464h-1066v88h150v1074h-150v88h1006v-426h-60q-39 136 -92.5 206.5t-147.5 100t-260 29.5h-32v-488q117 2 176 22.5t80.5 59.5t25.5 110h64v-494h-64q-4 79 -25.5 122t-80.5 65.5t-176 24.5v-336q0 -63 13.5 -96t44.5 -46.5t88 -13.5h70q100 0 170 28.5
t122.5 110t83.5 235.5h60zM559 1396l277 240h70l-114 -306h-308l-146 306h94z" />
    <glyph glyph-name="ecaron" unicode="&#x11b;" horiz-adv-x="970" 
d="M956 380q-59 -204 -180 -307t-294 -103q-122 0 -218 56t-151 164t-55 258q0 139 55 246.5t151 166.5t216 59q106 0 190.5 -47t135 -148t50.5 -255h-580q16 -86 63 -155t116 -108t149 -39q108 0 184.5 58t119.5 168zM311.5 743q-39.5 -57 -43.5 -165h323q-7 108 -49 165
t-116 57q-75 0 -114.5 -57zM503 1088l173 222h104l-176 -324h-314l-110 324h80z" />
    <glyph glyph-name="Gcircumflex" unicode="&#x11c;" horiz-adv-x="1388" 
d="M1358 578v-90h-116v-508h-50l-192 220h-18q-56 -127 -127.5 -178.5t-178.5 -51.5q-163 0 -302 83t-220.5 224.5t-81.5 308.5q0 180 88 340t234.5 257t313.5 97q173 0 322 -99l86 79h44v-186l2 -2l-2 1v-317h-50q-109 178 -231 274t-275 96q-149 0 -230.5 -87.5
t-81.5 -256.5q0 -164 63.5 -295.5t173.5 -206t245 -74.5q93 0 140.5 40.5t47.5 131.5v110h-242v90h638zM886 1636l114 -306h-70l-277 240l-127 -240h-94l146 306h308z" />
    <glyph glyph-name="gcircumflex" unicode="&#x11d;" horiz-adv-x="952" 
d="M676 180q134 -7 192 -53t58 -133q0 -97 -65 -188t-186.5 -148.5t-280.5 -57.5q-103 0 -185.5 24t-129.5 68.5t-47 103.5q0 52 40 101t141 113q-151 99 -151 196q0 46 35.5 89t122.5 98q-70 38 -103 97t-33 126q0 91 45 159.5t128 106.5t195 38h468v-132h-157
q53 -67 53 -156q0 -110 -76 -189t-242 -109l-190 -34q-77 -14 -102.5 -26t-25.5 -30q0 -15 10 -23.5t40.5 -14t91.5 -8.5zM345.5 787.5q-31.5 -44.5 -31.5 -137.5q0 -71 19 -123.5t52 -80.5t75 -28q55 0 90.5 46t35.5 138q0 68 -20.5 120t-56 81t-79.5 29q-53 0 -84.5 -44.5
zM734.5 -197.5q63.5 20.5 63.5 63.5q0 104 -382 104q-56 0 -160 -4q-26 -23 -26 -56q0 -61 86 -94.5t236 -33.5q119 0 182.5 20.5zM672 1310l130 -324h-80l-249 214l-167 -214h-104l176 324h294z" />
    <glyph glyph-name="Gbreve" unicode="&#x11e;" horiz-adv-x="1388" 
d="M1358 578v-90h-116v-508h-50l-192 220h-18q-56 -127 -127.5 -178.5t-178.5 -51.5q-163 0 -302 83t-220.5 224.5t-81.5 308.5q0 180 88 340t234.5 257t313.5 97q173 0 322 -99l86 79h44v-186l2 -2l-2 1v-317h-50q-109 178 -231 274t-275 96q-149 0 -230.5 -87.5
t-81.5 -256.5q0 -164 63.5 -295.5t173.5 -206t245 -74.5q93 0 140.5 40.5t47.5 131.5v110h-242v90h638zM1008 1636q-36 -158 -106.5 -239t-185.5 -81t-185.5 81t-106.5 239h78l20 -38q32 -60 81.5 -92t112.5 -32t112.5 32t81.5 92l20 38h78z" />
    <glyph glyph-name="gbreve" unicode="&#x11f;" horiz-adv-x="952" 
d="M676 180q134 -7 192 -53t58 -133q0 -97 -65 -188t-186.5 -148.5t-280.5 -57.5q-103 0 -185.5 24t-129.5 68.5t-47 103.5q0 52 40 101t141 113q-151 99 -151 196q0 46 35.5 89t122.5 98q-70 38 -103 97t-33 126q0 91 45 159.5t128 106.5t195 38h468v-132h-157
q53 -67 53 -156q0 -110 -76 -189t-242 -109l-190 -34q-77 -14 -102.5 -26t-25.5 -30q0 -15 10 -23.5t40.5 -14t91.5 -8.5zM345.5 787.5q-31.5 -44.5 -31.5 -137.5q0 -71 19 -123.5t52 -80.5t75 -28q55 0 90.5 46t35.5 138q0 68 -20.5 120t-56 81t-79.5 29q-53 0 -84.5 -44.5
zM734.5 -197.5q63.5 20.5 63.5 63.5q0 104 -382 104q-56 0 -160 -4q-26 -23 -26 -56q0 -61 86 -94.5t236 -33.5q119 0 182.5 20.5zM794 1312q-36 -165 -106.5 -249.5t-185.5 -84.5t-185.5 84.5t-106.5 249.5h84l18 -38q31 -66 79.5 -102t110.5 -36q116 0 188 138l20 38h84z
" />
    <glyph glyph-name="Gdotaccent" unicode="&#x120;" horiz-adv-x="1388" 
d="M1358 578v-90h-116v-508h-50l-192 220h-18q-56 -127 -127.5 -178.5t-178.5 -51.5q-163 0 -302 83t-220.5 224.5t-81.5 308.5q0 180 88 340t234.5 257t313.5 97q173 0 322 -99l86 79h44v-186l2 -2l-2 1v-317h-50q-109 178 -231 274t-275 96q-149 0 -230.5 -87.5
t-81.5 -256.5q0 -164 63.5 -295.5t173.5 -206t245 -74.5q93 0 140.5 40.5t47.5 131.5v110h-242v90h638zM640.5 1371.5q-35.5 21.5 -57 57t-21.5 75.5t21.5 75.5t57 57t75.5 21.5t75.5 -21.5t57 -57t21.5 -75.5t-21.5 -75.5t-57 -57t-75.5 -21.5t-75.5 21.5z" />
    <glyph glyph-name="gdotaccent" unicode="&#x121;" horiz-adv-x="952" 
d="M676 180q134 -7 192 -53t58 -133q0 -97 -65 -188t-186.5 -148.5t-280.5 -57.5q-103 0 -185.5 24t-129.5 68.5t-47 103.5q0 52 40 101t141 113q-151 99 -151 196q0 46 35.5 89t122.5 98q-70 38 -103 97t-33 126q0 91 45 159.5t128 106.5t195 38h468v-132h-157
q53 -67 53 -156q0 -110 -76 -189t-242 -109l-190 -34q-77 -14 -102.5 -26t-25.5 -30q0 -15 10 -23.5t40.5 -14t91.5 -8.5zM345.5 787.5q-31.5 -44.5 -31.5 -137.5q0 -71 19 -123.5t52 -80.5t75 -28q55 0 90.5 46t35.5 138q0 68 -20.5 120t-56 81t-79.5 29q-53 0 -84.5 -44.5
zM734.5 -197.5q63.5 20.5 63.5 63.5q0 104 -382 104q-56 0 -160 -4q-26 -23 -26 -56q0 -61 86 -94.5t236 -33.5q119 0 182.5 20.5zM434 1024.5q-32 18.5 -51 50t-19 67.5t19 68.5t51 52t68 19.5t68 -19.5t51 -52t19 -68.5t-19 -67.5t-51 -50t-68 -18.5t-68 18.5z" />
    <glyph glyph-name="uni0122" unicode="&#x122;" horiz-adv-x="1388" 
d="M1358 578v-90h-116v-508h-50l-192 220h-18q-56 -127 -127.5 -178.5t-178.5 -51.5q-163 0 -302 83t-220.5 224.5t-81.5 308.5q0 180 88 340t234.5 257t313.5 97q173 0 322 -99l86 79h44v-186l2 -2l-2 1v-317h-50q-109 178 -231 274t-275 96q-149 0 -230.5 -87.5
t-81.5 -256.5q0 -164 63.5 -295.5t173.5 -206t245 -74.5q93 0 140.5 40.5t47.5 131.5v110h-242v90h638zM464 -486q78 23 114 51t36 67q0 34 -25 58t-95 50l56 178q112 -28 171 -83.5t59 -130.5q0 -82 -69.5 -154t-216.5 -120z" />
    <glyph glyph-name="uni0123" unicode="&#x123;" horiz-adv-x="952" 
d="M676 180q134 -7 192 -53t58 -133q0 -97 -65 -188t-186.5 -148.5t-280.5 -57.5q-103 0 -185.5 24t-129.5 68.5t-47 103.5q0 52 40 101t141 113q-151 99 -151 196q0 46 35.5 89t122.5 98q-70 38 -103 97t-33 126q0 91 45 159.5t128 106.5t195 38h468v-132h-157
q53 -67 53 -156q0 -110 -76 -189t-242 -109l-190 -34q-77 -14 -102.5 -26t-25.5 -30q0 -15 10 -23.5t40.5 -14t91.5 -8.5zM345.5 787.5q-31.5 -44.5 -31.5 -137.5q0 -71 19 -123.5t52 -80.5t75 -28q55 0 90.5 46t35.5 138q0 68 -20.5 120t-56 81t-79.5 29q-53 0 -84.5 -44.5
zM734.5 -197.5q63.5 20.5 63.5 63.5q0 104 -382 104q-56 0 -160 -4q-26 -23 -26 -56q0 -61 86 -94.5t236 -33.5q119 0 182.5 20.5zM576 976q-130 29 -184 70t-54 104q0 77 70 135.5t216 84.5l16 -78q-87 -14 -122.5 -34.5t-35.5 -49.5q0 -20 13 -34.5t43.5 -27t87.5 -26.5z
" />
    <glyph glyph-name="Hcircumflex" unicode="&#x124;" horiz-adv-x="1560" 
d="M1484 1250v-88h-150v-1074h150v-88h-570v88h150v502h-568v-502h150v-88h-570v88h150v1074h-150v88h570v-88h-150v-474h568v474h-150v88h570zM950 1636l114 -306h-70l-277 240l-127 -240h-94l146 306h308z" />
    <glyph glyph-name="hcircumflex" unicode="&#x125;" horiz-adv-x="1188" 
d="M28 0v84h140v1010q0 39 -14 58t-54 42l-72 44v48l376 114h20v-480l-8 -198h16q51 87 136.5 142.5t179.5 55.5q80 0 144.5 -39t101 -112.5t34.5 -170.5l-10 -514h140v-84h-520v84h124v450q0 89 -56 130.5t-150 41.5q-71 0 -101.5 -40t-30.5 -120v-462h124v-84h-520z
M454 1736l114 -306h-70l-277 240l-127 -240h-94l146 306h308z" />
    <glyph glyph-name="Hbar" unicode="&#x126;" horiz-adv-x="1560" 
d="M1494 950v-80h-160v-782h150v-88h-570v88h150v502h-568v-502h150v-88h-570v88h150v782h-160v80h160v212h-150v88h570v-88h-150v-212h568v212h-150v88h570v-88h-150v-212h160zM496 688h568v182h-568v-182z" />
    <glyph glyph-name="hbar" unicode="&#x127;" horiz-adv-x="1188" 
d="M1018 84h140v-84h-520v84h124v450q0 89 -56 130.5t-150 41.5q-71 0 -101.5 -40t-30.5 -120v-462h124v-84h-520v84h140v920h-124v98h124q-1 35 -15.5 52.5t-52.5 39.5l-72 44v48l376 114h20v-298h328v-98h-328v-84l-8 -198h16q51 87 136.5 142.5t179.5 55.5
q80 0 144.5 -39t101 -112.5t34.5 -170.5z" />
    <glyph glyph-name="Itilde" unicode="&#x128;" horiz-adv-x="722" 
d="M496 1162v-1074h150v-88h-570v88h150v1074h-150v88h570v-88h-150zM30 1366q23 98 54 150.5t68 71t88 18.5q43 0 78 -9t80 -26q40 -15 67.5 -22t58.5 -7q42 0 71.5 22.5t44.5 65.5l52 -6q-33 -139 -84.5 -189.5t-119.5 -50.5q-33 0 -65 8t-76 23q-52 17 -84.5 25t-68.5 8
q-42 0 -69.5 -21t-42.5 -65z" />
    <glyph glyph-name="itilde" unicode="&#x129;" horiz-adv-x="626" 
d="M598 84v-84h-556v84h150v530q0 39 -14 58t-54 42l-72 44v48l376 114h20v-836h150zM-12 1010q16 125 64.5 194.5t131.5 69.5q26 0 57.5 -10t78.5 -30t77 -30t55 -10q36 0 60.5 20t37.5 68l62 -6q-14 -121 -64 -192.5t-124 -71.5q-29 0 -60.5 10t-80.5 30t-79 30t-58 10
q-39 0 -61 -19t-35 -67z" />
    <glyph glyph-name="Imacron" unicode="&#x12a;" horiz-adv-x="722" 
d="M496 1162v-1074h150v-88h-570v88h150v1074h-150v88h570v-88h-150zM700 1384h-680v110h680v-110z" />
    <glyph glyph-name="imacron" unicode="&#x12b;" horiz-adv-x="626" 
d="M598 84v-84h-556v84h150v530q0 39 -14 58t-54 42l-72 44v48l376 114h20v-836h150zM600 1054h-600v120h600v-120z" />
    <glyph glyph-name="Ibreve" unicode="&#x12c;" horiz-adv-x="722" 
d="M496 1162v-1074h150v-88h-570v88h150v1074h-150v88h570v-88h-150zM652 1636q-36 -158 -106.5 -239t-185.5 -81t-185.5 81t-106.5 239h78l20 -38q32 -60 81.5 -92t112.5 -32t112.5 32t81.5 92l20 38h78z" />
    <glyph glyph-name="ibreve" unicode="&#x12d;" horiz-adv-x="626" 
d="M598 84v-84h-556v84h150v530q0 39 -14 58t-54 42l-72 44v48l376 114h20v-836h150zM592 1312q-36 -165 -106.5 -249.5t-185.5 -84.5t-185.5 84.5t-106.5 249.5h84l18 -38q31 -66 79.5 -102t110.5 -36q116 0 188 138l20 38h84z" />
    <glyph glyph-name="Iogonek" unicode="&#x12e;" horiz-adv-x="722" 
d="M496 88h150v-88q-95 -67 -130.5 -112.5t-35.5 -87.5q0 -33 18.5 -52.5t51.5 -19.5q40 0 76 18l8 -8v-160q-56 -38 -116 -38q-50 0 -90.5 21.5t-64 61t-23.5 91.5q0 50 31 107t95 127v52h-390v88h150v1074h-150v88h570v-88h-150v-1074z" />
    <glyph glyph-name="iogonek" unicode="&#x12f;" horiz-adv-x="626" 
d="M240.5 1009q-38.5 23 -61.5 61.5t-23 81.5q0 44 23 82.5t61.5 61t81.5 22.5q44 0 82.5 -22.5t61 -61t22.5 -82.5q0 -43 -22.5 -81.5t-61 -61.5t-82.5 -23q-43 0 -81.5 23zM598 0q-93 -43 -143.5 -73.5t-71.5 -58t-21 -60.5t18.5 -52.5t51.5 -19.5q40 0 76 18l8 -8v-160
q-61 -38 -126 -38q-50 0 -93.5 21.5t-69 61.5t-25.5 91q0 65 51.5 125.5t174.5 143.5v9h-386v84h150v530q0 39 -14 58t-54 42l-72 44v48l376 114h20v-836h150v-84z" />
    <glyph glyph-name="Idotaccent" unicode="&#x130;" horiz-adv-x="722" 
d="M496 1162v-1074h150v-88h-570v88h150v1074h-150v88h570v-88h-150zM284.5 1371.5q-35.5 21.5 -57 57t-21.5 75.5t21.5 75.5t57 57t75.5 21.5t75.5 -21.5t57 -57t21.5 -75.5t-21.5 -75.5t-57 -57t-75.5 -21.5t-75.5 21.5z" />
    <glyph glyph-name="dotlessi" unicode="&#x131;" horiz-adv-x="626" 
d="M598 84v-84h-556v84h150v530q0 39 -14 58t-54 42l-72 44v48l376 114h20v-836h150z" />
    <glyph glyph-name="IJ" unicode="&#x132;" horiz-adv-x="1418" 
d="M496 1162v-1074h150v-88h-570v88h150v1074h-150v88h570v-88h-150zM1360 1162h-150v-994q0 -109 -43.5 -186.5t-137 -148t-271.5 -169.5l-30 56q85 57 130 110t63.5 119.5t18.5 168.5v1044h-170v88h590v-88z" />
    <glyph glyph-name="ij" unicode="&#x133;" horiz-adv-x="1192" 
d="M240.5 1009q-38.5 23 -61.5 61.5t-23 81.5q0 44 23 82.5t61.5 61t81.5 22.5q44 0 82.5 -22.5t61 -61t22.5 -82.5q0 -43 -22.5 -81.5t-61 -61.5t-82.5 -23q-43 0 -81.5 23zM598 84v-84h-556v84h150v530q0 39 -14 58t-54 42l-72 44v48l376 114h20v-836h150zM840.5 1009
q-38.5 23 -61.5 61.5t-23 81.5q0 44 23 82.5t61.5 61t81.5 22.5q44 0 82.5 -22.5t61 -61t22.5 -82.5q0 -43 -22.5 -81.5t-61 -61.5t-82.5 -23q-43 0 -81.5 23zM580 -138l12 6q65 -40 92.5 -53t57.5 -13q24 0 42 18q11 15 16.5 40.5t5.5 77.5v676q0 37 -13 55.5t-55 44.5
l-72 44v48l376 114h20v-764q0 -128 -75 -257.5t-185 -214t-206 -84.5q-79 0 -130 62z" />
    <glyph glyph-name="Jcircumflex" unicode="&#x134;" horiz-adv-x="692" 
d="M634 1162h-150v-994q0 -109 -43.5 -186.5t-137 -148t-271.5 -169.5l-30 56q85 57 130 110t63.5 119.5t18.5 168.5v1044h-170v88h590v-88zM510 1636l114 -306h-70l-277 240l-127 -240h-94l146 306h308z" />
    <glyph glyph-name="jcircumflex" unicode="&#x135;" horiz-adv-x="558" 
d="M-54 -138l12 6q65 -40 92.5 -53t57.5 -13q24 0 42 18q11 15 16.5 40.5t5.5 77.5v676q0 37 -13 55.5t-55 44.5l-72 44v48l376 114h20v-764q0 -128 -75 -257.5t-185 -214t-206 -84.5q-79 0 -130 62zM468 1310l130 -324h-80l-249 214l-167 -214h-104l176 324h294z" />
    <glyph glyph-name="uni0136" unicode="&#x136;" horiz-adv-x="1402" 
d="M1284 88h126v-88h-582v88h125l-334 498l-123 -122v-376h150v-88h-570v88h150v1074h-150v88h570v-88h-150v-551l358 353q71 70 90.5 104t19.5 56q0 20 -15 31.5t-55 14.5l-50 4v76h486v-88h-130l-396 -393zM544 -486q78 23 114 51t36 67q0 34 -25 58t-95 50l56 178
q112 -28 171 -83.5t59 -130.5q0 -82 -69.5 -154t-216.5 -120z" />
    <glyph glyph-name="uni0137" unicode="&#x137;" horiz-adv-x="1148" 
d="M1050 84h110v-84h-492v84h82l-217 312l-103 -97v-215h150v-84h-556v84h150v1010q0 39 -14 58t-54 42l-72 44v48l376 114h20v-987l202 193q59 57 87.5 87.5t39.5 48.5t11 34q0 18 -14.5 29t-55.5 15l-50 6v64h446v-84h-124l-261 -244zM478 -402q87 14 122.5 34.5
t35.5 49.5q0 20 -13 34.5t-43.5 27t-87.5 26.5l50 144q130 -29 184 -70t54 -104q0 -77 -70 -135.5t-216 -84.5z" />
    <glyph glyph-name="kgreenlandic" unicode="&#x138;" horiz-adv-x="1166" 
d="M1068 84h110v-84h-492v84h82l-217 312l-103 -97v-215h150v-84h-556v84h150v530q0 39 -14 58t-54 42l-72 44v48l376 114h20v-507l202 193q59 57 87.5 87.5t39.5 48.5t11 34q0 18 -14.5 29t-55.5 15l-50 6v64h446v-84h-124l-261 -244z" />
    <glyph glyph-name="Lacute" unicode="&#x139;" horiz-adv-x="1206" 
d="M496 242q0 -68 13 -99t48 -42t113 -11h60q92 0 156 33t114 118t92 241h60v-482h-1076v88h150v1074h-150v88h570v-88h-150v-920zM442 1636h284l-316 -306h-80z" />
    <glyph glyph-name="lacute" unicode="&#x13a;" horiz-adv-x="612" 
d="M584 84v-84h-556v84h150v1010q0 39 -14 58t-54 42l-72 44v48l376 114h20v-1316h150zM300 1426h-60l90 324h284z" />
    <glyph glyph-name="uni013B" unicode="&#x13b;" horiz-adv-x="1206" 
d="M496 242q0 -68 13 -99t48 -42t113 -11h60q92 0 156 33t114 118t92 241h60v-482h-1076v88h150v1074h-150v88h570v-88h-150v-920zM428 -486q78 23 114 51t36 67q0 34 -25 58t-95 50l56 178q112 -28 171 -83.5t59 -130.5q0 -82 -69.5 -154t-216.5 -120z" />
    <glyph glyph-name="uni013C" unicode="&#x13c;" horiz-adv-x="612" 
d="M584 84v-84h-556v84h150v1010q0 39 -14 58t-54 42l-72 44v48l376 114h20v-1316h150zM160 -402q87 14 122.5 34.5t35.5 49.5q0 20 -13 34.5t-43.5 27t-87.5 26.5l50 144q130 -29 184 -70t54 -104q0 -77 -70 -135.5t-216 -84.5z" />
    <glyph glyph-name="Lcaron" unicode="&#x13d;" horiz-adv-x="1208" 
d="M496 242q0 -68 13 -99t48 -42t113 -11h60q92 0 156 33t114 118t92 241h60v-482h-1076v88h150v1074h-150v88h570v-88h-150v-920zM822 1250h264l-236 -416h-64z" />
    <glyph glyph-name="lcaron" unicode="&#x13e;" horiz-adv-x="612" 
d="M584 84v-84h-556v84h150v1010q0 39 -14 58t-54 42l-72 44v48l376 114h20v-1316h150zM562 1370h264l-236 -416h-64z" />
    <glyph glyph-name="Ldot" unicode="&#x13f;" horiz-adv-x="1266" 
d="M496 242q0 -68 13 -99t48 -42t113 -11h60q92 0 156 33t114 118t92 241h60v-482h-1076v88h150v1074h-150v88h570v-88h-150v-920zM918.5 657.5q-35.5 21.5 -57 57t-21.5 75.5t21.5 75.5t57 57t75.5 21.5t75.5 -21.5t57 -57t21.5 -75.5t-21.5 -75.5t-57 -57t-75.5 -21.5
t-75.5 21.5z" />
    <glyph glyph-name="ldot" unicode="&#x140;" horiz-adv-x="696" 
d="M584 84v-84h-556v84h150v1010q0 39 -14 58t-54 42l-72 44v48l376 114h20v-1316h150zM578.5 621.5q-35.5 21.5 -57 57t-21.5 75.5t21.5 75.5t57 57t75.5 21.5t75.5 -21.5t57 -57t21.5 -75.5t-21.5 -75.5t-57 -57t-75.5 -21.5t-75.5 21.5z" />
    <glyph glyph-name="Lslash" unicode="&#x141;" horiz-adv-x="1228" 
d="M1174 482v-482h-1076v88h150v426l-164 -54v120l164 54v528h-150v88h570v-88h-150v-440l276 90v-120l-276 -90v-360q0 -68 13 -99t48 -42t113 -11h60q92 0 156 33t114 118t92 241h60z" />
    <glyph glyph-name="lslash" unicode="&#x142;" horiz-adv-x="646" 
d="M454 84h150v-84h-556v84h150v489l-130 -81v100l130 81v421q0 39 -14 58t-54 42l-72 44v48l376 114h20v-588l130 80v-100l-130 -80v-628z" />
    <glyph glyph-name="Nacute" unicode="&#x143;" horiz-adv-x="1464" 
d="M944 1250h464v-88h-144l-10 -318v-844h-76l-826 855v-611q0 -67 11.5 -98.5t40.5 -44t92 -17.5l50 -4v-80h-464v88h144l10 258v586q0 79 -13.5 119.5t-41 61t-87.5 47.5l-32 14v76h274l692 -714l110 -118v588q0 67 -11.5 98.5t-40.5 44t-92 17.5l-50 4v80zM808 1636h284
l-316 -306h-80z" />
    <glyph glyph-name="nacute" unicode="&#x144;" horiz-adv-x="1212" 
d="M478.5 666q-30.5 -40 -30.5 -120v-462h124v-84h-530v84h150v540q0 41 -14.5 61t-53.5 39l-72 34v48l376 114h20l-8 -198h16q51 87 136.5 142.5t179.5 55.5q80 0 144.5 -38t101 -108.5t34.5 -165.5l-10 -524h150v-84h-530v84h124v450q0 89 -56 130.5t-150 41.5
q-71 0 -101.5 -40zM642 986h-60l90 324h284z" />
    <glyph glyph-name="uni0145" unicode="&#x145;" horiz-adv-x="1464" 
d="M944 1250h464v-88h-144l-10 -318v-844h-76l-826 855v-611q0 -67 11.5 -98.5t40.5 -44t92 -17.5l50 -4v-80h-464v88h144l10 258v586q0 79 -13.5 119.5t-41 61t-87.5 47.5l-32 14v76h274l692 -714l110 -118v588q0 67 -11.5 98.5t-40.5 44t-92 17.5l-50 4v80zM540 -486
q78 23 114 51t36 67q0 34 -25 58t-95 50l56 178q112 -28 171 -83.5t59 -130.5q0 -82 -69.5 -154t-216.5 -120z" />
    <glyph glyph-name="uni0146" unicode="&#x146;" horiz-adv-x="1212" 
d="M478.5 666q-30.5 -40 -30.5 -120v-462h124v-84h-530v84h150v540q0 41 -14.5 61t-53.5 39l-72 34v48l376 114h20l-8 -198h16q51 87 136.5 142.5t179.5 55.5q80 0 144.5 -38t101 -108.5t34.5 -165.5l-10 -524h150v-84h-530v84h124v450q0 89 -56 130.5t-150 41.5
q-71 0 -101.5 -40zM430 -402q87 14 122.5 34.5t35.5 49.5q0 20 -13 34.5t-43.5 27t-87.5 26.5l50 144q130 -29 184 -70t54 -104q0 -77 -70 -135.5t-216 -84.5z" />
    <glyph glyph-name="Ncaron" unicode="&#x147;" horiz-adv-x="1464" 
d="M944 1250h464v-88h-144l-10 -318v-844h-76l-826 855v-611q0 -67 11.5 -98.5t40.5 -44t92 -17.5l50 -4v-80h-464v88h144l10 258v586q0 79 -13.5 119.5t-41 61t-87.5 47.5l-32 14v76h274l692 -714l110 -118v588q0 67 -11.5 98.5t-40.5 44t-92 17.5l-50 4v80zM669 1396
l277 240h70l-114 -306h-308l-146 306h94z" />
    <glyph glyph-name="ncaron" unicode="&#x148;" horiz-adv-x="1212" 
d="M478.5 666q-30.5 -40 -30.5 -120v-462h124v-84h-530v84h150v540q0 41 -14.5 61t-53.5 39l-72 34v48l376 114h20l-8 -198h16q51 87 136.5 142.5t179.5 55.5q80 0 144.5 -38t101 -108.5t34.5 -165.5l-10 -524h150v-84h-530v84h124v450q0 89 -56 130.5t-150 41.5
q-71 0 -101.5 -40zM633 1088l173 222h104l-176 -324h-314l-110 324h80z" />
    <glyph glyph-name="Eng" unicode="&#x14a;" horiz-adv-x="1464" 
d="M944 1250h464v-88h-144l-10 -318v-710q0 -249 -99 -376.5t-293 -127.5h-116v226h116q129 0 192.5 47t74.5 146l-777 806v-611q0 -67 11.5 -98.5t40.5 -44t92 -17.5l50 -4v-80h-464v88h144l10 258v586q0 79 -13.5 119.5t-41 61t-87.5 47.5l-32 14v76h274l692 -716
l110 -118v590q0 67 -11.5 98.5t-40.5 44t-92 17.5l-50 4v80z" />
    <glyph glyph-name="eng" unicode="&#x14b;" horiz-adv-x="1162" 
d="M388 -356l114 206l12 6q69 -31 128 -47.5t90 -16.5q34 0 47 22.5t13 85.5v644q0 84 -59 123t-165 39q-63 0 -91.5 -45t-28.5 -135v-440h144v-86h-550v86h150v538q0 41 -14.5 61t-53.5 39l-72 34v48l376 114h20l-8 -198h16q53 95 141 146.5t181 51.5q77 0 138 -35.5
t96.5 -108t35.5 -178.5v-458q0 -113 -82.5 -240t-204.5 -213.5t-231 -86.5q-86 0 -142 44z" />
    <glyph glyph-name="Omacron" unicode="&#x14c;" horiz-adv-x="1466" 
d="M388.5 51q-146.5 81 -231.5 223t-85 316q0 185 86.5 343.5t242.5 252.5t353 94q176 0 322.5 -75.5t232 -211.5t85.5 -309q0 -191 -87 -355t-243 -261.5t-352 -97.5q-177 0 -323.5 81zM1009.5 173.5q69.5 43.5 108 128t38.5 204.5q0 158 -75 300t-199 228t-262 86
q-94 0 -163.5 -40t-108 -119t-38.5 -193q0 -161 76.5 -308.5t201.5 -238.5t260 -91q92 0 161.5 43.5zM1074 1384h-680v110h680v-110z" />
    <glyph glyph-name="omacron" unicode="&#x14d;" horiz-adv-x="1054" 
d="M788.5 864q100.5 -56 156 -156.5t55.5 -229.5q0 -138 -70 -254.5t-187 -185t-249 -68.5q-128 0 -228.5 56t-156 156.5t-55.5 229.5q0 138 70 254.5t187 185t249 68.5q128 0 228.5 -56zM306 707q-36 -47 -36 -127q0 -108 57 -211.5t144.5 -168t170.5 -64.5q72 0 107 47.5
t35 126.5q0 108 -56 211.5t-142.5 168t-171.5 64.5q-72 0 -108 -47zM810 1054h-600v120h600v-120z" />
    <glyph glyph-name="Obreve" unicode="&#x14e;" horiz-adv-x="1466" 
d="M388.5 51q-146.5 81 -231.5 223t-85 316q0 185 86.5 343.5t242.5 252.5t353 94q176 0 322.5 -75.5t232 -211.5t85.5 -309q0 -191 -87 -355t-243 -261.5t-352 -97.5q-177 0 -323.5 81zM1009.5 173.5q69.5 43.5 108 128t38.5 204.5q0 158 -75 300t-199 228t-262 86
q-94 0 -163.5 -40t-108 -119t-38.5 -193q0 -161 76.5 -308.5t201.5 -238.5t260 -91q92 0 161.5 43.5zM1026 1636q-36 -158 -106.5 -239t-185.5 -81t-185.5 81t-106.5 239h78l20 -38q32 -60 81.5 -92t112.5 -32t112.5 32t81.5 92l20 38h78z" />
    <glyph glyph-name="obreve" unicode="&#x14f;" horiz-adv-x="1054" 
d="M788.5 864q100.5 -56 156 -156.5t55.5 -229.5q0 -138 -70 -254.5t-187 -185t-249 -68.5q-128 0 -228.5 56t-156 156.5t-55.5 229.5q0 138 70 254.5t187 185t249 68.5q128 0 228.5 -56zM306 707q-36 -47 -36 -127q0 -108 57 -211.5t144.5 -168t170.5 -64.5q72 0 107 47.5
t35 126.5q0 108 -56 211.5t-142.5 168t-171.5 64.5q-72 0 -108 -47zM802 1312q-36 -165 -106.5 -249.5t-185.5 -84.5t-185.5 84.5t-106.5 249.5h84l18 -38q31 -66 79.5 -102t110.5 -36q116 0 188 138l20 38h84z" />
    <glyph glyph-name="Ohungarumlaut" unicode="&#x150;" horiz-adv-x="1466" 
d="M388.5 51q-146.5 81 -231.5 223t-85 316q0 185 86.5 343.5t242.5 252.5t353 94q176 0 322.5 -75.5t232 -211.5t85.5 -309q0 -191 -87 -355t-243 -261.5t-352 -97.5q-177 0 -323.5 81zM1009.5 173.5q69.5 43.5 108 128t38.5 204.5q0 158 -75 300t-199 228t-262 86
q-94 0 -163.5 -40t-108 -119t-38.5 -193q0 -161 76.5 -308.5t201.5 -238.5t260 -91q92 0 161.5 43.5zM622 1636h264l-290 -306h-60zM936 1636h264l-290 -306h-60z" />
    <glyph glyph-name="ohungarumlaut" unicode="&#x151;" horiz-adv-x="1054" 
d="M788.5 864q100.5 -56 156 -156.5t55.5 -229.5q0 -138 -70 -254.5t-187 -185t-249 -68.5q-128 0 -228.5 56t-156 156.5t-55.5 229.5q0 138 70 254.5t187 185t249 68.5q128 0 228.5 -56zM306 707q-36 -47 -36 -127q0 -108 57 -211.5t144.5 -168t170.5 -64.5q72 0 107 47.5
t35 126.5q0 108 -56 211.5t-142.5 168t-171.5 64.5q-72 0 -108 -47zM428 1310h264l-316 -324h-60zM742 1310h264l-316 -324h-60z" />
    <glyph glyph-name="OE" unicode="&#x152;" horiz-adv-x="1980" 
d="M1892 464v-464h-1012q-253 0 -434.5 73t-276.5 210.5t-95 328.5q0 198 90 341t265.5 220t426.5 77h976v-426h-60q-39 136 -93 207t-147.5 100t-259.5 29h-26v-488q114 2 172 23t79 60t25 109h64v-494h-64q-4 78 -25 121t-79 65.5t-172 25.5v-336q0 -63 12 -96t41.5 -46.5
t86.5 -13.5h70q100 0 170 28t122.5 110t83.5 236h60zM976 90v920q0 64 -13 94t-51 42t-122 12q-426 0 -426 -532q0 -281 131.5 -408.5t398.5 -127.5h82z" />
    <glyph glyph-name="oe" unicode="&#x153;" horiz-adv-x="1698" 
d="M1684 380q-59 -204 -180 -307t-294 -103q-108 0 -196 44t-145 127q-72 -80 -170 -125.5t-205 -45.5q-128 0 -228.5 56t-156 156.5t-55.5 229.5q0 138 70 254.5t187 185t249 68.5q104 0 190 -37.5t145 -105.5q57 69 138 106t175 37q106 0 190.5 -47t135 -148t50.5 -255
h-580q16 -86 63 -155t116 -108t149 -39q108 0 184.5 58t119.5 168zM1039.5 743q-39.5 -57 -43.5 -165h323q-7 108 -49 165t-116 57q-75 0 -114.5 -57zM749 183.5q35 47.5 35 126.5q0 108 -56 211.5t-142.5 168t-171.5 64.5q-72 0 -108 -47t-36 -127q0 -108 57 -211.5
t144.5 -168t170.5 -64.5q72 0 107 47.5z" />
    <glyph glyph-name="Racute" unicode="&#x154;" horiz-adv-x="1388" 
d="M1304 100q51 -32 105 -32q9 0 27 2v-72q-41 -4 -100 -7t-96 -3q-108 0 -186.5 34.5t-151.5 127.5q-40 51 -84.5 114t-71.5 103t-41 61q-37 56 -99 146h-110v-486h150v-88h-570v88h150v1074h-150v88h644q137 0 242.5 -34t165.5 -103t60 -171q0 -126 -85 -208t-238 -123
l20 -26q92 -119 157 -200.5t148 -178.5q63 -74 114 -106zM496 1160v-496h156q129 20 187.5 80.5t58.5 177.5q0 119 -59.5 178.5t-186.5 59.5h-156zM656 1636h284l-316 -306h-80z" />
    <glyph glyph-name="racute" unicode="&#x155;" horiz-adv-x="878" 
d="M796.5 892q47.5 -28 77.5 -86l-98 -182h-16l-26 13q-58 30 -90 42.5t-68 12.5q-62 0 -95 -38t-33 -114v-456h190v-84h-596v84h150v540q0 41 -14.5 61t-53.5 39l-72 34v48l372 114h20l-10 -212h14q99 212 246 212q55 0 102.5 -28zM486 986h-60l90 324h284z" />
    <glyph glyph-name="uni0156" unicode="&#x156;" horiz-adv-x="1388" 
d="M1304 100q51 -32 105 -32q9 0 27 2v-72q-41 -4 -100 -7t-96 -3q-108 0 -186.5 34.5t-151.5 127.5q-40 51 -84.5 114t-71.5 103t-41 61q-37 56 -99 146h-110v-486h150v-88h-570v88h150v1074h-150v88h644q137 0 242.5 -34t165.5 -103t60 -171q0 -126 -85 -208t-238 -123
l20 -26q92 -119 157 -200.5t148 -178.5q63 -74 114 -106zM496 1160v-496h156q129 20 187.5 80.5t58.5 177.5q0 119 -59.5 178.5t-186.5 59.5h-156zM558 -486q78 23 114 51t36 67q0 34 -25 58t-95 50l56 178q112 -28 171 -83.5t59 -130.5q0 -82 -69.5 -154t-216.5 -120z" />
    <glyph glyph-name="uni0157" unicode="&#x157;" horiz-adv-x="878" 
d="M796.5 892q47.5 -28 77.5 -86l-98 -182h-16l-26 13q-58 30 -90 42.5t-68 12.5q-62 0 -95 -38t-33 -114v-456h190v-84h-596v84h150v540q0 41 -14.5 61t-53.5 39l-72 34v48l372 114h20l-10 -212h14q99 212 246 212q55 0 102.5 -28zM168 -402q87 14 122.5 34.5t35.5 49.5
q0 20 -13 34.5t-43.5 27t-87.5 26.5l50 144q130 -29 184 -70t54 -104q0 -77 -70 -135.5t-216 -84.5z" />
    <glyph glyph-name="Rcaron" unicode="&#x158;" horiz-adv-x="1388" 
d="M1304 100q51 -32 105 -32q9 0 27 2v-72q-41 -4 -100 -7t-96 -3q-108 0 -186.5 34.5t-151.5 127.5q-40 51 -84.5 114t-71.5 103t-41 61q-37 56 -99 146h-110v-486h150v-88h-570v88h150v1074h-150v88h644q137 0 242.5 -34t165.5 -103t60 -171q0 -126 -85 -208t-238 -123
l20 -26q92 -119 157 -200.5t148 -178.5q63 -74 114 -106zM496 1160v-496h156q129 20 187.5 80.5t58.5 177.5q0 119 -59.5 178.5t-186.5 59.5h-156zM517 1396l277 240h70l-114 -306h-308l-146 306h94z" />
    <glyph glyph-name="rcaron" unicode="&#x159;" horiz-adv-x="878" 
d="M796.5 892q47.5 -28 77.5 -86l-98 -182h-16l-26 13q-58 30 -90 42.5t-68 12.5q-62 0 -95 -38t-33 -114v-456h190v-84h-596v84h150v540q0 41 -14.5 61t-53.5 39l-72 34v48l372 114h20l-10 -212h14q99 212 246 212q55 0 102.5 -28zM477 1088l173 222h104l-176 -324h-314
l-110 324h80z" />
    <glyph glyph-name="Sacute" unicode="&#x15a;" horiz-adv-x="1114" 
d="M754 724q150 -43 216 -123t66 -213q0 -120 -48 -214.5t-143.5 -149t-232.5 -54.5q-103 0 -192 32t-184 96l-76 -98h-58v492h66q86 -160 220 -254t288 -94q101 0 161.5 44.5t60.5 121.5q0 54 -38.5 88t-127.5 60l-308 88q-161 46 -234.5 130.5t-73.5 219.5q0 120 53 206.5
t146 132t211 45.5q89 0 165.5 -26.5t147.5 -77.5l67 92h58v-444h-60q-105 135 -228.5 208.5t-251.5 73.5q-81 0 -125.5 -33t-44.5 -103q0 -52 35.5 -88t112.5 -58zM630 1636h284l-316 -306h-80z" />
    <glyph glyph-name="sacute" unicode="&#x15b;" horiz-adv-x="818" 
d="M544 538q113 -55 159.5 -125t46.5 -153q0 -86 -44 -152t-121.5 -102t-176.5 -36q-88 0 -168 26.5t-144 73.5l-28 262h42q68 -134 138 -192t148 -58q58 0 87 28t29 74q0 42 -26 75t-84 61l-110 54q-109 53 -156.5 129t-47.5 159q0 75 36 134t102 91.5t152 32.5
q124 0 216 -70l80 56h28l14 -318h-40q-87 122 -153.5 174t-124.5 52q-40 0 -63 -22.5t-23 -63.5q0 -43 29 -74.5t95 -63.5zM432 986h-60l90 324h284z" />
    <glyph glyph-name="Scircumflex" unicode="&#x15c;" horiz-adv-x="1114" 
d="M754 724q150 -43 216 -123t66 -213q0 -120 -48 -214.5t-143.5 -149t-232.5 -54.5q-103 0 -192 32t-184 96l-76 -98h-58v492h66q86 -160 220 -254t288 -94q101 0 161.5 44.5t60.5 121.5q0 54 -38.5 88t-127.5 60l-308 88q-161 46 -234.5 130.5t-73.5 219.5q0 120 53 206.5
t146 132t211 45.5q89 0 165.5 -26.5t147.5 -77.5l67 92h58v-444h-60q-105 135 -228.5 208.5t-251.5 73.5q-81 0 -125.5 -33t-44.5 -103q0 -52 35.5 -88t112.5 -58zM724 1636l114 -306h-70l-277 240l-127 -240h-94l146 306h308z" />
    <glyph glyph-name="scircumflex" unicode="&#x15d;" horiz-adv-x="818" 
d="M544 538q113 -55 159.5 -125t46.5 -153q0 -86 -44 -152t-121.5 -102t-176.5 -36q-88 0 -168 26.5t-144 73.5l-28 262h42q68 -134 138 -192t148 -58q58 0 87 28t29 74q0 42 -26 75t-84 61l-110 54q-109 53 -156.5 129t-47.5 159q0 75 36 134t102 91.5t152 32.5
q124 0 216 -70l80 56h28l14 -318h-40q-87 122 -153.5 174t-124.5 52q-40 0 -63 -22.5t-23 -63.5q0 -43 29 -74.5t95 -63.5zM570 1310l130 -324h-80l-249 214l-167 -214h-104l176 324h294z" />
    <glyph glyph-name="Scedilla" unicode="&#x15e;" horiz-adv-x="1114" 
d="M511 -22l-30 -71q110 -11 167.5 -62.5t57.5 -138.5q0 -60 -26 -106t-71.5 -71t-102.5 -25q-69 0 -130 35.5t-106 92.5l62 86h16q51 -44 88.5 -62t81.5 -18q36 0 57 14t21 42q0 41 -53.5 60.5t-162.5 19.5l-24 16l81 206q-94 30 -201 102l-76 -98h-58v492h66
q86 -160 220 -254t288 -94q101 0 161.5 44.5t60.5 121.5q0 54 -38.5 88t-127.5 60l-308 88q-161 46 -234.5 130.5t-73.5 219.5q0 120 53 206.5t146 132t211 45.5q89 0 165.5 -26.5t147.5 -77.5l67 92h58v-444h-60q-105 135 -228.5 208.5t-251.5 73.5q-81 0 -125.5 -33
t-44.5 -103q0 -52 35.5 -88t112.5 -58l352 -100q150 -43 216 -123t66 -213q0 -120 -48 -214.5t-143.5 -149t-232.5 -54.5q-50 0 -101 8z" />
    <glyph glyph-name="scedilla" unicode="&#x15f;" horiz-adv-x="818" 
d="M711 115.5q-39 -63.5 -109 -101t-160 -43.5l-27 -64q110 -11 167.5 -62.5t57.5 -138.5q0 -60 -26 -106t-71.5 -71t-102.5 -25q-69 0 -130 35.5t-106 92.5l62 86h16q51 -44 88.5 -62t81.5 -18q36 0 57 14t21 42q0 41 -53.5 60.5t-162.5 19.5l-24 16l72 182
q-75 7 -143 32.5t-123 65.5l-28 262h42q68 -134 138 -192t148 -58q58 0 87 28t29 74q0 42 -26 75t-84 61l-110 54q-109 53 -156.5 129t-47.5 159q0 75 36 134t102 91.5t152 32.5q124 0 216 -70l80 56h28l14 -318h-40q-87 122 -153.5 174t-124.5 52q-40 0 -63 -22.5
t-23 -63.5q0 -43 29 -74.5t95 -63.5l108 -52q113 -55 159.5 -125t46.5 -153q0 -81 -39 -144.5z" />
    <glyph glyph-name="Scaron" unicode="&#x160;" horiz-adv-x="1114" 
d="M754 724q150 -43 216 -123t66 -213q0 -120 -48 -214.5t-143.5 -149t-232.5 -54.5q-103 0 -192 32t-184 96l-76 -98h-58v492h66q86 -160 220 -254t288 -94q101 0 161.5 44.5t60.5 121.5q0 54 -38.5 88t-127.5 60l-308 88q-161 46 -234.5 130.5t-73.5 219.5q0 120 53 206.5
t146 132t211 45.5q89 0 165.5 -26.5t147.5 -77.5l67 92h58v-444h-60q-105 135 -228.5 208.5t-251.5 73.5q-81 0 -125.5 -33t-44.5 -103q0 -52 35.5 -88t112.5 -58zM491 1396l277 240h70l-114 -306h-308l-146 306h94z" />
    <glyph glyph-name="scaron" unicode="&#x161;" horiz-adv-x="818" 
d="M544 538q113 -55 159.5 -125t46.5 -153q0 -86 -44 -152t-121.5 -102t-176.5 -36q-88 0 -168 26.5t-144 73.5l-28 262h42q68 -134 138 -192t148 -58q58 0 87 28t29 74q0 42 -26 75t-84 61l-110 54q-109 53 -156.5 129t-47.5 159q0 75 36 134t102 91.5t152 32.5
q124 0 216 -70l80 56h28l14 -318h-40q-87 122 -153.5 174t-124.5 52q-40 0 -63 -22.5t-23 -63.5q0 -43 29 -74.5t95 -63.5zM423 1088l173 222h104l-176 -324h-314l-110 324h80z" />
    <glyph glyph-name="uni0162" unicode="&#x162;" horiz-adv-x="1278" 
d="M1222 784h-74q-25 150 -69.5 230t-116 112t-188.5 34v-1072h192v-88h-359l-40 -93q110 -11 167.5 -62.5t57.5 -138.5q0 -60 -26 -106t-71.5 -71t-102.5 -25q-69 0 -130 35.5t-106 92.5l62 86h16q51 -44 88.5 -62t81.5 -18q36 0 57 14t21 42q0 41 -53.5 60.5t-162.5 19.5
l-24 16l83 210h-213v88h192v1072q-117 -2 -188.5 -33t-116 -111.5t-69.5 -231.5h-74v466h1166v-466z" />
    <glyph glyph-name="uni0163" unicode="&#x163;" horiz-adv-x="780" 
d="M778 290q-127 -314 -348 -320l-27 -63q110 -11 167.5 -62.5t57.5 -138.5q0 -60 -26 -106t-71.5 -71t-102.5 -25q-69 0 -130 35.5t-106 92.5l62 86h16q51 -44 88.5 -62t81.5 -18q36 0 57 14t21 42q0 41 -53.5 60.5t-162.5 19.5l-24 16l74 188q-87 22 -138.5 99t-51.5 207
v448h-136v54q119 60 201 145.5t127 190.5h64v-232h324l-78 -158h-246v-400q0 -74 31 -106t91 -32q57 0 106.5 28t93.5 90z" />
    <glyph glyph-name="Tcaron" unicode="&#x164;" horiz-adv-x="1278" 
d="M1222 784h-74q-25 150 -69.5 230t-116 112t-188.5 34v-1072h192v-88h-654v88h192v1072q-117 -2 -188.5 -33t-116 -111.5t-69.5 -231.5h-74v466h1166v-466zM577 1396l277 240h70l-114 -306h-308l-146 306h94z" />
    <glyph glyph-name="tcaron" unicode="&#x165;" horiz-adv-x="780" 
d="M289 4.5q-59 34.5 -93 105t-34 174.5v448h-136v54q119 60 201 145.5t127 190.5h64v-232h324l-78 -158h-246v-400q0 -74 31 -106t91 -32q57 0 106.5 28t93.5 90l38 -22q-130 -320 -356 -320q-74 0 -133 34.5zM576 1410h264l-236 -416h-64z" />
    <glyph glyph-name="Tbar" unicode="&#x166;" horiz-adv-x="1278" 
d="M1222 784h-74q-25 150 -69.5 230t-116 112t-188.5 34v-546h280v-100h-280v-426h192v-88h-654v88h192v426h-280v100h280v546q-117 -2 -188.5 -33t-116 -111.5t-69.5 -231.5h-74v466h1166v-466z" />
    <glyph glyph-name="tbar" unicode="&#x167;" horiz-adv-x="782" 
d="M780 290q-130 -320 -356 -320q-74 0 -133 34.5t-93 105t-34 174.5v168h-120v90h120v190h-136v54q119 60 201 145.5t127 190.5h64v-232h324l-78 -158h-246v-190h188v-90h-188v-120q0 -74 31 -106t91 -32q57 0 106.5 28t93.5 90z" />
    <glyph glyph-name="Utilde" unicode="&#x168;" horiz-adv-x="1412" 
d="M914 1250h458v-88h-144l-10 -318v-276q0 -296 -126.5 -447t-367.5 -151q-164 0 -284 63t-184 180t-64 277v672h-150v88h570v-88h-150v-612q0 -133 33 -215.5t105.5 -122.5t191.5 -40q113 0 182 37t101.5 119t32.5 218v460q0 67 -11.5 98.5t-40.5 44t-92 17.5l-50 4v80z
M424 1366q23 98 54 150.5t68 71t88 18.5q43 0 78 -9t80 -26q40 -15 67.5 -22t58.5 -7q42 0 71.5 22.5t44.5 65.5l52 -6q-33 -139 -84.5 -189.5t-119.5 -50.5q-33 0 -65 8t-76 23q-52 17 -84.5 25t-68.5 8q-42 0 -69.5 -21t-42.5 -65z" />
    <glyph glyph-name="utilde" unicode="&#x169;" horiz-adv-x="1160" 
d="M736 144q-55 -85 -125 -129.5t-163 -44.5q-85 0 -148.5 40.5t-97.5 116t-34 177.5v300q0 43 -13.5 64.5t-54.5 45.5l-72 44v48l374 114h22v-564q0 -88 47.5 -135t130.5 -47q71 0 101.5 35t30.5 109v286q0 43 -13.5 64.5t-54.5 45.5l-72 44v48l374 114h22v-664
q0 -88 34 -125t106 -47v-50l-352 -64h-34zM282 1010q16 125 64.5 194.5t131.5 69.5q26 0 57.5 -10t78.5 -30t77 -30t55 -10q36 0 60.5 20t37.5 68l62 -6q-14 -121 -64 -192.5t-124 -71.5q-29 0 -60.5 10t-80.5 30t-79 30t-58 10q-39 0 -61 -19t-35 -67z" />
    <glyph glyph-name="Umacron" unicode="&#x16a;" horiz-adv-x="1412" 
d="M914 1250h458v-88h-144l-10 -318v-276q0 -296 -126.5 -447t-367.5 -151q-164 0 -284 63t-184 180t-64 277v672h-150v88h570v-88h-150v-612q0 -133 33 -215.5t105.5 -122.5t191.5 -40q113 0 182 37t101.5 119t32.5 218v460q0 67 -11.5 98.5t-40.5 44t-92 17.5l-50 4v80z
M1094 1384h-680v110h680v-110z" />
    <glyph glyph-name="umacron" unicode="&#x16b;" horiz-adv-x="1160" 
d="M736 144q-55 -85 -125 -129.5t-163 -44.5q-85 0 -148.5 40.5t-97.5 116t-34 177.5v300q0 43 -13.5 64.5t-54.5 45.5l-72 44v48l374 114h22v-564q0 -88 47.5 -135t130.5 -47q71 0 101.5 35t30.5 109v286q0 43 -13.5 64.5t-54.5 45.5l-72 44v48l374 114h22v-664
q0 -88 34 -125t106 -47v-50l-352 -64h-34zM894 1054h-600v120h600v-120z" />
    <glyph glyph-name="Ubreve" unicode="&#x16c;" horiz-adv-x="1412" 
d="M914 1250h458v-88h-144l-10 -318v-276q0 -296 -126.5 -447t-367.5 -151q-164 0 -284 63t-184 180t-64 277v672h-150v88h570v-88h-150v-612q0 -133 33 -215.5t105.5 -122.5t191.5 -40q113 0 182 37t101.5 119t32.5 218v460q0 67 -11.5 98.5t-40.5 44t-92 17.5l-50 4v80z
M1046 1636q-36 -158 -106.5 -239t-185.5 -81t-185.5 81t-106.5 239h78l20 -38q32 -60 81.5 -92t112.5 -32t112.5 32t81.5 92l20 38h78z" />
    <glyph glyph-name="ubreve" unicode="&#x16d;" horiz-adv-x="1160" 
d="M736 144q-55 -85 -125 -129.5t-163 -44.5q-85 0 -148.5 40.5t-97.5 116t-34 177.5v300q0 43 -13.5 64.5t-54.5 45.5l-72 44v48l374 114h22v-564q0 -88 47.5 -135t130.5 -47q71 0 101.5 35t30.5 109v286q0 43 -13.5 64.5t-54.5 45.5l-72 44v48l374 114h22v-664
q0 -88 34 -125t106 -47v-50l-352 -64h-34zM886 1312q-36 -165 -106.5 -249.5t-185.5 -84.5t-185.5 84.5t-106.5 249.5h84l18 -38q31 -66 79.5 -102t110.5 -36q116 0 188 138l20 38h84z" />
    <glyph glyph-name="Uring" unicode="&#x16e;" horiz-adv-x="1412" 
d="M914 1250h458v-88h-144l-10 -318v-276q0 -296 -126.5 -447t-367.5 -151q-164 0 -284 63t-184 180t-64 277v672h-150v88h570v-88h-150v-612q0 -133 33 -215.5t105.5 -122.5t191.5 -40q113 0 182 37t101.5 119t32.5 218v460q0 67 -11.5 98.5t-40.5 44t-92 17.5l-50 4v80z
M574.5 1630.5q28.5 46.5 76 72t103.5 25.5t103.5 -25.5t76 -72t28.5 -104.5t-28.5 -105t-76 -73t-103.5 -26t-103.5 26t-76 73t-28.5 105t28.5 104.5zM671.5 1447q31.5 -31 82.5 -31q53 0 83.5 30.5t30.5 79.5t-30.5 78.5t-83.5 29.5q-51 0 -82.5 -30t-31.5 -78t31.5 -79z
" />
    <glyph glyph-name="uring" unicode="&#x16f;" horiz-adv-x="1160" 
d="M736 144q-55 -85 -125 -129.5t-163 -44.5q-85 0 -148.5 40.5t-97.5 116t-34 177.5v300q0 43 -13.5 64.5t-54.5 45.5l-72 44v48l374 114h22v-564q0 -88 47.5 -135t130.5 -47q71 0 101.5 35t30.5 109v286q0 43 -13.5 64.5t-54.5 45.5l-72 44v48l374 114h22v-664
q0 -88 34 -125t106 -47v-50l-352 -64h-34zM414.5 1284.5q28.5 46.5 76 72t103.5 25.5t103.5 -25.5t76 -72t28.5 -104.5t-28.5 -105t-76 -73t-103.5 -26t-103.5 26t-76 73t-28.5 105t28.5 104.5zM511.5 1101q31.5 -31 82.5 -31q53 0 83.5 30.5t30.5 79.5t-30.5 78.5
t-83.5 29.5q-51 0 -82.5 -30t-31.5 -78t31.5 -79z" />
    <glyph glyph-name="Uhungarumlaut" unicode="&#x170;" horiz-adv-x="1412" 
d="M914 1250h458v-88h-144l-10 -318v-276q0 -296 -126.5 -447t-367.5 -151q-164 0 -284 63t-184 180t-64 277v672h-150v88h570v-88h-150v-612q0 -133 33 -215.5t105.5 -122.5t191.5 -40q113 0 182 37t101.5 119t32.5 218v460q0 67 -11.5 98.5t-40.5 44t-92 17.5l-50 4v80z
M642 1636h264l-290 -306h-60zM956 1636h264l-290 -306h-60z" />
    <glyph glyph-name="uhungarumlaut" unicode="&#x171;" horiz-adv-x="1160" 
d="M736 144q-55 -85 -125 -129.5t-163 -44.5q-85 0 -148.5 40.5t-97.5 116t-34 177.5v300q0 43 -13.5 64.5t-54.5 45.5l-72 44v48l374 114h22v-564q0 -88 47.5 -135t130.5 -47q71 0 101.5 35t30.5 109v286q0 43 -13.5 64.5t-54.5 45.5l-72 44v48l374 114h22v-664
q0 -88 34 -125t106 -47v-50l-352 -64h-34zM512 1310h264l-316 -324h-60zM826 1310h264l-316 -324h-60z" />
    <glyph glyph-name="Uogonek" unicode="&#x172;" horiz-adv-x="1414" 
d="M914 1250h458v-88h-144l-10 -318v-276q0 -212 -65.5 -350.5t-193.5 -199.5q-93 -66 -128 -111t-35 -87q0 -33 18.5 -52.5t51.5 -19.5q40 0 76 18l8 -8v-160q-56 -38 -116 -38q-50 0 -90.5 21.5t-64 61t-23.5 91.5q0 50 31 107t95 127v4q-38 -2 -58 -2q-164 0 -284 63
t-184 180t-64 277v672h-150v88h570v-88h-150v-612q0 -133 33 -215.5t105.5 -122.5t191.5 -40q113 0 182 37t101.5 119t32.5 218v460q0 67 -11.5 98.5t-40.5 44t-92 17.5l-50 4v80z" />
    <glyph glyph-name="uogonek" unicode="&#x173;" horiz-adv-x="1160" 
d="M1130 34q-88 -78 -122 -128t-34 -98q0 -33 18.5 -52.5t51.5 -19.5q40 0 76 18l8 -8v-160q-61 -38 -126 -38q-50 0 -93.5 21.5t-69 61.5t-25.5 91q0 59 34.5 122.5t111.5 143.5v15l-182 -33h-34l-8 174q-55 -85 -125 -129.5t-163 -44.5q-85 0 -148.5 40.5t-97.5 116
t-34 177.5v300q0 43 -13.5 64.5t-54.5 45.5l-72 44v48l374 114h22v-564q0 -88 47.5 -135t130.5 -47q71 0 101.5 35t30.5 109v286q0 43 -13.5 64.5t-54.5 45.5l-72 44v48l374 114h22v-664q0 -88 34 -125t106 -47v-50z" />
    <glyph glyph-name="Wcircumflex" unicode="&#x174;" horiz-adv-x="1884" 
d="M1900 1250v-88h-138l-432 -1172h-102l-271 718l-297 -718h-102l-443 1172h-115v88h532v-88h-124l292 -802l199 501l-114 301h-105v88h532v-88h-134l286 -785l192 537q32 91 42 126t10 56q0 33 -22.5 47.5t-83.5 20.5l-74 8v78h472zM1128 1636l114 -306h-70l-277 240
l-127 -240h-94l146 306h308z" />
    <glyph glyph-name="wcircumflex" unicode="&#x175;" horiz-adv-x="1616" 
d="M1222 890h408v-84h-94l-386 -820h-100l-240 550l-260 -550h-100l-358 820h-88v84h468v-84h-93l203 -499l168 367l-58 132h-88v84h468v-84h-93l201 -494l150 346q28 62 28 96q0 25 -15 37.5t-47 16.5l-74 8v74zM976 1260l130 -324h-80l-249 214l-167 -214h-104l176 324
h294z" />
    <glyph glyph-name="Ycircumflex" unicode="&#x176;" horiz-adv-x="1244" 
d="M1149 1162l-387 -648v-426h170v-88h-610v88h170v408l-405 666h-95v88h526v-88h-118l304 -514l152 256q48 80 66 126t18 74q0 18 -8 28.5t-27 17t-57 12.5l-56 10v78h440v-88h-83zM810 1636l114 -306h-70l-277 240l-127 -240h-94l146 306h308z" />
    <glyph glyph-name="ycircumflex" unicode="&#x177;" horiz-adv-x="1068" 
d="M1082 806h-99l-495 -1092h106v-84h-492v84h121l170 371l-277 721h-108v84h510v-84h-127l179 -500l23 -76l183 426q18 42 26 66.5t8 40.5q0 21 -15.5 30t-52.5 15l-58 8v74h398v-84zM780 1310l130 -324h-80l-249 214l-167 -214h-104l176 324h294z" />
    <glyph glyph-name="Ydieresis" unicode="&#x178;" horiz-adv-x="1244" 
d="M1149 1162l-387 -648v-426h170v-88h-610v88h170v408l-405 666h-95v88h526v-88h-118l304 -514l152 256q48 80 66 126t18 74q0 18 -8 28.5t-27 17t-57 12.5l-56 10v78h440v-88h-83zM359 1403q-37 37 -37 97t37 98t97 38t96 -38t36 -98t-36 -97t-96 -37t-97 37zM727 1403
q-37 37 -37 97t37 98t97 38t97 -38t37 -98t-37 -97t-97 -37t-97 37z" />
    <glyph glyph-name="Zacute" unicode="&#x179;" horiz-adv-x="1188" 
d="M1126 490l-52 -490h-1004v60l651 1090h-103q-145 0 -236 -31t-144 -99.5t-78 -185.5h-70l28 416h928v-62l-640 -1086h208q145 0 226.5 36t128.5 118.5t87 241.5zM716 1636h284l-316 -306h-80z" />
    <glyph glyph-name="zacute" unicode="&#x17a;" horiz-adv-x="916" 
d="M856 322l-34 -322h-766v60l476 752l-38 -2q-120 -5 -220.5 -56.5t-139.5 -149.5l-56 4l16 282h744v-60l-473 -752l39 2q144 6 253 69.5t143 182.5zM506 986h-60l90 324h284z" />
    <glyph glyph-name="Zdotaccent" unicode="&#x17b;" horiz-adv-x="1188" 
d="M1126 490l-52 -490h-1004v60l651 1090h-103q-145 0 -236 -31t-144 -99.5t-78 -185.5h-70l28 416h928v-62l-640 -1086h208q145 0 226.5 36t128.5 118.5t87 241.5zM564.5 1371.5q-35.5 21.5 -57 57t-21.5 75.5t21.5 75.5t57 57t75.5 21.5t75.5 -21.5t57 -57t21.5 -75.5
t-21.5 -75.5t-57 -57t-75.5 -21.5t-75.5 21.5z" />
    <glyph glyph-name="zdotaccent" unicode="&#x17c;" horiz-adv-x="916" 
d="M856 322l-34 -322h-766v60l476 752l-38 -2q-120 -5 -220.5 -56.5t-139.5 -149.5l-56 4l16 282h744v-60l-473 -752l39 2q144 6 253 69.5t143 182.5zM406 1024.5q-32 18.5 -51 50t-19 67.5t19 68.5t51 52t68 19.5t68 -19.5t51 -52t19 -68.5t-19 -67.5t-51 -50t-68 -18.5
t-68 18.5z" />
    <glyph glyph-name="Zcaron" unicode="&#x17d;" horiz-adv-x="1188" 
d="M1126 490l-52 -490h-1004v60l651 1090h-103q-145 0 -236 -31t-144 -99.5t-78 -185.5h-70l28 416h928v-62l-640 -1086h208q145 0 226.5 36t128.5 118.5t87 241.5zM577 1396l277 240h70l-114 -306h-308l-146 306h94z" />
    <glyph glyph-name="zcaron" unicode="&#x17e;" horiz-adv-x="916" 
d="M856 322l-34 -322h-766v60l476 752l-38 -2q-120 -5 -220.5 -56.5t-139.5 -149.5l-56 4l16 282h744v-60l-473 -752l39 2q144 6 253 69.5t143 182.5zM497 1088l173 222h104l-176 -324h-314l-110 324h80z" />
    <glyph glyph-name="uni018F" unicode="&#x18f;" horiz-adv-x="1360" 
d="M996 1202q135 -78 211.5 -225t76.5 -349q0 -199 -76 -348t-210 -229.5t-302 -80.5q-147 0 -264 64t-186.5 201.5t-69.5 348.5h867q-14 159 -80 281t-170 189.5t-229 67.5q-160 0 -278.5 -112t-183.5 -320l-66 20q82 283 251.5 426.5t400.5 143.5q173 0 308 -78z
M971.5 191q68.5 103 73.5 281h-582q6 -187 86 -285.5t223 -98.5q131 0 199.5 103z" />
    <glyph glyph-name="uni0191" unicode="&#x191;" horiz-adv-x="1092" 
d="M54 1250h988v-426h-60q-38 131 -84 200.5t-133.5 102.5t-246.5 33h-46v-506q107 2 163.5 22.5t78.5 59.5t26 106h70v-486h-70q-4 74 -26 117t-78.5 66t-163.5 25v-284q0 -165 -83 -299t-199.5 -210.5t-207.5 -76.5q-46 0 -79.5 13t-76.5 39l106 204q71 -42 115 -61
t83 -19q43 0 64.5 26t21.5 82l-12 1184h-150v88z" />
    <glyph glyph-name="florin" unicode="&#x192;" horiz-adv-x="690" 
d="M322 1134q0 -24 14 -60l72 -184h276v-152h-252v-614q0 -160 -63 -278.5t-165 -181t-218 -62.5q-45 0 -86 8.5t-70 23.5l40 212q58 -28 126.5 -44t131.5 -16q134 0 134 93q0 27 -14 69l-72 204v586h-152v40l152 112v28q0 147 61 256.5t158.5 167.5t202.5 58q45 0 86 -8.5
t70 -23.5l-40 -212q-60 29 -128 44.5t-130 15.5q-134 0 -134 -82z" />
    <glyph glyph-name="Ohorn" unicode="&#x1a0;" horiz-adv-x="1460" 
d="M1318.5 976.5q75.5 -129.5 75.5 -292.5q0 -191 -87 -355t-243 -261.5t-352 -97.5q-177 0 -323.5 81t-231.5 223t-85 316q0 185 86.5 343.5t242.5 252.5t353 94q106 0 205 -29q32 -4 63 -4q91 0 120.5 32t29.5 81q0 108 -84 198l90 64q86 -31 130 -80.5t44 -113.5
q0 -74 -54 -136t-187 -107q132 -79 207.5 -208.5zM1009.5 173.5q69.5 43.5 108 128t38.5 204.5q0 158 -75 300t-199 228t-262 86q-94 0 -163.5 -40t-108 -119t-38.5 -193q0 -161 76.5 -308.5t201.5 -238.5t260 -91q92 0 161.5 43.5z" />
    <glyph glyph-name="ohorn" unicode="&#x1a1;" horiz-adv-x="1056" 
d="M1044 994q-28 -46 -84.5 -86t-139.5 -64q85 -59 132.5 -153.5t47.5 -212.5q0 -138 -70 -254.5t-187 -185t-249 -68.5q-128 0 -228.5 56t-156 156.5t-55.5 229.5q0 138 70 254.5t187 185t249 68.5q37 0 65 -4l89 -6l17 -1q72 0 113.5 43t41.5 108q0 31 -9 64.5t-27 75.5
l54 50q168 -52 168 -164q0 -46 -28 -92zM749 183.5q35 47.5 35 126.5q0 108 -56 211.5t-142.5 168t-171.5 64.5q-72 0 -108 -47t-36 -127q0 -108 57 -211.5t144.5 -168t170.5 -64.5q72 0 107 47.5z" />
    <glyph glyph-name="Uhorn" unicode="&#x1af;" horiz-adv-x="1380" 
d="M1332 1622q176 -61 176 -194q0 -88 -63.5 -145t-188.5 -107l-26 -10l-12 -322v-276q0 -296 -126.5 -447t-367.5 -151q-164 0 -284 63t-184 180t-64 277v672h-150v88h570v-88h-150v-612q0 -133 33 -215.5t105.5 -122.5t191.5 -40q113 0 182 37t101.5 119t32.5 218v460
q0 67 -11.5 98.5t-40.5 44t-92 17.5l-50 4v80h264q87 0 118.5 30t31.5 86q0 59 -20.5 99.5t-63.5 92.5z" />
    <glyph glyph-name="uhorn" unicode="&#x1b0;" horiz-adv-x="1154" 
d="M990 256q0 -88 34 -125t106 -47v-50l-352 -64h-34l-8 174q-55 -85 -125 -129.5t-163 -44.5q-85 0 -148.5 40.5t-97.5 116t-34 177.5v300q0 43 -13.5 64.5t-54.5 45.5l-72 44v48l374 114h22v-564q0 -88 47.5 -135t130.5 -47q71 0 101.5 35t30.5 109v286q0 43 -13.5 64.5
t-54.5 45.5l-72 44v48l304 93q74 27 103 65t29 96q0 36 -9 68t-27 72l54 50q43 -8 81.5 -33t62.5 -62t24 -79q0 -95 -136 -172q-37 -21 -55.5 -39.5t-26.5 -45t-8 -71.5v-492z" />
    <glyph glyph-name="uni01C4" unicode="&#x1c4;" horiz-adv-x="2716" 
d="M76 0v88h150v1074h-150v88h546q248 0 429.5 -71.5t279 -207t97.5 -321.5q0 -187 -92 -334.5t-271.5 -231.5t-430.5 -84h-558zM1023.5 217.5q114.5 127.5 114.5 398.5q0 266 -143 405t-421 139h-78v-908q0 -76 11.5 -108t46 -43t114.5 -11q241 0 355.5 127.5zM2654 490
l-52 -490h-1004v60l651 1090h-103q-145 0 -236 -31t-144 -99.5t-78 -185.5h-70l28 416h928v-62l-640 -1086h208q145 0 226.5 36t128.5 118.5t87 241.5zM2105 1396l277 240h70l-114 -306h-308l-146 306h94z" />
    <glyph glyph-name="uni01C5" unicode="&#x1c5;" horiz-adv-x="2400" 
d="M76 0v88h150v1074h-150v88h546q248 0 429.5 -71.5t279 -207t97.5 -321.5q0 -187 -92 -334.5t-271.5 -231.5t-430.5 -84h-558zM1023.5 217.5q114.5 127.5 114.5 398.5q0 266 -143 405t-421 139h-78v-908q0 -76 11.5 -108t46 -43t114.5 -11q241 0 355.5 127.5zM2340 322
l-34 -322h-766v60l476 752l-38 -2q-120 -5 -220.5 -56.5t-139.5 -149.5l-56 4l16 282h744v-60l-473 -752l39 2q144 6 253 69.5t143 182.5zM1981 1088l173 222h104l-176 -324h-314l-110 324h80z" />
    <glyph glyph-name="uni01C6" unicode="&#x1c6;" horiz-adv-x="2012" 
d="M956 172q16 -38 46 -56t78 -24v-58l-362 -64l-24 2l-8 197q-58 -107 -135.5 -153t-162.5 -46q-100 0 -174.5 55.5t-115 152.5t-40.5 216q0 153 65.5 273.5t173 186.5t227.5 66q82 0 160 -36v210q0 39 -14 58t-54 42l-72 44v48l376 114h20v-1126q0 -64 16 -102zM653 220
q31 36 31 120v252q-48 80 -117 124t-147 44q-82 0 -127 -49.5t-45 -146.5q0 -95 41.5 -183t113.5 -142.5t157 -54.5q62 0 93 36zM1952 322l-34 -322h-766v60l476 752l-38 -2q-120 -5 -220.5 -56.5t-139.5 -149.5l-56 4l16 282h744v-60l-473 -752l39 2q144 6 253 69.5
t143 182.5zM1593 1088l173 222h104l-176 -324h-314l-110 324h80z" />
    <glyph glyph-name="uni01C7" unicode="&#x1c7;" horiz-adv-x="1928" 
d="M496 242q0 -68 13 -99t48 -42t113 -11h60q92 0 156 33t114 118t92 241h60v-482h-1076v88h150v1074h-150v88h570v-88h-150v-920zM1870 1162h-150v-994q0 -109 -43.5 -186.5t-137 -148t-271.5 -169.5l-30 56q85 57 130 110t63.5 119.5t18.5 168.5v1044h-170v88h590v-88z
" />
    <glyph glyph-name="uni01C8" unicode="&#x1c8;" horiz-adv-x="1790" 
d="M496 242q0 -68 13 -99t48 -42t113 -11h60q92 0 156 33t114 118t92 241h60v-482h-1076v88h150v1074h-150v88h570v-88h-150v-920zM1438.5 1009q-38.5 23 -61.5 61.5t-23 81.5q0 44 23 82.5t61.5 61t81.5 22.5q44 0 82.5 -22.5t61 -61t22.5 -82.5q0 -43 -22.5 -81.5
t-61 -61.5t-82.5 -23q-43 0 -81.5 23zM1178 -138l12 6q65 -40 92.5 -53t57.5 -13q24 0 42 18q11 15 16.5 40.5t5.5 77.5v676q0 37 -13 55.5t-55 44.5l-72 44v48l376 114h20v-764q0 -128 -75 -257.5t-185 -214t-206 -84.5q-79 0 -130 62z" />
    <glyph glyph-name="uni01C9" unicode="&#x1c9;" horiz-adv-x="1178" 
d="M584 84v-84h-556v84h150v1010q0 39 -14 58t-54 42l-72 44v48l376 114h20v-1316h150zM826.5 1009q-38.5 23 -61.5 61.5t-23 81.5q0 44 23 82.5t61.5 61t81.5 22.5q44 0 82.5 -22.5t61 -61t22.5 -82.5q0 -43 -22.5 -81.5t-61 -61.5t-82.5 -23q-43 0 -81.5 23zM566 -138
l12 6q65 -40 92.5 -53t57.5 -13q24 0 42 18q11 15 16.5 40.5t5.5 77.5v676q0 37 -13 55.5t-55 44.5l-72 44v48l376 114h20v-764q0 -128 -75 -257.5t-185 -214t-206 -84.5q-79 0 -130 62z" />
    <glyph glyph-name="uni01CA" unicode="&#x1ca;" horiz-adv-x="2150" 
d="M944 1250h464v-88h-144l-10 -318v-844h-76l-826 855v-611q0 -67 11.5 -98.5t40.5 -44t92 -17.5l50 -4v-80h-464v88h144l10 258v586q0 79 -13.5 119.5t-41 61t-87.5 47.5l-32 14v76h274l692 -714l110 -118v588q0 67 -11.5 98.5t-40.5 44t-92 17.5l-50 4v80zM2092 1162
h-150v-994q0 -109 -43.5 -186.5t-137 -148t-271.5 -169.5l-30 56q85 57 130 110t63.5 119.5t18.5 168.5v1044h-170v88h590v-88z" />
    <glyph glyph-name="uni01CB" unicode="&#x1cb;" horiz-adv-x="2012" 
d="M944 1250h464v-88h-144l-10 -318v-844h-76l-826 855v-611q0 -67 11.5 -98.5t40.5 -44t92 -17.5l50 -4v-80h-464v88h144l10 258v586q0 79 -13.5 119.5t-41 61t-87.5 47.5l-32 14v76h274l692 -714l110 -118v588q0 67 -11.5 98.5t-40.5 44t-92 17.5l-50 4v80zM1660.5 1009
q-38.5 23 -61.5 61.5t-23 81.5q0 44 23 82.5t61.5 61t81.5 22.5q44 0 82.5 -22.5t61 -61t22.5 -82.5q0 -43 -22.5 -81.5t-61 -61.5t-82.5 -23q-43 0 -81.5 23zM1400 -138l12 6q65 -40 92.5 -53t57.5 -13q24 0 42 18q11 15 16.5 40.5t5.5 77.5v676q0 37 -13 55.5t-55 44.5
l-72 44v48l376 114h20v-764q0 -128 -75 -257.5t-185 -214t-206 -84.5q-79 0 -130 62z" />
    <glyph glyph-name="uni01CC" unicode="&#x1cc;" horiz-adv-x="1776" 
d="M478.5 666q-30.5 -40 -30.5 -120v-462h124v-84h-530v84h150v540q0 41 -14.5 61t-53.5 39l-72 34v48l376 114h20l-8 -198h16q51 87 136.5 142.5t179.5 55.5q80 0 144.5 -38t101 -108.5t34.5 -165.5l-10 -524h150v-84h-530v84h124v450q0 89 -56 130.5t-150 41.5
q-71 0 -101.5 -40zM1424.5 1009q-38.5 23 -61.5 61.5t-23 81.5q0 44 23 82.5t61.5 61t81.5 22.5q44 0 82.5 -22.5t61 -61t22.5 -82.5q0 -43 -22.5 -81.5t-61 -61.5t-82.5 -23q-43 0 -81.5 23zM1164 -138l12 6q65 -40 92.5 -53t57.5 -13q24 0 42 18q11 15 16.5 40.5t5.5 77.5
v676q0 37 -13 55.5t-55 44.5l-72 44v48l376 114h20v-764q0 -128 -75 -257.5t-185 -214t-206 -84.5q-79 0 -130 62z" />
    <glyph glyph-name="Gcaron" unicode="&#x1e6;" horiz-adv-x="1388" 
d="M1358 578v-90h-116v-508h-50l-192 220h-18q-56 -127 -127.5 -178.5t-178.5 -51.5q-163 0 -302 83t-220.5 224.5t-81.5 308.5q0 180 88 340t234.5 257t313.5 97q173 0 322 -99l86 79h44v-186l2 -2l-2 1v-317h-50q-109 178 -231 274t-275 96q-149 0 -230.5 -87.5
t-81.5 -256.5q0 -164 63.5 -295.5t173.5 -206t245 -74.5q93 0 140.5 40.5t47.5 131.5v110h-242v90h638zM653 1396l277 240h70l-114 -306h-308l-146 306h94z" />
    <glyph glyph-name="gcaron" unicode="&#x1e7;" horiz-adv-x="952" 
d="M676 180q134 -7 192 -53t58 -133q0 -97 -65 -188t-186.5 -148.5t-280.5 -57.5q-103 0 -185.5 24t-129.5 68.5t-47 103.5q0 52 40 101t141 113q-151 99 -151 196q0 46 35.5 89t122.5 98q-70 38 -103 97t-33 126q0 91 45 159.5t128 106.5t195 38h468v-132h-157
q53 -67 53 -156q0 -110 -76 -189t-242 -109l-190 -34q-77 -14 -102.5 -26t-25.5 -30q0 -15 10 -23.5t40.5 -14t91.5 -8.5zM345.5 787.5q-31.5 -44.5 -31.5 -137.5q0 -71 19 -123.5t52 -80.5t75 -28q55 0 90.5 46t35.5 138q0 68 -20.5 120t-56 81t-79.5 29q-53 0 -84.5 -44.5
zM734.5 -197.5q63.5 20.5 63.5 63.5q0 104 -382 104q-56 0 -160 -4q-26 -23 -26 -56q0 -61 86 -94.5t236 -33.5q119 0 182.5 20.5zM525 1088l173 222h104l-176 -324h-314l-110 324h80z" />
    <glyph glyph-name="uni01EA" unicode="&#x1ea;" horiz-adv-x="1466" 
d="M827 -95.5q-33 -43.5 -33 -84.5q0 -33 18.5 -52.5t51.5 -19.5q40 0 76 18l8 -8v-160q-56 -38 -116 -38q-50 0 -90.5 21.5t-64 61t-23.5 91.5q0 50 31 107t95 127v5q-33 -3 -68 -3q-177 0 -323.5 81t-231.5 223t-85 316q0 185 86.5 343.5t242.5 252.5t353 94
q176 0 322.5 -75.5t232 -211.5t85.5 -309q0 -150 -55 -285.5t-156 -237t-236 -150.5q-87 -63 -120 -106.5zM386.5 459.5q76.5 -147.5 201.5 -238.5t260 -91q92 0 161.5 43.5t108 128t38.5 204.5q0 158 -75 300t-199 228t-262 86q-94 0 -163.5 -40t-108 -119t-38.5 -193
q0 -161 76.5 -308.5z" />
    <glyph glyph-name="uni01EB" unicode="&#x1eb;" horiz-adv-x="1054" 
d="M586 -89q-34 -43 -34 -83q0 -33 18.5 -52.5t51.5 -19.5q40 0 76 18l8 -8v-160q-61 -38 -126 -38q-50 0 -93.5 21.5t-69 61.5t-25.5 91t30 106t97 123q-8 -1 -25 -1q-128 0 -228.5 56t-156 156.5t-55.5 229.5q0 138 70 254.5t187 185t249 68.5q128 0 228.5 -56t156 -156.5
t55.5 -229.5q0 -99 -37.5 -189t-104 -159.5t-151.5 -110.5q-87 -65 -121 -108zM327 368.5q57 -103.5 144.5 -168t170.5 -64.5q72 0 107 47.5t35 126.5q0 108 -56 211.5t-142.5 168t-171.5 64.5q-72 0 -108 -47t-36 -127q0 -108 57 -211.5z" />
    <glyph glyph-name="Aringacute" unicode="&#x1fa;" horiz-adv-x="1322" 
d="M496.5 1348q-47.5 26 -76 73t-28.5 105q0 78 49 132.5t123 66.5l110 301h284l-313 -303q71 -14 117 -67.5t46 -129.5q0 -58 -28.5 -105t-76 -73t-103.5 -26t-103.5 26zM517.5 1604q-31.5 -30 -31.5 -78t31.5 -79t82.5 -31q53 0 83.5 30.5t30.5 79.5t-30.5 78.5
t-83.5 29.5q-51 0 -82.5 -30zM1211 88h123v-88h-542v88h126l-119 288h-429l-40 -102q-23 -60 -29.5 -85.5t-6.5 -44.5q0 -29 26 -40t90 -18l80 -8v-78h-494v88h142l384 962l-76 186v14h276zM579 913l-163 -417h334z" />
    <glyph glyph-name="aringacute" unicode="&#x1fb;" horiz-adv-x="998" 
d="M380.5 1002q-47.5 26 -76 73t-28.5 105q0 54 24.5 98t66.5 70.5t93 32.5l86 311h284l-304 -314q72 -13 119 -67t47 -131q0 -58 -28.5 -105t-76 -73t-103.5 -26t-103.5 26zM401.5 1258q-31.5 -30 -31.5 -78t31.5 -79t82.5 -31q53 0 83.5 30.5t30.5 79.5t-30.5 78.5
t-83.5 29.5q-51 0 -82.5 -30zM1036 178q-41 -106 -102 -157t-138 -51q-63 0 -111 31.5t-93 92.5q-57 -63 -114 -93.5t-130 -30.5q-74 0 -135 28.5t-97 80.5t-36 117q0 77 54 125.5t172 72.5l252 52l4 52q1 9 1 27q0 86 -48 127.5t-149 41.5q-89 0 -161.5 -38t-142.5 -122
l-38 32q83 134 159 211t153 110t170 33q147 0 232 -91.5t82 -272.5l-6 -308q-1 -66 22 -94t66 -28q29 0 49 18t41 56zM548.5 130.5q19.5 24.5 17.5 67.5l-4 166l-72 -20q-52 -15 -80 -28t-41 -30.5t-13 -45.5q0 -38 19.5 -69t50.5 -48t64 -17q39 0 58.5 24.5z" />
    <glyph glyph-name="AEacute" unicode="&#x1fc;" horiz-adv-x="1768" 
d="M1680 464v-464h-1016v88h150v386h-367l-97 -184q-29 -55 -39.5 -83.5t-10.5 -50.5q0 -37 23 -50.5t83 -19.5l80 -8v-78h-502v88h114l580 1074h-124v88h1066v-426h-60q-38 136 -92.5 206.5t-145.5 99.5t-248 30v-497q109 3 165 23.5t76.5 59.5t24.5 108h64v-494h-64
q-4 77 -24.5 120t-76 65.5t-165.5 25.5v-325q0 -63 12 -96t41.5 -46.5t86.5 -13.5h30q103 0 173 30t121 111.5t82 232.5h60zM809 1162l-315 -598h320v598h-5zM958 1636h284l-316 -306h-80z" />
    <glyph glyph-name="aeacute" unicode="&#x1fd;" horiz-adv-x="1522" 
d="M1508 380q-59 -204 -180 -307t-294 -103q-106 0 -193 42t-144 123q-84 -71 -146 -107t-107.5 -47t-95.5 -11q-74 0 -135 28.5t-97 80.5t-36 117q0 77 54 125.5t172 72.5l252 52l4 52q1 9 1 27q0 86 -48 127.5t-149 41.5q-92 0 -167 -36.5t-143 -117.5l-32 26
q83 134 159 211t153 110t170 33q79 0 141.5 -27t103.5 -82q56 53 127.5 81t153.5 28q106 0 190.5 -47t135 -148t50.5 -255h-580q16 -86 63 -155t116 -108t149 -39q108 0 184.5 58t119.5 168zM863.5 743q-39.5 -57 -43.5 -165h323q-7 108 -49 165t-116 57q-75 0 -114.5 -57z
M548.5 130.5q19.5 24.5 17.5 67.5l-4 166l-72 -20q-52 -15 -80 -28t-41 -30.5t-13 -45.5q0 -38 19.5 -69t50.5 -48t64 -17q39 0 58.5 24.5zM794 986h-60l90 324h284z" />
    <glyph glyph-name="Oslashacute" unicode="&#x1fe;" horiz-adv-x="1486" 
d="M1406 1250l-157 -165q75 -78 116 -180.5t41 -220.5q0 -191 -87 -355t-243 -261.5t-352 -97.5q-115 0 -219.5 35.5t-188.5 101.5l-102 -107h-130l163 171q-78 82 -120.5 189.5t-42.5 229.5q0 185 86.5 343.5t242.5 252.5t353 94q117 0 222.5 -34t190.5 -98l97 102h130z
M355 565q33 -100 91 -185l545 571q-76 79 -168.5 124t-190.5 45q-94 0 -163.5 -40t-108 -119t-38.5 -193q0 -103 33 -203zM1137 700.5q-31 95.5 -87 176.5l-545 -571q75 -82 167.5 -129t187.5 -47q92 0 161.5 43.5t108 128t38.5 204.5q0 99 -31 194.5zM822 1636h284
l-316 -306h-80z" />
    <glyph glyph-name="oslashacute" unicode="&#x1ff;" horiz-adv-x="1074" 
d="M1010 890l-105 -112q51 -58 78 -134.5t27 -165.5q0 -138 -70 -254.5t-187 -185t-249 -68.5q-81 0 -152 23t-126 66l-56 -59h-106l105 112q-51 58 -78 134.5t-27 165.5q0 138 70 254.5t187 185t249 68.5q81 0 152 -23t126 -66l56 59h106zM303 446.5q23 -66.5 64 -125.5
l293 310q-53 57 -114.5 90t-121.5 33q-72 0 -108 -47t-36 -127q0 -67 23 -133.5zM771 444.5q-23 66.5 -63 125.5l-293 -310q54 -58 116.5 -91t120.5 -33q72 0 107 47.5t35 126.5q0 68 -23 134.5zM552 986h-60l90 324h284z" />
    <glyph glyph-name="uni0200" unicode="&#x200;" horiz-adv-x="1322" 
d="M1211 88h123v-88h-542v88h126l-119 288h-429l-40 -102q-23 -60 -29.5 -85.5t-6.5 -44.5q0 -29 26 -40t90 -18l80 -8v-78h-494v88h142l384 962l-76 186v14h276zM579 913l-163 -417h334zM496 1330h-60l-290 306h264zM810 1330h-60l-290 306h264z" />
    <glyph glyph-name="uni0201" unicode="&#x201;" horiz-adv-x="998" 
d="M478 0.5q-57 -30.5 -130 -30.5q-74 0 -135 28.5t-97 80.5t-36 117q0 77 54 125.5t172 72.5l252 52l4 52q1 9 1 27q0 86 -48 127.5t-149 41.5q-89 0 -161.5 -38t-142.5 -122l-38 32q83 134 159 211t153 110t170 33q147 0 232 -91.5t82 -272.5l-6 -308q-1 -66 22 -94
t66 -28q29 0 49 18t41 56l44 -22q-41 -106 -102 -157t-138 -51q-63 0 -111 31.5t-93 92.5q-57 -63 -114 -93.5zM562 364l-72 -20q-52 -15 -80 -28t-41 -30.5t-13 -45.5q0 -38 19.5 -69t50.5 -48t64 -17q39 0 58.5 24.5t17.5 67.5zM304 986l-316 324h264l112 -324h-60z
M618 986l-316 324h264l112 -324h-60z" />
    <glyph glyph-name="uni0202" unicode="&#x202;" horiz-adv-x="1322" 
d="M1211 88h123v-88h-542v88h126l-119 288h-429l-40 -102q-23 -60 -29.5 -85.5t-6.5 -44.5q0 -29 26 -40t90 -18l80 -8v-78h-494v88h142l384 962l-76 186v14h276zM579 913l-163 -417h334zM812 1330l-20 38q-32 60 -80.5 92t-111.5 32t-111.5 -32t-80.5 -92l-20 -38h-80
q36 158 106.5 239t185.5 81t185.5 -81t106.5 -239h-80z" />
    <glyph glyph-name="uni0203" unicode="&#x203;" horiz-adv-x="998" 
d="M478 0.5q-57 -30.5 -130 -30.5q-74 0 -135 28.5t-97 80.5t-36 117q0 77 54 125.5t172 72.5l252 52l4 52q1 9 1 27q0 86 -48 127.5t-149 41.5q-89 0 -161.5 -38t-142.5 -122l-38 32q83 134 159 211t153 110t170 33q147 0 232 -91.5t82 -272.5l-6 -308q-1 -66 22 -94
t66 -28q29 0 49 18t41 56l44 -22q-41 -106 -102 -157t-138 -51q-63 0 -111 31.5t-93 92.5q-57 -63 -114 -93.5zM562 364l-72 -20q-52 -15 -80 -28t-41 -30.5t-13 -45.5q0 -38 19.5 -69t50.5 -48t64 -17q39 0 58.5 24.5t17.5 67.5zM692 986l-20 38q-72 138 -188 138
q-62 0 -110.5 -36t-79.5 -102l-18 -38h-84q36 165 106.5 249.5t185.5 84.5t185.5 -84.5t106.5 -249.5h-84z" />
    <glyph glyph-name="uni0204" unicode="&#x204;" horiz-adv-x="1230" 
d="M1142 464v-464h-1066v88h150v1074h-150v88h1006v-426h-60q-39 136 -92.5 206.5t-147.5 100t-260 29.5h-32v-488q117 2 176 22.5t80.5 59.5t25.5 110h64v-494h-64q-4 79 -25.5 122t-80.5 65.5t-176 24.5v-336q0 -63 13.5 -96t44.5 -46.5t88 -13.5h70q100 0 170 28.5
t122.5 110t83.5 235.5h60zM518 1330h-60l-290 306h264zM832 1330h-60l-290 306h264z" />
    <glyph glyph-name="uni0205" unicode="&#x205;" horiz-adv-x="970" 
d="M956 380q-59 -204 -180 -307t-294 -103q-122 0 -218 56t-151 164t-55 258q0 139 55 246.5t151 166.5t216 59q106 0 190.5 -47t135 -148t50.5 -255h-580q16 -86 63 -155t116 -108t149 -39q108 0 184.5 58t119.5 168zM311.5 743q-39.5 -57 -43.5 -165h323q-7 108 -49 165
t-116 57q-75 0 -114.5 -57zM300 986l-316 324h264l112 -324h-60zM614 986l-316 324h264l112 -324h-60z" />
    <glyph glyph-name="uni0206" unicode="&#x206;" horiz-adv-x="1230" 
d="M1142 464v-464h-1066v88h150v1074h-150v88h1006v-426h-60q-39 136 -92.5 206.5t-147.5 100t-260 29.5h-32v-488q117 2 176 22.5t80.5 59.5t25.5 110h64v-494h-64q-4 79 -25.5 122t-80.5 65.5t-176 24.5v-336q0 -63 13.5 -96t44.5 -46.5t88 -13.5h70q100 0 170 28.5
t122.5 110t83.5 235.5h60zM834 1330l-20 38q-32 60 -80.5 92t-111.5 32t-111.5 -32t-80.5 -92l-20 -38h-80q36 158 106.5 239t185.5 81t185.5 -81t106.5 -239h-80z" />
    <glyph glyph-name="uni0207" unicode="&#x207;" horiz-adv-x="970" 
d="M956 380q-59 -204 -180 -307t-294 -103q-122 0 -218 56t-151 164t-55 258q0 139 55 246.5t151 166.5t216 59q106 0 190.5 -47t135 -148t50.5 -255h-580q16 -86 63 -155t116 -108t149 -39q108 0 184.5 58t119.5 168zM311.5 743q-39.5 -57 -43.5 -165h323q-7 108 -49 165
t-116 57q-75 0 -114.5 -57zM688 986l-20 38q-72 138 -188 138q-62 0 -110.5 -36t-79.5 -102l-18 -38h-84q36 165 106.5 249.5t185.5 84.5t185.5 -84.5t106.5 -249.5h-84z" />
    <glyph glyph-name="uni0208" unicode="&#x208;" horiz-adv-x="722" 
d="M496 1162v-1074h150v-88h-570v88h150v1074h-150v88h570v-88h-150zM256 1330h-60l-290 306h264zM570 1330h-60l-290 306h264z" />
    <glyph glyph-name="uni0209" unicode="&#x209;" horiz-adv-x="626" 
d="M598 84v-84h-556v84h150v530q0 39 -14 58t-54 42l-72 44v48l376 114h20v-836h150zM120 986l-316 324h264l112 -324h-60zM434 986l-316 324h264l112 -324h-60z" />
    <glyph glyph-name="uni020A" unicode="&#x20a;" horiz-adv-x="722" 
d="M496 1162v-1074h150v-88h-570v88h150v1074h-150v88h570v-88h-150zM572 1330l-20 38q-32 60 -80.5 92t-111.5 32t-111.5 -32t-80.5 -92l-20 -38h-80q36 158 106.5 239t185.5 81t185.5 -81t106.5 -239h-80z" />
    <glyph glyph-name="uni020B" unicode="&#x20b;" horiz-adv-x="626" 
d="M598 84v-84h-556v84h150v530q0 39 -14 58t-54 42l-72 44v48l376 114h20v-836h150zM508 986l-20 38q-72 138 -188 138q-62 0 -110.5 -36t-79.5 -102l-18 -38h-84q36 165 106.5 249.5t185.5 84.5t185.5 -84.5t106.5 -249.5h-84z" />
    <glyph glyph-name="uni020C" unicode="&#x20c;" horiz-adv-x="1466" 
d="M388.5 51q-146.5 81 -231.5 223t-85 316q0 185 86.5 343.5t242.5 252.5t353 94q176 0 322.5 -75.5t232 -211.5t85.5 -309q0 -191 -87 -355t-243 -261.5t-352 -97.5q-177 0 -323.5 81zM1009.5 173.5q69.5 43.5 108 128t38.5 204.5q0 158 -75 300t-199 228t-262 86
q-94 0 -163.5 -40t-108 -119t-38.5 -193q0 -161 76.5 -308.5t201.5 -238.5t260 -91q92 0 161.5 43.5zM630 1330h-60l-290 306h264zM944 1330h-60l-290 306h264z" />
    <glyph glyph-name="uni020D" unicode="&#x20d;" horiz-adv-x="1054" 
d="M788.5 864q100.5 -56 156 -156.5t55.5 -229.5q0 -138 -70 -254.5t-187 -185t-249 -68.5q-128 0 -228.5 56t-156 156.5t-55.5 229.5q0 138 70 254.5t187 185t249 68.5q128 0 228.5 -56zM306 707q-36 -47 -36 -127q0 -108 57 -211.5t144.5 -168t170.5 -64.5q72 0 107 47.5
t35 126.5q0 108 -56 211.5t-142.5 168t-171.5 64.5q-72 0 -108 -47zM330 986l-316 324h264l112 -324h-60zM644 986l-316 324h264l112 -324h-60z" />
    <glyph glyph-name="uni020E" unicode="&#x20e;" horiz-adv-x="1466" 
d="M388.5 51q-146.5 81 -231.5 223t-85 316q0 185 86.5 343.5t242.5 252.5t353 94q176 0 322.5 -75.5t232 -211.5t85.5 -309q0 -191 -87 -355t-243 -261.5t-352 -97.5q-177 0 -323.5 81zM1009.5 173.5q69.5 43.5 108 128t38.5 204.5q0 158 -75 300t-199 228t-262 86
q-94 0 -163.5 -40t-108 -119t-38.5 -193q0 -161 76.5 -308.5t201.5 -238.5t260 -91q92 0 161.5 43.5zM946 1330l-20 38q-32 60 -80.5 92t-111.5 32t-111.5 -32t-80.5 -92l-20 -38h-80q36 158 106.5 239t185.5 81t185.5 -81t106.5 -239h-80z" />
    <glyph glyph-name="uni020F" unicode="&#x20f;" horiz-adv-x="1054" 
d="M788.5 864q100.5 -56 156 -156.5t55.5 -229.5q0 -138 -70 -254.5t-187 -185t-249 -68.5q-128 0 -228.5 56t-156 156.5t-55.5 229.5q0 138 70 254.5t187 185t249 68.5q128 0 228.5 -56zM306 707q-36 -47 -36 -127q0 -108 57 -211.5t144.5 -168t170.5 -64.5q72 0 107 47.5
t35 126.5q0 108 -56 211.5t-142.5 168t-171.5 64.5q-72 0 -108 -47zM718 986l-20 38q-72 138 -188 138q-62 0 -110.5 -36t-79.5 -102l-18 -38h-84q36 165 106.5 249.5t185.5 84.5t185.5 -84.5t106.5 -249.5h-84z" />
    <glyph glyph-name="uni0210" unicode="&#x210;" horiz-adv-x="1388" 
d="M1304 100q51 -32 105 -32q9 0 27 2v-72q-41 -4 -100 -7t-96 -3q-108 0 -186.5 34.5t-151.5 127.5q-40 51 -84.5 114t-71.5 103t-41 61q-37 56 -99 146h-110v-486h150v-88h-570v88h150v1074h-150v88h644q137 0 242.5 -34t165.5 -103t60 -171q0 -126 -85 -208t-238 -123
l20 -26q92 -119 157 -200.5t148 -178.5q63 -74 114 -106zM496 1160v-496h156q129 20 187.5 80.5t58.5 177.5q0 119 -59.5 178.5t-186.5 59.5h-156zM476 1330h-60l-290 306h264zM790 1330h-60l-290 306h264z" />
    <glyph glyph-name="uni0211" unicode="&#x211;" horiz-adv-x="878" 
d="M796.5 892q47.5 -28 77.5 -86l-98 -182h-16l-26 13q-58 30 -90 42.5t-68 12.5q-62 0 -95 -38t-33 -114v-456h190v-84h-596v84h150v540q0 41 -14.5 61t-53.5 39l-72 34v48l372 114h20l-10 -212h14q99 212 246 212q55 0 102.5 -28zM274 986l-316 324h264l112 -324h-60z
M588 986l-316 324h264l112 -324h-60z" />
    <glyph glyph-name="uni0212" unicode="&#x212;" horiz-adv-x="1388" 
d="M1304 100q51 -32 105 -32q9 0 27 2v-72q-41 -4 -100 -7t-96 -3q-108 0 -186.5 34.5t-151.5 127.5q-40 51 -84.5 114t-71.5 103t-41 61q-37 56 -99 146h-110v-486h150v-88h-570v88h150v1074h-150v88h644q137 0 242.5 -34t165.5 -103t60 -171q0 -126 -85 -208t-238 -123
l20 -26q92 -119 157 -200.5t148 -178.5q63 -74 114 -106zM496 1160v-496h156q129 20 187.5 80.5t58.5 177.5q0 119 -59.5 178.5t-186.5 59.5h-156zM792 1330l-20 38q-32 60 -80.5 92t-111.5 32t-111.5 -32t-80.5 -92l-20 -38h-80q36 158 106.5 239t185.5 81t185.5 -81
t106.5 -239h-80z" />
    <glyph glyph-name="uni0213" unicode="&#x213;" horiz-adv-x="878" 
d="M796.5 892q47.5 -28 77.5 -86l-98 -182h-16l-26 13q-58 30 -90 42.5t-68 12.5q-62 0 -95 -38t-33 -114v-456h190v-84h-596v84h150v540q0 41 -14.5 61t-53.5 39l-72 34v48l372 114h20l-10 -212h14q99 212 246 212q55 0 102.5 -28zM662 986l-20 38q-72 138 -188 138
q-62 0 -110.5 -36t-79.5 -102l-18 -38h-84q36 165 106.5 249.5t185.5 84.5t185.5 -84.5t106.5 -249.5h-84z" />
    <glyph glyph-name="uni0214" unicode="&#x214;" horiz-adv-x="1412" 
d="M914 1250h458v-88h-144l-10 -318v-276q0 -296 -126.5 -447t-367.5 -151q-164 0 -284 63t-184 180t-64 277v672h-150v88h570v-88h-150v-612q0 -133 33 -215.5t105.5 -122.5t191.5 -40q113 0 182 37t101.5 119t32.5 218v460q0 67 -11.5 98.5t-40.5 44t-92 17.5l-50 4v80z
M650 1330h-60l-290 306h264zM964 1330h-60l-290 306h264z" />
    <glyph glyph-name="uni0215" unicode="&#x215;" horiz-adv-x="1160" 
d="M736 144q-55 -85 -125 -129.5t-163 -44.5q-85 0 -148.5 40.5t-97.5 116t-34 177.5v300q0 43 -13.5 64.5t-54.5 45.5l-72 44v48l374 114h22v-564q0 -88 47.5 -135t130.5 -47q71 0 101.5 35t30.5 109v286q0 43 -13.5 64.5t-54.5 45.5l-72 44v48l374 114h22v-664
q0 -88 34 -125t106 -47v-50l-352 -64h-34zM414 986l-316 324h264l112 -324h-60zM728 986l-316 324h264l112 -324h-60z" />
    <glyph glyph-name="uni0216" unicode="&#x216;" horiz-adv-x="1412" 
d="M914 1250h458v-88h-144l-10 -318v-276q0 -296 -126.5 -447t-367.5 -151q-164 0 -284 63t-184 180t-64 277v672h-150v88h570v-88h-150v-612q0 -133 33 -215.5t105.5 -122.5t191.5 -40q113 0 182 37t101.5 119t32.5 218v460q0 67 -11.5 98.5t-40.5 44t-92 17.5l-50 4v80z
M966 1330l-20 38q-32 60 -80.5 92t-111.5 32t-111.5 -32t-80.5 -92l-20 -38h-80q36 158 106.5 239t185.5 81t185.5 -81t106.5 -239h-80z" />
    <glyph glyph-name="uni0217" unicode="&#x217;" horiz-adv-x="1160" 
d="M736 144q-55 -85 -125 -129.5t-163 -44.5q-85 0 -148.5 40.5t-97.5 116t-34 177.5v300q0 43 -13.5 64.5t-54.5 45.5l-72 44v48l374 114h22v-564q0 -88 47.5 -135t130.5 -47q71 0 101.5 35t30.5 109v286q0 43 -13.5 64.5t-54.5 45.5l-72 44v48l374 114h22v-664
q0 -88 34 -125t106 -47v-50l-352 -64h-34zM802 986l-20 38q-72 138 -188 138q-62 0 -110.5 -36t-79.5 -102l-18 -38h-84q36 165 106.5 249.5t185.5 84.5t185.5 -84.5t106.5 -249.5h-84z" />
    <glyph glyph-name="uni0218" unicode="&#x218;" horiz-adv-x="1114" 
d="M754 724q150 -43 216 -123t66 -213q0 -120 -48 -214.5t-143.5 -149t-232.5 -54.5q-103 0 -192 32t-184 96l-76 -98h-58v492h66q86 -160 220 -254t288 -94q101 0 161.5 44.5t60.5 121.5q0 54 -38.5 88t-127.5 60l-308 88q-161 46 -234.5 130.5t-73.5 219.5q0 120 53 206.5
t146 132t211 45.5q89 0 165.5 -26.5t147.5 -77.5l67 92h58v-444h-60q-105 135 -228.5 208.5t-251.5 73.5q-81 0 -125.5 -33t-44.5 -103q0 -52 35.5 -88t112.5 -58zM342 -486q78 23 114 51t36 67q0 34 -25 58t-95 50l56 178q112 -28 171 -83.5t59 -130.5q0 -82 -69.5 -154
t-216.5 -120z" />
    <glyph glyph-name="uni0219" unicode="&#x219;" horiz-adv-x="818" 
d="M544 538q113 -55 159.5 -125t46.5 -153q0 -86 -44 -152t-121.5 -102t-176.5 -36q-88 0 -168 26.5t-144 73.5l-28 262h42q68 -134 138 -192t148 -58q58 0 87 28t29 74q0 42 -26 75t-84 61l-110 54q-109 53 -156.5 129t-47.5 159q0 75 36 134t102 91.5t152 32.5
q124 0 216 -70l80 56h28l14 -318h-40q-87 122 -153.5 174t-124.5 52q-40 0 -63 -22.5t-23 -63.5q0 -43 29 -74.5t95 -63.5zM260 -402q87 14 122.5 34.5t35.5 49.5q0 20 -13 34.5t-43.5 27t-87.5 26.5l50 144q130 -29 184 -70t54 -104q0 -77 -70 -135.5t-216 -84.5z" />
    <glyph glyph-name="uni021A" unicode="&#x21a;" horiz-adv-x="1278" 
d="M1222 784h-74q-25 150 -69.5 230t-116 112t-188.5 34v-1072h192v-88h-654v88h192v1072q-117 -2 -188.5 -33t-116 -111.5t-69.5 -231.5h-74v466h1166v-466zM428 -486q78 23 114 51t36 67q0 34 -25 58t-95 50l56 178q112 -28 171 -83.5t59 -130.5q0 -82 -69.5 -154
t-216.5 -120z" />
    <glyph glyph-name="uni021B" unicode="&#x21b;" horiz-adv-x="780" 
d="M289 4.5q-59 34.5 -93 105t-34 174.5v448h-136v54q119 60 201 145.5t127 190.5h64v-232h324l-78 -158h-246v-400q0 -74 31 -106t91 -32q57 0 106.5 28t93.5 90l38 -22q-130 -320 -356 -320q-74 0 -133 34.5zM248 -402q87 14 122.5 34.5t35.5 49.5q0 20 -13 34.5t-43.5 27
t-87.5 26.5l50 144q130 -29 184 -70t54 -104q0 -77 -70 -135.5t-216 -84.5z" />
    <glyph glyph-name="uni022A" unicode="&#x22a;" horiz-adv-x="1466" 
d="M388.5 51q-146.5 81 -231.5 223t-85 316q0 185 86.5 343.5t242.5 252.5t353 94q176 0 322.5 -75.5t232 -211.5t85.5 -309q0 -191 -87 -355t-243 -261.5t-352 -97.5q-177 0 -323.5 81zM1009.5 173.5q69.5 43.5 108 128t38.5 204.5q0 158 -75 300t-199 228t-262 86
q-94 0 -163.5 -40t-108 -119t-38.5 -193q0 -161 76.5 -308.5t201.5 -238.5t260 -91q92 0 161.5 43.5zM453 1403q-37 37 -37 97t37 98t97 38t96 -38t36 -98t-36 -97t-96 -37t-97 37zM821 1403q-37 37 -37 97t37 98t97 38t97 -38t37 -98t-37 -97t-97 -37t-97 37zM1074 1716
h-680v110h680v-110z" />
    <glyph glyph-name="uni022B" unicode="&#x22b;" horiz-adv-x="1054" 
d="M788.5 864q100.5 -56 156 -156.5t55.5 -229.5q0 -138 -70 -254.5t-187 -185t-249 -68.5q-128 0 -228.5 56t-156 156.5t-55.5 229.5q0 138 70 254.5t187 185t249 68.5q128 0 228.5 -56zM306 707q-36 -47 -36 -127q0 -108 57 -211.5t144.5 -168t170.5 -64.5q72 0 107 47.5
t35 126.5q0 108 -56 211.5t-142.5 168t-171.5 64.5q-72 0 -108 -47zM241.5 1054q-35.5 36 -35.5 94q0 59 36 95.5t94 36.5t93 -36.5t35 -95.5t-35 -94.5t-93 -35.5q-59 0 -94.5 36zM589.5 1054q-35.5 36 -35.5 94q0 59 36 95.5t94 36.5t94 -36.5t36 -95.5q0 -58 -36 -94
t-94 -36q-59 0 -94.5 36zM810 1364h-600v120h600v-120z" />
    <glyph glyph-name="uni022C" unicode="&#x22c;" horiz-adv-x="1466" 
d="M388.5 51q-146.5 81 -231.5 223t-85 316q0 185 86.5 343.5t242.5 252.5t353 94q176 0 322.5 -75.5t232 -211.5t85.5 -309q0 -191 -87 -355t-243 -261.5t-352 -97.5q-177 0 -323.5 81zM1009.5 173.5q69.5 43.5 108 128t38.5 204.5q0 158 -75 300t-199 228t-262 86
q-94 0 -163.5 -40t-108 -119t-38.5 -193q0 -161 76.5 -308.5t201.5 -238.5t260 -91q92 0 161.5 43.5zM404 1366q23 98 54 150.5t68 71t88 18.5q43 0 78 -9t80 -26q40 -15 67.5 -22t58.5 -7q42 0 71.5 22.5t44.5 65.5l52 -6q-33 -139 -84.5 -189.5t-119.5 -50.5q-33 0 -65 8
t-76 23q-52 17 -84.5 25t-68.5 8q-42 0 -69.5 -21t-42.5 -65zM1074 1720h-680v110h680v-110z" />
    <glyph glyph-name="uni022D" unicode="&#x22d;" horiz-adv-x="1054" 
d="M788.5 864q100.5 -56 156 -156.5t55.5 -229.5q0 -138 -70 -254.5t-187 -185t-249 -68.5q-128 0 -228.5 56t-156 156.5t-55.5 229.5q0 138 70 254.5t187 185t249 68.5q128 0 228.5 -56zM306 707q-36 -47 -36 -127q0 -108 57 -211.5t144.5 -168t170.5 -64.5q72 0 107 47.5
t35 126.5q0 108 -56 211.5t-142.5 168t-171.5 64.5q-72 0 -108 -47zM198 1010q16 125 64.5 194.5t131.5 69.5q26 0 57.5 -10t78.5 -30t77 -30t55 -10q36 0 60.5 20t37.5 68l62 -6q-14 -121 -64 -192.5t-124 -71.5q-29 0 -60.5 10t-80.5 30t-79 30t-58 10q-39 0 -61 -19
t-35 -67zM808 1416h-600v120h600v-120z" />
    <glyph glyph-name="uni0230" unicode="&#x230;" horiz-adv-x="1466" 
d="M388.5 51q-146.5 81 -231.5 223t-85 316q0 185 86.5 343.5t242.5 252.5t353 94q176 0 322.5 -75.5t232 -211.5t85.5 -309q0 -191 -87 -355t-243 -261.5t-352 -97.5q-177 0 -323.5 81zM1009.5 173.5q69.5 43.5 108 128t38.5 204.5q0 158 -75 300t-199 228t-262 86
q-94 0 -163.5 -40t-108 -119t-38.5 -193q0 -161 76.5 -308.5t201.5 -238.5t260 -91q92 0 161.5 43.5zM658.5 1371.5q-35.5 21.5 -57 57t-21.5 75.5t21.5 75.5t57 57t75.5 21.5t75.5 -21.5t57 -57t21.5 -75.5t-21.5 -75.5t-57 -57t-75.5 -21.5t-75.5 21.5zM1074 1716h-680
v110h680v-110z" />
    <glyph glyph-name="uni0231" unicode="&#x231;" horiz-adv-x="1054" 
d="M788.5 864q100.5 -56 156 -156.5t55.5 -229.5q0 -138 -70 -254.5t-187 -185t-249 -68.5q-128 0 -228.5 56t-156 156.5t-55.5 229.5q0 138 70 254.5t187 185t249 68.5q128 0 228.5 -56zM306 707q-36 -47 -36 -127q0 -108 57 -211.5t144.5 -168t170.5 -64.5q72 0 107 47.5
t35 126.5q0 108 -56 211.5t-142.5 168t-171.5 64.5q-72 0 -108 -47zM442 1024.5q-32 18.5 -51 50t-19 67.5t19 68.5t51 52t68 19.5t68 -19.5t51 -52t19 -68.5t-19 -67.5t-51 -50t-68 -18.5t-68 18.5zM810 1362h-600v120h600v-120z" />
    <glyph glyph-name="uni0232" unicode="&#x232;" horiz-adv-x="1244" 
d="M1149 1162l-387 -648v-426h170v-88h-610v88h170v408l-405 666h-95v88h526v-88h-118l304 -514l152 256q48 80 66 126t18 74q0 18 -8 28.5t-27 17t-57 12.5l-56 10v78h440v-88h-83zM980 1384h-680v110h680v-110z" />
    <glyph glyph-name="uni0233" unicode="&#x233;" horiz-adv-x="1068" 
d="M1082 806h-99l-495 -1092h106v-84h-492v84h121l170 371l-277 721h-108v84h510v-84h-127l179 -500l23 -76l183 426q18 42 26 66.5t8 40.5q0 21 -15.5 30t-52.5 15l-58 8v74h398v-84zM910 1054h-600v120h600v-120z" />
    <glyph glyph-name="uni0237" unicode="&#x237;" horiz-adv-x="558" 
d="M-54 -138l12 6q65 -40 92.5 -53t57.5 -13q24 0 42 18q11 15 16.5 40.5t5.5 77.5v676q0 37 -13 55.5t-55 44.5l-72 44v48l376 114h20v-764q0 -128 -75 -257.5t-185 -214t-206 -84.5q-79 0 -130 62z" />
    <glyph glyph-name="uni0259" unicode="&#x259;" horiz-adv-x="984" 
d="M720 864q96 -56 151 -164t55 -258q0 -139 -55 -246.5t-151 -166.5t-216 -59q-106 0 -190.5 47t-135 148t-50.5 255h580q-16 86 -63 155t-116 108t-149 39q-108 0 -184.5 -58t-119.5 -168l-48 14q59 204 180 307t294 103q122 0 218 -56zM672.5 147q39.5 57 43.5 165h-323
q7 -108 49 -165t116 -57q75 0 114.5 57z" />
    <glyph glyph-name="circumflex" unicode="&#x2c6;" horiz-adv-x="1020" 
d="M680 1310l130 -324h-80l-249 214l-167 -214h-104l176 324h294z" />
    <glyph glyph-name="caron" unicode="&#x2c7;" horiz-adv-x="1020" 
d="M533 1088l173 222h104l-176 -324h-314l-110 324h80z" />
    <glyph glyph-name="breve" unicode="&#x2d8;" horiz-adv-x="1020" 
d="M802 1312q-36 -165 -106.5 -249.5t-185.5 -84.5t-185.5 84.5t-106.5 249.5h84l18 -38q31 -66 79.5 -102t110.5 -36q116 0 188 138l20 38h84z" />
    <glyph glyph-name="dotaccent" unicode="&#x2d9;" horiz-adv-x="1020" 
d="M442 1024.5q-32 18.5 -51 50t-19 67.5t19 68.5t51 52t68 19.5t68 -19.5t51 -52t19 -68.5t-19 -67.5t-51 -50t-68 -18.5t-68 18.5z" />
    <glyph glyph-name="ring" unicode="&#x2da;" horiz-adv-x="1020" 
d="M330.5 1284.5q28.5 46.5 76 72t103.5 25.5t103.5 -25.5t76 -72t28.5 -104.5t-28.5 -105t-76 -73t-103.5 -26t-103.5 26t-76 73t-28.5 105t28.5 104.5zM427.5 1101q31.5 -31 82.5 -31q53 0 83.5 30.5t30.5 79.5t-30.5 78.5t-83.5 29.5q-51 0 -82.5 -30t-31.5 -78t31.5 -79
z" />
    <glyph glyph-name="ogonek" unicode="&#x2db;" horiz-adv-x="1020" 
d="M612 -246l8 -8v-160q-61 -38 -126 -38q-50 0 -93.5 21.5t-69 61.5t-25.5 91q0 55 34.5 113.5t111.5 133.5v65l90 16l80 -50q-88 -66 -122 -109t-34 -83q0 -33 18.5 -52.5t51.5 -19.5q40 0 76 18z" />
    <glyph glyph-name="tilde" unicode="&#x2dc;" horiz-adv-x="1020" 
d="M198 1010q16 125 64.5 194.5t131.5 69.5q26 0 57.5 -10t78.5 -30t77 -30t55 -10q36 0 60.5 20t37.5 68l62 -6q-14 -121 -64 -192.5t-124 -71.5q-29 0 -60.5 10t-80.5 30t-79 30t-58 10q-39 0 -61 -19t-35 -67z" />
    <glyph glyph-name="hungarumlaut" unicode="&#x2dd;" horiz-adv-x="1020" 
d="M352 1310h264l-316 -324h-60zM666 1310h264l-316 -324h-60z" />
    <glyph glyph-name="gravecomb" unicode="&#x300;" 
d="M-490 986l-314 324h284l90 -324h-60z" />
    <glyph glyph-name="acutecomb" unicode="&#x301;" 
d="M-478 986h-60l90 324h284z" />
    <glyph glyph-name="uni0302" unicode="&#x302;" 
d="M-340 1310l130 -324h-80l-249 214l-167 -214h-104l176 324h294z" />
    <glyph glyph-name="tildecomb" unicode="&#x303;" 
d="M-822 1010q16 125 64.5 194.5t131.5 69.5q26 0 57.5 -10t78.5 -30t77 -30t55 -10q36 0 60.5 20t37.5 68l62 -6q-14 -121 -64 -192.5t-124 -71.5q-29 0 -60.5 10t-80.5 30t-79 30t-58 10q-39 0 -61 -19t-35 -67z" />
    <glyph glyph-name="uni0304" unicode="&#x304;" 
d="M-210 1054h-600v120h600v-120z" />
    <glyph glyph-name="uni0306" unicode="&#x306;" 
d="M-218 1312q-36 -165 -106.5 -249.5t-185.5 -84.5t-185.5 84.5t-106.5 249.5h84l18 -38q31 -66 79.5 -102t110.5 -36q116 0 188 138l20 38h84z" />
    <glyph glyph-name="uni0307" unicode="&#x307;" 
d="M-578 1024.5q-32 18.5 -51 50t-19 67.5t19 68.5t51 52t68 19.5t68 -19.5t51 -52t19 -68.5t-19 -67.5t-51 -50t-68 -18.5t-68 18.5z" />
    <glyph glyph-name="uni0308" unicode="&#x308;" 
d="M-778.5 1054q-35.5 36 -35.5 94q0 59 36 95.5t94 36.5t93 -36.5t35 -95.5t-35 -94.5t-93 -35.5q-59 0 -94.5 36zM-430.5 1054q-35.5 36 -35.5 94q0 59 36 95.5t94 36.5t94 -36.5t36 -95.5q0 -58 -36 -94t-94 -36q-59 0 -94.5 36z" />
    <glyph glyph-name="hookabovecomb" unicode="&#x309;" 
d="M-451 1143q-43 -46 -126 -70l-7 -87h-74l-26 124h1l-1 2q75 31 102.5 52.5t27.5 47.5q0 42 -52 42q-31 0 -65 -14.5t-103 -55.5l-34 46q67 84 120.5 119t119.5 35q51 0 87 -20t54.5 -52t18.5 -68q0 -55 -43 -101z" />
    <glyph glyph-name="uni030A" unicode="&#x30a;" 
d="M-689.5 1284.5q28.5 46.5 76 72t103.5 25.5t103.5 -25.5t76 -72t28.5 -104.5t-28.5 -105t-76 -73t-103.5 -26t-103.5 26t-76 73t-28.5 105t28.5 104.5zM-592.5 1101q31.5 -31 82.5 -31q53 0 83.5 30.5t30.5 79.5t-30.5 78.5t-83.5 29.5q-51 0 -82.5 -30t-31.5 -78
t31.5 -79z" />
    <glyph glyph-name="uni030B" unicode="&#x30b;" 
d="M-668 1310h264l-316 -324h-60zM-354 1310h264l-316 -324h-60z" />
    <glyph glyph-name="uni030C" unicode="&#x30c;" 
d="M-487 1088l173 222h104l-176 -324h-314l-110 324h80z" />
    <glyph glyph-name="uni030F" unicode="&#x30f;" 
d="M-540 986l-316 324h264l112 -324h-60zM-226 986l-316 324h264l112 -324h-60z" />
    <glyph glyph-name="uni0311" unicode="&#x311;" 
d="M-302 986l-20 38q-72 138 -188 138q-62 0 -110.5 -36t-79.5 -102l-18 -38h-84q36 165 106.5 249.5t185.5 84.5t185.5 -84.5t106.5 -249.5h-84z" />
    <glyph glyph-name="uni0312" unicode="&#x312;" 
d="M-436 976q-130 29 -184 70t-54 104q0 77 70 135.5t216 84.5l16 -78q-87 -14 -122.5 -34.5t-35.5 -49.5q0 -20 13 -34.5t43.5 -27t87.5 -26.5z" />
    <glyph glyph-name="uni031B" unicode="&#x31b;" 
d="M-896 814l-6 68l78 30q75 29 117.5 70.5t42.5 77.5q0 31 -9 64.5t-27 75.5l54 50q168 -52 168 -164q0 -71 -75.5 -132t-220.5 -104z" />
    <glyph glyph-name="dotbelowcomb" unicode="&#x323;" 
d="M-578 -371.5q-32 18.5 -51 50t-19 67.5t19 68.5t51 52t68 19.5t68 -19.5t51 -52t19 -68.5t-19 -67.5t-51 -50t-68 -18.5t-68 18.5z" />
    <glyph glyph-name="uni0324" unicode="&#x324;" 
d="M-778.5 -334.5q-35.5 35.5 -35.5 94.5t36 95.5t94 36.5t93 -36.5t35 -95.5t-35 -94.5t-93 -35.5q-59 0 -94.5 35.5zM-430.5 -334.5q-35.5 35.5 -35.5 94.5t36 95.5t94 36.5t94 -36.5t36 -95.5t-36 -94.5t-94 -35.5q-59 0 -94.5 35.5z" />
    <glyph glyph-name="uni0326" unicode="&#x326;" 
d="M-658 -402q87 14 122.5 34.5t35.5 49.5q0 20 -13 34.5t-43.5 27t-87.5 26.5l50 144q130 -29 184 -70t54 -104q0 -77 -70 -135.5t-216 -84.5z" />
    <glyph glyph-name="uni0327" unicode="&#x327;" 
d="M-519 -93q110 -11 167.5 -62.5t57.5 -138.5q0 -60 -26 -106t-71.5 -71t-102.5 -25q-69 0 -130 35.5t-106 92.5l62 86h16q51 -44 88.5 -62t81.5 -18q36 0 57 14t21 42q0 41 -53.5 60.5t-162.5 19.5l-24 16l86 218h82z" />
    <glyph glyph-name="uni0328" unicode="&#x328;" 
d="M-408 -246l8 -8v-160q-61 -38 -126 -38q-50 0 -93.5 21.5t-69 61.5t-25.5 91q0 55 34.5 113.5t111.5 133.5v65l90 16l80 -50q-88 -66 -122 -109t-34 -83q0 -33 18.5 -52.5t51.5 -19.5q40 0 76 18z" />
    <glyph glyph-name="uni032E" unicode="&#x32e;" 
d="M-308 -126q-36 -165 -106.5 -249.5t-185.5 -84.5t-185.5 84.5t-106.5 249.5h84l18 -38q31 -66 79.5 -102t110.5 -36q116 0 188 138l20 38h84z" />
    <glyph glyph-name="uni0331" unicode="&#x331;" 
d="M-300 -266h-600v120h600v-120z" />
    <glyph glyph-name="uni0394" unicode="&#x394;" horiz-adv-x="1116" 
d="M328 1250h276l526 -1250h-1122v64l396 987l-76 185v14zM461 912l-313 -808h645z" />
    <glyph glyph-name="uni03A9" unicode="&#x3a9;" horiz-adv-x="1338" 
d="M1266 422l-40 -422h-498v496h21q331 36 331 224q0 86 -66.5 153.5t-178 105t-241.5 37.5q-110 0 -189.5 -27t-122 -77.5t-42.5 -119.5q0 -107 100 -181.5t276 -106.5v-504h-484l-62 422l64 6q24 -95 57.5 -149.5t82 -78.5t120.5 -24q49 0 77 11.5t43 41.5t21 87
q-121 27 -215 93.5t-147 165.5t-53 221q0 144 72.5 254t194.5 170t267 60q152 0 277 -66.5t197 -183.5t72 -262q0 -173 -101.5 -289t-279.5 -170q20 -74 63.5 -103.5t109.5 -29.5q58 0 99 22t69 77.5t42 152.5z" />
    <glyph glyph-name="uni03BC" unicode="&#x3bc;" horiz-adv-x="1164" 
d="M994 256q0 -88 34 -125t106 -47v-50l-352 -64h-34l-12 188q-100 -190 -258 -190q-36 0 -76 15l40 -353h-270v974q0 42 -13 63.5t-55 46.5l-72 44v48l374 114h22v-514q0 -113 47.5 -172.5t130.5 -59.5q71 0 101.5 35t30.5 109v286q0 42 -13 63.5t-55 46.5l-72 44v48
l374 114h22v-664z" />
    <glyph glyph-name="pi" unicode="&#x3c0;" horiz-adv-x="1140" 
d="M974 156q25 20 48 68l62 -26q-49 -109 -112.5 -168.5t-135.5 -59.5q-50 0 -97 24t-78 86.5t-25 169.5l23 414q-72 2 -101 2q-32 0 -86 -2q2 -72 2 -104q0 -206 -36.5 -337.5t-97.5 -191t-138 -59.5q-75 0 -115 64.5t-49 195.5l40 10q25 -53 51 -75.5t65 -22.5
q49 0 88.5 37.5t61.5 105t22 153.5q0 107 -24 216q-76 -9 -119.5 -25t-65.5 -37.5t-43 -57.5l-42 14q36 126 87 199.5t128 107t193 33.5h620l10 -30q-3 -33 -24 -80.5t-66 -127.5l-126 4l-56 -416q-2 -10 -2 -29q0 -75 74 -75q39 0 64 20z" />
    <glyph glyph-name="uni1E08" unicode="&#x1e08;" horiz-adv-x="1324" 
d="M732 1636h284l-316 -306h-80zM650 -29l-27 -64q110 -11 167.5 -62.5t57.5 -138.5q0 -60 -26 -106t-71.5 -71t-102.5 -25q-69 0 -130 35.5t-106 92.5l62 86h16q51 -44 88.5 -62t81.5 -18q36 0 57 14t21 42q0 41 -53.5 60.5t-162.5 19.5l-24 16l75 191q-144 28 -259 115.5
t-179.5 215t-64.5 268.5q0 179 87 340.5t237 260.5t328 99q167 0 307 -95l77 75h54v-520h-60q-232 386 -498 386q-91 0 -161 -38.5t-109.5 -115t-39.5 -186.5q0 -158 66.5 -291t186 -211t269.5 -78q155 0 253.5 97.5t142.5 270.5l72 -20q-60 -285 -212 -434.5t-378 -149.5
q-28 0 -42 1z" />
    <glyph glyph-name="uni1E09" unicode="&#x1e09;" horiz-adv-x="846" 
d="M538 1310h284l-314 -324h-60zM697.5 221q47.5 31 78.5 95l42 -18q-40 -149 -119.5 -231.5t-205.5 -94.5l-28 -65q110 -11 167.5 -62.5t57.5 -138.5q0 -60 -26 -106t-71.5 -71t-102.5 -25q-69 0 -130 35.5t-106 92.5l62 86h16q51 -44 88.5 -62t81.5 -18q36 0 57 14t21 42
q0 41 -53.5 60.5t-162.5 19.5l-24 16l72 182q-108 9 -188.5 68t-124 155.5t-43.5 216.5q0 143 62 259t166.5 182.5t227.5 66.5q100 0 173.5 -44t102.5 -130l-90 -134h-28q-68 72 -121.5 106t-118.5 34q-76 0 -121 -50.5t-45 -147.5q0 -92 44 -176.5t119 -136t163 -51.5
q60 0 107.5 31z" />
    <glyph glyph-name="uni1E0C" unicode="&#x1e0c;" horiz-adv-x="1500" 
d="M76 0v88h150v1074h-150v88h546q248 0 429.5 -71.5t279 -207t97.5 -321.5q0 -187 -92 -334.5t-271.5 -231.5t-430.5 -84h-558zM1023.5 217.5q114.5 127.5 114.5 398.5q0 266 -143 405t-421 139h-78v-908q0 -76 11.5 -108t46 -43t114.5 -11q241 0 355.5 127.5zM680 -381.5
q-32 18.5 -51 50t-19 67.5t19 68.5t51 52t68 19.5t68 -19.5t51 -52t19 -68.5t-19 -67.5t-51 -50t-68 -18.5t-68 18.5z" />
    <glyph glyph-name="uni1E0D" unicode="&#x1e0d;" horiz-adv-x="1104" 
d="M956 172q16 -38 46 -56t78 -24v-58l-362 -64l-24 2l-8 197q-58 -107 -135.5 -153t-162.5 -46q-100 0 -174.5 55.5t-115 152.5t-40.5 216q0 153 65.5 273.5t173 186.5t227.5 66q82 0 160 -36v210q0 39 -14 58t-54 42l-72 44v48l376 114h20v-1126q0 -64 16 -102zM653 220
q31 36 31 120v252q-48 80 -117 124t-147 44q-82 0 -127 -49.5t-45 -146.5q0 -95 41.5 -183t113.5 -142.5t157 -54.5q62 0 93 36zM496 -371.5q-32 18.5 -51 50t-19 67.5t19 68.5t51 52t68 19.5t68 -19.5t51 -52t19 -68.5t-19 -67.5t-51 -50t-68 -18.5t-68 18.5z" />
    <glyph glyph-name="uni1E0E" unicode="&#x1e0e;" horiz-adv-x="1500" 
d="M76 0v88h150v1074h-150v88h546q248 0 429.5 -71.5t279 -207t97.5 -321.5q0 -187 -92 -334.5t-271.5 -231.5t-430.5 -84h-558zM1023.5 217.5q114.5 127.5 114.5 398.5q0 266 -143 405t-421 139h-78v-908q0 -76 11.5 -108t46 -43t114.5 -11q241 0 355.5 127.5zM1048 -266
h-600v120h600v-120z" />
    <glyph glyph-name="uni1E0F" unicode="&#x1e0f;" horiz-adv-x="1104" 
d="M956 172q16 -38 46 -56t78 -24v-58l-362 -64l-24 2l-8 197q-58 -107 -135.5 -153t-162.5 -46q-100 0 -174.5 55.5t-115 152.5t-40.5 216q0 153 65.5 273.5t173 186.5t227.5 66q82 0 160 -36v210q0 39 -14 58t-54 42l-72 44v48l376 114h20v-1126q0 -64 16 -102zM653 220
q31 36 31 120v252q-48 80 -117 124t-147 44q-82 0 -127 -49.5t-45 -146.5q0 -95 41.5 -183t113.5 -142.5t157 -54.5q62 0 93 36zM864 -266h-600v120h600v-120z" />
    <glyph glyph-name="uni1E14" unicode="&#x1e14;" horiz-adv-x="1230" 
d="M1142 464v-464h-1066v88h150v1074h-150v88h1006v-426h-60q-39 136 -92.5 206.5t-147.5 100t-260 29.5h-32v-488q117 2 176 22.5t80.5 59.5t25.5 110h64v-494h-64q-4 79 -25.5 122t-80.5 65.5t-176 24.5v-336q0 -63 13.5 -96t44.5 -46.5t88 -13.5h70q100 0 170 28.5
t122.5 110t83.5 235.5h60zM962 1384h-680v110h680v-110zM582 1550l-316 306h284l112 -306h-80z" />
    <glyph glyph-name="uni1E15" unicode="&#x1e15;" horiz-adv-x="970" 
d="M956 380q-59 -204 -180 -307t-294 -103q-122 0 -218 56t-151 164t-55 258q0 139 55 246.5t151 166.5t216 59q106 0 190.5 -47t135 -148t50.5 -255h-580q16 -86 63 -155t116 -108t149 -39q108 0 184.5 58t119.5 168zM311.5 743q-39.5 -57 -43.5 -165h323q-7 108 -49 165
t-116 57q-75 0 -114.5 -57zM780 1054h-600v120h600v-120zM448 1246l-314 324h284l90 -324h-60z" />
    <glyph glyph-name="uni1E16" unicode="&#x1e16;" horiz-adv-x="1230" 
d="M1142 464v-464h-1066v88h150v1074h-150v88h1006v-426h-60q-39 136 -92.5 206.5t-147.5 100t-260 29.5h-32v-488q117 2 176 22.5t80.5 59.5t25.5 110h64v-494h-64q-4 79 -25.5 122t-80.5 65.5t-176 24.5v-336q0 -63 13.5 -96t44.5 -46.5t88 -13.5h70q100 0 170 28.5
t122.5 110t83.5 235.5h60zM962 1384h-680v110h680v-110zM698 1856h284l-316 -306h-80z" />
    <glyph glyph-name="uni1E17" unicode="&#x1e17;" horiz-adv-x="970" 
d="M956 380q-59 -204 -180 -307t-294 -103q-122 0 -218 56t-151 164t-55 258q0 139 55 246.5t151 166.5t216 59q106 0 190.5 -47t135 -148t50.5 -255h-580q16 -86 63 -155t116 -108t149 -39q108 0 184.5 58t119.5 168zM311.5 743q-39.5 -57 -43.5 -165h323q-7 108 -49 165
t-116 57q-75 0 -114.5 -57zM780 1054h-600v120h600v-120zM512 1246h-60l90 324h284z" />
    <glyph glyph-name="uni1E1C" unicode="&#x1e1c;" horiz-adv-x="1230" 
d="M436.5 1397q-70.5 81 -106.5 239h78l20 -38q32 -60 81.5 -92t112.5 -32t112.5 32t81.5 92l20 38h78q-36 -158 -106.5 -239t-185.5 -81t-185.5 81zM1142 0h-517l-40 -93q110 -11 167.5 -62.5t57.5 -138.5q0 -60 -26 -106t-71.5 -71t-102.5 -25q-69 0 -130 35.5t-106 92.5
l62 86h16q51 -44 88.5 -62t81.5 -18q36 0 57 14t21 42q0 41 -53.5 60.5t-162.5 19.5l-24 16l83 210h-467v88h150v1074h-150v88h1006v-426h-60q-39 136 -92.5 206.5t-147.5 100t-260 29.5h-32v-488q117 2 176 22.5t80.5 59.5t25.5 110h64v-494h-64q-4 79 -25.5 122
t-80.5 65.5t-176 24.5v-336q0 -63 13.5 -96t44.5 -46.5t88 -13.5h70q100 0 170 28.5t122.5 110t83.5 235.5h60v-464z" />
    <glyph glyph-name="uni1E1D" unicode="&#x1e1d;" horiz-adv-x="970" 
d="M294.5 1062.5q-70.5 84.5 -106.5 249.5h84l18 -38q31 -66 79.5 -102t110.5 -36q116 0 188 138l20 38h84q-36 -165 -106.5 -249.5t-185.5 -84.5t-185.5 84.5zM956 380q-56 -191 -165.5 -293.5t-266.5 -114.5l-27 -65q110 -11 167.5 -62.5t57.5 -138.5q0 -60 -26 -106
t-71.5 -71t-102.5 -25q-69 0 -130 35.5t-106 92.5l62 86h16q51 -44 88.5 -62t81.5 -18q36 0 57 14t21 42q0 41 -53.5 60.5t-162.5 19.5l-24 16l72 181q-113 9 -200 67.5t-136.5 163t-49.5 246.5q0 139 55 246.5t151 166.5t216 59q106 0 190.5 -47t135 -148t50.5 -255h-580
q16 -86 63 -155t116 -108t149 -39q108 0 184.5 58t119.5 168zM311.5 743q-39.5 -57 -43.5 -165h323q-7 108 -49 165t-116 57q-75 0 -114.5 -57z" />
    <glyph glyph-name="uni1E20" unicode="&#x1e20;" horiz-adv-x="1388" 
d="M1358 578v-90h-116v-508h-50l-192 220h-18q-56 -127 -127.5 -178.5t-178.5 -51.5q-163 0 -302 83t-220.5 224.5t-81.5 308.5q0 180 88 340t234.5 257t313.5 97q173 0 322 -99l86 79h44v-186l2 -2l-2 1v-317h-50q-109 178 -231 274t-275 96q-149 0 -230.5 -87.5
t-81.5 -256.5q0 -164 63.5 -295.5t173.5 -206t245 -74.5q93 0 140.5 40.5t47.5 131.5v110h-242v90h638zM1056 1384h-680v110h680v-110z" />
    <glyph glyph-name="uni1E21" unicode="&#x1e21;" horiz-adv-x="952" 
d="M676 180q134 -7 192 -53t58 -133q0 -97 -65 -188t-186.5 -148.5t-280.5 -57.5q-103 0 -185.5 24t-129.5 68.5t-47 103.5q0 52 40 101t141 113q-151 99 -151 196q0 46 35.5 89t122.5 98q-70 38 -103 97t-33 126q0 91 45 159.5t128 106.5t195 38h468v-132h-157
q53 -67 53 -156q0 -110 -76 -189t-242 -109l-190 -34q-77 -14 -102.5 -26t-25.5 -30q0 -15 10 -23.5t40.5 -14t91.5 -8.5zM345.5 787.5q-31.5 -44.5 -31.5 -137.5q0 -71 19 -123.5t52 -80.5t75 -28q55 0 90.5 46t35.5 138q0 68 -20.5 120t-56 81t-79.5 29q-53 0 -84.5 -44.5
zM734.5 -197.5q63.5 20.5 63.5 63.5q0 104 -382 104q-56 0 -160 -4q-26 -23 -26 -56q0 -61 86 -94.5t236 -33.5q119 0 182.5 20.5zM802 1054h-600v120h600v-120z" />
    <glyph glyph-name="uni1E24" unicode="&#x1e24;" horiz-adv-x="1560" 
d="M1484 1250v-88h-150v-1074h150v-88h-570v88h150v502h-568v-502h150v-88h-570v88h150v1074h-150v88h570v-88h-150v-474h568v474h-150v88h570zM712 -381.5q-32 18.5 -51 50t-19 67.5t19 68.5t51 52t68 19.5t68 -19.5t51 -52t19 -68.5t-19 -67.5t-51 -50t-68 -18.5t-68 18.5
z" />
    <glyph glyph-name="uni1E25" unicode="&#x1e25;" horiz-adv-x="1188" 
d="M28 0v84h140v1010q0 39 -14 58t-54 42l-72 44v48l376 114h20v-480l-8 -198h16q51 87 136.5 142.5t179.5 55.5q80 0 144.5 -39t101 -112.5t34.5 -170.5l-10 -514h140v-84h-520v84h124v450q0 89 -56 130.5t-150 41.5q-71 0 -101.5 -40t-30.5 -120v-462h124v-84h-520z
M516 -371.5q-32 18.5 -51 50t-19 67.5t19 68.5t51 52t68 19.5t68 -19.5t51 -52t19 -68.5t-19 -67.5t-51 -50t-68 -18.5t-68 18.5z" />
    <glyph glyph-name="uni1E2A" unicode="&#x1e2a;" horiz-adv-x="1560" 
d="M1484 1250v-88h-150v-1074h150v-88h-570v88h150v502h-568v-502h150v-88h-570v88h150v1074h-150v88h570v-88h-150v-474h568v474h-150v88h570zM1072 -70q-36 -158 -106.5 -239t-185.5 -81t-185.5 81t-106.5 239h78l20 -38q32 -60 81.5 -92t112.5 -32t112.5 32t81.5 92
l20 38h78z" />
    <glyph glyph-name="uni1E2B" unicode="&#x1e2b;" horiz-adv-x="1188" 
d="M28 0v84h140v1010q0 39 -14 58t-54 42l-72 44v48l376 114h20v-480l-8 -198h16q51 87 136.5 142.5t179.5 55.5q80 0 144.5 -39t101 -112.5t34.5 -170.5l-10 -514h140v-84h-520v84h124v450q0 89 -56 130.5t-150 41.5q-71 0 -101.5 -40t-30.5 -120v-462h124v-84h-520z
M876 -126q-36 -165 -106.5 -249.5t-185.5 -84.5t-185.5 84.5t-106.5 249.5h84l18 -38q31 -66 79.5 -102t110.5 -36q116 0 188 138l20 38h84z" />
    <glyph glyph-name="uni1E2E" unicode="&#x1e2e;" horiz-adv-x="722" 
d="M496 1162v-1074h150v-88h-570v88h150v1074h-150v88h570v-88h-150zM79 1403q-37 37 -37 97t37 98t97 38t96 -38t36 -98t-36 -97t-96 -37t-97 37zM447 1403q-37 37 -37 97t37 98t97 38t97 -38t37 -98t-37 -97t-97 -37t-97 37zM436 1968h284l-316 -306h-80z" />
    <glyph glyph-name="uni1E2F" unicode="&#x1e2f;" horiz-adv-x="626" 
d="M362 1620h284l-314 -324h-60zM226.5 1054q-35.5 -36 -92.5 -36q-58 0 -94 36t-36 94q0 59 36 95.5t94 36.5q57 0 92.5 -36.5t35.5 -95.5q0 -58 -35.5 -94zM372 1243.5q36 36.5 94 36.5t94 -36.5t36 -95.5q0 -58 -35.5 -94t-94.5 -36q-58 0 -94 36t-36 94q0 59 36 95.5z
M598 84v-84h-556v84h150v530q0 39 -14 58t-54 42l-72 44v48l376 114h20v-836h150z" />
    <glyph glyph-name="uni1E36" unicode="&#x1e36;" horiz-adv-x="1206" 
d="M496 242q0 -68 13 -99t48 -42t113 -11h60q92 0 156 33t114 118t92 241h60v-482h-1076v88h150v1074h-150v88h570v-88h-150v-920zM572 -371.5q-32 18.5 -51 50t-19 67.5t19 68.5t51 52t68 19.5t68 -19.5t51 -52t19 -68.5t-19 -67.5t-51 -50t-68 -18.5t-68 18.5z" />
    <glyph glyph-name="uni1E37" unicode="&#x1e37;" horiz-adv-x="612" 
d="M584 84v-84h-556v84h150v1010q0 39 -14 58t-54 42l-72 44v48l376 114h20v-1316h150zM240 -371.5q-32 18.5 -51 50t-19 67.5t19 68.5t51 52t68 19.5t68 -19.5t51 -52t19 -68.5t-19 -67.5t-51 -50t-68 -18.5t-68 18.5z" />
    <glyph glyph-name="uni1E3A" unicode="&#x1e3a;" horiz-adv-x="1206" 
d="M496 242q0 -68 13 -99t48 -42t113 -11h60q92 0 156 33t114 118t92 241h60v-482h-1076v88h150v1074h-150v88h570v-88h-150v-920zM940 -266h-600v120h600v-120z" />
    <glyph glyph-name="uni1E3B" unicode="&#x1e3b;" horiz-adv-x="612" 
d="M584 84v-84h-556v84h150v1010q0 39 -14 58t-54 42l-72 44v48l376 114h20v-1316h150zM608 -266h-600v120h600v-120z" />
    <glyph glyph-name="uni1E42" unicode="&#x1e42;" horiz-adv-x="1798" 
d="M1626 88h150v-88h-590v88h170l-103 918l-403 -1006h-62l-387 1039l-87 -777q-4 -35 -4 -68q0 -45 11 -68t34 -31.5t65 -10.5l80 -4v-80h-474v88h150l116 986q2 16 2 22q0 34 -23.5 50t-80.5 20l-54 4v80h468l295 -825l327 825h410v-88h-141zM762 -381.5q-32 18.5 -51 50
t-19 67.5t19 68.5t51 52t68 19.5t68 -19.5t51 -52t19 -68.5t-19 -67.5t-51 -50t-68 -18.5t-68 18.5z" />
    <glyph glyph-name="uni1E43" unicode="&#x1e43;" horiz-adv-x="1766" 
d="M42 0v84h150v540q0 41 -14.5 61t-53.5 39l-72 34v48l376 114h20l-8 -198h16q51 87 129.5 142.5t166.5 55.5q89 0 155.5 -52t96.5 -146h16q50 86 133.5 142t172.5 56q80 0 144.5 -39t101 -112.5t34.5 -170.5l-10 -514h150v-84h-510v84h104v450q0 88 -50.5 130t-135.5 42
q-71 0 -101.5 -40t-30.5 -120v-462h150v-84h-510v84h104v450q0 88 -50.5 130t-135.5 42q-71 0 -101.5 -40t-30.5 -120v-462h124v-84h-530zM822 -371.5q-32 18.5 -51 50t-19 67.5t19 68.5t51 52t68 19.5t68 -19.5t51 -52t19 -68.5t-19 -67.5t-51 -50t-68 -18.5t-68 18.5z" />
    <glyph glyph-name="uni1E44" unicode="&#x1e44;" horiz-adv-x="1464" 
d="M944 1250h464v-88h-144l-10 -318v-844h-76l-826 855v-611q0 -67 11.5 -98.5t40.5 -44t92 -17.5l50 -4v-80h-464v88h144l10 258v586q0 79 -13.5 119.5t-41 61t-87.5 47.5l-32 14v76h274l692 -714l110 -118v588q0 67 -11.5 98.5t-40.5 44t-92 17.5l-50 4v80zM656.5 1371.5
q-35.5 21.5 -57 57t-21.5 75.5t21.5 75.5t57 57t75.5 21.5t75.5 -21.5t57 -57t21.5 -75.5t-21.5 -75.5t-57 -57t-75.5 -21.5t-75.5 21.5z" />
    <glyph glyph-name="uni1E45" unicode="&#x1e45;" horiz-adv-x="1212" 
d="M478.5 666q-30.5 -40 -30.5 -120v-462h124v-84h-530v84h150v540q0 41 -14.5 61t-53.5 39l-72 34v48l376 114h20l-8 -198h16q51 87 136.5 142.5t179.5 55.5q80 0 144.5 -38t101 -108.5t34.5 -165.5l-10 -524h150v-84h-530v84h124v450q0 89 -56 130.5t-150 41.5
q-71 0 -101.5 -40zM542 1024.5q-32 18.5 -51 50t-19 67.5t19 68.5t51 52t68 19.5t68 -19.5t51 -52t19 -68.5t-19 -67.5t-51 -50t-68 -18.5t-68 18.5z" />
    <glyph glyph-name="uni1E46" unicode="&#x1e46;" horiz-adv-x="1464" 
d="M944 1250h464v-88h-144l-10 -318v-844h-76l-826 855v-611q0 -67 11.5 -98.5t40.5 -44t92 -17.5l50 -4v-80h-464v88h144l10 258v586q0 79 -13.5 119.5t-41 61t-87.5 47.5l-32 14v76h274l692 -714l110 -118v588q0 67 -11.5 98.5t-40.5 44t-92 17.5l-50 4v80zM684 -371.5
q-32 18.5 -51 50t-19 67.5t19 68.5t51 52t68 19.5t68 -19.5t51 -52t19 -68.5t-19 -67.5t-51 -50t-68 -18.5t-68 18.5z" />
    <glyph glyph-name="uni1E47" unicode="&#x1e47;" horiz-adv-x="1212" 
d="M478.5 666q-30.5 -40 -30.5 -120v-462h124v-84h-530v84h150v540q0 41 -14.5 61t-53.5 39l-72 34v48l376 114h20l-8 -198h16q51 87 136.5 142.5t179.5 55.5q80 0 144.5 -38t101 -108.5t34.5 -165.5l-10 -524h150v-84h-530v84h124v450q0 89 -56 130.5t-150 41.5
q-71 0 -101.5 -40zM510 -371.5q-32 18.5 -51 50t-19 67.5t19 68.5t51 52t68 19.5t68 -19.5t51 -52t19 -68.5t-19 -67.5t-51 -50t-68 -18.5t-68 18.5z" />
    <glyph glyph-name="uni1E48" unicode="&#x1e48;" horiz-adv-x="1464" 
d="M944 1250h464v-88h-144l-10 -318v-844h-76l-826 855v-611q0 -67 11.5 -98.5t40.5 -44t92 -17.5l50 -4v-80h-464v88h144l10 258v586q0 79 -13.5 119.5t-41 61t-87.5 47.5l-32 14v76h274l692 -714l110 -118v588q0 67 -11.5 98.5t-40.5 44t-92 17.5l-50 4v80zM1052 -266
h-600v120h600v-120z" />
    <glyph glyph-name="uni1E49" unicode="&#x1e49;" horiz-adv-x="1212" 
d="M478.5 666q-30.5 -40 -30.5 -120v-462h124v-84h-530v84h150v540q0 41 -14.5 61t-53.5 39l-72 34v48l376 114h20l-8 -198h16q51 87 136.5 142.5t179.5 55.5q80 0 144.5 -38t101 -108.5t34.5 -165.5l-10 -524h150v-84h-530v84h124v450q0 89 -56 130.5t-150 41.5
q-71 0 -101.5 -40zM878 -266h-600v120h600v-120z" />
    <glyph glyph-name="uni1E4C" unicode="&#x1e4c;" horiz-adv-x="1466" 
d="M388.5 51q-146.5 81 -231.5 223t-85 316q0 185 86.5 343.5t242.5 252.5t353 94q176 0 322.5 -75.5t232 -211.5t85.5 -309q0 -191 -87 -355t-243 -261.5t-352 -97.5q-177 0 -323.5 81zM1009.5 173.5q69.5 43.5 108 128t38.5 204.5q0 158 -75 300t-199 228t-262 86
q-94 0 -163.5 -40t-108 -119t-38.5 -193q0 -161 76.5 -308.5t201.5 -238.5t260 -91q92 0 161.5 43.5zM404 1366q23 98 54 150.5t68 71t88 18.5q43 0 78 -9t80 -26q40 -15 67.5 -22t58.5 -7q42 0 71.5 22.5t44.5 65.5l52 -6q-33 -139 -84.5 -189.5t-119.5 -50.5q-33 0 -65 8
t-76 23q-52 17 -84.5 25t-68.5 8q-42 0 -69.5 -21t-42.5 -65zM810 1972h284l-316 -306h-80z" />
    <glyph glyph-name="uni1E4D" unicode="&#x1e4d;" horiz-adv-x="1054" 
d="M788.5 864q100.5 -56 156 -156.5t55.5 -229.5q0 -138 -70 -254.5t-187 -185t-249 -68.5q-128 0 -228.5 56t-156 156.5t-55.5 229.5q0 138 70 254.5t187 185t249 68.5q128 0 228.5 -56zM306 707q-36 -47 -36 -127q0 -108 57 -211.5t144.5 -168t170.5 -64.5q72 0 107 47.5
t35 126.5q0 108 -56 211.5t-142.5 168t-171.5 64.5q-72 0 -108 -47zM198 1010q16 125 64.5 194.5t131.5 69.5q26 0 57.5 -10t78.5 -30t77 -30t55 -10q36 0 60.5 20t37.5 68l62 -6q-14 -121 -64 -192.5t-124 -71.5q-29 0 -60.5 10t-80.5 30t-79 30t-58 10q-39 0 -61 -19
t-35 -67zM540 1348h-60l90 324h284z" />
    <glyph glyph-name="uni1E4E" unicode="&#x1e4e;" horiz-adv-x="1466" 
d="M388.5 51q-146.5 81 -231.5 223t-85 316q0 185 86.5 343.5t242.5 252.5t353 94q176 0 322.5 -75.5t232 -211.5t85.5 -309q0 -191 -87 -355t-243 -261.5t-352 -97.5q-177 0 -323.5 81zM1009.5 173.5q69.5 43.5 108 128t38.5 204.5q0 158 -75 300t-199 228t-262 86
q-94 0 -163.5 -40t-108 -119t-38.5 -193q0 -161 76.5 -308.5t201.5 -238.5t260 -91q92 0 161.5 43.5zM404 1366q23 98 54 150.5t68 71t88 18.5q43 0 78 -9t80 -26q40 -15 67.5 -22t58.5 -7q42 0 71.5 22.5t44.5 65.5l52 -6q-33 -139 -84.5 -189.5t-119.5 -50.5q-33 0 -65 8
t-76 23q-52 17 -84.5 25t-68.5 8q-42 0 -69.5 -21t-42.5 -65zM453 1739q-37 37 -37 97t37 98t97 38t96 -38t36 -98t-36 -97t-96 -37t-97 37zM821 1739q-37 37 -37 97t37 98t97 38t97 -38t37 -98t-37 -97t-97 -37t-97 37z" />
    <glyph glyph-name="uni1E4F" unicode="&#x1e4f;" horiz-adv-x="1054" 
d="M788.5 864q100.5 -56 156 -156.5t55.5 -229.5q0 -138 -70 -254.5t-187 -185t-249 -68.5q-128 0 -228.5 56t-156 156.5t-55.5 229.5q0 138 70 254.5t187 185t249 68.5q128 0 228.5 -56zM306 707q-36 -47 -36 -127q0 -108 57 -211.5t144.5 -168t170.5 -64.5q72 0 107 47.5
t35 126.5q0 108 -56 211.5t-142.5 168t-171.5 64.5q-72 0 -108 -47zM198 1010q16 125 64.5 194.5t131.5 69.5q26 0 57.5 -10t78.5 -30t77 -30t55 -10q36 0 60.5 20t37.5 68l62 -6q-14 -121 -64 -192.5t-124 -71.5q-29 0 -60.5 10t-80.5 30t-79 30t-58 10q-39 0 -61 -19
t-35 -67zM239.5 1416q-35.5 36 -35.5 94q0 59 36 95.5t94 36.5t93 -36.5t35 -95.5t-35 -94.5t-93 -35.5q-59 0 -94.5 36zM587.5 1416q-35.5 36 -35.5 94q0 59 36 95.5t94 36.5t94 -36.5t36 -95.5q0 -58 -36 -94t-94 -36q-59 0 -94.5 36z" />
    <glyph glyph-name="uni1E50" unicode="&#x1e50;" horiz-adv-x="1466" 
d="M388.5 51q-146.5 81 -231.5 223t-85 316q0 185 86.5 343.5t242.5 252.5t353 94q176 0 322.5 -75.5t232 -211.5t85.5 -309q0 -191 -87 -355t-243 -261.5t-352 -97.5q-177 0 -323.5 81zM1009.5 173.5q69.5 43.5 108 128t38.5 204.5q0 158 -75 300t-199 228t-262 86
q-94 0 -163.5 -40t-108 -119t-38.5 -193q0 -161 76.5 -308.5t201.5 -238.5t260 -91q92 0 161.5 43.5zM1074 1384h-680v110h680v-110zM694 1550l-316 306h284l112 -306h-80z" />
    <glyph glyph-name="uni1E51" unicode="&#x1e51;" horiz-adv-x="1054" 
d="M788.5 864q100.5 -56 156 -156.5t55.5 -229.5q0 -138 -70 -254.5t-187 -185t-249 -68.5q-128 0 -228.5 56t-156 156.5t-55.5 229.5q0 138 70 254.5t187 185t249 68.5q128 0 228.5 -56zM306 707q-36 -47 -36 -127q0 -108 57 -211.5t144.5 -168t170.5 -64.5q72 0 107 47.5
t35 126.5q0 108 -56 211.5t-142.5 168t-171.5 64.5q-72 0 -108 -47zM810 1054h-600v120h600v-120zM478 1246l-314 324h284l90 -324h-60z" />
    <glyph glyph-name="uni1E52" unicode="&#x1e52;" horiz-adv-x="1466" 
d="M388.5 51q-146.5 81 -231.5 223t-85 316q0 185 86.5 343.5t242.5 252.5t353 94q176 0 322.5 -75.5t232 -211.5t85.5 -309q0 -191 -87 -355t-243 -261.5t-352 -97.5q-177 0 -323.5 81zM1009.5 173.5q69.5 43.5 108 128t38.5 204.5q0 158 -75 300t-199 228t-262 86
q-94 0 -163.5 -40t-108 -119t-38.5 -193q0 -161 76.5 -308.5t201.5 -238.5t260 -91q92 0 161.5 43.5zM1074 1384h-680v110h680v-110zM810 1856h284l-316 -306h-80z" />
    <glyph glyph-name="uni1E53" unicode="&#x1e53;" horiz-adv-x="1054" 
d="M788.5 864q100.5 -56 156 -156.5t55.5 -229.5q0 -138 -70 -254.5t-187 -185t-249 -68.5q-128 0 -228.5 56t-156 156.5t-55.5 229.5q0 138 70 254.5t187 185t249 68.5q128 0 228.5 -56zM306 707q-36 -47 -36 -127q0 -108 57 -211.5t144.5 -168t170.5 -64.5q72 0 107 47.5
t35 126.5q0 108 -56 211.5t-142.5 168t-171.5 64.5q-72 0 -108 -47zM810 1054h-600v120h600v-120zM542 1246h-60l90 324h284z" />
    <glyph glyph-name="uni1E5A" unicode="&#x1e5a;" horiz-adv-x="1388" 
d="M1304 100q51 -32 105 -32q9 0 27 2v-72q-41 -4 -100 -7t-96 -3q-108 0 -186.5 34.5t-151.5 127.5q-40 51 -84.5 114t-71.5 103t-41 61q-37 56 -99 146h-110v-486h150v-88h-570v88h150v1074h-150v88h644q137 0 242.5 -34t165.5 -103t60 -171q0 -126 -85 -208t-238 -123
l20 -26q92 -119 157 -200.5t148 -178.5q63 -74 114 -106zM496 1160v-496h156q129 20 187.5 80.5t58.5 177.5q0 119 -59.5 178.5t-186.5 59.5h-156zM702 -381.5q-32 18.5 -51 50t-19 67.5t19 68.5t51 52t68 19.5t68 -19.5t51 -52t19 -68.5t-19 -67.5t-51 -50t-68 -18.5
t-68 18.5z" />
    <glyph glyph-name="uni1E5B" unicode="&#x1e5b;" horiz-adv-x="878" 
d="M796.5 892q47.5 -28 77.5 -86l-98 -182h-16l-26 13q-58 30 -90 42.5t-68 12.5q-62 0 -95 -38t-33 -114v-456h190v-84h-596v84h150v540q0 41 -14.5 61t-53.5 39l-72 34v48l372 114h20l-10 -212h14q99 212 246 212q55 0 102.5 -28zM248 -371.5q-32 18.5 -51 50t-19 67.5
t19 68.5t51 52t68 19.5t68 -19.5t51 -52t19 -68.5t-19 -67.5t-51 -50t-68 -18.5t-68 18.5z" />
    <glyph glyph-name="uni1E5E" unicode="&#x1e5e;" horiz-adv-x="1388" 
d="M1304 100q51 -32 105 -32q9 0 27 2v-72q-41 -4 -100 -7t-96 -3q-108 0 -186.5 34.5t-151.5 127.5q-40 51 -84.5 114t-71.5 103t-41 61q-37 56 -99 146h-110v-486h150v-88h-570v88h150v1074h-150v88h644q137 0 242.5 -34t165.5 -103t60 -171q0 -126 -85 -208t-238 -123
l20 -26q92 -119 157 -200.5t148 -178.5q63 -74 114 -106zM496 1160v-496h156q129 20 187.5 80.5t58.5 177.5q0 119 -59.5 178.5t-186.5 59.5h-156zM1070 -266h-600v120h600v-120z" />
    <glyph glyph-name="uni1E5F" unicode="&#x1e5f;" horiz-adv-x="878" 
d="M796.5 892q47.5 -28 77.5 -86l-98 -182h-16l-26 13q-58 30 -90 42.5t-68 12.5q-62 0 -95 -38t-33 -114v-456h190v-84h-596v84h150v540q0 41 -14.5 61t-53.5 39l-72 34v48l372 114h20l-10 -212h14q99 212 246 212q55 0 102.5 -28zM616 -266h-600v120h600v-120z" />
    <glyph glyph-name="uni1E60" unicode="&#x1e60;" horiz-adv-x="1114" 
d="M754 724q150 -43 216 -123t66 -213q0 -120 -48 -214.5t-143.5 -149t-232.5 -54.5q-103 0 -192 32t-184 96l-76 -98h-58v492h66q86 -160 220 -254t288 -94q101 0 161.5 44.5t60.5 121.5q0 54 -38.5 88t-127.5 60l-308 88q-161 46 -234.5 130.5t-73.5 219.5q0 120 53 206.5
t146 132t211 45.5q89 0 165.5 -26.5t147.5 -77.5l67 92h58v-444h-60q-105 135 -228.5 208.5t-251.5 73.5q-81 0 -125.5 -33t-44.5 -103q0 -52 35.5 -88t112.5 -58zM478.5 1371.5q-35.5 21.5 -57 57t-21.5 75.5t21.5 75.5t57 57t75.5 21.5t75.5 -21.5t57 -57t21.5 -75.5
t-21.5 -75.5t-57 -57t-75.5 -21.5t-75.5 21.5z" />
    <glyph glyph-name="uni1E61" unicode="&#x1e61;" horiz-adv-x="818" 
d="M544 538q113 -55 159.5 -125t46.5 -153q0 -86 -44 -152t-121.5 -102t-176.5 -36q-88 0 -168 26.5t-144 73.5l-28 262h42q68 -134 138 -192t148 -58q58 0 87 28t29 74q0 42 -26 75t-84 61l-110 54q-109 53 -156.5 129t-47.5 159q0 75 36 134t102 91.5t152 32.5
q124 0 216 -70l80 56h28l14 -318h-40q-87 122 -153.5 174t-124.5 52q-40 0 -63 -22.5t-23 -63.5q0 -43 29 -74.5t95 -63.5zM332 1024.5q-32 18.5 -51 50t-19 67.5t19 68.5t51 52t68 19.5t68 -19.5t51 -52t19 -68.5t-19 -67.5t-51 -50t-68 -18.5t-68 18.5z" />
    <glyph glyph-name="uni1E62" unicode="&#x1e62;" horiz-adv-x="1114" 
d="M754 724q150 -43 216 -123t66 -213q0 -120 -48 -214.5t-143.5 -149t-232.5 -54.5q-103 0 -192 32t-184 96l-76 -98h-58v492h66q86 -160 220 -254t288 -94q101 0 161.5 44.5t60.5 121.5q0 54 -38.5 88t-127.5 60l-308 88q-161 46 -234.5 130.5t-73.5 219.5q0 120 53 206.5
t146 132t211 45.5q89 0 165.5 -26.5t147.5 -77.5l67 92h58v-444h-60q-105 135 -228.5 208.5t-251.5 73.5q-81 0 -125.5 -33t-44.5 -103q0 -52 35.5 -88t112.5 -58zM486 -381.5q-32 18.5 -51 50t-19 67.5t19 68.5t51 52t68 19.5t68 -19.5t51 -52t19 -68.5t-19 -67.5t-51 -50
t-68 -18.5t-68 18.5z" />
    <glyph glyph-name="uni1E63" unicode="&#x1e63;" horiz-adv-x="818" 
d="M544 538q113 -55 159.5 -125t46.5 -153q0 -86 -44 -152t-121.5 -102t-176.5 -36q-88 0 -168 26.5t-144 73.5l-28 262h42q68 -134 138 -192t148 -58q58 0 87 28t29 74q0 42 -26 75t-84 61l-110 54q-109 53 -156.5 129t-47.5 159q0 75 36 134t102 91.5t152 32.5
q124 0 216 -70l80 56h28l14 -318h-40q-87 122 -153.5 174t-124.5 52q-40 0 -63 -22.5t-23 -63.5q0 -43 29 -74.5t95 -63.5zM340 -371.5q-32 18.5 -51 50t-19 67.5t19 68.5t51 52t68 19.5t68 -19.5t51 -52t19 -68.5t-19 -67.5t-51 -50t-68 -18.5t-68 18.5z" />
    <glyph glyph-name="uni1E64" unicode="&#x1e64;" horiz-adv-x="1114" 
d="M754 724q150 -43 216 -123t66 -213q0 -120 -48 -214.5t-143.5 -149t-232.5 -54.5q-103 0 -192 32t-184 96l-76 -98h-58v492h66q86 -160 220 -254t288 -94q101 0 161.5 44.5t60.5 121.5q0 54 -38.5 88t-127.5 60l-308 88q-161 46 -234.5 130.5t-73.5 219.5q0 120 53 206.5
t146 132t211 45.5q89 0 165.5 -26.5t147.5 -77.5l67 92h58v-444h-60q-105 135 -228.5 208.5t-251.5 73.5q-81 0 -125.5 -33t-44.5 -103q0 -52 35.5 -88t112.5 -58zM650 1636h284l-316 -306h-80zM316.5 1525.5q-35.5 21.5 -57 57t-21.5 75.5t21.5 75.5t57 57t75.5 21.5
t75.5 -21.5t57 -57t21.5 -75.5t-21.5 -75.5t-57 -57t-75.5 -21.5t-75.5 21.5z" />
    <glyph glyph-name="uni1E65" unicode="&#x1e65;" horiz-adv-x="818" 
d="M544 538q113 -55 159.5 -125t46.5 -153q0 -86 -44 -152t-121.5 -102t-176.5 -36q-88 0 -168 26.5t-144 73.5l-28 262h42q68 -134 138 -192t148 -58q58 0 87 28t29 74q0 42 -26 75t-84 61l-110 54q-109 53 -156.5 129t-47.5 159q0 75 36 134t102 91.5t152 32.5
q124 0 216 -70l80 56h28l14 -318h-40q-87 122 -153.5 174t-124.5 52q-40 0 -63 -22.5t-23 -63.5q0 -43 29 -74.5t95 -63.5zM432 986h-60l90 324h284zM172 1188.5q-32 18.5 -51 50t-19 67.5t19 68.5t51 52t68 19.5t68 -19.5t51 -52t19 -68.5t-19 -67.5t-51 -50t-68 -18.5
t-68 18.5z" />
    <glyph glyph-name="uni1E66" unicode="&#x1e66;" horiz-adv-x="1114" 
d="M754 724q150 -43 216 -123t66 -213q0 -120 -48 -214.5t-143.5 -149t-232.5 -54.5q-103 0 -192 32t-184 96l-76 -98h-58v492h66q86 -160 220 -254t288 -94q101 0 161.5 44.5t60.5 121.5q0 54 -38.5 88t-127.5 60l-308 88q-161 46 -234.5 130.5t-73.5 219.5q0 120 53 206.5
t146 132t211 45.5q89 0 165.5 -26.5t147.5 -77.5l67 92h58v-444h-60q-105 135 -228.5 208.5t-251.5 73.5q-81 0 -125.5 -33t-44.5 -103q0 -52 35.5 -88t112.5 -58zM491 1396l277 240h70l-114 -306h-308l-146 306h94zM478.5 1661.5q-35.5 21.5 -57 57t-21.5 75.5t21.5 75.5
t57 57t75.5 21.5t75.5 -21.5t57 -57t21.5 -75.5t-21.5 -75.5t-57 -57t-75.5 -21.5t-75.5 21.5z" />
    <glyph glyph-name="uni1E67" unicode="&#x1e67;" horiz-adv-x="818" 
d="M544 538q113 -55 159.5 -125t46.5 -153q0 -86 -44 -152t-121.5 -102t-176.5 -36q-88 0 -168 26.5t-144 73.5l-28 262h42q68 -134 138 -192t148 -58q58 0 87 28t29 74q0 42 -26 75t-84 61l-110 54q-109 53 -156.5 129t-47.5 159q0 75 36 134t102 91.5t152 32.5
q124 0 216 -70l80 56h28l14 -318h-40q-87 122 -153.5 174t-124.5 52q-40 0 -63 -22.5t-23 -63.5q0 -43 29 -74.5t95 -63.5zM423 1088l173 222h104l-176 -324h-314l-110 324h80zM332 1300.5q-32 18.5 -51 50t-19 67.5t19 68.5t51 52t68 19.5t68 -19.5t51 -52t19 -68.5
t-19 -67.5t-51 -50t-68 -18.5t-68 18.5z" />
    <glyph glyph-name="uni1E68" unicode="&#x1e68;" horiz-adv-x="1114" 
d="M754 724q150 -43 216 -123t66 -213q0 -120 -48 -214.5t-143.5 -149t-232.5 -54.5q-103 0 -192 32t-184 96l-76 -98h-58v492h66q86 -160 220 -254t288 -94q101 0 161.5 44.5t60.5 121.5q0 54 -38.5 88t-127.5 60l-308 88q-161 46 -234.5 130.5t-73.5 219.5q0 120 53 206.5
t146 132t211 45.5q89 0 165.5 -26.5t147.5 -77.5l67 92h58v-444h-60q-105 135 -228.5 208.5t-251.5 73.5q-81 0 -125.5 -33t-44.5 -103q0 -52 35.5 -88t112.5 -58zM486 -381.5q-32 18.5 -51 50t-19 67.5t19 68.5t51 52t68 19.5t68 -19.5t51 -52t19 -68.5t-19 -67.5t-51 -50
t-68 -18.5t-68 18.5zM478.5 1371.5q-35.5 21.5 -57 57t-21.5 75.5t21.5 75.5t57 57t75.5 21.5t75.5 -21.5t57 -57t21.5 -75.5t-21.5 -75.5t-57 -57t-75.5 -21.5t-75.5 21.5z" />
    <glyph glyph-name="uni1E69" unicode="&#x1e69;" horiz-adv-x="818" 
d="M544 538q113 -55 159.5 -125t46.5 -153q0 -86 -44 -152t-121.5 -102t-176.5 -36q-88 0 -168 26.5t-144 73.5l-28 262h42q68 -134 138 -192t148 -58q58 0 87 28t29 74q0 42 -26 75t-84 61l-110 54q-109 53 -156.5 129t-47.5 159q0 75 36 134t102 91.5t152 32.5
q124 0 216 -70l80 56h28l14 -318h-40q-87 122 -153.5 174t-124.5 52q-40 0 -63 -22.5t-23 -63.5q0 -43 29 -74.5t95 -63.5zM340 -371.5q-32 18.5 -51 50t-19 67.5t19 68.5t51 52t68 19.5t68 -19.5t51 -52t19 -68.5t-19 -67.5t-51 -50t-68 -18.5t-68 18.5zM332 1024.5
q-32 18.5 -51 50t-19 67.5t19 68.5t51 52t68 19.5t68 -19.5t51 -52t19 -68.5t-19 -67.5t-51 -50t-68 -18.5t-68 18.5z" />
    <glyph glyph-name="uni1E6C" unicode="&#x1e6c;" horiz-adv-x="1278" 
d="M1222 784h-74q-25 150 -69.5 230t-116 112t-188.5 34v-1072h192v-88h-654v88h192v1072q-117 -2 -188.5 -33t-116 -111.5t-69.5 -231.5h-74v466h1166v-466zM572 -381.5q-32 18.5 -51 50t-19 67.5t19 68.5t51 52t68 19.5t68 -19.5t51 -52t19 -68.5t-19 -67.5t-51 -50
t-68 -18.5t-68 18.5z" />
    <glyph glyph-name="uni1E6D" unicode="&#x1e6d;" horiz-adv-x="780" 
d="M289 4.5q-59 34.5 -93 105t-34 174.5v448h-136v54q119 60 201 145.5t127 190.5h64v-232h324l-78 -158h-246v-400q0 -74 31 -106t91 -32q57 0 106.5 28t93.5 90l38 -22q-130 -320 -356 -320q-74 0 -133 34.5zM328 -371.5q-32 18.5 -51 50t-19 67.5t19 68.5t51 52t68 19.5
t68 -19.5t51 -52t19 -68.5t-19 -67.5t-51 -50t-68 -18.5t-68 18.5z" />
    <glyph glyph-name="uni1E6E" unicode="&#x1e6e;" horiz-adv-x="1278" 
d="M1222 784h-74q-25 150 -69.5 230t-116 112t-188.5 34v-1072h192v-88h-654v88h192v1072q-117 -2 -188.5 -33t-116 -111.5t-69.5 -231.5h-74v466h1166v-466zM940 -266h-600v120h600v-120z" />
    <glyph glyph-name="uni1E6F" unicode="&#x1e6f;" horiz-adv-x="780" 
d="M289 4.5q-59 34.5 -93 105t-34 174.5v448h-136v54q119 60 201 145.5t127 190.5h64v-232h324l-78 -158h-246v-400q0 -74 31 -106t91 -32q57 0 106.5 28t93.5 90l38 -22q-130 -320 -356 -320q-74 0 -133 34.5zM696 -266h-600v120h600v-120z" />
    <glyph glyph-name="uni1E78" unicode="&#x1e78;" horiz-adv-x="1412" 
d="M914 1250h458v-88h-144l-10 -318v-276q0 -296 -126.5 -447t-367.5 -151q-164 0 -284 63t-184 180t-64 277v672h-150v88h570v-88h-150v-612q0 -133 33 -215.5t105.5 -122.5t191.5 -40q113 0 182 37t101.5 119t32.5 218v460q0 67 -11.5 98.5t-40.5 44t-92 17.5l-50 4v80z
M424 1366q23 98 54 150.5t68 71t88 18.5q43 0 78 -9t80 -26q40 -15 67.5 -22t58.5 -7q42 0 71.5 22.5t44.5 65.5l52 -6q-33 -139 -84.5 -189.5t-119.5 -50.5q-33 0 -65 8t-76 23q-52 17 -84.5 25t-68.5 8q-42 0 -69.5 -21t-42.5 -65zM830 1972h284l-316 -306h-80z" />
    <glyph glyph-name="uni1E79" unicode="&#x1e79;" horiz-adv-x="1160" 
d="M736 144q-55 -85 -125 -129.5t-163 -44.5q-85 0 -148.5 40.5t-97.5 116t-34 177.5v300q0 43 -13.5 64.5t-54.5 45.5l-72 44v48l374 114h22v-564q0 -88 47.5 -135t130.5 -47q71 0 101.5 35t30.5 109v286q0 43 -13.5 64.5t-54.5 45.5l-72 44v48l374 114h22v-664
q0 -88 34 -125t106 -47v-50l-352 -64h-34zM282 1010q16 125 64.5 194.5t131.5 69.5q26 0 57.5 -10t78.5 -30t77 -30t55 -10q36 0 60.5 20t37.5 68l62 -6q-14 -121 -64 -192.5t-124 -71.5q-29 0 -60.5 10t-80.5 30t-79 30t-58 10q-39 0 -61 -19t-35 -67zM624 1348h-60l90 324
h284z" />
    <glyph glyph-name="uni1E7A" unicode="&#x1e7a;" horiz-adv-x="1412" 
d="M914 1250h458v-88h-144l-10 -318v-276q0 -296 -126.5 -447t-367.5 -151q-164 0 -284 63t-184 180t-64 277v672h-150v88h570v-88h-150v-612q0 -133 33 -215.5t105.5 -122.5t191.5 -40q113 0 182 37t101.5 119t32.5 218v460q0 67 -11.5 98.5t-40.5 44t-92 17.5l-50 4v80z
M1094 1384h-680v110h680v-110zM473 1623q-37 37 -37 97t37 98t97 38t96 -38t36 -98t-36 -97t-96 -37t-97 37zM841 1623q-37 37 -37 97t37 98t97 38t97 -38t37 -98t-37 -97t-97 -37t-97 37z" />
    <glyph glyph-name="uni1E7B" unicode="&#x1e7b;" horiz-adv-x="1160" 
d="M736 144q-55 -85 -125 -129.5t-163 -44.5q-85 0 -148.5 40.5t-97.5 116t-34 177.5v300q0 43 -13.5 64.5t-54.5 45.5l-72 44v48l374 114h22v-564q0 -88 47.5 -135t130.5 -47q71 0 101.5 35t30.5 109v286q0 43 -13.5 64.5t-54.5 45.5l-72 44v48l374 114h22v-664
q0 -88 34 -125t106 -47v-50l-352 -64h-34zM894 1054h-600v120h600v-120zM325.5 1314q-35.5 36 -35.5 94q0 59 36 95.5t94 36.5t93 -36.5t35 -95.5t-35 -94.5t-93 -35.5q-59 0 -94.5 36zM673.5 1314q-35.5 36 -35.5 94q0 59 36 95.5t94 36.5t94 -36.5t36 -95.5q0 -58 -36 -94
t-94 -36q-59 0 -94.5 36z" />
    <glyph glyph-name="Wgrave" unicode="&#x1e80;" horiz-adv-x="1884" 
d="M1900 1250v-88h-138l-432 -1172h-102l-271 718l-297 -718h-102l-443 1172h-115v88h532v-88h-124l292 -802l199 501l-114 301h-105v88h532v-88h-134l286 -785l192 537q32 91 42 126t10 56q0 33 -22.5 47.5t-83.5 20.5l-74 8v78h472zM918 1330l-316 306h284l112 -306h-80z
" />
    <glyph glyph-name="wgrave" unicode="&#x1e81;" horiz-adv-x="1616" 
d="M1222 890h408v-84h-94l-386 -820h-100l-240 550l-260 -550h-100l-358 820h-88v84h468v-84h-93l203 -499l168 367l-58 132h-88v84h468v-84h-93l201 -494l150 346q28 62 28 96q0 25 -15 37.5t-47 16.5l-74 8v74zM774 936l-314 324h284l90 -324h-60z" />
    <glyph glyph-name="Wacute" unicode="&#x1e82;" horiz-adv-x="1884" 
d="M1900 1250v-88h-138l-432 -1172h-102l-271 718l-297 -718h-102l-443 1172h-115v88h532v-88h-124l292 -802l199 501l-114 301h-105v88h532v-88h-134l286 -785l192 537q32 91 42 126t10 56q0 33 -22.5 47.5t-83.5 20.5l-74 8v78h472zM1034 1636h284l-316 -306h-80z" />
    <glyph glyph-name="wacute" unicode="&#x1e83;" horiz-adv-x="1616" 
d="M1222 890h408v-84h-94l-386 -820h-100l-240 550l-260 -550h-100l-358 820h-88v84h468v-84h-93l203 -499l168 367l-58 132h-88v84h468v-84h-93l201 -494l150 346q28 62 28 96q0 25 -15 37.5t-47 16.5l-74 8v74zM838 936h-60l90 324h284z" />
    <glyph glyph-name="Wdieresis" unicode="&#x1e84;" horiz-adv-x="1884" 
d="M1900 1250v-88h-138l-432 -1172h-102l-271 718l-297 -718h-102l-443 1172h-115v88h532v-88h-124l292 -802l199 501l-114 301h-105v88h532v-88h-134l286 -785l192 537q32 91 42 126t10 56q0 33 -22.5 47.5t-83.5 20.5l-74 8v78h472zM677 1403q-37 37 -37 97t37 98t97 38
t96 -38t36 -98t-36 -97t-96 -37t-97 37zM1045 1403q-37 37 -37 97t37 98t97 38t97 -38t37 -98t-37 -97t-97 -37t-97 37z" />
    <glyph glyph-name="wdieresis" unicode="&#x1e85;" horiz-adv-x="1616" 
d="M1222 890h408v-84h-94l-386 -820h-100l-240 550l-260 -550h-100l-358 820h-88v84h468v-84h-93l203 -499l168 367l-58 132h-88v84h468v-84h-93l201 -494l150 346q28 62 28 96q0 25 -15 37.5t-47 16.5l-74 8v74zM537.5 1004q-35.5 36 -35.5 94q0 59 36 95.5t94 36.5
t93 -36.5t35 -95.5t-35 -94.5t-93 -35.5q-59 0 -94.5 36zM885.5 1004q-35.5 36 -35.5 94q0 59 36 95.5t94 36.5t94 -36.5t36 -95.5q0 -58 -36 -94t-94 -36q-59 0 -94.5 36z" />
    <glyph glyph-name="uni1E8E" unicode="&#x1e8e;" horiz-adv-x="1244" 
d="M1149 1162l-387 -648v-426h170v-88h-610v88h170v408l-405 666h-95v88h526v-88h-118l304 -514l152 256q48 80 66 126t18 74q0 18 -8 28.5t-27 17t-57 12.5l-56 10v78h440v-88h-83zM564.5 1371.5q-35.5 21.5 -57 57t-21.5 75.5t21.5 75.5t57 57t75.5 21.5t75.5 -21.5
t57 -57t21.5 -75.5t-21.5 -75.5t-57 -57t-75.5 -21.5t-75.5 21.5z" />
    <glyph glyph-name="uni1E8F" unicode="&#x1e8f;" horiz-adv-x="1068" 
d="M1082 806h-99l-495 -1092h106v-84h-492v84h121l170 371l-277 721h-108v84h510v-84h-127l179 -500l23 -76l183 426q18 42 26 66.5t8 40.5q0 21 -15.5 30t-52.5 15l-58 8v74h398v-84zM542 1024.5q-32 18.5 -51 50t-19 67.5t19 68.5t51 52t68 19.5t68 -19.5t51 -52t19 -68.5
t-19 -67.5t-51 -50t-68 -18.5t-68 18.5z" />
    <glyph glyph-name="uni1E92" unicode="&#x1e92;" horiz-adv-x="1188" 
d="M1126 490l-52 -490h-1004v60l651 1090h-103q-145 0 -236 -31t-144 -99.5t-78 -185.5h-70l28 416h928v-62l-640 -1086h208q145 0 226.5 36t128.5 118.5t87 241.5zM502 -381.5q-32 18.5 -51 50t-19 67.5t19 68.5t51 52t68 19.5t68 -19.5t51 -52t19 -68.5t-19 -67.5t-51 -50
t-68 -18.5t-68 18.5z" />
    <glyph glyph-name="uni1E93" unicode="&#x1e93;" horiz-adv-x="916" 
d="M856 322l-34 -322h-766v60l476 752l-38 -2q-120 -5 -220.5 -56.5t-139.5 -149.5l-56 4l16 282h744v-60l-473 -752l39 2q144 6 253 69.5t143 182.5zM376 -371.5q-32 18.5 -51 50t-19 67.5t19 68.5t51 52t68 19.5t68 -19.5t51 -52t19 -68.5t-19 -67.5t-51 -50t-68 -18.5
t-68 18.5z" />
    <glyph glyph-name="uni1E97" unicode="&#x1e97;" horiz-adv-x="780" 
d="M289 4.5q-59 34.5 -93 105t-34 174.5v448h-136v54q119 60 201 145.5t127 190.5h64v-232h324l-78 -158h-246v-400q0 -74 31 -106t91 -32q57 0 106.5 28t93.5 90l38 -22q-130 -320 -356 -320q-74 0 -133 34.5zM111.5 1202q-35.5 36 -35.5 94q0 59 36 95.5t94 36.5t93 -36.5
t35 -95.5t-35 -94.5t-93 -35.5q-59 0 -94.5 36zM459.5 1202q-35.5 36 -35.5 94q0 59 36 95.5t94 36.5t94 -36.5t36 -95.5q0 -58 -36 -94t-94 -36q-59 0 -94.5 36z" />
    <glyph glyph-name="uni1E9E" unicode="&#x1e9e;" horiz-adv-x="1472" 
d="M1293 661q111 -91 111 -277q0 -134 -51.5 -227.5t-138 -140t-192.5 -46.5q-75 0 -144.5 36.5t-122.5 100.5l-75 -107h-48v452h70q39 -179 110 -270.5t156 -91.5q73 0 109.5 71t36.5 209q0 150 -56 219t-184 69q-62 0 -166 -22l-32 38l309 486h-499v-1160h-410v88h150
v1074h-150v88h1174v-80l-286 -419q10 1 30 1q188 0 299 -91z" />
    <glyph glyph-name="uni1EA0" unicode="&#x1ea0;" horiz-adv-x="1322" 
d="M1211 88h123v-88h-542v88h126l-119 288h-429l-40 -102q-23 -60 -29.5 -85.5t-6.5 -44.5q0 -29 26 -40t90 -18l80 -8v-78h-494v88h142l384 962l-76 186v14h276zM579 913l-163 -417h334zM590 -381.5q-32 18.5 -51 50t-19 67.5t19 68.5t51 52t68 19.5t68 -19.5t51 -52
t19 -68.5t-19 -67.5t-51 -50t-68 -18.5t-68 18.5z" />
    <glyph glyph-name="uni1EA1" unicode="&#x1ea1;" horiz-adv-x="998" 
d="M478 0.5q-57 -30.5 -130 -30.5q-74 0 -135 28.5t-97 80.5t-36 117q0 77 54 125.5t172 72.5l252 52l4 52q1 9 1 27q0 86 -48 127.5t-149 41.5q-89 0 -161.5 -38t-142.5 -122l-38 32q83 134 159 211t153 110t170 33q147 0 232 -91.5t82 -272.5l-6 -308q-1 -66 22 -94
t66 -28q29 0 49 18t41 56l44 -22q-41 -106 -102 -157t-138 -51q-63 0 -111 31.5t-93 92.5q-57 -63 -114 -93.5zM562 364l-72 -20q-52 -15 -80 -28t-41 -30.5t-13 -45.5q0 -38 19.5 -69t50.5 -48t64 -17q39 0 58.5 24.5t17.5 67.5zM476 -371.5q-32 18.5 -51 50t-19 67.5
t19 68.5t51 52t68 19.5t68 -19.5t51 -52t19 -68.5t-19 -67.5t-51 -50t-68 -18.5t-68 18.5z" />
    <glyph glyph-name="uni1EA2" unicode="&#x1ea2;" horiz-adv-x="1322" 
d="M1211 88h123v-88h-542v88h126l-119 288h-429l-40 -102q-23 -60 -29.5 -85.5t-6.5 -44.5q0 -29 26 -40t90 -18l80 -8v-78h-494v88h142l384 962l-76 186v14h276zM579 913l-163 -417h334zM764.5 1492.5q-45.5 -46.5 -135.5 -88.5l5 -74h-74l-26 124h1l-1 2q65 22 100.5 49.5
t35.5 54.5q0 19 -17.5 31.5t-46.5 12.5q-34 0 -61.5 -19.5t-58.5 -62.5l-34 28q36 96 86.5 137t119.5 41q72 0 112 -38t40 -94q0 -57 -45.5 -103.5z" />
    <glyph glyph-name="uni1EA3" unicode="&#x1ea3;" horiz-adv-x="998" 
d="M478 0.5q-57 -30.5 -130 -30.5q-74 0 -135 28.5t-97 80.5t-36 117q0 77 54 125.5t172 72.5l252 52l4 52q1 9 1 27q0 86 -48 127.5t-149 41.5q-89 0 -161.5 -38t-142.5 -122l-38 32q83 134 159 211t153 110t170 33q147 0 232 -91.5t82 -272.5l-6 -308q-1 -66 22 -94
t66 -28q29 0 49 18t41 56l44 -22q-41 -106 -102 -157t-138 -51q-63 0 -111 31.5t-93 92.5q-57 -63 -114 -93.5zM562 364l-72 -20q-52 -15 -80 -28t-41 -30.5t-13 -45.5q0 -38 19.5 -69t50.5 -48t64 -17q39 0 58.5 24.5t17.5 67.5zM655 1143q-43 -46 -126 -70l-7 -87h-74
l-26 124h1l-1 2q75 31 102.5 52.5t27.5 47.5q0 42 -52 42q-31 0 -65 -14.5t-103 -55.5l-34 46q67 84 120.5 119t119.5 35q51 0 87 -20t54.5 -52t18.5 -68q0 -55 -43 -101z" />
    <glyph glyph-name="uni1EA4" unicode="&#x1ea4;" horiz-adv-x="1322" 
d="M1211 88h123v-88h-542v88h126l-119 288h-429l-40 -102q-23 -60 -29.5 -85.5t-6.5 -44.5q0 -29 26 -40t90 -18l80 -8v-78h-494v88h142l384 962l-76 186v14h276zM579 913l-163 -417h334zM848 1540l112 306h284l-316 -306h-80zM770 1636l114 -306h-70l-277 240l-127 -240
h-94l146 306h308z" />
    <glyph glyph-name="uni1EA5" unicode="&#x1ea5;" horiz-adv-x="998" 
d="M478 0.5q-57 -30.5 -130 -30.5q-74 0 -135 28.5t-97 80.5t-36 117q0 77 54 125.5t172 72.5l252 52l4 52q1 9 1 27q0 86 -48 127.5t-149 41.5q-89 0 -161.5 -38t-142.5 -122l-38 32q83 134 159 211t153 110t170 33q147 0 232 -91.5t82 -272.5l-6 -308q-1 -66 22 -94
t66 -28q29 0 49 18t41 56l44 -22q-41 -106 -102 -157t-138 -51q-63 0 -111 31.5t-93 92.5q-57 -63 -114 -93.5zM562 364l-72 -20q-52 -15 -80 -28t-41 -30.5t-13 -45.5q0 -38 19.5 -69t50.5 -48t64 -17q39 0 58.5 24.5t17.5 67.5zM738 1200l50 284h244l-234 -284h-60z
M180 986l176 324h294l130 -324h-80l-249 214l-167 -214h-104z" />
    <glyph glyph-name="uni1EA6" unicode="&#x1ea6;" horiz-adv-x="1322" 
d="M1211 88h123v-88h-542v88h126l-119 288h-429l-40 -102q-23 -60 -29.5 -85.5t-6.5 -44.5q0 -29 26 -40t90 -18l80 -8v-78h-494v88h142l384 962l-76 186v14h276zM579 913l-163 -417h334zM644 1846h284l112 -306h-80zM770 1636l114 -306h-70l-277 240l-127 -240h-94l146 306
h308z" />
    </font>
</defs>
</svg>
