<?xml version="1.0" standalone="no"?>
<!DOCTYPE svg PUBLIC "-//W3C//DTD SVG 1.1//EN" "http://www.w3.org/Graphics/SVG/1.1/DTD/svg11.dtd" >
<svg xmlns="http://www.w3.org/2000/svg" xmlns:xlink="http://www.w3.org/1999/xlink" version="1.1">
<metadata>
Created by FontForge 20190801 at Sun Nov 14 17:54:45 2021
 By www-data
Copyright (c) 2021 by NaN. All rights reserved.
</metadata>
<defs>
<font id="NaNTragedyDisplayRegular" horiz-adv-x="0" >
  <font-face 
    font-family="NaNTragedyDisplayRegular"
    font-weight="400"
    font-stretch="normal"
    units-per-em="2000"
    panose-1="0 0 5 0 0 0 0 0 0 0"
    ascent="1500"
    descent="-500"
    x-height="853"
    cap-height="1250"
    bbox="-948 -489 1996 1923"
    underline-thickness="50"
    underline-position="-100"
    unicode-range="U+000D-FB02"
  />
<missing-glyph horiz-adv-x="1344" 
d="M1185 0h-1026v1250h1026v-1250zM282 1154v-1058h780v1058h-780zM954 280l-259 -112l183 141l-187 199l-120 -171l-148 169l235 193l-283 -19l112 381l101 12l-166 -317l327 -19l-264 -242l110 -77l90 192zM777 836l189 -333l-191 90l112 -6l-168 251l131 41l-28 103
l-217 -189l-52 52l266 194l112 -164zM671 288l-240 -89l-38 203l75 -147z" />
    <glyph glyph-name="fl" unicode="fl" horiz-adv-x="947" 
d="M46 0v48h119v702h-129v17l129 57v131q0 107 37.5 185t102 119t143.5 41q110 0 199 -109l128 109h20v-1252h117v-48h-370v48h117v883q0 73 -36 133.5t-100 96t-142 35.5q-74 0 -111 -34.5t-37 -97.5q0 -32 9.5 -78.5t25.5 -90.5l26 -71h225l-40 -74h-179v-702h142v-48
h-396z" />
    <glyph glyph-name="f_k.liga" unicode="fk" horiz-adv-x="1370" 
d="M1288 49h80v-49h-350v49h112l-209 385l-126 -139v-247h117v-48h-370v48h117v883q0 70 -35.5 131t-99 97.5t-143.5 36.5q-71 0 -109.5 -33.5t-38.5 -98.5q0 -35 7.5 -73.5t23.5 -89.5l30 -77h224l-41 -74h-177v-702h147v-48h-401v48h119v702h-129v17l129 57v131
q0 104 36.5 182.5t99.5 120.5t141 42q116 0 205 -109l128 109h20v-917l217 244q47 52 64.5 80.5t17.5 46.5q0 17 -11.5 26.5t-43.5 15.5l-79 16v41h377v-50h-79l-244 -267z" />
    <glyph glyph-name=".notdef" horiz-adv-x="1344" 
d="M1185 0h-1026v1250h1026v-1250zM282 1154v-1058h780v1058h-780zM954 280l-259 -112l183 141l-187 199l-120 -171l-148 169l235 193l-283 -19l112 381l101 12l-166 -317l327 -19l-264 -242l110 -77l90 192zM777 836l189 -333l-191 90l112 -6l-168 251l131 41l-28 103
l-217 -189l-52 52l266 194l112 -164zM671 288l-240 -89l-38 203l75 -147z" />
    <glyph glyph-name=".null" 
 />
    <glyph glyph-name="nonmarkingreturn" unicode="&#xd;" horiz-adv-x="362" 
 />
    <glyph glyph-name="space" unicode=" " horiz-adv-x="362" 
 />
    <glyph glyph-name="exclam" unicode="!" horiz-adv-x="415" 
d="M232 340h-50v160l-63 627q-2 12 -2 35q0 53 23.5 81.5t66.5 28.5t67 -27t24 -80q0 -17 -3 -38l-63 -627v-160zM135 16.5q-31 30.5 -31 72.5q0 41 31 71.5t72 30.5q42 0 72.5 -30.5t30.5 -71.5q0 -42 -30.5 -72.5t-72.5 -30.5q-41 0 -72 30.5z" />
    <glyph glyph-name="quotedbl" unicode="&#x22;" horiz-adv-x="548" 
d="M127 848q-12 135 -44 269q-10 45 -14.5 71t-4.5 50q0 42 23.5 64.5t55.5 22.5q33 0 56.5 -22.5t23.5 -64.5q0 -24 -4.5 -50t-14.5 -71q-32 -134 -44 -269h-33zM388 848q-12 135 -44 269q-10 45 -14.5 71t-4.5 50q0 42 23.5 64.5t55.5 22.5q33 0 56.5 -22.5t23.5 -64.5
q0 -24 -4.5 -50t-14.5 -71q-32 -134 -44 -269h-33z" />
    <glyph glyph-name="numbersign" unicode="#" horiz-adv-x="925" 
d="M882 905v-66h-168l-100 -435h190v-66h-205l-78 -338h-76l77 338h-248l-77 -338h-77l78 338h-153v66h168l100 435h-191v66h206l79 345h76l-79 -345h248l79 345h77l-79 -345h153zM289 404h248l100 435h-248z" />
    <glyph glyph-name="dollar" unicode="$" horiz-adv-x="928" 
d="M596 670q138 -66 197 -148.5t59 -194.5q0 -100 -42.5 -179.5t-120 -124.5t-176.5 -45q-97 0 -183 47l-37 -153h-54l45 183q-56 43 -95 102l-62 -167h-34v475h41q23 -115 65 -201.5t101 -140.5l114 465l-11 5q-152 71 -221.5 154.5t-69.5 204.5q0 94 42 167t114 113
t160 40q77 0 144 -35l35 143h54l-42 -172q42 -31 83 -82l58 134h34v-443h-41q-45 223 -151 323l-103 -424zM451 739l106 436q-59 36 -125 36q-96 0 -152 -57t-56 -156q0 -55 18 -95.5t60.5 -76.5t117.5 -72zM678.5 98.5q60.5 59.5 60.5 165.5q0 89 -42 150t-142 108l-93 43
l-116 -477q77 -49 168 -49q104 0 164.5 59.5z" />
    <glyph glyph-name="percent" unicode="%" horiz-adv-x="1106" 
d="M150.5 678.5q-50.5 41.5 -76 112.5t-25.5 158t25.5 158.5t75.5 113t122 41.5t122 -41.5t75.5 -113t25.5 -158.5t-25.5 -158t-76 -112.5t-121.5 -41.5t-121.5 41.5zM954 1250l-722 -1250h-80l722 1250h80zM125 848.5q20 -45.5 58 -72t90 -26.5q51 0 88.5 26.5t57.5 72
t20 100.5q0 92 -44.5 146t-121.5 54q-78 0 -123 -54.5t-45 -145.5q0 -55 20 -100.5zM711.5 25.5q-50.5 41.5 -75.5 112.5t-25 159q0 87 25.5 158t75.5 112.5t122 41.5q71 0 121.5 -41.5t75.5 -112.5t25 -158q0 -88 -25 -159t-75.5 -112.5t-121.5 -41.5q-72 0 -122.5 41.5z
M709.5 151.5q43.5 -54.5 121.5 -54.5q79 0 124.5 54.5t45.5 145.5t-44.5 145t-122.5 54t-123 -54t-45 -145t43.5 -145.5z" />
    <glyph glyph-name="ampersand" unicode="&#x26;" horiz-adv-x="1160" 
d="M1116 47v-47h-290l-129 181q-73 -105 -149 -154t-170 -49q-86 0 -160 38.5t-119 110t-45 167.5q0 109 73.5 201.5t216.5 180.5q-60 88 -91.5 160.5t-31.5 145.5q0 82 35 148t98.5 104t144.5 38q70 0 128.5 -29.5t93 -82.5t34.5 -120q0 -90 -65 -173t-215 -161l273 -383
l63 131q49 103 49 149q0 21 -11 29t-37 11l-72 8v37h349v-48h-94l-220 -354q80 -111 128.5 -161.5t83.5 -64t88 -13.5h41zM410 1197q-36 -23 -56.5 -65t-20.5 -96q0 -63 29 -135t91 -164q96 69 141.5 140.5t45.5 155.5q0 94 -42.5 140.5t-106.5 46.5q-45 0 -81 -23zM675 212
l-310 434l-0.5 0.5l-0.5 0.5q-103 -74 -153 -145.5t-50 -149.5q0 -71 37 -134t98.5 -101.5t131.5 -38.5q128 0 247 134z" />
    <glyph glyph-name="quotesingle" unicode="'" horiz-adv-x="286" 
d="M127 848q-12 135 -44 269q-10 45 -14.5 71t-4.5 50q0 42 23.5 64.5t55.5 22.5q33 0 56.5 -22.5t23.5 -64.5q0 -24 -4.5 -50t-14.5 -71q-32 -134 -44 -269h-33z" />
    <glyph glyph-name="parenleft" unicode="(" horiz-adv-x="497" 
d="M489 1370q-145 -169 -214.5 -372t-69.5 -426q0 -215 72 -417t212 -381l-22 -26q-97 79 -190.5 204t-156 286t-62.5 334t62 334t155 286t190 204z" />
    <glyph glyph-name="parenright" unicode=")" horiz-adv-x="497" 
d="M8 -226q140 179 212 381t72 417q0 223 -69.5 426t-214.5 372l24 26q97 -79 190 -204t155 -286t62 -334t-62.5 -334t-156 -286t-190.5 -204z" />
    <glyph glyph-name="asterisk" unicode="*" horiz-adv-x="816" 
d="M730 769q0 -20 -11 -39q-9 -17 -25 -26.5t-36 -9.5q-29 0 -58 18q-18 11 -31.5 24.5t-40.5 43.5q-27 31 -48 53.5t-51 46.5q8 -60 34 -137q12 -34 17 -55t5 -43q0 -45 -22 -68.5t-55 -23.5t-55 23.5t-22 68.5q0 21 4.5 39.5t16.5 57.5q26 77 34 137q-29 -24 -48.5 -45
t-49.5 -55q-22 -26 -38 -42t-34 -27q-30 -17 -57 -17q-40 0 -64 36q-11 19 -11 38q0 45 52 77q18 11 39 17.5t55 13.5q42 10 71.5 18.5t65.5 23.5q-36 15 -65.5 23.5t-71.5 18.5q-34 7 -55 13.5t-39 17.5q-52 32 -52 77q0 19 11 38q24 36 64 36q27 0 57 -17q18 -11 34 -27
t38 -42q30 -34 49.5 -55t48.5 -45q-8 60 -34 137q-12 35 -17 55.5t-5 41.5q0 45 22.5 68.5t55.5 23.5t55 -23.5t22 -68.5q0 -21 -5 -42t-17 -56q-26 -77 -34 -137q30 24 51 46.5t48 53.5q27 30 40.5 43.5t31.5 24.5q29 18 58 18q20 0 36 -9.5t25 -26.5q11 -19 11 -39
q0 -44 -50 -75q-18 -11 -39 -17.5t-55 -13.5q-39 -8 -71.5 -17t-69.5 -25q37 -16 69.5 -25t71.5 -17q34 -7 55 -13.5t39 -17.5q50 -31 50 -75z" />
    <glyph glyph-name="plus" unicode="+" horiz-adv-x="1212" 
d="M654 672h428v-94h-428v-428h-95v428h-427v94h427v428h95v-428z" />
    <glyph glyph-name="comma" unicode="," horiz-adv-x="369" 
d="M3 -229q170 74 170 178q0 41 -27 77t-78 65l64 126q75 -14 123.5 -65t48.5 -126q0 -84 -69 -162t-208 -142z" />
    <glyph glyph-name="hyphen" unicode="-" horiz-adv-x="640" 
d="M570 454h-501v76h501v-76z" />
    <glyph glyph-name="period" unicode="." horiz-adv-x="356" 
d="M103.5 17.5q-31.5 31.5 -31.5 74.5t31.5 74.5t74.5 31.5t74 -31.5t31 -74.5t-31 -74.5t-74 -31.5t-74.5 31.5z" />
    <glyph glyph-name="slash" unicode="/" horiz-adv-x="636" 
d="M114 -232h-88l495 1602h88z" />
    <glyph glyph-name="zero" unicode="0" horiz-adv-x="954" 
d="M279 55q-90 77 -143 222t-53 339q0 187 50.5 337.5t140 235.5t202.5 85q108 0 198 -77.5t143.5 -222.5t53.5 -338q0 -187 -50.5 -337t-140.5 -235.5t-204 -85.5q-107 0 -197 77zM693.5 881q-33.5 150 -98.5 230.5t-158 80.5q-107 0 -158.5 -113.5t-51.5 -352.5
q0 -207 32 -356.5t96 -229.5t156 -80q107 0 161.5 112t54.5 354q0 205 -33.5 355z" />
    <glyph glyph-name="one" unicode="1" horiz-adv-x="607" 
d="M602 48v-48h-541v48h200v1048h-213v38q84 9 136 24.5t87.5 44t67.5 77.5h62v-1232h201z" />
    <glyph glyph-name="two" unicode="2" horiz-adv-x="909" 
d="M855 310l-107 -310h-688v101q200 185 323.5 324t184 255.5t60.5 220.5q0 111 -60 174.5t-165 63.5q-109 0 -182 -81t-109 -250l-42 17q40 226 141 336.5t254 110.5q94 0 166.5 -39t112.5 -110.5t40 -163.5q0 -118 -67.5 -242t-202.5 -265.5t-357 -331.5h316
q117 0 176.5 15t95 56.5t71.5 132.5z" />
    <glyph glyph-name="three" unicode="3" horiz-adv-x="875" 
d="M719.5 519q72.5 -82 72.5 -188q0 -94 -48 -175t-131.5 -129.5t-184.5 -48.5q-125 0 -225.5 61.5t-155.5 172.5l37 76l9 4q145 -180 348 -180q79 0 145 26.5t105 75.5t39 112q0 236 -457 268l-13 44q192 61 272 142.5t80 184.5q0 88 -54.5 132.5t-144.5 44.5
q-99 0 -168.5 -58.5t-110.5 -181.5l-47 16q58 182 156 268t227 86q80 0 148 -31.5t108.5 -89t40.5 -132.5q0 -106 -73.5 -197t-210.5 -144q164 -77 236.5 -159z" />
    <glyph glyph-name="four" unicode="4" horiz-adv-x="944" 
d="M910 470v-73h-250v-348h198v-47h-537v47h201v348h-475v73l516 802h97v-802h250zM522 1038l-413 -568h413v568z" />
    <glyph glyph-name="five" unicode="5" horiz-adv-x="896" 
d="M670 769.5q75 -50.5 115.5 -142t40.5 -213.5q0 -140 -55 -239t-144.5 -148t-191.5 -49q-115 0 -214.5 60t-155.5 171l37 71l14 1q69 -88 153.5 -128.5t177.5 -40.5q88 0 160.5 35t115.5 103t43 161q0 83 -36.5 145t-102 95.5t-149.5 33.5q-88 0 -170.5 -37.5
t-147.5 -107.5h-32v710h638v-132h-574v-459q117 161 300 161q103 0 178 -50.5z" />
    <glyph glyph-name="six" unicode="6" horiz-adv-x="943" 
d="M697.5 736q79.5 -50 124 -138.5t44.5 -199.5q0 -122 -51 -218t-137.5 -149t-189.5 -53q-114 0 -208.5 64.5t-150 189.5t-55.5 298q0 219 94 381.5t270.5 256.5t420.5 112l5 -36q-324 -59 -479.5 -226.5t-167.5 -442.5q45 103 123.5 157t176.5 54q101 0 180.5 -50z
M607.5 80.5q51.5 37.5 81 110t29.5 173.5t-31 177.5t-88 118.5t-135 42q-109 0 -173 -80.5t-67 -225.5q21 -163 91 -258t176 -95q65 0 116.5 37.5z" />
    <glyph glyph-name="seven" unicode="7" horiz-adv-x="800" 
d="M89 1250h671v-92l-429 -1158h-167l542 1132h-351q-98 0 -147 -12.5t-81.5 -54.5t-61.5 -135l-38 11z" />
    <glyph glyph-name="eight" unicode="8" horiz-adv-x="934" 
d="M711.5 567.5q61.5 -41.5 105 -101.5t43.5 -140q0 -94 -56.5 -174t-152 -127t-206.5 -47q-96 0 -181.5 37t-138.5 106.5t-53 163.5q0 201 277 338q-103 62 -160.5 132.5t-57.5 169.5q0 91 48 170.5t133.5 128t193.5 48.5q81 0 150.5 -33t111.5 -97t42 -151
q0 -98 -62 -173.5t-206 -149.5q108 -59 169.5 -100.5zM280 875q32 -53 83.5 -94t127.5 -84q99 54 140 121t41 151q0 106 -56.5 167.5t-158.5 61.5q-98 0 -153.5 -56t-55.5 -147q0 -67 32 -120zM622 76.5q55 24.5 87.5 71.5t32.5 111q0 68 -38.5 120.5t-95.5 91.5t-154 92
l-59 33q-95 -56 -138 -121.5t-43 -144.5q0 -82 38 -145t103.5 -98t145.5 -35q66 0 121 24.5z" />
    <glyph glyph-name="nine" unicode="9" horiz-adv-x="943" 
d="M664.5 1207.5q94.5 -64.5 150 -189.5t55.5 -298q0 -219 -94 -381.5t-270.5 -256.5t-420.5 -112l-5 36q323 58 478.5 225t167.5 441q-45 -102 -123 -155t-176 -53q-101 0 -180.5 50t-124.5 138.5t-45 199.5q0 122 51 218t137.5 149t190.5 53q114 0 208.5 -64.5z
M653.5 628.5q63.5 80.5 65.5 225.5q-21 163 -90.5 258t-175.5 95q-66 0 -117.5 -37.5t-81 -110t-29.5 -173.5q0 -102 31 -178t88.5 -118t135.5 -42q110 0 173.5 80.5z" />
    <glyph glyph-name="colon" unicode=":" horiz-adv-x="410" 
d="M135.5 607q-31.5 32 -31.5 75t31.5 73.5t74.5 30.5q42 0 73.5 -31t31.5 -73q0 -43 -31.5 -75t-73.5 -32q-43 0 -74.5 32zM126.5 17.5q-31.5 31.5 -31.5 74.5t31.5 74t73.5 31q43 0 74.5 -31t31.5 -74t-31.5 -74.5t-74.5 -31.5q-42 0 -73.5 31.5z" />
    <glyph glyph-name="semicolon" unicode=";" horiz-adv-x="434" 
d="M143.5 607q-31.5 32 -31.5 75q0 42 31.5 73t73.5 31q43 0 74.5 -30.5t31.5 -73.5t-31.5 -75t-74.5 -32q-42 0 -73.5 32zM33 -229q170 74 170 178q0 41 -27 77t-78 65l64 126q75 -14 123.5 -65t48.5 -126q0 -84 -68.5 -162t-208.5 -142z" />
    <glyph glyph-name="less" unicode="&#x3c;" horiz-adv-x="1212" 
d="M125 682l950 375v-102l-859 -329l859 -331v-102l-950 375v114z" />
    <glyph glyph-name="equal" unicode="=" horiz-adv-x="1212" 
d="M132 783v95h950v-95h-950zM132 372v95h950v-95h-950z" />
    <glyph glyph-name="greater" unicode="&#x3e;" horiz-adv-x="1212" 
d="M138 955v102l950 -375v-114l-950 -375v102l858 331z" />
    <glyph glyph-name="question" unicode="?" horiz-adv-x="706" 
d="M528 1236q67 -36 104.5 -99t37.5 -140q0 -105 -75.5 -192.5t-230.5 -168.5l-39 -294h-35l-52 270q105 71 163.5 128t81 106.5t22.5 105.5q0 90 -46.5 142.5t-131.5 52.5q-92 0 -159 -66.5t-100 -201.5l-37 15q31 186 123 282t223 96q84 0 151 -36zM381 163.5
q30 -30.5 30 -72.5t-30 -73.5t-70 -31.5t-69.5 31.5t-29.5 73.5t29.5 72.5t69.5 30.5t70 -30.5z" />
    <glyph glyph-name="at" unicode="@" horiz-adv-x="1499" 
d="M1070 830l-127 -577q-11 -55 -11 -96q0 -129 107 -129q78 0 140.5 71t98 191.5t35.5 262.5q0 182 -59 309.5t-167 192.5t-253 65q-198 0 -347 -116.5t-228.5 -308.5t-79.5 -412q0 -194 59.5 -329.5t160 -203.5t221.5 -68q97 0 203 46.5t205 146.5l21 -39
q-212 -212 -450 -212q-151 0 -274.5 80.5t-194.5 230t-71 347.5q0 239 104 445t283.5 328.5t396.5 122.5q174 0 307.5 -78.5t208 -222t74.5 -332.5q0 -162 -54 -293.5t-147 -206.5t-205 -75q-96 0 -154 58.5t-65 171.5q-60 -113 -125 -172.5t-127 -59.5q-48 0 -88.5 34
t-65 98t-24.5 150q0 140 64 275.5t164.5 221t203.5 85.5q45 0 85.5 -19t66.5 -56l88 73h20zM896 635q-35 59 -72.5 86.5t-85.5 27.5q-67 0 -117.5 -54t-77.5 -151.5t-27 -224.5q0 -241 103 -241q84 0 195 206z" />
    <glyph glyph-name="A" unicode="A" horiz-adv-x="1078" 
d="M968 51h108v-51h-427v51h173l-132 400h-364q-90 -301 -90 -350q0 -21 16 -32t55 -14l100 -9v-46h-392v51h107l345 1076l-38 117l1 6h141zM500 1030l-156 -519h327z" />
    <glyph glyph-name="B" unicode="B" horiz-adv-x="1004" 
d="M599 652q178 -20 260 -100t82 -206q0 -104 -53 -182t-155 -121t-244 -43h-433v51h145v1148h-145v51h429q178 0 279.5 -73t101.5 -210q0 -112 -70 -192t-197 -115v-8zM342 1197v-527h101q128 0 196 76t68 206q0 117 -64 181t-197 64h-104zM483 53q152 0 224.5 74t72.5 207
q0 141 -77 212.5t-228 71.5h-133v-484q0 -48 16.5 -64.5t64.5 -16.5h60z" />
    <glyph glyph-name="C" unicode="C" horiz-adv-x="1007" 
d="M964 526q-47 -281 -152 -414.5t-284 -133.5q-131 0 -234 77.5t-160.5 219t-57.5 326.5q0 192 60.5 345.5t162 239.5t218.5 86q84 0 148.5 -41t118.5 -123l65 144h27v-423h-36q-78 183 -171.5 260t-199.5 77q-82 0 -145.5 -51t-100 -156.5t-36.5 -262.5q0 -171 52.5 -305
t145.5 -209t210 -75q131 0 209 111t113 319z" />
    <glyph glyph-name="D" unicode="D" horiz-adv-x="1136" 
d="M55 0v51h146v1148h-146v51h334q212 0 363 -70.5t230 -205.5t79 -324q0 -201 -72.5 -347t-212.5 -224.5t-337 -78.5h-384zM790.5 199.5q112.5 144.5 112.5 415.5q0 580 -516 580h-45v-1064q0 -43 26 -59.5t90 -16.5q220 0 332.5 144.5z" />
    <glyph glyph-name="E" unicode="E" horiz-adv-x="1001" 
d="M921 425v-425h-867v51h148v1148h-148v51h817v-395h-46q-17 140 -48.5 211.5t-98 102t-192.5 30.5h-145v-525h68q94 0 139 18t61.5 57.5t20.5 118.5h49v-469h-49q-4 89 -20.5 134t-62 66.5t-138.5 21.5h-68v-436q0 -59 11 -85.5t43 -36.5t104 -10h112q90 0 138.5 27.5
t77 105.5t49.5 239h45z" />
    <glyph glyph-name="F" unicode="F" horiz-adv-x="925" 
d="M56 1250h816v-395h-48q-20 148 -51.5 218.5t-97.5 98t-199 27.5h-134v-544h83q89 0 131 17t57 56t19 121h47v-469h-47q-4 92 -19 136.5t-57 64.5t-131 20h-83v-550h172v-51h-458v51h145v1148h-145v51z" />
    <glyph glyph-name="G" unicode="G" horiz-adv-x="1067" 
d="M1021 576v-58h-92v-530h-34l-76 252q-44 -144 -118.5 -203t-174.5 -59q-126 0 -228.5 76t-162 220t-59.5 341q0 185 60.5 335t165.5 236t233 86q83 0 156.5 -41t127.5 -121l65 150h27v-429h-37q-68 168 -167.5 251.5t-216.5 83.5q-143 0 -222.5 -118t-79.5 -341
q0 -181 52 -316t143.5 -208t207.5 -73q92 0 146 67.5t54 216.5v124h-163v58h393z" />
    <glyph glyph-name="H" unicode="H" horiz-adv-x="1187" 
d="M1133 1250v-51h-148v-1148h148v-51h-434v51h145v557h-501v-557h145v-51h-434v51h148v1148h-148v51h434v-51h-145v-528h501v528h-145v51h434z" />
    <glyph glyph-name="I" unicode="I" horiz-adv-x="544" 
d="M343 1199v-1148h148v-51h-437v51h148v1148h-148v51h437v-51h-148z" />
    <glyph glyph-name="J" unicode="J" horiz-adv-x="527" 
d="M487 1199h-153v-1042q0 -113 -19 -175t-91.5 -125.5t-236.5 -150.5l-18 37q104 65 149 109.5t60.5 100.5t15.5 163v1083h-156v51h449v-51z" />
    <glyph glyph-name="K" unicode="K" horiz-adv-x="1094" 
d="M967 51h127v-51h-412v51h130l-296 593l-174 -236v-357h143v-51h-430v51h146v1148h-146v51h430v-51h-143v-697l363 511q73 101 73 136q0 21 -15 32t-53 15l-56 5v49h386v-51h-115l-322 -436z" />
    <glyph glyph-name="L" unicode="L" horiz-adv-x="958" 
d="M342 185q0 -56 10.5 -83t40.5 -38t93 -11h128q78 0 122 31.5t71.5 113t47.5 243.5h47v-441h-846v51h145v1148h-145v51h431v-51h-145v-1014z" />
    <glyph glyph-name="M" unicode="M" horiz-adv-x="1374" 
d="M1209 51h142v-51h-429v51h143l-58 985h-6l-330 -1028h-32l-335 1028h-4l-51 -811q-2 -40 -2 -52q0 -50 11 -75t35 -35t72 -15l48 -5v-43h-381v51h132l73 1039q1 8 1 23q0 45 -19 65.5t-68 24.5l-46 4v43h277l308 -968l304 968h257v-51h-117z" />
    <glyph glyph-name="N" unicode="N" horiz-adv-x="1125" 
d="M694 1250h383v-51h-131l-5 -341v-858h-52l-619 988l11 -773q1 -68 10.5 -101t34.5 -47.5t77 -19.5l42 -4v-43h-382v51h131l5 328v635q0 65 -8 100.5t-27 54.5t-57 30l-56 15v36h220l528 -862l71 -126l-11 774q-1 68 -10.5 101t-34.5 47t-77 19l-43 4v43z" />
    <glyph glyph-name="O" unicode="O" horiz-adv-x="1103" 
d="M311 62.5q-110 84.5 -173.5 230t-63.5 319.5q0 186 63 336.5t172.5 237t242.5 86.5q134 0 243 -82.5t171.5 -226.5t62.5 -320q0 -185 -63 -337.5t-172.5 -240t-241.5 -87.5q-131 0 -241 84.5zM757 126q66 59 101.5 169.5t35.5 261.5q0 164 -53.5 308.5t-143.5 231
t-194 86.5q-92 0 -158 -58t-100.5 -168t-34.5 -264q0 -159 54.5 -304t144.5 -233.5t191 -88.5q91 0 157 59z" />
    <glyph glyph-name="P" unicode="P" horiz-adv-x="932" 
d="M52 1199v51h403q215 0 326 -88.5t111 -255.5q0 -118 -52 -205t-151.5 -134t-237.5 -47h-107v-469h172v-51h-464v51h150v1148h-150zM457 572q274 0 274 315q0 148 -69 229t-212 81h-106v-625h113z" />
    <glyph glyph-name="Q" unicode="Q" horiz-adv-x="1103" 
d="M1203 -156q-94 -86 -156 -119.5t-130 -33.5q-44 0 -88 29.5t-96 91.5t-127 170q-23 -4 -54 -4q-131 0 -241 84.5t-173.5 230t-63.5 319.5q0 186 63 336.5t172.5 237t242.5 86.5q134 0 243 -82.5t171.5 -226.5t62.5 -320q0 -149 -42 -278.5t-117 -222t-172 -134.5
q108 -112 175.5 -156.5t129.5 -44.5q54 0 90.5 15t85.5 50zM264.5 389q54.5 -145 144.5 -233.5t191 -88.5q91 0 157 59t101.5 169.5t35.5 261.5q0 164 -53.5 308.5t-143.5 231t-194 86.5q-92 0 -158 -58t-100.5 -168t-34.5 -264q0 -159 54.5 -304z" />
    <glyph glyph-name="R" unicode="R" horiz-adv-x="1034" 
d="M1054 1q-73 -15 -135 -15q-50 0 -106 39t-114 127q-119 181 -263 443h-95v-544h144v-51h-427v51h143v1148h-143v51h437q181 0 282.5 -78.5t101.5 -231.5q0 -135 -87.5 -219.5t-230.5 -111.5q79 -123 132 -203t119 -173q76 -110 129.5 -151.5t110.5 -45.5zM341 1197v-542
h122q127 7 191.5 76.5t64.5 192.5q0 134 -60 203.5t-182 69.5h-136z" />
    <glyph glyph-name="S" unicode="S" horiz-adv-x="925" 
d="M594 670q138 -66 197 -148.5t59 -194.5q0 -100 -42.5 -179.5t-119.5 -124.5t-177 -45t-184 47.5t-139 131.5l-62 -167h-34v475h40q41 -204 140 -315t240 -111q105 0 165.5 59.5t60.5 165.5q0 89 -42.5 150t-142.5 108l-151 71q-152 71 -221.5 154.5t-69.5 204.5
q0 94 41.5 167t114 113t160.5 40q84 0 152 -39t121 -107l59 134h33v-443h-41q-40 198 -125 296t-195 98q-96 0 -152 -57t-56 -156q0 -55 18 -95.5t60 -76.5t117 -72z" />
    <glyph glyph-name="T" unicode="T" horiz-adv-x="1006" 
d="M950 846h-47q-12 149 -41 222.5t-81.5 98.5t-149.5 25h-57v-1141h175v-51h-492v51h175v1141h-57q-97 0 -150 -24.5t-82 -98t-41 -223.5h-46v404h894v-404z" />
    <glyph glyph-name="U" unicode="U" horiz-adv-x="1136" 
d="M721 1250h368v-51h-114l-8 -333v-442q0 -145 -49 -246.5t-136 -153.5t-200 -52q-125 0 -217 53.5t-141.5 152t-49.5 232.5v789h-138v51h423v-51h-144v-752q0 -377 305 -377q138 0 205.5 89.5t67.5 282.5v594q0 69 -10.5 102t-36.5 46t-83 18l-42 4v44z" />
    <glyph glyph-name="V" unicode="V" horiz-adv-x="992" 
d="M984 1250v-51h-94l-374 -1209h-55l-344 1209h-107v51h435v-51h-180l260 -981l152 548q54 196 72.5 269.5t18.5 98.5q0 29 -19.5 43t-70.5 20l-72 8v45h378z" />
    <glyph glyph-name="W" unicode="W" horiz-adv-x="1570" 
d="M1558 1250v-51h-103l-357 -1209h-71l-232 858l-250 -858h-72l-358 1209h-109v51h429v-51h-176l283 -996l220 767l-61 229h-145v51h452v-51h-161l250 -997l139 505q59 221 76 304.5t17 116.5q0 24 -8 37.5t-30 21.5t-67 14l-62 8v41h396z" />
    <glyph glyph-name="X" unicode="X" horiz-adv-x="1037" 
d="M929 51h101v-51h-447v51h188l-281 506l-147 -264q-55 -99 -71.5 -135t-16.5 -55q0 -24 15 -35t57 -15l90 -8v-45h-397v51h101l334 570l-321 578h-96v51h431v-51h-182l262 -468l90 170q65 123 88.5 176t23.5 77q0 19 -14 29t-53 14l-73 8v45h369v-51h-89l-310 -525z" />
    <glyph glyph-name="Y" unicode="Y" horiz-adv-x="1052" 
d="M930 1199l-329 -613v-535h130v-51h-401v51h130l1 512l-350 636h-101v51h455v-51h-197l263 -482l23 -88l144 290q54 105 73 150t19 71t-15.5 36.5t-59.5 18.5l-58 10v45h359v-51h-86z" />
    <glyph glyph-name="Z" unicode="Z" horiz-adv-x="929" 
d="M869 451l-44 -451h-766v52l598 1137h-188q-124 0 -183 -21.5t-90.5 -85.5t-56.5 -209h-52l22 377h699v-54l-590 -1133h214q142 0 213.5 30t108.5 109.5t63 248.5h52z" />
    <glyph glyph-name="bracketleft" unicode="[" horiz-adv-x="541" 
d="M279 1313v-1496h246v-57h-376v1610h376v-57h-246z" />
    <glyph glyph-name="backslash" unicode="\" horiz-adv-x="568" 
d="M119 1370l418 -1602h-88l-418 1602h88z" />
    <glyph glyph-name="bracketright" unicode="]" horiz-adv-x="541" 
d="M16 1313v57h376v-1610h-376v57h246v1496h-246z" />
    <glyph glyph-name="asciicircum" unicode="^" horiz-adv-x="1212" 
d="M663 1250l317 -819h-121l-253 671l-255 -671h-121l320 819h113z" />
    <glyph glyph-name="underscore" unicode="_" horiz-adv-x="1138" 
d="M1069 -176h-1000v99h1000v-99z" />
    <glyph glyph-name="grave" unicode="`" horiz-adv-x="1000" 
d="M525 953l-212 342h153l97 -342h-38z" />
    <glyph glyph-name="a" unicode="a" horiz-adv-x="765" 
d="M391 7.5q-43 -29.5 -104 -29.5q-59 0 -111 29.5t-83 80t-31 111.5q0 69 47.5 114.5t155.5 71.5l201 47l6 119q5 99 -37 150.5t-131 51.5q-77 0 -135.5 -42.5t-113.5 -137.5l-24 26q71 143 154.5 209.5t181.5 66.5q69 0 124 -30.5t86.5 -96t29.5 -166.5l-8 -376
q-1 -62 15 -89.5t48 -27.5q30 0 52.5 20t42.5 60l26 -13q-36 -94 -73.5 -136t-87.5 -42q-45 0 -85 32.5t-57 96.5q-46 -70 -89 -99.5zM467 383l-73 -17q-78 -17 -118 -33.5t-55.5 -38t-15.5 -56.5q0 -44 20 -79.5t55 -56.5t79 -21q58 0 85 38t25 119z" />
    <glyph glyph-name="b" unicode="b" horiz-adv-x="826" 
d="M628 825.5q64 -49.5 101.5 -146.5t37.5 -233q0 -137 -50.5 -243.5t-136.5 -165.5t-189 -59q-63 0 -128.5 26t-148.5 83v965q0 41 -5 60.5t-18.5 29t-44.5 18.5l-72 21v28l263 91h20l-8 -232v-245l-7 -161q37 108 99.5 160.5t143.5 52.5q79 0 143 -49.5zM584.5 128.5
q53.5 77.5 53.5 219.5q0 126 -31 215.5t-83.5 134.5t-114.5 45q-72 0 -116 -57t-44 -153v-376q35 -49 85 -77.5t106 -28.5q91 0 144.5 77.5z" />
    <glyph glyph-name="c" unicode="c" horiz-adv-x="707" 
d="M264.5 759q-40.5 -35 -63 -103t-22.5 -164q0 -118 35 -204.5t95 -132t134 -45.5q71 0 120.5 50.5t73.5 139.5l39 -12q-75 -310 -297 -310q-95 0 -168 55.5t-112.5 152t-39.5 216.5q0 143 48.5 250.5t129 165t173.5 57.5q74 0 135.5 -40.5t100.5 -117.5l-72 -73h-14
q-89 150 -202 150q-53 0 -93.5 -35z" />
    <glyph glyph-name="d" unicode="d" horiz-adv-x="870" 
d="M713 220q0 -55 11 -84t41.5 -43t91.5 -19v-32l-250 -58l-9 3l-17 172q-55 -97 -113 -139t-123 -42q-79 0 -144 48.5t-103.5 143t-38.5 225.5q0 156 54.5 264.5t140.5 162t180 53.5q77 0 144 -38v215q0 41 -5 60t-18.5 29t-44.5 19l-72 21v28l263 91h20l-8 -215v-865z
M534 161q44 53 44 170v349q-97 122 -199 122q-87 0 -139 -77t-52 -227q0 -123 31 -211t84.5 -133.5t119.5 -45.5q67 0 111 53z" />
    <glyph glyph-name="e" unicode="e" horiz-adv-x="747" 
d="M718 314q-63 -186 -143.5 -261.5t-186.5 -75.5q-99 0 -173.5 52.5t-115 149t-40.5 226.5q0 137 46 244.5t123.5 166.5t168.5 59q77 0 138 -40.5t96.5 -125.5t35.5 -215h-490q1 -118 33 -205.5t90 -135t135 -47.5q79 0 141.5 55.5t103.5 167.5zM237.5 730.5
q-50.5 -66.5 -58.5 -183.5l359 3q-6 121 -51 184t-123 63q-76 0 -126.5 -66.5z" />
    <glyph glyph-name="f" unicode="f" horiz-adv-x="518" 
d="M47 0v48h118v732h-129v18l129 55v106q0 105 35.5 182t96 118t132.5 41q91 0 151 -73l-42 -89l-7 -3q-39 24 -82.5 39t-83.5 15q-64 0 -98 -32.5t-34 -106.5q0 -57 44 -155l14 -42h232l-40 -73h-183v-732h136v-48h-389z" />
    <glyph glyph-name="g" unicode="g" horiz-adv-x="776" 
d="M771 853v-59l-204 9q47 -39 74 -94t27 -124q0 -101 -73.5 -179t-219.5 -119l-100 -23q-85 -23 -115 -36.5t-30 -34.5q0 -20 44 -34.5t131 -18.5l202 -8q131 -6 195.5 -46.5t64.5 -122.5q0 -84 -57.5 -166.5t-157 -135.5t-218.5 -53q-89 0 -160.5 25.5t-112 71.5
t-40.5 104q0 60 46.5 114t151.5 115q-71 35 -107.5 72.5t-36.5 69.5q0 25 16 46.5t50.5 46.5t104.5 67q-88 30 -132 96t-44 146t38 147t104.5 106.5t149.5 39.5q62 0 118 -22h291zM488.5 406.5q38.5 51.5 38.5 154.5q0 74 -22 133t-62.5 93t-92.5 34q-65 0 -101.5 -54.5
t-36.5 -150.5q0 -75 21.5 -134t60.5 -93t90 -34q66 0 104.5 51.5zM242 13q-59 -34 -84.5 -70t-25.5 -81t32 -80.5t91.5 -55t138.5 -19.5q84 0 148.5 22.5t100.5 64.5t36 97q0 64 -67.5 97.5t-199.5 33.5q-82 0 -170 -9z" />
    <glyph glyph-name="h" unicode="h" horiz-adv-x="917" 
d="M30 0v48h120v1017q0 46 -12.5 64t-47.5 30l-80 22v28l263 91h20l-8 -254v-177l-14 -196l12 -1q44 103 112.5 153t152.5 50q63 0 113 -31.5t79 -89t29 -131.5v-575h120v-48h-366v48h111v539q0 85 -41.5 127.5t-118.5 42.5q-96 0 -142.5 -67.5t-46.5 -192.5v-449h111v-48
h-366z" />
    <glyph glyph-name="i" unicode="i" horiz-adv-x="461" 
d="M153 1040.5q-33 32.5 -33 78.5q0 45 33 78t78 33q46 0 78.5 -33t32.5 -78q0 -46 -32.5 -78.5t-78.5 -32.5q-45 0 -78 32.5zM308 48h118v-48h-371v48h118v582q0 41 -5 60t-18.5 28.5t-44.5 19.5l-72 21v28l265 88h20l-10 -254v-573z" />
    <glyph glyph-name="j" unicode="j" horiz-adv-x="422" 
d="M166 1024.5q-26 15.5 -41 40.5t-15 54q0 45 33 78t78 33q28 0 53 -15t40.5 -41t15.5 -55q0 -28 -15.5 -53.5t-40.5 -41t-53 -15.5q-29 0 -55 15.5zM-37 -243l12 3q64 -29 90 -38t47 -9t34 16q10 15 13.5 37.5t3.5 81.5v782q0 41 -5 60t-18.5 28.5t-44.5 19.5l-72 21v28
l265 88h20l-10 -205v-732q0 -69 -39.5 -149t-103.5 -134.5t-132 -54.5q-30 0 -55 8.5t-50 27.5z" />
    <glyph glyph-name="k" unicode="k" horiz-adv-x="861" 
d="M778 49h81v-49h-351v49h112l-208 384l-128 -140v-245h111v-48h-364v48h118v1004q0 41 -5 60t-18.5 29t-44.5 19l-72 21v28l263 91h20l-8 -222v-696l218 245q81 90 81 124q0 17 -11.5 28t-42.5 17l-79 16v41h378v-50h-81l-243 -268z" />
    <glyph glyph-name="l" unicode="l" horiz-adv-x="440" 
d="M287 48h118v-48h-371v48h118v1004q0 41 -5 60t-18.5 29t-44.5 19l-72 21v28l263 91h20l-8 -222v-1030z" />
    <glyph glyph-name="m" unicode="m" horiz-adv-x="1396" 
d="M53 0v48h118v575q0 46 -15.5 70.5t-54.5 35.5l-68 17v28l253 92h20l-12 -209h9q41 108 103.5 163t143.5 55q91 0 149.5 -57.5t74.5 -153.5h3q41 104 103 157.5t142 53.5q69 0 120.5 -33.5t79 -93t27.5 -134.5v-566h118v-48h-361v48h108v530q0 87 -41 133t-118 46
q-90 0 -133.5 -74t-43.5 -196v-439h108v-48h-352v48h108v530q0 87 -41 133t-118 46q-89 0 -133 -74t-44 -196v-439h108v-48h-361z" />
    <glyph glyph-name="n" unicode="n" horiz-adv-x="937" 
d="M351.5 688q-45.5 -69 -45.5 -185v-455h111v-48h-364v48h118v575q0 46 -15.5 70.5t-54.5 35.5l-68 17v28l253 93h20l-12 -194l9 -1q38 96 110.5 149.5t152.5 53.5q65 0 116 -29.5t79.5 -81t28.5 -116.5v-600h118v-48h-364v48h111v545q0 80 -42 122t-120 42
q-96 0 -141.5 -69z" />
    <glyph glyph-name="o" unicode="o" horiz-adv-x="856" 
d="M618 813.5q85 -61.5 133 -164.5t48 -221q0 -120 -46.5 -223.5t-131.5 -165.5t-194 -62q-105 0 -189.5 61.5t-132.5 164.5t-48 222t46.5 222t131 165.5t192.5 62.5q106 0 191 -61.5zM308.5 771.5q-45.5 -38.5 -70.5 -112.5t-25 -178q0 -136 28.5 -235t80 -151t118.5 -52
q60 0 105.5 37.5t71 111t25.5 178.5q0 211 -59.5 325.5t-168.5 114.5q-60 0 -105.5 -38.5z" />
    <glyph glyph-name="p" unicode="p" horiz-adv-x="874" 
d="M297 11v-333h145v-48h-398v48h117v926q0 42 -5 65.5t-20.5 39t-48.5 24.5l-66 21v28l255 93h20l-10 -218q41 113 104 165.5t141 52.5q83 0 147.5 -50.5t100.5 -144t36 -216.5q0 -156 -54.5 -266t-141.5 -165t-181 -55q-73 0 -141 33zM342 687q-42 -56 -45 -146v-380
q38 -54 87.5 -82t103.5 -28q91 0 144.5 79t53.5 233q0 117 -30.5 203.5t-82.5 131.5t-116 45q-73 0 -115 -56z" />
    <glyph glyph-name="q" unicode="q" horiz-adv-x="833" 
d="M713 -322h118v-48h-383v48h130v333l7 155q-56 -101 -114.5 -144.5t-125.5 -43.5q-79 0 -144 48.5t-103.5 143t-38.5 226.5q0 155 54.5 263t140.5 162t181 54q98 0 176 -59l95 59h17l-10 -203v-994zM534 161q44 53 44 170v349q-97 122 -199 122q-87 0 -139 -77t-52 -226
q0 -124 31 -212.5t84.5 -133.5t119.5 -45q67 0 111 53z" />
    <glyph glyph-name="r" unicode="r" horiz-adv-x="616" 
d="M543 860q29 -15 53 -44l-44 -103l-7 -4q-71 34 -112 34q-127 0 -127 -194v-501h145v-48h-399v48h119v571q0 51 -14.5 79.5t-56.5 39.5l-67 16v28l251 93h20l-18 -201h8q37 114 82 157.5t101 43.5q37 0 66 -15z" />
    <glyph glyph-name="s" unicode="s" horiz-adv-x="676" 
d="M429 474q99 -43 143 -98.5t44 -135.5q0 -74 -35 -133.5t-97 -94t-139 -34.5q-69 0 -138 31t-121 92l-22 207l24 16q47 -137 117.5 -206.5t147.5 -69.5q69 0 108.5 39t39.5 109q0 49 -26 79.5t-83 56.5l-122 55q-98 44 -143 104.5t-45 138.5q0 72 32 128t87.5 86.5
t124.5 30.5q50 0 92.5 -19.5t84.5 -58.5l46 76h22v-297h-28q-53 127 -106.5 178.5t-120.5 51.5q-59 0 -92.5 -34.5t-33.5 -97.5q0 -51 29 -84.5t93 -62.5z" />
    <glyph glyph-name="t" unicode="t" horiz-adv-x="554" 
d="M238.5 0q-43.5 22 -69.5 66t-26 107v607h-116v21q67 23 106.5 50t67.5 78.5t45 143.5h34l-2 -220h243l-41 -73h-202v-572q0 -62 25 -91.5t74 -29.5q42 0 74.5 25.5t72.5 92.5l28 -19q-47 -111 -97 -159.5t-120 -48.5q-53 0 -96.5 22z" />
    <glyph glyph-name="u" unicode="u" horiz-adv-x="915" 
d="M631 192q-44 -113 -113.5 -163.5t-145.5 -50.5q-60 0 -110 30.5t-79.5 85t-29.5 123.5v412q0 40 -5 59t-19 29.5t-44 18.5l-70 18v28l258 93h12v-610q0 -85 40.5 -130.5t113.5 -45.5q89 0 137.5 76.5t48.5 206.5v257q0 38 -4 57t-18.5 30.5t-45.5 19.5l-70 18v28l257 93
h13v-648q0 -66 12 -100.5t41.5 -47t86.5 -10.5v-40l-235 -44h-23z" />
    <glyph glyph-name="v" unicode="v" horiz-adv-x="815" 
d="M494 853h316v-49h-79l-307 -822h-46l-284 822h-79v49h362v-51l-136 1l203 -624l157 488q17 54 17 80q0 25 -13.5 36.5t-44.5 15.5l-66 8v46z" />
    <glyph glyph-name="w" unicode="w" horiz-adv-x="1257" 
d="M914 853h330v-49h-80l-292 -834h-47l-182 574l-207 -574h-48l-299 834h-83v49h364v-49h-141l182 -532l29 -130l173 496l-52 166h-99v49h344v-49h-114l170 -553l13 -102l153 491q22 72 22 104q0 28 -14 41.5t-44 16.5l-78 8v43z" />
    <glyph glyph-name="x" unicode="x" horiz-adv-x="842" 
d="M739 49h89v-49h-354v49h111l-202 334l-77 -129q-44 -76 -60.5 -110t-16.5 -49q0 -39 55 -46l63 -8v-41h-327v49h84l244 390l-221 365h-80v49h338v-49h-104l169 -279l99 163q35 58 35 78q0 14 -10.5 24t-31.5 13l-61 8v42h302v-49h-72l-226 -337z" />
    <glyph glyph-name="y" unicode="y" horiz-adv-x="861" 
d="M865 805h-84l-466 -1125h166v-50h-426v50h127l173 420l-242 704l-88 1v48h378v-51l-145 1l175 -538l23 -81l164 437q17 45 25 73.5t8 46.5q0 26 -16.5 38.5t-53.5 17.5l-83 9v47h365v-48z" />
    <glyph glyph-name="z" unicode="z" horiz-adv-x="736" 
d="M689 315l-68 -315h-569v51l454 748l-132 -2q-82 -1 -131 -19t-80 -63t-54 -131l-39 4l30 265h559v-49l-458 -750l118 2q101 1 163.5 27t101.5 83.5t67 158.5z" />
    <glyph glyph-name="braceleft" unicode="{" horiz-adv-x="477" 
d="M130 542h-66v52h66q81 0 114.5 33t33.5 83q0 55 -24.5 107t-74.5 132q-49 75 -73.5 127.5t-24.5 106.5q0 85 66 135.5t189 51.5h74v-47l-56 -1q-72 -1 -110 -30t-38 -82q0 -39 18 -80.5t55 -106.5q46 -84 69.5 -141.5t23.5 -120.5q0 -71 -41.5 -121.5t-116.5 -71.5
q75 -20 116.5 -70t41.5 -124q0 -64 -23.5 -121t-69.5 -140q-37 -65 -55 -106.5t-18 -80.5q0 -53 38 -82t110 -30l56 -1v-47h-74q-122 1 -188.5 51t-66.5 135q0 54 24 106t72 129q49 78 73.5 131t24.5 108q0 116 -145 116z" />
    <glyph glyph-name="bar" unicode="|" horiz-adv-x="439" 
d="M290 -240h-141v1720h141v-1720z" />
    <glyph glyph-name="braceright" unicode="}" horiz-adv-x="477" 
d="M67 -234v47l56 1q72 1 110 30t38 82q0 39 -18 80.5t-55 106.5q-46 83 -69.5 140t-23.5 121q0 74 41.5 124t116.5 70q-75 21 -116.5 71.5t-41.5 121.5q0 63 23.5 120.5t69.5 141.5q37 65 55 106.5t18 80.5q0 53 -38 82t-110 30l-56 1v47h74q123 -1 189 -51.5t66 -135.5
q0 -54 -24.5 -106.5t-73.5 -127.5q-50 -78 -75 -131t-25 -108q0 -50 33.5 -83t115.5 -33h66v-52h-66q-145 0 -145 -116q0 -55 24.5 -108t73.5 -131q48 -77 72 -129t24 -106q0 -85 -66.5 -135t-188.5 -51h-74z" />
    <glyph glyph-name="asciitilde" unicode="~" horiz-adv-x="1212" 
d="M133 641q48 46 111.5 69t136.5 23q55 0 105.5 -11t131.5 -34q72 -22 125 -33.5t107 -11.5q74 0 135 25.5t98 77.5v-111q-47 -47 -110.5 -69.5t-136.5 -22.5q-56 0 -108.5 11.5t-129.5 34.5q-77 22 -127.5 33t-103.5 11q-75 0 -136 -25.5t-98 -77.5v111z" />
    <glyph glyph-name="uni00A0" unicode="&#xa0;" horiz-adv-x="362" 
 />
    <glyph glyph-name="exclamdown" unicode="&#xa1;" horiz-adv-x="391" 
d="M123.5 719.5q-30.5 30.5 -30.5 71.5q0 42 30.5 72.5t71.5 30.5q42 0 72.5 -30.5t30.5 -72.5q0 -41 -30.5 -71.5t-72.5 -30.5q-41 0 -71.5 30.5zM128.5 -363.5q-23.5 28.5 -23.5 81.5q0 23 2 35l63 627v160h50v-160l64 -627q2 -13 2 -35q0 -55 -23.5 -82.5t-67.5 -27.5
q-43 0 -66.5 28.5z" />
    <glyph glyph-name="cent" unicode="&#xa2;" horiz-adv-x="765" 
d="M707 487q-68 -283 -259 -309v-163h-64v162q-88 8 -155 65t-103 150.5t-36 208.5q0 129 40 229.5t107.5 161.5t149.5 77v152h64v-147q71 -3 129.5 -43.5t95.5 -115.5l-71 -72h-15q-46 77 -95.5 113t-105.5 36q-82 0 -130.5 -79t-48.5 -223q0 -118 35 -204.5t95 -132
t134 -45.5q71 0 120.5 50.5t72.5 139.5z" />
    <glyph glyph-name="sterling" unicode="&#xa3;" horiz-adv-x="917" 
d="M873 388l-77 -388h-719l-1 115q119 73 185.5 129t92 102t25.5 93q0 44 -21 83.5t-60 84.5h-228v54h180q-54 62 -83.5 118.5t-29.5 127.5q0 101 49.5 186.5t132.5 136t179 50.5q99 0 175.5 -69t114.5 -192l-55 -53h-6q-59 109 -129 159.5t-159 50.5q-98 0 -154 -54
t-56 -144q0 -51 20.5 -97.5t50 -84.5t79.5 -94l36 -41h311v-54h-268q54 -76 54 -141q0 -50 -29 -98.5t-98 -105.5t-189 -130l313 -9q16 -1 47 -1q88 0 136 21t79.5 78.5t60.5 175.5z" />
    <glyph glyph-name="currency" unicode="&#xa4;" horiz-adv-x="958" 
d="M799 540.5q-18 -54.5 -52 -98.5l80 -83l-55 -49l-75 79q-45 -39 -100.5 -60t-116.5 -21q-62 0 -118.5 22t-101.5 62l-81 -82l-52 49l84 87q-32 44 -49.5 97t-17.5 111q0 57 17.5 110.5t49.5 97.5l-84 87l52 49l80 -82q45 40 102 62.5t119 22.5q61 0 116.5 -21t100.5 -60
l75 78l55 -49l-80 -83q34 -44 52 -98.5t18 -113.5t-18 -113.5zM610 418.5q58 35.5 91.5 97.5t33.5 138t-33 138t-91.5 97.5t-130.5 35.5t-130 -35.5t-91.5 -97.5t-33.5 -138q0 -75 33.5 -137.5t92 -98t129.5 -35.5q72 0 130 35.5z" />
    <glyph glyph-name="yen" unicode="&#xa5;" horiz-adv-x="1084" 
d="M1040 1199h-87l-315 -588h330v-55h-344v-124h344v-54h-344v-327h130v-51h-401v51h130l1 327h-345v54h345v124h-345v55h319l-324 588h-101v51h456v-51h-198l264 -482l22 -88l145 290q55 110 73.5 152.5t18.5 68.5t-15.5 36.5t-59.5 18.5l-58 10v45h359v-51z" />
    <glyph glyph-name="brokenbar" unicode="&#xa6;" horiz-adv-x="439" 
d="M290 1480v-668h-141v668h141zM290 -240h-141v668h141v-668z" />
    <glyph glyph-name="section" unicode="&#xa7;" horiz-adv-x="918" 
d="M389 950.5q30 -59.5 74.5 -107t120.5 -116.5q83 -75 133 -130t85 -127.5t35 -160.5q0 -129 -68 -236t-179.5 -169t-234.5 -62h-17q-51 0 -119 20t-112 46l-43 337l34 11q91 -347 267 -347q56 0 103.5 34.5t76 94t28.5 130.5q0 66 -29.5 124t-73.5 104.5t-118 113.5
q-84 77 -135 132.5t-86.5 130t-35.5 163.5q0 127 62 233.5t166 168.5t222 62h23q51 0 120 -20.5t110 -45.5l42 -337l-33 -13q-52 195 -118 272t-147 77q-55 0 -96.5 -34t-64 -92t-22.5 -127q0 -70 30 -129.5zM708 98q53 90 53 186q0 76 -33.5 142.5t-81.5 119.5t-129 130
q-80 76 -125.5 126.5t-77.5 113t-32 132.5q0 67 23.5 133.5t65.5 117.5q-93 -56 -146 -147t-53 -192q0 -77 34 -145.5t83.5 -123t130.5 -130.5q78 -74 123 -123.5t76 -110t31 -127.5q0 -69 -24 -134t-67 -115q96 57 149 147z" />
    <glyph glyph-name="dieresis" unicode="&#xa8;" horiz-adv-x="1005" 
d="M279.5 1049q-28.5 29 -28.5 70t28.5 70t68.5 29t68 -29t28 -70t-28 -70t-68 -29t-68.5 29zM588.5 1049q-27.5 29 -27.5 70t27.5 70t67.5 29t68.5 -29t28.5 -70t-28.5 -70t-68.5 -29t-67.5 29z" />
    <glyph glyph-name="copyright" unicode="&#xa9;" horiz-adv-x="1372" 
d="M988.5 1191q136.5 -85 214.5 -233.5t78 -331.5t-78 -332t-214.5 -234.5t-303.5 -85.5t-303 85.5t-214 234.5t-78 332t78 331.5t214 233.5t303 85t303.5 -85zM960.5 98q123.5 75 194 212t70.5 316t-70.5 316t-194 211t-275.5 74q-153 0 -275.5 -74t-192.5 -210.5
t-70 -316.5q0 -179 70 -316t192.5 -212t275.5 -75q152 0 275.5 75zM905.5 391q66.5 68 92.5 186l38 -13q-35 -175 -126 -266.5t-225 -91.5q-103 0 -185 52.5t-128.5 143.5t-46.5 202q0 115 48.5 214t132.5 157.5t185 58.5q57 0 105.5 -17.5t94.5 -56.5l41 60h34v-303h-37
q-56 107 -131.5 161t-156.5 54q-94 0 -148 -61t-54 -178q0 -98 38.5 -183t107.5 -136t156 -51q98 0 164.5 68z" />
    <glyph glyph-name="ordfeminine" unicode="&#xaa;" horiz-adv-x="694" 
d="M346.5 566.5q-34.5 -23.5 -82.5 -23.5t-89.5 23.5t-66.5 64.5t-25 89q0 55 38 92t125 57l161 37l4 96q5 79 -29 120t-105 41q-61 0 -108 -34t-91 -110l-20 21q57 114 124 167.5t146 53.5q85 0 139.5 -58t52.5 -177l-7 -301q-3 -93 50 -93q24 0 42 16t34 48l21 -11
q-28 -75 -58.5 -108.5t-70.5 -33.5q-36 0 -68 26t-45 77q-37 -56 -71.5 -79.5zM407 867l-58 -13q-63 -14 -94.5 -27.5t-44 -30.5t-12.5 -45q0 -53 35 -89.5t88 -36.5q46 0 67.5 30.5t20.5 95.5z" />
    <glyph glyph-name="guillemotleft" unicode="&#xab;" horiz-adv-x="718" 
d="M630 690l-197 -238l201 -362l-11 -29l-288 316v65l290 299zM366 740l6 -50l-197 -239l200 -362l-11 -29l-287 317v65z" />
    <glyph glyph-name="logicalnot" unicode="&#xac;" horiz-adv-x="1212" 
d="M122 705v95h950v-394h-95v299h-855z" />
    <glyph glyph-name="uni00AD" unicode="&#xad;" horiz-adv-x="640" 
 />
    <glyph glyph-name="registered" unicode="&#xae;" horiz-adv-x="1210" 
d="M865.5 1210.5q117.5 -69.5 185.5 -194t68 -284.5t-68 -284.5t-185.5 -194t-260.5 -69.5q-144 0 -261 69.5t-184.5 194t-67.5 284.5t67.5 284.5t184.5 194t261 69.5q143 0 260.5 -69.5zM841.5 294.5q104.5 62.5 163 176.5t58.5 261t-58.5 260t-162.5 175.5t-237 62.5
t-237.5 -62.5t-163 -175.5t-58.5 -260t58.5 -261t163 -176.5t237.5 -62.5q132 0 236.5 62.5zM854.5 479q27.5 -16 66.5 -14v-32q-33 -5 -79 -5q-109 0 -163 81q-25 38 -55 90.5t-59 105.5l-12 23h-41v-248h72v-42h-257v42h74v535h-74v43h293q92 0 148.5 -40t56.5 -118
q0 -71 -45.5 -113t-121.5 -51q39 -69 133 -194q36 -47 63.5 -63zM512 1018v-249h63q66 0 98.5 32t32.5 91q0 63 -32 94.5t-99 31.5h-63z" />
    <glyph glyph-name="macron" unicode="&#xaf;" horiz-adv-x="1005" 
d="M731 1012h-458v59h458v-59z" />
    <glyph glyph-name="degree" unicode="&#xb0;" horiz-adv-x="580" 
d="M175 851q-53 31 -85 83.5t-32 114.5t32 114.5t85 83.5t115 31t115 -31t84.5 -83.5t31.5 -114.5t-31.5 -114.5t-84.5 -83.5t-115 -31t-115 31zM368 915.5q35 20.5 55.5 55.5t20.5 78t-20.5 78.5t-55.5 56t-78 20.5t-78.5 -20.5t-56 -56t-20.5 -78.5t20.5 -78t56 -55.5
t78.5 -20.5t78 20.5z" />
    <glyph glyph-name="plusminus" unicode="&#xb1;" horiz-adv-x="1212" 
d="M1080 772v-94h-428v-406h428v-94h-950v94h428v406h-428v94h428v410h94v-410h428z" />
    <glyph glyph-name="uni00B2" unicode="&#xb2;" horiz-adv-x="522" 
d="M474 1004l-39 -182h-393v59q118 100 183 169t90.5 119.5t25.5 97.5q0 56 -29 85t-79 29q-49 0 -91 -32t-69 -98l-29 10q70 201 224 201q46 0 87.5 -19t67.5 -56.5t26 -89.5q0 -53 -30 -108t-98 -123t-183 -158h175q45 0 70 9.5t39.5 30t26.5 59.5z" />
    <glyph glyph-name="uni00B3" unicode="&#xb3;" horiz-adv-x="507" 
d="M401.5 1118.5q50.5 -42.5 50.5 -113.5q0 -55 -28.5 -100.5t-78 -72t-110.5 -26.5q-67 0 -121 34.5t-78 89.5l32 60l8 2q26 -46 74 -75t108 -29t99.5 28.5t39.5 74.5q0 55 -62.5 85.5t-200.5 40.5l-7 27q103 30 153.5 74t50.5 88q0 34 -27.5 54.5t-69.5 20.5
q-99 0 -152 -112l-30 13q33 87 88.5 133.5t129.5 46.5q42 0 80.5 -15.5t62 -45t23.5 -71.5q0 -111 -175 -161q90 -8 140.5 -50.5z" />
    <glyph glyph-name="acute" unicode="&#xb4;" horiz-adv-x="1000" 
d="M452 953h-38l111 342h153z" />
    <glyph glyph-name="uni00B5" unicode="&#xb5;" horiz-adv-x="942" 
d="M780 219q0 -50 12.5 -78.5t42.5 -42.5t85 -16v-33l-238 -71h-23l-8 206q-45 -112 -116.5 -163t-146.5 -51q-54 0 -102 25l15 -365h-140v1007q0 47 -14.5 71.5t-53.5 35.5l-70 18v28l252 93h21v-610q0 -88 41.5 -135.5t116.5 -47.5q91 0 141 74.5t50 200.5v272
q0 47 -14.5 71.5t-53.5 35.5l-70 18v28l252 93h21v-664z" />
    <glyph glyph-name="paragraph" unicode="&#xb6;" horiz-adv-x="955" 
d="M900 1250v-54h-140v-1296h-139v1296h-102v-1294h-80v637h-25q-109 0 -194 39.5t-134 119t-49 196.5q0 124 61 203.5t163.5 116t231.5 36.5h407z" />
    <glyph glyph-name="periodcentered" unicode="&#xb7;" horiz-adv-x="382" 
d="M114.5 555.5q-32.5 32.5 -32.5 76.5t32.5 76.5t76.5 32.5t76.5 -32.5t32.5 -76.5t-32.5 -76.5t-76.5 -32.5t-76.5 32.5z" />
    <glyph glyph-name="cedilla" unicode="&#xb8;" horiz-adv-x="1005" 
d="M483 -87q86 -32 122.5 -70.5t36.5 -97.5q0 -43 -19 -77t-52 -53t-72 -19q-48 0 -92 31t-71 91l37 47h13q33 -53 66 -75t70 -22q30 0 47 12.5t17 39.5q0 35 -36.5 60t-131.5 50l-11 18l62 156h53z" />
    <glyph glyph-name="uni00B9" unicode="&#xb9;" horiz-adv-x="389" 
d="M369 861v-41h-327v41h119v495h-119v29q49 8 91.5 26t85.5 49h37v-599h113z" />
    <glyph glyph-name="ordmasculine" unicode="&#xba;" horiz-adv-x="714" 
d="M509 1211.5q68 -49.5 106 -132t38 -176.5q0 -96 -37 -179t-104.5 -132.5t-155.5 -49.5q-84 0 -151.5 49.5t-106 131.5t-38.5 177t37.5 178t105 133t153.5 50q85 0 153 -49.5zM229 1139q-44 -69 -44 -193q0 -109 23 -188t64.5 -121t94.5 -42q73 0 117 68t44 193
q0 169 -47.5 260.5t-134.5 91.5q-73 0 -117 -69z" />
    <glyph glyph-name="guillemotright" unicode="&#xbb;" horiz-adv-x="721" 
d="M96 741l287 -317v-65l-290 -298l-5 50l197 239l-201 362zM343 712l11 29l288 -316v-65l-290 -299l-5 51l197 238z" />
    <glyph glyph-name="onequarter" unicode="&#xbc;" horiz-adv-x="1159" 
d="M385 665v-41h-327v41h119v495h-119v29q49 8 91.5 26t85.5 49h37v-599h113zM963 1250l-710 -1250h-83l709 1250h84zM1124 240v-63h-130v-136h103v-41h-316v41h122v136h-279v63l280 394h90v-394h130zM903 546l-217 -306h217v306z" />
    <glyph glyph-name="onehalf" unicode="&#xbd;" horiz-adv-x="1175" 
d="M385 665v-41h-327v41h119v495h-119v29q49 8 91.5 26t85.5 49h37v-599h113zM963 1250l-710 -1250h-83l709 1250h84zM1129 182l-39 -182h-393v59q118 100 183 169t90.5 119.5t25.5 97.5q0 56 -29 85t-79 29q-49 0 -91 -32t-69 -98l-29 10q70 201 224 201q46 0 87.5 -19
t67.5 -56.5t26 -89.5q0 -53 -30 -108t-98 -123t-183 -158h175q45 0 70 9.5t39.5 30t26.5 59.5z" />
    <glyph glyph-name="threequarters" unicode="&#xbe;" horiz-adv-x="1218" 
d="M418.5 922.5q50.5 -42.5 50.5 -113.5q0 -55 -28.5 -100.5t-78 -72t-110.5 -26.5q-67 0 -121 34.5t-78 89.5l32 60l8 2q26 -46 74 -75t108 -29t99.5 28.5t39.5 74.5q0 55 -62.5 85.5t-200.5 40.5l-7 27q103 30 153.5 74t50.5 88q0 34 -27.5 54.5t-69.5 20.5
q-99 0 -152 -112l-30 13q33 87 88.5 133.5t129.5 46.5q42 0 80.5 -15.5t62 -45t23.5 -71.5q0 -111 -175 -161q90 -8 140.5 -50.5zM1019 1250l-710 -1250h-83l709 1250h84zM1181 240v-63h-130v-136h103v-41h-316v41h122v136h-279v63l280 394h90v-394h130zM960 546l-217 -306
h217v306z" />
    <glyph glyph-name="questiondown" unicode="&#xbf;" horiz-adv-x="701" 
d="M322.5 718.5q-29.5 30.5 -29.5 72.5t29.5 73t69.5 31t70 -31t30 -73t-30 -72.5t-70 -30.5t-69.5 30.5zM673 -12q-31 -186 -123 -282.5t-223 -96.5q-85 0 -151.5 36t-104 99t-37.5 141q0 105 75.5 193t230.5 168l38 293h36l51 -269q-105 -71 -163.5 -128t-81 -106.5
t-22.5 -105.5q0 -91 46.5 -143t132.5 -52q91 0 158 66.5t101 201.5z" />
    <glyph glyph-name="Agrave" unicode="&#xc0;" horiz-adv-x="1078" 
d="M968 51h108v-51h-427v51h173l-132 400h-364q-90 -301 -90 -350q0 -21 16 -32t55 -14l100 -9v-46h-392v51h107l345 1076l-38 117l1 6h141zM500 1030l-156 -519h327zM473 1337l-196 251h179l56 -251h-39z" />
    <glyph glyph-name="Aacute" unicode="&#xc1;" horiz-adv-x="1078" 
d="M968 51h108v-51h-427v51h173l-132 400h-364q-90 -301 -90 -350q0 -21 16 -32t55 -14l100 -9v-46h-392v51h107l345 1076l-38 117l1 6h141zM500 1030l-156 -519h327zM534 1588h179l-196 -251h-39z" />
    <glyph glyph-name="Acircumflex" unicode="&#xc2;" horiz-adv-x="1078" 
d="M968 51h108v-51h-427v51h173l-132 400h-364q-90 -301 -90 -350q0 -21 16 -32t55 -14l100 -9v-46h-392v51h107l345 1076l-38 117l1 6h141zM500 1030l-156 -519h327zM591 1588l122 -251h-37l-217 189l-104 -189h-66l123 251h179z" />
    <glyph glyph-name="Atilde" unicode="&#xc3;" horiz-adv-x="1078" 
d="M968 51h108v-51h-427v51h173l-132 400h-364q-90 -301 -90 -350q0 -21 16 -32t55 -14l100 -9v-46h-392v51h107l345 1076l-38 117l1 6h141zM500 1030l-156 -519h327zM244 1333q18 101 54.5 148t102.5 47q31 0 59 -8.5t69 -25.5q38 -15 61.5 -22.5t48.5 -7.5q35 0 57 19
t32 61l35 -6q-35 -184 -154 -184q-26 0 -51 7.5t-62 23.5q-39 16 -65.5 24.5t-55.5 8.5q-39 0 -61 -21t-36 -68z" />
    <glyph glyph-name="Adieresis" unicode="&#xc4;" horiz-adv-x="1078" 
d="M968 51h108v-51h-427v51h173l-132 400h-364q-90 -301 -90 -350q0 -21 16 -32t55 -14l100 -9v-46h-392v51h107l345 1076l-38 117l1 6h141zM500 1030l-156 -519h327zM277 1369q-30 30 -30 70t30 70.5t70 30.5t69 -30t29 -71q0 -40 -29 -70t-69 -30t-70 30zM586 1369
q-29 30 -29 70q0 41 29 71t69 30t70 -30t30 -71q0 -40 -30 -70t-70 -30t-69 30z" />
    <glyph glyph-name="Aring" unicode="&#xc5;" horiz-adv-x="1078" 
d="M968 51h108v-51h-427v51h173l-132 400h-364q-90 -301 -90 -350q0 -21 16 -32t55 -14l100 -9v-46h-392v51h107l345 1076l-38 117l1 6h141zM500 1030l-156 -519h327zM353.5 1596q23.5 40 62.5 62t86 22t86 -22t62.5 -62t23.5 -92q0 -51 -23.5 -91.5t-63 -63.5t-85.5 -23
t-85.5 23t-63 63.5t-23.5 91.5q0 52 23.5 92zM410.5 1423q35.5 -32 91.5 -32q59 0 93 31.5t34 81.5t-34 80.5t-93 30.5q-57 0 -92 -30.5t-35 -80.5q0 -49 35.5 -81z" />
    <glyph glyph-name="AE" unicode="&#xc6;" horiz-adv-x="1518" 
d="M1438 425v-425h-850v51h145v389h-356l-17 -37q-73 -153 -99 -217.5t-26 -86.5q0 -21 22 -31.5t89 -15.5l76 -6v-46h-430v51h118l549 1146h-158v53h884v-395h-46q-18 144 -49 215t-96.5 100t-193.5 29h-128v-527h50q94 0 139.5 18t62 57.5t20.5 118.5h48v-469h-48
q-4 89 -20.5 134t-62 66t-139.5 21h-50v-449q0 -50 12 -73.5t47 -33t110 -9.5h85q91 0 139.5 28t76.5 105.5t50 238.5h46zM733 1195l-328 -696h328v696z" />
    <glyph glyph-name="Ccedilla" unicode="&#xc7;" horiz-adv-x="1007" 
d="M964 526q-45 -269 -142.5 -402.5t-262.5 -144.5l-28 -66q86 -32 122.5 -70.5t36.5 -97.5q0 -43 -19 -77t-52 -53t-72 -19q-48 0 -91.5 31t-70.5 91l36 47h13q33 -53 66 -75t70 -22q30 0 47 12.5t17 39.5q0 34 -36 59.5t-131 50.5l-12 18l52 131q-126 6 -224 85
t-152.5 218t-54.5 319q0 192 60.5 345.5t162 239.5t218.5 86q84 0 148.5 -41t118.5 -123l65 144h27v-423h-36q-78 183 -171.5 260t-199.5 77q-82 0 -145.5 -51t-100 -156.5t-36.5 -262.5q0 -171 52.5 -305t145.5 -209t210 -75q131 0 209 111t113 319z" />
    <glyph glyph-name="Egrave" unicode="&#xc8;" horiz-adv-x="1001" 
d="M921 425v-425h-867v51h148v1148h-148v51h817v-395h-46q-17 140 -48.5 211.5t-98 102t-192.5 30.5h-145v-525h68q94 0 139 18t61.5 57.5t20.5 118.5h49v-469h-49q-4 89 -20.5 134t-62 66.5t-138.5 21.5h-68v-436q0 -59 11 -85.5t43 -36.5t104 -10h112q90 0 138.5 27.5
t77 105.5t49.5 239h45zM485 1337l-196 251h179l56 -251h-39z" />
    <glyph glyph-name="Eacute" unicode="&#xc9;" horiz-adv-x="1001" 
d="M921 425v-425h-867v51h148v1148h-148v51h817v-395h-46q-17 140 -48.5 211.5t-98 102t-192.5 30.5h-145v-525h68q94 0 139 18t61.5 57.5t20.5 118.5h49v-469h-49q-4 89 -20.5 134t-62 66.5t-138.5 21.5h-68v-436q0 -59 11 -85.5t43 -36.5t104 -10h112q90 0 138.5 27.5
t77 105.5t49.5 239h45zM546 1588h179l-196 -251h-39z" />
    <glyph glyph-name="Ecircumflex" unicode="&#xca;" horiz-adv-x="1001" 
d="M921 425v-425h-867v51h148v1148h-148v51h817v-395h-46q-17 140 -48.5 211.5t-98 102t-192.5 30.5h-145v-525h68q94 0 139 18t61.5 57.5t20.5 118.5h49v-469h-49q-4 89 -20.5 134t-62 66.5t-138.5 21.5h-68v-436q0 -59 11 -85.5t43 -36.5t104 -10h112q90 0 138.5 27.5
t77 105.5t49.5 239h45zM603 1588l122 -251h-37l-217 189l-104 -189h-66l123 251h179z" />
    <glyph glyph-name="Edieresis" unicode="&#xcb;" horiz-adv-x="1001" 
d="M921 425v-425h-867v51h148v1148h-148v51h817v-395h-46q-17 140 -48.5 211.5t-98 102t-192.5 30.5h-145v-525h68q94 0 139 18t61.5 57.5t20.5 118.5h49v-469h-49q-4 89 -20.5 134t-62 66.5t-138.5 21.5h-68v-436q0 -59 11 -85.5t43 -36.5t104 -10h112q90 0 138.5 27.5
t77 105.5t49.5 239h45zM289 1369q-30 30 -30 70t30 70.5t70 30.5t69 -30t29 -71q0 -40 -29 -70t-69 -30t-70 30zM598 1369q-29 30 -29 70q0 41 29 71t69 30t70 -30t30 -71q0 -40 -30 -70t-70 -30t-69 30z" />
    <glyph glyph-name="Igrave" unicode="&#xcc;" horiz-adv-x="544" 
d="M343 1199v-1148h148v-51h-437v51h148v1148h-148v51h437v-51h-148zM244 1337l-196 251h179l56 -251h-39z" />
    <glyph glyph-name="Iacute" unicode="&#xcd;" horiz-adv-x="544" 
d="M343 1199v-1148h148v-51h-437v51h148v1148h-148v51h437v-51h-148zM305 1588h179l-196 -251h-39z" />
    <glyph glyph-name="Icircumflex" unicode="&#xce;" horiz-adv-x="544" 
d="M343 1199v-1148h148v-51h-437v51h148v1148h-148v51h437v-51h-148zM362 1588l122 -251h-37l-217 189l-104 -189h-66l123 251h179z" />
    <glyph glyph-name="Idieresis" unicode="&#xcf;" horiz-adv-x="544" 
d="M343 1199v-1148h148v-51h-437v51h148v1148h-148v51h437v-51h-148zM48 1369q-30 30 -30 70t30 70.5t70 30.5t69 -30t29 -71q0 -40 -29 -70t-69 -30t-70 30zM357 1369q-29 30 -29 70q0 41 29 71t69 30t70 -30t30 -71q0 -40 -30 -70t-70 -30t-69 30z" />
    <glyph glyph-name="Eth" unicode="&#xd0;" horiz-adv-x="1139" 
d="M391 1250q212 0 363.5 -70.5t230.5 -205.5t79 -324q0 -201 -72.5 -347t-212.5 -224.5t-337 -78.5h-384v51h145v557h-126v52h126v539h-145v51h333zM793 199.5q113 144.5 113 415.5q0 580 -516 580h-46v-535h278v-52h-278v-477q0 -43 26 -59.5t90 -16.5q220 0 333 144.5z
" />
    <glyph glyph-name="Ntilde" unicode="&#xd1;" horiz-adv-x="1125" 
d="M694 1250h383v-51h-131l-5 -341v-858h-52l-619 988l11 -773q1 -68 10.5 -101t34.5 -47.5t77 -19.5l42 -4v-43h-382v51h131l5 328v635q0 65 -8 100.5t-27 54.5t-57 30l-56 15v36h220l528 -862l71 -126l-11 774q-1 68 -10.5 101t-34.5 47t-77 19l-43 4v43zM310 1333
q18 101 54.5 148t102.5 47q31 0 59 -8.5t69 -25.5q38 -15 61.5 -22.5t48.5 -7.5q35 0 57 19t32 61l35 -6q-35 -184 -154 -184q-26 0 -51 7.5t-62 23.5q-39 16 -65.5 24.5t-55.5 8.5q-39 0 -61 -21t-36 -68z" />
    <glyph glyph-name="Ograve" unicode="&#xd2;" horiz-adv-x="1103" 
d="M311 62.5q-110 84.5 -173.5 230t-63.5 319.5q0 186 63 336.5t172.5 237t242.5 86.5q134 0 243 -82.5t171.5 -226.5t62.5 -320q0 -185 -63 -337.5t-172.5 -240t-241.5 -87.5q-131 0 -241 84.5zM757 126q66 59 101.5 169.5t35.5 261.5q0 164 -53.5 308.5t-143.5 231
t-194 86.5q-92 0 -158 -58t-100.5 -168t-34.5 -264q0 -159 54.5 -304t144.5 -233.5t191 -88.5q91 0 157 59zM523 1337l-196 251h179l56 -251h-39z" />
    <glyph glyph-name="Oacute" unicode="&#xd3;" horiz-adv-x="1103" 
d="M311 62.5q-110 84.5 -173.5 230t-63.5 319.5q0 186 63 336.5t172.5 237t242.5 86.5q134 0 243 -82.5t171.5 -226.5t62.5 -320q0 -185 -63 -337.5t-172.5 -240t-241.5 -87.5q-131 0 -241 84.5zM757 126q66 59 101.5 169.5t35.5 261.5q0 164 -53.5 308.5t-143.5 231
t-194 86.5q-92 0 -158 -58t-100.5 -168t-34.5 -264q0 -159 54.5 -304t144.5 -233.5t191 -88.5q91 0 157 59zM584 1588h179l-196 -251h-39z" />
    <glyph glyph-name="Ocircumflex" unicode="&#xd4;" horiz-adv-x="1103" 
d="M311 62.5q-110 84.5 -173.5 230t-63.5 319.5q0 186 63 336.5t172.5 237t242.5 86.5q134 0 243 -82.5t171.5 -226.5t62.5 -320q0 -185 -63 -337.5t-172.5 -240t-241.5 -87.5q-131 0 -241 84.5zM757 126q66 59 101.5 169.5t35.5 261.5q0 164 -53.5 308.5t-143.5 231
t-194 86.5q-92 0 -158 -58t-100.5 -168t-34.5 -264q0 -159 54.5 -304t144.5 -233.5t191 -88.5q91 0 157 59zM641 1588l122 -251h-37l-217 189l-104 -189h-66l123 251h179z" />
    <glyph glyph-name="Otilde" unicode="&#xd5;" horiz-adv-x="1103" 
d="M311 62.5q-110 84.5 -173.5 230t-63.5 319.5q0 186 63 336.5t172.5 237t242.5 86.5q134 0 243 -82.5t171.5 -226.5t62.5 -320q0 -185 -63 -337.5t-172.5 -240t-241.5 -87.5q-131 0 -241 84.5zM757 126q66 59 101.5 169.5t35.5 261.5q0 164 -53.5 308.5t-143.5 231
t-194 86.5q-92 0 -158 -58t-100.5 -168t-34.5 -264q0 -159 54.5 -304t144.5 -233.5t191 -88.5q91 0 157 59zM294 1333q18 101 54.5 148t102.5 47q31 0 59 -8.5t69 -25.5q38 -15 61.5 -22.5t48.5 -7.5q35 0 57 19t32 61l35 -6q-35 -184 -154 -184q-26 0 -51 7.5t-62 23.5
q-39 16 -65.5 24.5t-55.5 8.5q-39 0 -61 -21t-36 -68z" />
    <glyph glyph-name="Odieresis" unicode="&#xd6;" horiz-adv-x="1103" 
d="M311 62.5q-110 84.5 -173.5 230t-63.5 319.5q0 186 63 336.5t172.5 237t242.5 86.5q134 0 243 -82.5t171.5 -226.5t62.5 -320q0 -185 -63 -337.5t-172.5 -240t-241.5 -87.5q-131 0 -241 84.5zM757 126q66 59 101.5 169.5t35.5 261.5q0 164 -53.5 308.5t-143.5 231
t-194 86.5q-92 0 -158 -58t-100.5 -168t-34.5 -264q0 -159 54.5 -304t144.5 -233.5t191 -88.5q91 0 157 59zM327 1369q-30 30 -30 70t30 70.5t70 30.5t69 -30t29 -71q0 -40 -29 -70t-69 -30t-70 30zM636 1369q-29 30 -29 70q0 41 29 71t69 30t70 -30t30 -71q0 -40 -30 -70
t-70 -30t-69 30z" />
    <glyph glyph-name="multiply" unicode="&#xd7;" horiz-adv-x="1212" 
d="M907 996l67 -67l-302 -302l302 -303l-67 -67l-302 302l-302 -302l-67 67l302 303l-302 302l67 67l302 -302z" />
    <glyph glyph-name="Oslash" unicode="&#xd8;" horiz-adv-x="1139" 
d="M1081 1255l-148 -204q53 -83 81 -187t28 -221q0 -185 -63 -337.5t-172.5 -240t-241.5 -87.5q-86 0 -164 37.5t-141 106.5l-92 -127h-77l128 177q-62 86 -96.5 199.5t-34.5 240.5q0 186 63 336.5t172 237t242 86.5q96 0 180.5 -44t149.5 -124l109 151h77zM247 488
q24 -100 68 -184l487 673q-55 96 -129.5 151t-156.5 55q-92 0 -158 -58t-100.5 -168t-34.5 -264q0 -105 24 -205zM888 744q-19 91 -54 170l-485 -669q55 -83 123.5 -130.5t140.5 -47.5q91 0 157 59t101.5 169.5t35.5 261.5q0 96 -19 187z" />
    <glyph glyph-name="Ugrave" unicode="&#xd9;" horiz-adv-x="1136" 
d="M721 1250h368v-51h-114l-8 -333v-442q0 -145 -49 -246.5t-136 -153.5t-200 -52q-125 0 -217 53.5t-141.5 152t-49.5 232.5v789h-138v51h423v-51h-144v-752q0 -377 305 -377q138 0 205.5 89.5t67.5 282.5v594q0 69 -10.5 102t-36.5 46t-83 18l-42 4v44zM570 1337l-196 251
h179l56 -251h-39z" />
    <glyph glyph-name="Uacute" unicode="&#xda;" horiz-adv-x="1136" 
d="M721 1250h368v-51h-114l-8 -333v-442q0 -145 -49 -246.5t-136 -153.5t-200 -52q-125 0 -217 53.5t-141.5 152t-49.5 232.5v789h-138v51h423v-51h-144v-752q0 -377 305 -377q138 0 205.5 89.5t67.5 282.5v594q0 69 -10.5 102t-36.5 46t-83 18l-42 4v44zM631 1588h179
l-196 -251h-39z" />
    <glyph glyph-name="Ucircumflex" unicode="&#xdb;" horiz-adv-x="1136" 
d="M721 1250h368v-51h-114l-8 -333v-442q0 -145 -49 -246.5t-136 -153.5t-200 -52q-125 0 -217 53.5t-141.5 152t-49.5 232.5v789h-138v51h423v-51h-144v-752q0 -377 305 -377q138 0 205.5 89.5t67.5 282.5v594q0 69 -10.5 102t-36.5 46t-83 18l-42 4v44zM688 1588l122 -251
h-37l-217 189l-104 -189h-66l123 251h179z" />
    <glyph glyph-name="Udieresis" unicode="&#xdc;" horiz-adv-x="1136" 
d="M721 1250h368v-51h-114l-8 -333v-442q0 -145 -49 -246.5t-136 -153.5t-200 -52q-125 0 -217 53.5t-141.5 152t-49.5 232.5v789h-138v51h423v-51h-144v-752q0 -377 305 -377q138 0 205.5 89.5t67.5 282.5v594q0 69 -10.5 102t-36.5 46t-83 18l-42 4v44zM374 1369
q-30 30 -30 70t30 70.5t70 30.5t69 -30t29 -71q0 -40 -29 -70t-69 -30t-70 30zM683 1369q-29 30 -29 70q0 41 29 71t69 30t70 -30t30 -71q0 -40 -30 -70t-70 -30t-69 30z" />
    <glyph glyph-name="Yacute" unicode="&#xdd;" horiz-adv-x="1052" 
d="M930 1199l-329 -613v-535h130v-51h-401v51h130l1 512l-350 636h-101v51h455v-51h-197l263 -482l23 -88l144 290q54 105 73 150t19 71t-15.5 36.5t-59.5 18.5l-58 10v45h359v-51h-86zM581 1588h179l-196 -251h-39z" />
    <glyph glyph-name="Thorn" unicode="&#xde;" horiz-adv-x="968" 
d="M343 280v-229h148v-51h-437v51h148v1148h-148v51h437v-51h-148v-203h102q231 0 346.5 -85t115.5 -250q0 -117 -52.5 -202.5t-156 -132t-253.5 -46.5h-102zM352 943v-610h126q132 0 199.5 78.5t67.5 225.5q0 142 -65.5 224t-204.5 82h-123z" />
    <glyph glyph-name="germandbls" unicode="&#xdf;" horiz-adv-x="925" 
d="M741 536q78 -88 106 -159t28 -139q0 -85 -31.5 -145.5t-83.5 -91.5t-113 -31q-49 0 -92.5 18t-77.5 48l-35 216l36 10q37 -109 81.5 -161t106.5 -52q36 0 67 17t50 50t19 77q0 87 -92.5 195.5t-301.5 246.5v22q135 127 181.5 209.5t46.5 145.5q0 64 -28 109.5t-75.5 68
t-104.5 22.5q-78 0 -115.5 -41.5t-37.5 -124.5q0 -28 2 -44l16 -155v-793h103v-54h-354v54h122v714h-120v32l120 45v11q0 155 51.5 260.5t132.5 157t169 51.5q73 0 129.5 -33.5t88 -90.5t31.5 -125q0 -89 -58.5 -172t-185.5 -177q141 -103 219 -191z" />
    <glyph glyph-name="agrave" unicode="&#xe0;" horiz-adv-x="765" 
d="M391 7.5q-43 -29.5 -104 -29.5q-59 0 -111 29.5t-83 80t-31 111.5q0 69 47.5 114.5t155.5 71.5l201 47l6 119q5 99 -37 150.5t-131 51.5q-77 0 -135.5 -42.5t-113.5 -137.5l-24 26q71 143 154.5 209.5t181.5 66.5q69 0 124 -30.5t86.5 -96t29.5 -166.5l-8 -376
q-1 -62 15 -89.5t48 -27.5q30 0 52.5 20t42.5 60l26 -13q-36 -94 -73.5 -136t-87.5 -42q-45 0 -85 32.5t-57 96.5q-46 -70 -89 -99.5zM467 383l-73 -17q-78 -17 -118 -33.5t-55.5 -38t-15.5 -56.5q0 -44 20 -79.5t55 -56.5t79 -21q58 0 85 38t25 119zM368 953l-212 342h153
l97 -342h-38z" />
    <glyph glyph-name="aacute" unicode="&#xe1;" horiz-adv-x="765" 
d="M391 7.5q-43 -29.5 -104 -29.5q-59 0 -111 29.5t-83 80t-31 111.5q0 69 47.5 114.5t155.5 71.5l201 47l6 119q5 99 -37 150.5t-131 51.5q-77 0 -135.5 -42.5t-113.5 -137.5l-24 26q71 143 154.5 209.5t181.5 66.5q69 0 124 -30.5t86.5 -96t29.5 -166.5l-8 -376
q-1 -62 15 -89.5t48 -27.5q30 0 52.5 20t42.5 60l26 -13q-36 -94 -73.5 -136t-87.5 -42q-45 0 -85 32.5t-57 96.5q-46 -70 -89 -99.5zM467 383l-73 -17q-78 -17 -118 -33.5t-55.5 -38t-15.5 -56.5q0 -44 20 -79.5t55 -56.5t79 -21q58 0 85 38t25 119zM379 953h-38l111 342
h153z" />
    <glyph glyph-name="acircumflex" unicode="&#xe2;" horiz-adv-x="765" 
d="M391 7.5q-43 -29.5 -104 -29.5q-59 0 -111 29.5t-83 80t-31 111.5q0 69 47.5 114.5t155.5 71.5l201 47l6 119q5 99 -37 150.5t-131 51.5q-77 0 -135.5 -42.5t-113.5 -137.5l-24 26q71 143 154.5 209.5t181.5 66.5q69 0 124 -30.5t86.5 -96t29.5 -166.5l-8 -376
q-1 -62 15 -89.5t48 -27.5q30 0 52.5 20t42.5 60l26 -13q-36 -94 -73.5 -136t-87.5 -42q-45 0 -85 32.5t-57 96.5q-46 -70 -89 -99.5zM467 383l-73 -17q-78 -17 -118 -33.5t-55.5 -38t-15.5 -56.5q0 -44 20 -79.5t55 -56.5t79 -21q58 0 85 38t25 119zM422 1295l181 -342h-50
l-214 233l-130 -233h-66l181 342h98z" />
    <glyph glyph-name="atilde" unicode="&#xe3;" horiz-adv-x="765" 
d="M391 7.5q-43 -29.5 -104 -29.5q-59 0 -111 29.5t-83 80t-31 111.5q0 69 47.5 114.5t155.5 71.5l201 47l6 119q5 99 -37 150.5t-131 51.5q-77 0 -135.5 -42.5t-113.5 -137.5l-24 26q71 143 154.5 209.5t181.5 66.5q69 0 124 -30.5t86.5 -96t29.5 -166.5l-8 -376
q-1 -62 15 -89.5t48 -27.5q30 0 52.5 20t42.5 60l26 -13q-36 -94 -73.5 -136t-87.5 -42q-45 0 -85 32.5t-57 96.5q-46 -70 -89 -99.5zM467 383l-73 -17q-78 -17 -118 -33.5t-55.5 -38t-15.5 -56.5q0 -44 20 -79.5t55 -56.5t79 -21q58 0 85 38t25 119zM152 988
q14 81 46.5 120t84.5 39q29 0 54 -7t57 -21q33 -14 54 -20t45 -6q29 0 46 15.5t27 53.5l33 -6q-32 -160 -132 -160q-27 0 -49.5 7t-54.5 21q-34 14 -54 20t-44 6q-32 0 -50 -15.5t-30 -50.5z" />
    <glyph glyph-name="adieresis" unicode="&#xe4;" horiz-adv-x="765" 
d="M391 7.5q-43 -29.5 -104 -29.5q-59 0 -111 29.5t-83 80t-31 111.5q0 69 47.5 114.5t155.5 71.5l201 47l6 119q5 99 -37 150.5t-131 51.5q-77 0 -135.5 -42.5t-113.5 -137.5l-24 26q71 143 154.5 209.5t181.5 66.5q69 0 124 -30.5t86.5 -96t29.5 -166.5l-8 -376
q-1 -62 15 -89.5t48 -27.5q30 0 52.5 20t42.5 60l26 -13q-36 -94 -73.5 -136t-87.5 -42q-45 0 -85 32.5t-57 96.5q-46 -70 -89 -99.5zM467 383l-73 -17q-78 -17 -118 -33.5t-55.5 -38t-15.5 -56.5q0 -44 20 -79.5t55 -56.5t79 -21q58 0 85 38t25 119zM150.5 1049
q-28.5 29 -28.5 70t28.5 70t68.5 29t68 -29t28 -70t-28 -70t-68 -29t-68.5 29zM459.5 1049q-27.5 29 -27.5 70t27.5 70t67.5 29t68.5 -29t28.5 -70t-28.5 -70t-68.5 -29t-67.5 29z" />
    <glyph glyph-name="aring" unicode="&#xe5;" horiz-adv-x="765" 
d="M391 7.5q-43 -29.5 -104 -29.5q-59 0 -111 29.5t-83 80t-31 111.5q0 69 47.5 114.5t155.5 71.5l201 47l6 119q5 99 -37 150.5t-131 51.5q-77 0 -135.5 -42.5t-113.5 -137.5l-24 26q71 143 154.5 209.5t181.5 66.5q69 0 124 -30.5t86.5 -96t29.5 -166.5l-8 -376
q-1 -62 15 -89.5t48 -27.5q30 0 52.5 20t42.5 60l26 -13q-36 -94 -73.5 -136t-87.5 -42q-45 0 -85 32.5t-57 96.5q-46 -70 -89 -99.5zM467 383l-73 -17q-78 -17 -118 -33.5t-55.5 -38t-15.5 -56.5q0 -44 20 -79.5t55 -56.5t79 -21q58 0 85 38t25 119zM224.5 1213
q23.5 40 62.5 62t86 22t86 -22t62.5 -62t23.5 -92q0 -51 -23.5 -91.5t-63 -63.5t-85.5 -23t-85.5 23t-63 63.5t-23.5 91.5q0 52 23.5 92zM281.5 1040q35.5 -32 91.5 -32q59 0 93 31.5t34 81.5t-34 80.5t-93 30.5q-57 0 -92 -30.5t-35 -80.5q0 -49 35.5 -81z" />
    <glyph glyph-name="ae" unicode="&#xe6;" horiz-adv-x="1170" 
d="M1142 314q-64 -186 -144.5 -261.5t-186.5 -75.5q-92 0 -162.5 45t-112.5 129q-48 -69 -88.5 -107t-78 -52.5t-81.5 -14.5q-67 0 -119 31t-80.5 81t-28.5 105q0 72 48.5 118t137.5 65l219 47l3 102q4 115 -34.5 171t-129.5 56q-82 0 -139.5 -41t-112.5 -143l-25 26
q80 149 159.5 214.5t176.5 65.5q77 0 130.5 -37t79.5 -106q47 69 111 106t136 37q78 0 138.5 -40.5t96 -125.5t36.5 -215h-490q1 -118 33 -205.5t89.5 -135t135.5 -47.5t140.5 55.5t104.5 167.5zM661 731q-50 -66 -59 -184l359 3q-6 121 -51 184t-123 63q-76 0 -126 -66z
M444 114.5q24 39.5 23 115.5l-2 150l-96 -23q-67 -16 -102.5 -32.5t-49 -38t-13.5 -55.5q0 -46 21.5 -81.5t58 -55t79.5 -19.5q57 0 81 39.5z" />
    <glyph glyph-name="ccedilla" unicode="&#xe7;" horiz-adv-x="707" 
d="M676 288q-70 -286 -264 -308l-29 -67q85 -31 121.5 -70t36.5 -98q0 -43 -19 -77t-51.5 -53t-71.5 -19q-48 0 -92 31t-71 91l37 47h12q32 -53 66 -75t70 -22q30 0 47.5 12.5t17.5 39.5q0 34 -36.5 59.5t-131.5 50.5l-11 18l51 131q-90 6 -157.5 62.5t-104.5 151t-37 209.5
q0 143 48.5 250.5t129 165t173.5 57.5q74 0 135.5 -40.5t100.5 -117.5l-72 -73h-14q-89 150 -202 150q-53 0 -93.5 -35t-63 -103t-22.5 -164q0 -118 35 -204.5t95 -132t134 -45.5q71 0 120.5 50.5t73.5 139.5z" />
    <glyph glyph-name="egrave" unicode="&#xe8;" horiz-adv-x="747" 
d="M718 314q-63 -186 -143.5 -261.5t-186.5 -75.5q-99 0 -173.5 52.5t-115 149t-40.5 226.5q0 137 46 244.5t123.5 166.5t168.5 59q77 0 138 -40.5t96.5 -125.5t35.5 -215h-490q1 -118 33 -205.5t90 -135t135 -47.5q79 0 141.5 55.5t103.5 167.5zM237.5 730.5
q-50.5 -66.5 -58.5 -183.5l359 3q-6 121 -51 184t-123 63q-76 0 -126.5 -66.5zM386 953l-212 342h153l97 -342h-38z" />
    <glyph glyph-name="eacute" unicode="&#xe9;" horiz-adv-x="747" 
d="M718 314q-63 -186 -143.5 -261.5t-186.5 -75.5q-99 0 -173.5 52.5t-115 149t-40.5 226.5q0 137 46 244.5t123.5 166.5t168.5 59q77 0 138 -40.5t96.5 -125.5t35.5 -215h-490q1 -118 33 -205.5t90 -135t135 -47.5q79 0 141.5 55.5t103.5 167.5zM237.5 730.5
q-50.5 -66.5 -58.5 -183.5l359 3q-6 121 -51 184t-123 63q-76 0 -126.5 -66.5zM397 953h-38l111 342h153z" />
    <glyph glyph-name="ecircumflex" unicode="&#xea;" horiz-adv-x="747" 
d="M718 314q-63 -186 -143.5 -261.5t-186.5 -75.5q-99 0 -173.5 52.5t-115 149t-40.5 226.5q0 137 46 244.5t123.5 166.5t168.5 59q77 0 138 -40.5t96.5 -125.5t35.5 -215h-490q1 -118 33 -205.5t90 -135t135 -47.5q79 0 141.5 55.5t103.5 167.5zM237.5 730.5
q-50.5 -66.5 -58.5 -183.5l359 3q-6 121 -51 184t-123 63q-76 0 -126.5 -66.5zM440 1295l181 -342h-50l-214 233l-130 -233h-66l181 342h98z" />
    <glyph glyph-name="edieresis" unicode="&#xeb;" horiz-adv-x="747" 
d="M718 314q-63 -186 -143.5 -261.5t-186.5 -75.5q-99 0 -173.5 52.5t-115 149t-40.5 226.5q0 137 46 244.5t123.5 166.5t168.5 59q77 0 138 -40.5t96.5 -125.5t35.5 -215h-490q1 -118 33 -205.5t90 -135t135 -47.5q79 0 141.5 55.5t103.5 167.5zM237.5 730.5
q-50.5 -66.5 -58.5 -183.5l359 3q-6 121 -51 184t-123 63q-76 0 -126.5 -66.5zM168.5 1049q-28.5 29 -28.5 70t28.5 70t68.5 29t68 -29t28 -70t-28 -70t-68 -29t-68.5 29zM477.5 1049q-27.5 29 -27.5 70t27.5 70t67.5 29t68.5 -29t28.5 -70t-28.5 -70t-68.5 -29t-67.5 29z
" />
    <glyph glyph-name="igrave" unicode="&#xec;" horiz-adv-x="461" 
d="M308 48h118v-48h-371v48h118v582q0 41 -5 60t-18.5 28.5t-44.5 19.5l-72 21v28l265 88h20l-10 -254v-573zM225 953l-212 342h153l97 -342h-38z" />
    <glyph glyph-name="iacute" unicode="&#xed;" horiz-adv-x="461" 
d="M308 48h118v-48h-371v48h118v582q0 41 -5 60t-18.5 28.5t-44.5 19.5l-72 21v28l265 88h20l-10 -254v-573zM235 953h-38l111 342h153z" />
    <glyph glyph-name="icircumflex" unicode="&#xee;" horiz-adv-x="461" 
d="M308 48h118v-48h-371v48h118v582q0 41 -5 60t-18.5 28.5t-44.5 19.5l-72 21v28l265 88h20l-10 -254v-573zM279 1295l181 -342h-50l-214 233l-130 -233h-66l181 342h98z" />
    <glyph glyph-name="idieresis" unicode="&#xef;" horiz-adv-x="461" 
d="M166.5 1049q-27.5 -29 -66.5 -29q-40 0 -68.5 29t-28.5 70t28.5 70t68.5 29q39 0 66.5 -29t27.5 -70t-27.5 -70zM429.5 1188.5q28.5 -29.5 28.5 -69.5q0 -41 -28.5 -70t-67.5 -29q-40 0 -67.5 29t-27.5 70t27.5 70t67.5 29q39 0 67.5 -29.5zM308 621v-573h118v-48h-371
v48h118v582q0 41 -5 60t-18.5 28.5t-44.5 19.5l-72 21v28l265 88h20z" />
    <glyph glyph-name="eth" unicode="&#xf0;" horiz-adv-x="899" 
d="M629 1039q100 -128 152.5 -270.5t52.5 -287.5q0 -131 -42 -245.5t-130 -186t-218 -71.5q-119 0 -206.5 59t-133.5 158.5t-46 219.5t43 218t121.5 154.5t181.5 56.5q79 0 148.5 -44t117.5 -126q-10 77 -44.5 164t-88.5 174l-312 -89l-10 50l292 85q-87 128 -194 221l34 24
q143 -100 246 -220l200 59l12 -53zM575 77.5q49 39.5 77 116.5t28 184q0 112 -34 203.5t-95.5 144.5t-139.5 53q-94 0 -150.5 -83.5t-56.5 -245.5q0 -122 35 -216t94 -145t131 -51q62 0 111 39.5z" />
    <glyph glyph-name="ntilde" unicode="&#xf1;" horiz-adv-x="937" 
d="M351.5 688q-45.5 -69 -45.5 -185v-455h111v-48h-364v48h118v575q0 46 -15.5 70.5t-54.5 35.5l-68 17v28l253 93h20l-12 -194l9 -1q38 96 110.5 149.5t152.5 53.5q65 0 116 -29.5t79.5 -81t28.5 -116.5v-600h118v-48h-364v48h111v545q0 80 -42 122t-120 42
q-96 0 -141.5 -69zM281 988q14 81 46.5 120t84.5 39q29 0 54 -7t57 -21q33 -14 54 -20t45 -6q29 0 46 15.5t27 53.5l33 -6q-32 -160 -132 -160q-27 0 -49.5 7t-54.5 21q-34 14 -54 20t-44 6q-32 0 -50 -15.5t-30 -50.5z" />
    <glyph glyph-name="ograve" unicode="&#xf2;" horiz-adv-x="856" 
d="M618 813.5q85 -61.5 133 -164.5t48 -221q0 -120 -46.5 -223.5t-131.5 -165.5t-194 -62q-105 0 -189.5 61.5t-132.5 164.5t-48 222t46.5 222t131 165.5t192.5 62.5q106 0 191 -61.5zM308.5 771.5q-45.5 -38.5 -70.5 -112.5t-25 -178q0 -136 28.5 -235t80 -151t118.5 -52
q60 0 105.5 37.5t71 111t25.5 178.5q0 211 -59.5 325.5t-168.5 114.5q-60 0 -105.5 -38.5zM425 953l-212 342h153l97 -342h-38z" />
    <glyph glyph-name="oacute" unicode="&#xf3;" horiz-adv-x="856" 
d="M618 813.5q85 -61.5 133 -164.5t48 -221q0 -120 -46.5 -223.5t-131.5 -165.5t-194 -62q-105 0 -189.5 61.5t-132.5 164.5t-48 222t46.5 222t131 165.5t192.5 62.5q106 0 191 -61.5zM308.5 771.5q-45.5 -38.5 -70.5 -112.5t-25 -178q0 -136 28.5 -235t80 -151t118.5 -52
q60 0 105.5 37.5t71 111t25.5 178.5q0 211 -59.5 325.5t-168.5 114.5q-60 0 -105.5 -38.5zM436 953h-38l111 342h153z" />
    <glyph glyph-name="ocircumflex" unicode="&#xf4;" horiz-adv-x="856" 
d="M618 813.5q85 -61.5 133 -164.5t48 -221q0 -120 -46.5 -223.5t-131.5 -165.5t-194 -62q-105 0 -189.5 61.5t-132.5 164.5t-48 222t46.5 222t131 165.5t192.5 62.5q106 0 191 -61.5zM308.5 771.5q-45.5 -38.5 -70.5 -112.5t-25 -178q0 -136 28.5 -235t80 -151t118.5 -52
q60 0 105.5 37.5t71 111t25.5 178.5q0 211 -59.5 325.5t-168.5 114.5q-60 0 -105.5 -38.5zM479 1295l181 -342h-50l-214 233l-130 -233h-66l181 342h98z" />
    <glyph glyph-name="otilde" unicode="&#xf5;" horiz-adv-x="856" 
d="M618 813.5q85 -61.5 133 -164.5t48 -221q0 -120 -46.5 -223.5t-131.5 -165.5t-194 -62q-105 0 -189.5 61.5t-132.5 164.5t-48 222t46.5 222t131 165.5t192.5 62.5q106 0 191 -61.5zM308.5 771.5q-45.5 -38.5 -70.5 -112.5t-25 -178q0 -136 28.5 -235t80 -151t118.5 -52
q60 0 105.5 37.5t71 111t25.5 178.5q0 211 -59.5 325.5t-168.5 114.5q-60 0 -105.5 -38.5zM209 988q14 81 46.5 120t84.5 39q29 0 54 -7t57 -21q33 -14 54 -20t45 -6q29 0 46 15.5t27 53.5l33 -6q-32 -160 -132 -160q-27 0 -49.5 7t-54.5 21q-34 14 -54 20t-44 6
q-32 0 -50 -15.5t-30 -50.5z" />
    <glyph glyph-name="odieresis" unicode="&#xf6;" horiz-adv-x="856" 
d="M618 813.5q85 -61.5 133 -164.5t48 -221q0 -120 -46.5 -223.5t-131.5 -165.5t-194 -62q-105 0 -189.5 61.5t-132.5 164.5t-48 222t46.5 222t131 165.5t192.5 62.5q106 0 191 -61.5zM308.5 771.5q-45.5 -38.5 -70.5 -112.5t-25 -178q0 -136 28.5 -235t80 -151t118.5 -52
q60 0 105.5 37.5t71 111t25.5 178.5q0 211 -59.5 325.5t-168.5 114.5q-60 0 -105.5 -38.5zM207.5 1049q-28.5 29 -28.5 70t28.5 70t68.5 29t68 -29t28 -70t-28 -70t-68 -29t-68.5 29zM516.5 1049q-27.5 29 -27.5 70t27.5 70t67.5 29t68.5 -29t28.5 -70t-28.5 -70t-68.5 -29
t-67.5 29z" />
    <glyph glyph-name="divide" unicode="&#xf7;" horiz-adv-x="1212" 
d="M131 575v100h950v-100h-950zM506.5 240.5q-31.5 31.5 -31.5 74.5t31.5 74.5t74.5 31.5t74 -31.5t31 -74.5t-31 -74.5t-74 -31.5t-74.5 31.5zM506.5 877.5q-31.5 31.5 -31.5 74.5t31.5 74.5t74.5 31.5t74 -31.5t31 -74.5t-31 -74.5t-74 -31.5t-74.5 31.5z" />
    <glyph glyph-name="oslash" unicode="&#xf8;" horiz-adv-x="878" 
d="M810 844l-93 -118q45 -61 69 -138t24 -160q0 -120 -46.5 -223.5t-131 -165.5t-194.5 -62q-67 0 -126.5 25.5t-107.5 72.5l-63 -80h-67l95 120q-48 62 -74.5 142t-26.5 168q0 119 46.5 222t131 165.5t192.5 62.5q71 0 133 -28t111 -79l60 76h68zM258 229l347 441
q-29 68 -74.5 104t-105.5 36t-105.5 -38.5t-70.5 -112.5t-25 -178q0 -148 34 -252zM626 610l-345 -438q30 -63 73.5 -96t96.5 -33q60 0 105.5 37.5t71 111t25.5 178.5q0 143 -27 240z" />
    <glyph glyph-name="ugrave" unicode="&#xf9;" horiz-adv-x="915" 
d="M631 192q-44 -113 -113.5 -163.5t-145.5 -50.5q-60 0 -110 30.5t-79.5 85t-29.5 123.5v412q0 40 -5 59t-19 29.5t-44 18.5l-70 18v28l258 93h12v-610q0 -85 40.5 -130.5t113.5 -45.5q89 0 137.5 76.5t48.5 206.5v257q0 38 -4 57t-18.5 30.5t-45.5 19.5l-70 18v28l257 93
h13v-648q0 -66 12 -100.5t41.5 -47t86.5 -10.5v-40l-235 -44h-23zM443 953l-212 342h153l97 -342h-38z" />
    <glyph glyph-name="uacute" unicode="&#xfa;" horiz-adv-x="915" 
d="M631 192q-44 -113 -113.5 -163.5t-145.5 -50.5q-60 0 -110 30.5t-79.5 85t-29.5 123.5v412q0 40 -5 59t-19 29.5t-44 18.5l-70 18v28l258 93h12v-610q0 -85 40.5 -130.5t113.5 -45.5q89 0 137.5 76.5t48.5 206.5v257q0 38 -4 57t-18.5 30.5t-45.5 19.5l-70 18v28l257 93
h13v-648q0 -66 12 -100.5t41.5 -47t86.5 -10.5v-40l-235 -44h-23zM453 953h-38l111 342h153z" />
    <glyph glyph-name="ucircumflex" unicode="&#xfb;" horiz-adv-x="915" 
d="M631 192q-44 -113 -113.5 -163.5t-145.5 -50.5q-60 0 -110 30.5t-79.5 85t-29.5 123.5v412q0 40 -5 59t-19 29.5t-44 18.5l-70 18v28l258 93h12v-610q0 -85 40.5 -130.5t113.5 -45.5q89 0 137.5 76.5t48.5 206.5v257q0 38 -4 57t-18.5 30.5t-45.5 19.5l-70 18v28l257 93
h13v-648q0 -66 12 -100.5t41.5 -47t86.5 -10.5v-40l-235 -44h-23zM497 1295l181 -342h-50l-214 233l-130 -233h-66l181 342h98z" />
    <glyph glyph-name="udieresis" unicode="&#xfc;" horiz-adv-x="915" 
d="M631 192q-44 -113 -113.5 -163.5t-145.5 -50.5q-60 0 -110 30.5t-79.5 85t-29.5 123.5v412q0 40 -5 59t-19 29.5t-44 18.5l-70 18v28l258 93h12v-610q0 -85 40.5 -130.5t113.5 -45.5q89 0 137.5 76.5t48.5 206.5v257q0 38 -4 57t-18.5 30.5t-45.5 19.5l-70 18v28l257 93
h13v-648q0 -66 12 -100.5t41.5 -47t86.5 -10.5v-40l-235 -44h-23zM225.5 1049q-28.5 29 -28.5 70t28.5 70t68.5 29t68 -29t28 -70t-28 -70t-68 -29t-68.5 29zM534.5 1049q-27.5 29 -27.5 70t27.5 70t67.5 29t68.5 -29t28.5 -70t-28.5 -70t-68.5 -29t-67.5 29z" />
    <glyph glyph-name="yacute" unicode="&#xfd;" horiz-adv-x="861" 
d="M865 805h-84l-466 -1125h166v-50h-426v50h127l173 420l-242 704l-88 1v48h378v-51l-145 1l175 -538l23 -81l164 437q17 45 25 73.5t8 46.5q0 26 -16.5 38.5t-53.5 17.5l-83 9v47h365v-48zM457 953h-38l111 342h153z" />
    <glyph glyph-name="thorn" unicode="&#xfe;" horiz-adv-x="830" 
d="M253 11v-333h146v-48h-399v48h118v1361q0 41 -5 64t-21 38t-48 23l-66 19v28l261 89h20l-2 -538l-6 -85q37 97 100.5 147.5t136.5 50.5q82 0 146.5 -51.5t100.5 -146.5t36 -220q0 -154 -54.5 -262.5t-141 -162.5t-180.5 -54q-75 0 -142 33zM299 687q-42 -56 -46 -146
v-380q39 -54 88.5 -82t103.5 -28q90 0 144 77.5t54 227.5q0 120 -30.5 207.5t-83 133.5t-117.5 46q-71 0 -113 -56z" />
    <glyph glyph-name="ydieresis" unicode="&#xff;" horiz-adv-x="861" 
d="M865 805h-84l-466 -1125h166v-50h-426v50h127l173 420l-242 704l-88 1v48h378v-51l-145 1l175 -538l23 -81l164 437q17 45 25 73.5t8 46.5q0 26 -16.5 38.5t-53.5 17.5l-83 9v47h365v-48zM228.5 1049q-28.5 29 -28.5 70t28.5 70t68.5 29t68 -29t28 -70t-28 -70t-68 -29
t-68.5 29zM537.5 1049q-27.5 29 -27.5 70t27.5 70t67.5 29t68.5 -29t28.5 -70t-28.5 -70t-68.5 -29t-67.5 29z" />
    <glyph glyph-name="Amacron" unicode="&#x100;" horiz-adv-x="1078" 
d="M968 51h108v-51h-427v51h173l-132 400h-364q-90 -301 -90 -350q0 -21 16 -32t55 -14l100 -9v-46h-392v51h107l345 1076l-38 117l1 6h141zM500 1030l-156 -519h327zM766 1374h-529v60h529v-60z" />
    <glyph glyph-name="amacron" unicode="&#x101;" horiz-adv-x="765" 
d="M391 7.5q-43 -29.5 -104 -29.5q-59 0 -111 29.5t-83 80t-31 111.5q0 69 47.5 114.5t155.5 71.5l201 47l6 119q5 99 -37 150.5t-131 51.5q-77 0 -135.5 -42.5t-113.5 -137.5l-24 26q71 143 154.5 209.5t181.5 66.5q69 0 124 -30.5t86.5 -96t29.5 -166.5l-8 -376
q-1 -62 15 -89.5t48 -27.5q30 0 52.5 20t42.5 60l26 -13q-36 -94 -73.5 -136t-87.5 -42q-45 0 -85 32.5t-57 96.5q-46 -70 -89 -99.5zM467 383l-73 -17q-78 -17 -118 -33.5t-55.5 -38t-15.5 -56.5q0 -44 20 -79.5t55 -56.5t79 -21q58 0 85 38t25 119zM602 1012h-458v59h458
v-59z" />
    <glyph glyph-name="Abreve" unicode="&#x102;" horiz-adv-x="1078" 
d="M968 51h108v-51h-427v51h173l-132 400h-364q-90 -301 -90 -350q0 -21 16 -32t55 -14l100 -9v-46h-392v51h107l345 1076l-38 117l1 6h141zM500 1030l-156 -519h327zM709 1589q-15 -127 -68.5 -190.5t-139.5 -63.5q-85 0 -138.5 63.5t-68.5 190.5h42l10 -37
q13 -55 54.5 -81.5t100.5 -26.5q61 0 102 26.5t54 81.5l9 37h43z" />
    <glyph glyph-name="abreve" unicode="&#x103;" horiz-adv-x="765" 
d="M391 7.5q-43 -29.5 -104 -29.5q-59 0 -111 29.5t-83 80t-31 111.5q0 69 47.5 114.5t155.5 71.5l201 47l6 119q5 99 -37 150.5t-131 51.5q-77 0 -135.5 -42.5t-113.5 -137.5l-24 26q71 143 154.5 209.5t181.5 66.5q69 0 124 -30.5t86.5 -96t29.5 -166.5l-8 -376
q-1 -62 15 -89.5t48 -27.5q30 0 52.5 20t42.5 60l26 -13q-36 -94 -73.5 -136t-87.5 -42q-45 0 -85 32.5t-57 96.5q-46 -70 -89 -99.5zM467 383l-73 -17q-78 -17 -118 -33.5t-55.5 -38t-15.5 -56.5q0 -44 20 -79.5t55 -56.5t79 -21q58 0 85 38t25 119zM604 1295
q-17 -174 -77 -260t-154 -86t-154 86t-76 260h42l10 -37q20 -100 66 -147t112 -47q139 0 179 194l9 37h43z" />
    <glyph glyph-name="Aogonek" unicode="&#x104;" horiz-adv-x="1078" 
d="M1076 0q-96 -54 -135.5 -96t-39.5 -88q0 -37 20 -56t56 -19q48 0 85 27l5 -5v-75q-51 -46 -113 -46q-57 0 -95.5 34t-38.5 95q0 48 29.5 96.5t106.5 110.5v22h-307v51h173l-132 400h-364q-90 -301 -90 -350q0 -21 16 -32t55 -14l100 -9v-46h-392v51h107l345 1076l-38 117
l1 6h141l397 -1199h108v-51zM500 1030l-156 -519h327z" />
    <glyph glyph-name="aogonek" unicode="&#x105;" horiz-adv-x="765" 
d="M783 156q-44 -117 -95 -156h1q-86 -52 -124 -95.5t-38 -88.5q0 -35 19.5 -53.5t51.5 -18.5q47 0 90 30l4 -5v-75q-45 -50 -111 -50q-53 0 -89.5 33.5t-36.5 93.5q0 46 25 89.5t96 124.5v2q-32 13 -58 43t-38 77q-46 -70 -89 -99.5t-104 -29.5q-59 0 -111 29.5t-83 80
t-31 111.5q0 69 47.5 114.5t155.5 71.5l201 47l6 119q5 99 -37 150.5t-131 51.5q-77 0 -135.5 -42.5t-113.5 -137.5l-24 26q71 143 154.5 209.5t181.5 66.5q69 0 124 -30.5t86.5 -96t29.5 -166.5l-8 -376q-1 -62 15 -89.5t48 -27.5q30 0 52.5 20t42.5 60zM444 119
q27 38 25 119l-2 145l-73 -17q-78 -17 -118 -33.5t-55.5 -38t-15.5 -56.5q0 -44 20 -79.5t55 -56.5t79 -21q58 0 85 38z" />
    <glyph glyph-name="Cacute" unicode="&#x106;" horiz-adv-x="1007" 
d="M964 526q-47 -281 -152 -414.5t-284 -133.5q-131 0 -234 77.5t-160.5 219t-57.5 326.5q0 192 60.5 345.5t162 239.5t218.5 86q84 0 148.5 -41t118.5 -123l65 144h27v-423h-36q-78 183 -171.5 260t-199.5 77q-82 0 -145.5 -51t-100 -156.5t-36.5 -262.5q0 -171 52.5 -305
t145.5 -209t210 -75q131 0 209 111t113 319zM547 1588h179l-196 -251h-39z" />
    <glyph glyph-name="cacute" unicode="&#x107;" horiz-adv-x="707" 
d="M264.5 759q-40.5 -35 -63 -103t-22.5 -164q0 -118 35 -204.5t95 -132t134 -45.5q71 0 120.5 50.5t73.5 139.5l39 -12q-75 -310 -297 -310q-95 0 -168 55.5t-112.5 152t-39.5 216.5q0 143 48.5 250.5t129 165t173.5 57.5q74 0 135.5 -40.5t100.5 -117.5l-72 -73h-14
q-89 150 -202 150q-53 0 -93.5 -35zM401 953h-38l111 342h153z" />
    <glyph glyph-name="Ccircumflex" unicode="&#x108;" horiz-adv-x="1007" 
d="M964 526q-47 -281 -152 -414.5t-284 -133.5q-131 0 -234 77.5t-160.5 219t-57.5 326.5q0 192 60.5 345.5t162 239.5t218.5 86q84 0 148.5 -41t118.5 -123l65 144h27v-423h-36q-78 183 -171.5 260t-199.5 77q-82 0 -145.5 -51t-100 -156.5t-36.5 -262.5q0 -171 52.5 -305
t145.5 -209t210 -75q131 0 209 111t113 319zM604 1588l122 -251h-37l-217 189l-104 -189h-66l123 251h179z" />
    <glyph glyph-name="ccircumflex" unicode="&#x109;" horiz-adv-x="707" 
d="M264.5 759q-40.5 -35 -63 -103t-22.5 -164q0 -118 35 -204.5t95 -132t134 -45.5q71 0 120.5 50.5t73.5 139.5l39 -12q-75 -310 -297 -310q-95 0 -168 55.5t-112.5 152t-39.5 216.5q0 143 48.5 250.5t129 165t173.5 57.5q74 0 135.5 -40.5t100.5 -117.5l-72 -73h-14
q-89 150 -202 150q-53 0 -93.5 -35zM444 1295l181 -342h-50l-214 233l-130 -233h-66l181 342h98z" />
    <glyph glyph-name="Cdotaccent" unicode="&#x10a;" horiz-adv-x="1007" 
d="M964 526q-47 -281 -152 -414.5t-284 -133.5q-131 0 -234 77.5t-160.5 219t-57.5 326.5q0 192 60.5 345.5t162 239.5t218.5 86q84 0 148.5 -41t118.5 -123l65 144h27v-423h-36q-78 183 -171.5 260t-199.5 77q-82 0 -145.5 -51t-100 -156.5t-36.5 -262.5q0 -171 52.5 -305
t145.5 -209t210 -75q131 0 209 111t113 319zM441 1387.5q-31 31.5 -31 73.5q0 43 31 74t73 31q43 0 74 -31t31 -74q0 -42 -31 -73.5t-74 -31.5q-42 0 -73 31.5z" />
    <glyph glyph-name="cdotaccent" unicode="&#x10b;" horiz-adv-x="707" 
d="M264.5 759q-40.5 -35 -63 -103t-22.5 -164q0 -118 35 -204.5t95 -132t134 -45.5q71 0 120.5 50.5t73.5 139.5l39 -12q-75 -310 -297 -310q-95 0 -168 55.5t-112.5 152t-39.5 216.5q0 143 48.5 250.5t129 165t173.5 57.5q74 0 135.5 -40.5t100.5 -117.5l-72 -73h-14
q-89 150 -202 150q-53 0 -93.5 -35zM321 1030.5q-31 31.5 -31 74.5t31 74t74 31t74.5 -31t31.5 -74t-31.5 -74.5t-74.5 -31.5t-74 31.5z" />
    <glyph glyph-name="Ccaron" unicode="&#x10c;" horiz-adv-x="1007" 
d="M964 526q-47 -281 -152 -414.5t-284 -133.5q-131 0 -234 77.5t-160.5 219t-57.5 326.5q0 192 60.5 345.5t162 239.5t218.5 86q84 0 148.5 -41t118.5 -123l65 144h27v-423h-36q-78 183 -171.5 260t-199.5 77q-82 0 -145.5 -51t-100 -156.5t-36.5 -262.5q0 -171 52.5 -305
t145.5 -209t210 -75q131 0 209 111t113 319zM472 1397l217 189h37l-122 -251h-179l-123 251h66z" />
    <glyph glyph-name="ccaron" unicode="&#x10d;" horiz-adv-x="707" 
d="M264.5 759q-40.5 -35 -63 -103t-22.5 -164q0 -118 35 -204.5t95 -132t134 -45.5q71 0 120.5 50.5t73.5 139.5l39 -12q-75 -310 -297 -310q-95 0 -168 55.5t-112.5 152t-39.5 216.5q0 143 48.5 250.5t129 165t173.5 57.5q74 0 135.5 -40.5t100.5 -117.5l-72 -73h-14
q-89 150 -202 150q-53 0 -93.5 -35zM429 1059l131 236h65l-181 -342h-97l-182 342h50z" />
    <glyph glyph-name="Dcaron" unicode="&#x10e;" horiz-adv-x="1136" 
d="M55 0v51h146v1148h-146v51h334q212 0 363 -70.5t230 -205.5t79 -324q0 -201 -72.5 -347t-212.5 -224.5t-337 -78.5h-384zM790.5 199.5q112.5 144.5 112.5 415.5q0 580 -516 580h-45v-1064q0 -43 26 -59.5t90 -16.5q220 0 332.5 144.5zM489 1397l217 189h37l-122 -251
h-179l-123 251h66z" />
    <glyph glyph-name="dcaron" unicode="&#x10f;" horiz-adv-x="876" 
d="M713 220q0 -55 11 -84t41.5 -43t91.5 -19v-32l-250 -58l-9 3l-17 172q-55 -97 -113 -139t-123 -42q-79 0 -144 48.5t-103.5 143t-38.5 225.5q0 156 54.5 264.5t140.5 162t180 53.5q77 0 144 -38v215q0 41 -5 60t-18.5 29t-44.5 19l-72 21v28l263 91h20l-8 -215v-865z
M534 161q44 53 44 170v349q-97 122 -199 122q-87 0 -139 -77t-52 -227q0 -123 31 -211t84.5 -133.5t119.5 -45.5q67 0 111 53zM825 1285h150l-153 -382h-32z" />
    <glyph glyph-name="Dcroat" unicode="&#x110;" horiz-adv-x="1139" 
d="M391 1250q212 0 363.5 -70.5t230.5 -205.5t79 -324q0 -201 -72.5 -347t-212.5 -224.5t-337 -78.5h-384v51h145v557h-126v52h126v539h-145v51h333zM793 199.5q113 144.5 113 415.5q0 580 -516 580h-46v-535h278v-52h-278v-477q0 -43 26 -59.5t90 -16.5q220 0 333 144.5z
" />
    <glyph glyph-name="dcroat" unicode="&#x111;" horiz-adv-x="870" 
d="M713 220q0 -55 11 -84t41.5 -43t91.5 -19v-32l-250 -58l-9 3l-17 172q-55 -97 -113 -139t-123 -42q-79 0 -144 48.5t-103.5 143t-38.5 225.5q0 156 54.5 264.5t140.5 162t180 53.5q77 0 144 -38v155h-252v44h252v16q0 41 -5 60t-18.5 29t-44.5 19l-72 21v28l263 91h20
l-8 -215v-49h119v-44h-119v-772zM534 161q44 53 44 170v349q-97 122 -199 122q-87 0 -139 -77t-52 -227q0 -123 31 -211t84.5 -133.5t119.5 -45.5q67 0 111 53z" />
    <glyph glyph-name="Emacron" unicode="&#x112;" horiz-adv-x="1001" 
d="M921 425v-425h-867v51h148v1148h-148v51h817v-395h-46q-17 140 -48.5 211.5t-98 102t-192.5 30.5h-145v-525h68q94 0 139 18t61.5 57.5t20.5 118.5h49v-469h-49q-4 89 -20.5 134t-62 66.5t-138.5 21.5h-68v-436q0 -59 11 -85.5t43 -36.5t104 -10h112q90 0 138.5 27.5
t77 105.5t49.5 239h45zM778 1374h-529v60h529v-60z" />
    <glyph glyph-name="emacron" unicode="&#x113;" horiz-adv-x="747" 
d="M718 314q-63 -186 -143.5 -261.5t-186.5 -75.5q-99 0 -173.5 52.5t-115 149t-40.5 226.5q0 137 46 244.5t123.5 166.5t168.5 59q77 0 138 -40.5t96.5 -125.5t35.5 -215h-490q1 -118 33 -205.5t90 -135t135 -47.5q79 0 141.5 55.5t103.5 167.5zM237.5 730.5
q-50.5 -66.5 -58.5 -183.5l359 3q-6 121 -51 184t-123 63q-76 0 -126.5 -66.5zM620 1012h-458v59h458v-59z" />
    <glyph glyph-name="Ebreve" unicode="&#x114;" horiz-adv-x="1001" 
d="M921 425v-425h-867v51h148v1148h-148v51h817v-395h-46q-17 140 -48.5 211.5t-98 102t-192.5 30.5h-145v-525h68q94 0 139 18t61.5 57.5t20.5 118.5h49v-469h-49q-4 89 -20.5 134t-62 66.5t-138.5 21.5h-68v-436q0 -59 11 -85.5t43 -36.5t104 -10h112q90 0 138.5 27.5
t77 105.5t49.5 239h45zM721 1589q-15 -127 -68.5 -190.5t-139.5 -63.5q-85 0 -138.5 63.5t-68.5 190.5h42l10 -37q13 -55 54.5 -81.5t100.5 -26.5q61 0 102 26.5t54 81.5l9 37h43z" />
    <glyph glyph-name="ebreve" unicode="&#x115;" horiz-adv-x="747" 
d="M718 314q-63 -186 -143.5 -261.5t-186.5 -75.5q-99 0 -173.5 52.5t-115 149t-40.5 226.5q0 137 46 244.5t123.5 166.5t168.5 59q77 0 138 -40.5t96.5 -125.5t35.5 -215h-490q1 -118 33 -205.5t90 -135t135 -47.5q79 0 141.5 55.5t103.5 167.5zM237.5 730.5
q-50.5 -66.5 -58.5 -183.5l359 3q-6 121 -51 184t-123 63q-76 0 -126.5 -66.5zM622 1295q-17 -174 -77 -260t-154 -86t-154 86t-76 260h42l10 -37q20 -100 66 -147t112 -47q139 0 179 194l9 37h43z" />
    <glyph glyph-name="Edotaccent" unicode="&#x116;" horiz-adv-x="1001" 
d="M921 425v-425h-867v51h148v1148h-148v51h817v-395h-46q-17 140 -48.5 211.5t-98 102t-192.5 30.5h-145v-525h68q94 0 139 18t61.5 57.5t20.5 118.5h49v-469h-49q-4 89 -20.5 134t-62 66.5t-138.5 21.5h-68v-436q0 -59 11 -85.5t43 -36.5t104 -10h112q90 0 138.5 27.5
t77 105.5t49.5 239h45zM440 1387.5q-31 31.5 -31 73.5q0 43 31 74t73 31q43 0 74 -31t31 -74q0 -42 -31 -73.5t-74 -31.5q-42 0 -73 31.5z" />
    <glyph glyph-name="edotaccent" unicode="&#x117;" horiz-adv-x="747" 
d="M718 314q-63 -186 -143.5 -261.5t-186.5 -75.5q-99 0 -173.5 52.5t-115 149t-40.5 226.5q0 137 46 244.5t123.5 166.5t168.5 59q77 0 138 -40.5t96.5 -125.5t35.5 -215h-490q1 -118 33 -205.5t90 -135t135 -47.5q79 0 141.5 55.5t103.5 167.5zM237.5 730.5
q-50.5 -66.5 -58.5 -183.5l359 3q-6 121 -51 184t-123 63q-76 0 -126.5 -66.5zM317 1030.5q-31 31.5 -31 74.5t31 74t74 31t74.5 -31t31.5 -74t-31.5 -74.5t-74.5 -31.5t-74 31.5z" />
    <glyph glyph-name="Eogonek" unicode="&#x118;" horiz-adv-x="1001" 
d="M921 0q-97 -54 -136.5 -96t-39.5 -88q0 -37 20 -56t57 -19q46 0 85 27l5 -5v-75q-51 -46 -113 -46q-58 0 -96 34t-38 95q0 48 29.5 96.5t106.5 110.5v22h-747v51h148v1148h-148v51h817v-395h-46q-17 140 -48.5 211.5t-98 102t-192.5 30.5h-145v-525h68q94 0 139 18
t61.5 57.5t20.5 118.5h49v-469h-49q-4 89 -20.5 134t-62 66.5t-138.5 21.5h-68v-436q0 -59 11 -85.5t43 -36.5t104 -10h112q90 0 138.5 27.5t77 105.5t49.5 239h45v-425z" />
    <glyph glyph-name="eogonek" unicode="&#x119;" horiz-adv-x="747" 
d="M371.5 -97.5q-36.5 -42.5 -36.5 -86.5q0 -35 19.5 -53.5t51.5 -18.5q48 0 89 30l5 -5v-75q-45 -50 -111 -50q-53 0 -89.5 33.5t-36.5 93.5q0 45 23.5 86.5t90.5 119.5q-96 3 -168 56t-111 149t-39 223q0 137 46 244.5t123.5 166.5t168.5 59q77 0 138 -40.5t96.5 -125.5
t35.5 -215h-490q1 -118 33 -205.5t90 -135t135 -47.5q79 0 141.5 55.5t103.5 167.5l38 -15q-47 -137 -103 -213t-124 -105q-83 -51 -119.5 -93.5zM237.5 730.5q-50.5 -66.5 -58.5 -183.5l359 3q-6 121 -51 184t-123 63q-76 0 -126.5 -66.5z" />
    <glyph glyph-name="Ecaron" unicode="&#x11a;" horiz-adv-x="1001" 
d="M921 425v-425h-867v51h148v1148h-148v51h817v-395h-46q-17 140 -48.5 211.5t-98 102t-192.5 30.5h-145v-525h68q94 0 139 18t61.5 57.5t20.5 118.5h49v-469h-49q-4 89 -20.5 134t-62 66.5t-138.5 21.5h-68v-436q0 -59 11 -85.5t43 -36.5t104 -10h112q90 0 138.5 27.5
t77 105.5t49.5 239h45zM471 1397l217 189h37l-122 -251h-179l-123 251h66z" />
    <glyph glyph-name="ecaron" unicode="&#x11b;" horiz-adv-x="747" 
d="M718 314q-63 -186 -143.5 -261.5t-186.5 -75.5q-99 0 -173.5 52.5t-115 149t-40.5 226.5q0 137 46 244.5t123.5 166.5t168.5 59q77 0 138 -40.5t96.5 -125.5t35.5 -215h-490q1 -118 33 -205.5t90 -135t135 -47.5q79 0 141.5 55.5t103.5 167.5zM237.5 730.5
q-50.5 -66.5 -58.5 -183.5l359 3q-6 121 -51 184t-123 63q-76 0 -126.5 -66.5zM425 1059l131 236h65l-181 -342h-97l-182 342h50z" />
    <glyph glyph-name="Gcircumflex" unicode="&#x11c;" horiz-adv-x="1067" 
d="M1021 576v-58h-92v-530h-34l-76 252q-44 -144 -118.5 -203t-174.5 -59q-126 0 -228.5 76t-162 220t-59.5 341q0 185 60.5 335t165.5 236t233 86q83 0 156.5 -41t127.5 -121l65 150h27v-429h-37q-68 168 -167.5 251.5t-216.5 83.5q-143 0 -222.5 -118t-79.5 -341
q0 -181 52 -316t143.5 -208t207.5 -73q92 0 146 67.5t54 216.5v124h-163v58h393zM613 1588l122 -251h-37l-217 189l-104 -189h-66l123 251h179z" />
    <glyph glyph-name="gcircumflex" unicode="&#x11d;" horiz-adv-x="776" 
d="M771 853v-59l-204 9q47 -39 74 -94t27 -124q0 -101 -73.5 -179t-219.5 -119l-100 -23q-85 -23 -115 -36.5t-30 -34.5q0 -20 44 -34.5t131 -18.5l202 -8q131 -6 195.5 -46.5t64.5 -122.5q0 -84 -57.5 -166.5t-157 -135.5t-218.5 -53q-89 0 -160.5 25.5t-112 71.5
t-40.5 104q0 60 46.5 114t151.5 115q-71 35 -107.5 72.5t-36.5 69.5q0 25 16 46.5t50.5 46.5t104.5 67q-88 30 -132 96t-44 146t38 147t104.5 106.5t149.5 39.5q62 0 118 -22h291zM488.5 406.5q38.5 51.5 38.5 154.5q0 74 -22 133t-62.5 93t-92.5 34q-65 0 -101.5 -54.5
t-36.5 -150.5q0 -75 21.5 -134t60.5 -93t90 -34q66 0 104.5 51.5zM242 13q-59 -34 -84.5 -70t-25.5 -81t32 -80.5t91.5 -55t138.5 -19.5q84 0 148.5 22.5t100.5 64.5t36 97q0 64 -67.5 97.5t-199.5 33.5q-82 0 -170 -9zM414 1295l181 -342h-50l-214 233l-130 -233h-66
l181 342h98z" />
    <glyph glyph-name="Gbreve" unicode="&#x11e;" horiz-adv-x="1067" 
d="M1021 576v-58h-92v-530h-34l-76 252q-44 -144 -118.5 -203t-174.5 -59q-126 0 -228.5 76t-162 220t-59.5 341q0 185 60.5 335t165.5 236t233 86q83 0 156.5 -41t127.5 -121l65 150h27v-429h-37q-68 168 -167.5 251.5t-216.5 83.5q-143 0 -222.5 -118t-79.5 -341
q0 -181 52 -316t143.5 -208t207.5 -73q92 0 146 67.5t54 216.5v124h-163v58h393zM731 1589q-15 -127 -68.5 -190.5t-139.5 -63.5q-85 0 -138.5 63.5t-68.5 190.5h42l10 -37q13 -55 54.5 -81.5t100.5 -26.5q61 0 102 26.5t54 81.5l9 37h43z" />
    <glyph glyph-name="gbreve" unicode="&#x11f;" horiz-adv-x="776" 
d="M771 853v-59l-204 9q47 -39 74 -94t27 -124q0 -101 -73.5 -179t-219.5 -119l-100 -23q-85 -23 -115 -36.5t-30 -34.5q0 -20 44 -34.5t131 -18.5l202 -8q131 -6 195.5 -46.5t64.5 -122.5q0 -84 -57.5 -166.5t-157 -135.5t-218.5 -53q-89 0 -160.5 25.5t-112 71.5
t-40.5 104q0 60 46.5 114t151.5 115q-71 35 -107.5 72.5t-36.5 69.5q0 25 16 46.5t50.5 46.5t104.5 67q-88 30 -132 96t-44 146t38 147t104.5 106.5t149.5 39.5q62 0 118 -22h291zM488.5 406.5q38.5 51.5 38.5 154.5q0 74 -22 133t-62.5 93t-92.5 34q-65 0 -101.5 -54.5
t-36.5 -150.5q0 -75 21.5 -134t60.5 -93t90 -34q66 0 104.5 51.5zM242 13q-59 -34 -84.5 -70t-25.5 -81t32 -80.5t91.5 -55t138.5 -19.5q84 0 148.5 22.5t100.5 64.5t36 97q0 64 -67.5 97.5t-199.5 33.5q-82 0 -170 -9zM596 1295q-17 -174 -77 -260t-154 -86t-154 86
t-76 260h42l10 -37q20 -100 66 -147t112 -47q139 0 179 194l9 37h43z" />
    <glyph glyph-name="Gdotaccent" unicode="&#x120;" horiz-adv-x="1067" 
d="M1021 576v-58h-92v-530h-34l-76 252q-44 -144 -118.5 -203t-174.5 -59q-126 0 -228.5 76t-162 220t-59.5 341q0 185 60.5 335t165.5 236t233 86q83 0 156.5 -41t127.5 -121l65 150h27v-429h-37q-68 168 -167.5 251.5t-216.5 83.5q-143 0 -222.5 -118t-79.5 -341
q0 -181 52 -316t143.5 -208t207.5 -73q92 0 146 67.5t54 216.5v124h-163v58h393zM450 1387.5q-31 31.5 -31 73.5q0 43 31 74t73 31q43 0 74 -31t31 -74q0 -42 -31 -73.5t-74 -31.5q-42 0 -73 31.5z" />
    <glyph glyph-name="gdotaccent" unicode="&#x121;" horiz-adv-x="776" 
d="M771 853v-59l-204 9q47 -39 74 -94t27 -124q0 -101 -73.5 -179t-219.5 -119l-100 -23q-85 -23 -115 -36.5t-30 -34.5q0 -20 44 -34.5t131 -18.5l202 -8q131 -6 195.5 -46.5t64.5 -122.5q0 -84 -57.5 -166.5t-157 -135.5t-218.5 -53q-89 0 -160.5 25.5t-112 71.5
t-40.5 104q0 60 46.5 114t151.5 115q-71 35 -107.5 72.5t-36.5 69.5q0 25 16 46.5t50.5 46.5t104.5 67q-88 30 -132 96t-44 146t38 147t104.5 106.5t149.5 39.5q62 0 118 -22h291zM488.5 406.5q38.5 51.5 38.5 154.5q0 74 -22 133t-62.5 93t-92.5 34q-65 0 -101.5 -54.5
t-36.5 -150.5q0 -75 21.5 -134t60.5 -93t90 -34q66 0 104.5 51.5zM242 13q-59 -34 -84.5 -70t-25.5 -81t32 -80.5t91.5 -55t138.5 -19.5q84 0 148.5 22.5t100.5 64.5t36 97q0 64 -67.5 97.5t-199.5 33.5q-82 0 -170 -9zM291 1030.5q-31 31.5 -31 74.5t31 74t74 31t74.5 -31
t31.5 -74t-31.5 -74.5t-74.5 -31.5t-74 31.5z" />
    <glyph glyph-name="uni0122" unicode="&#x122;" horiz-adv-x="1067" 
d="M1021 576v-58h-92v-530h-34l-76 252q-44 -144 -118.5 -203t-174.5 -59q-126 0 -228.5 76t-162 220t-59.5 341q0 185 60.5 335t165.5 236t233 86q83 0 156.5 -41t127.5 -121l65 150h27v-429h-37q-68 168 -167.5 251.5t-216.5 83.5q-143 0 -222.5 -118t-79.5 -341
q0 -181 52 -316t143.5 -208t207.5 -73q92 0 146 67.5t54 216.5v124h-163v58h393zM457 -423q73 23 105.5 55t32.5 68q0 27 -31 51t-94 40l41 110q88 -24 135 -67.5t47 -98.5q0 -61 -53 -118.5t-165 -94.5z" />
    <glyph glyph-name="uni0123" unicode="&#x123;" horiz-adv-x="776" 
d="M771 853v-59l-204 9q47 -39 74 -94t27 -124q0 -101 -73.5 -179t-219.5 -119l-100 -23q-85 -23 -115 -36.5t-30 -34.5q0 -20 44 -34.5t131 -18.5l202 -8q131 -6 195.5 -46.5t64.5 -122.5q0 -84 -57.5 -166.5t-157 -135.5t-218.5 -53q-89 0 -160.5 25.5t-112 71.5
t-40.5 104q0 60 46.5 114t151.5 115q-71 35 -107.5 72.5t-36.5 69.5q0 25 16 46.5t50.5 46.5t104.5 67q-88 30 -132 96t-44 146t38 147t104.5 106.5t149.5 39.5q62 0 118 -22h291zM488.5 406.5q38.5 51.5 38.5 154.5q0 74 -22 133t-62.5 93t-92.5 34q-65 0 -101.5 -54.5
t-36.5 -150.5q0 -75 21.5 -134t60.5 -93t90 -34q66 0 104.5 51.5zM242 13q-59 -34 -84.5 -70t-25.5 -81t32 -80.5t91.5 -55t138.5 -19.5q84 0 148.5 22.5t100.5 64.5t36 97q0 64 -67.5 97.5t-199.5 33.5q-82 0 -170 -9zM426 949q-85 22 -129 67.5t-44 101.5q0 65 56 113
t167 62l4 -45q-72 -8 -104.5 -33t-32.5 -58t28 -56.5t83 -35.5z" />
    <glyph glyph-name="Hcircumflex" unicode="&#x124;" horiz-adv-x="1187" 
d="M1133 1250v-51h-148v-1148h148v-51h-434v51h145v557h-501v-557h145v-51h-434v51h148v1148h-148v51h434v-51h-145v-528h501v528h-145v51h434zM684 1588l122 -251h-37l-217 189l-104 -189h-66l123 251h179z" />
    <glyph glyph-name="hcircumflex" unicode="&#x125;" horiz-adv-x="917" 
d="M30 0v48h120v1017q0 46 -12.5 64t-47.5 30l-80 22v28l263 91h20l-8 -254v-177l-14 -196l12 -1q44 103 112.5 153t152.5 50q63 0 113 -31.5t79 -89t29 -131.5v-575h120v-48h-366v48h111v539q0 85 -41.5 127.5t-118.5 42.5q-96 0 -142.5 -67.5t-46.5 -192.5v-449h111v-48
h-366zM273 1588l122 -251h-37l-217 189l-104 -189h-66l123 251h179z" />
    <glyph glyph-name="Hbar" unicode="&#x126;" horiz-adv-x="1187" 
d="M1133 1250v-51h-148v-240h126v-49h-126v-859h148v-51h-434v51h145v557h-501v-557h145v-51h-434v51h148v859h-123v49h123v240h-148v51h434v-51h-145v-240h501v240h-145v51h434zM343 671h501v239h-501v-239z" />
    <glyph glyph-name="hbar" unicode="&#x127;" horiz-adv-x="917" 
d="M769 48h120v-48h-366v48h111v539q0 85 -41.5 127.5t-118.5 42.5q-96 0 -142.5 -67.5t-46.5 -192.5v-449h111v-48h-366v48h120v944h-119v44h119v29q0 46 -12.5 64t-47.5 30l-80 22v28l263 91h20l-8 -254v-10h252v-44h-252v-123l-14 -196l12 -1q44 103 112.5 153t152.5 50
q63 0 113 -31.5t79 -89t29 -131.5v-575z" />
    <glyph glyph-name="Itilde" unicode="&#x128;" horiz-adv-x="544" 
d="M343 1199v-1148h148v-51h-437v51h148v1148h-148v51h437v-51h-148zM15 1333q18 101 54.5 148t102.5 47q31 0 59 -8.5t69 -25.5q38 -15 61.5 -22.5t48.5 -7.5q35 0 57 19t32 61l35 -6q-35 -184 -154 -184q-26 0 -51 7.5t-62 23.5q-39 16 -65.5 24.5t-55.5 8.5
q-39 0 -61 -21t-36 -68z" />
    <glyph glyph-name="itilde" unicode="&#x129;" horiz-adv-x="461" 
d="M308 48h118v-48h-371v48h118v582q0 41 -5 60t-18.5 28.5t-44.5 19.5l-72 21v28l265 88h20l-10 -254v-573zM9 988q14 81 46.5 120t84.5 39q29 0 54 -7t57 -21q33 -14 54 -20t45 -6q29 0 46 15.5t27 53.5l33 -6q-32 -160 -132 -160q-27 0 -49.5 7t-54.5 21q-34 14 -54 20
t-44 6q-32 0 -50 -15.5t-30 -50.5z" />
    <glyph glyph-name="Imacron" unicode="&#x12a;" horiz-adv-x="544" 
d="M343 1199v-1148h148v-51h-437v51h148v1148h-148v51h437v-51h-148zM537 1374h-529v60h529v-60z" />
    <glyph glyph-name="imacron" unicode="&#x12b;" horiz-adv-x="461" 
d="M308 48h118v-48h-371v48h118v582q0 41 -5 60t-18.5 28.5t-44.5 19.5l-72 21v28l265 88h20l-10 -254v-573zM459 1012h-458v59h458v-59z" />
    <glyph glyph-name="Ibreve" unicode="&#x12c;" horiz-adv-x="544" 
d="M343 1199v-1148h148v-51h-437v51h148v1148h-148v51h437v-51h-148zM480 1589q-15 -127 -68.5 -190.5t-139.5 -63.5q-85 0 -138.5 63.5t-68.5 190.5h42l10 -37q13 -55 54.5 -81.5t100.5 -26.5q61 0 102 26.5t54 81.5l9 37h43z" />
    <glyph glyph-name="ibreve" unicode="&#x12d;" horiz-adv-x="461" 
d="M308 48h118v-48h-371v48h118v582q0 41 -5 60t-18.5 28.5t-44.5 19.5l-72 21v28l265 88h20l-10 -254v-573zM461 1295q-17 -174 -77 -260t-154 -86t-154 86t-76 260h42l10 -37q20 -100 66 -147t112 -47q139 0 179 194l9 37h43z" />
    <glyph glyph-name="Iogonek" unicode="&#x12e;" horiz-adv-x="544" 
d="M343 51h148v-51q-97 -54 -136.5 -96t-39.5 -88q0 -37 20 -56t56 -19q48 0 85 27l5 -5v-75q-51 -46 -113 -46q-57 0 -95.5 34t-38.5 95q0 48 30 96.5t107 110.5v22h-317v51h148v1148h-148v51h437v-51h-148v-1148z" />
    <glyph glyph-name="iogonek" unicode="&#x12f;" horiz-adv-x="461" 
d="M153 1040.5q-33 32.5 -33 78.5q0 45 33 78t78 33q46 0 78.5 -33t32.5 -78q0 -46 -32.5 -78.5t-78.5 -32.5q-45 0 -78 32.5zM426 0q-104 -54 -147.5 -94.5t-43.5 -89.5q0 -35 19 -53.5t51 -18.5q47 0 90 30l5 -5v-75q-45 -50 -111 -50q-53 0 -89.5 33.5t-36.5 93.5
q0 48 31.5 100t119.5 129h-259v48h118v582q0 41 -5 60t-18.5 28.5t-44.5 19.5l-72 21v28l265 88h20l-10 -254v-573h118v-48z" />
    <glyph glyph-name="Idotaccent" unicode="&#x130;" horiz-adv-x="544" 
d="M343 1199v-1148h148v-51h-437v51h148v1148h-148v51h437v-51h-148zM199 1387.5q-31 31.5 -31 73.5q0 43 31 74t73 31q43 0 74 -31t31 -74q0 -42 -31 -73.5t-74 -31.5q-42 0 -73 31.5z" />
    <glyph glyph-name="dotlessi" unicode="&#x131;" horiz-adv-x="461" 
d="M308 48h118v-48h-371v48h118v582q0 41 -5 60t-18.5 28.5t-44.5 19.5l-72 21v28l265 88h20l-10 -254v-573z" />
    <glyph glyph-name="IJ" unicode="&#x132;" horiz-adv-x="1059" 
d="M343 1199v-1148h148v-51h-437v51h148v1148h-148v51h437v-51h-148zM1019 1199h-153v-1042q0 -113 -19 -175t-91.5 -125.5t-236.5 -150.5l-18 37q104 65 149 109.5t60.5 100.5t15.5 163v1083h-156v51h449v-51z" />
    <glyph glyph-name="ij" unicode="&#x133;" horiz-adv-x="857" 
d="M153 1040.5q-33 32.5 -33 78.5q0 45 33 78t78 33q46 0 78.5 -33t32.5 -78q0 -46 -32.5 -78.5t-78.5 -32.5q-45 0 -78 32.5zM308 48h118v-48h-371v48h118v582q0 41 -5 60t-18.5 28.5t-44.5 19.5l-72 21v28l265 88h20l-10 -254v-573zM601 1024.5q-26 15.5 -41 40.5t-15 54
q0 45 33 78t78 33q28 0 53 -15t40.5 -41t15.5 -55q0 -28 -15.5 -53.5t-40.5 -41t-53 -15.5q-29 0 -55 15.5zM398 -243l12 3q64 -29 90 -38t47 -9t34 16q10 15 13.5 37.5t3.5 81.5v782q0 41 -5 60t-18.5 28.5t-44.5 19.5l-72 21v28l265 88h20l-10 -205v-732q0 -69 -39.5 -149
t-103.5 -134.5t-132 -54.5q-30 0 -55 8.5t-50 27.5z" />
    <glyph glyph-name="Jcircumflex" unicode="&#x134;" horiz-adv-x="527" 
d="M487 1199h-153v-1042q0 -113 -19 -175t-91.5 -125.5t-236.5 -150.5l-18 37q104 65 149 109.5t60.5 100.5t15.5 163v1083h-156v51h449v-51zM366 1588l122 -251h-37l-217 189l-104 -189h-66l123 251h179z" />
    <glyph glyph-name="jcircumflex" unicode="&#x135;" horiz-adv-x="422" 
d="M-37 -243l12 3q64 -29 90 -38t47 -9t34 16q10 15 13.5 37.5t3.5 81.5v782q0 41 -5 60t-18.5 28.5t-44.5 19.5l-72 21v28l265 88h20l-10 -205v-732q0 -69 -39.5 -149t-103.5 -134.5t-132 -54.5q-30 0 -55 8.5t-50 27.5zM246 1295l181 -342h-50l-214 233l-130 -233h-66
l181 342h98z" />
    <glyph glyph-name="uni0136" unicode="&#x136;" horiz-adv-x="1094" 
d="M967 51h127v-51h-412v51h130l-296 593l-174 -236v-357h143v-51h-430v51h146v1148h-146v51h430v-51h-143v-697l363 511q73 101 73 136q0 21 -15 32t-53 15l-56 5v49h386v-51h-115l-322 -436zM430 -423q73 23 105.5 55t32.5 68q0 27 -31 51t-94 40l41 110q88 -24 135 -67.5
t47 -98.5q0 -61 -53 -118.5t-165 -94.5z" />
    <glyph glyph-name="uni0137" unicode="&#x137;" horiz-adv-x="861" 
d="M778 49h81v-49h-351v49h112l-208 384l-128 -140v-245h111v-48h-364v48h118v1004q0 41 -5 60t-18.5 29t-44.5 19l-72 21v28l263 91h20l-8 -222v-696l218 245q81 90 81 124q0 17 -11.5 28t-42.5 17l-79 16v41h378v-50h-81l-243 -268zM316 -371q72 8 104.5 33t32.5 58
t-28 56.5t-83 35.5l28 116q85 -22 129.5 -67.5t44.5 -102.5q0 -64 -56.5 -112t-166.5 -62z" />
    <glyph glyph-name="kgreenlandic" unicode="&#x138;" horiz-adv-x="883" 
d="M800 49h82v-49h-352v49h112l-208 384l-127 -140v-245h110v-48h-363v48h118v580q0 41 -5 60t-18.5 28.5t-44.5 18.5l-72 21v28l263 91h20l-8 -221v-272l217 245q82 91 82 124q0 17 -11.5 28t-43.5 17l-79 16v41h378v-50h-80l-244 -268z" />
    <glyph glyph-name="Lacute" unicode="&#x139;" horiz-adv-x="958" 
d="M342 185q0 -56 10.5 -83t40.5 -38t93 -11h128q78 0 122 31.5t71.5 113t47.5 243.5h47v-441h-846v51h145v1148h-145v51h431v-51h-145v-1014zM308 1588h179l-196 -251h-39z" />
    <glyph glyph-name="lacute" unicode="&#x13a;" horiz-adv-x="440" 
d="M287 48h118v-48h-371v48h118v1004q0 41 -5 60t-18.5 29t-44.5 19l-72 21v28l263 91h20l-8 -222v-1030zM216 1341h-38l111 342h153z" />
    <glyph glyph-name="uni013B" unicode="&#x13b;" horiz-adv-x="958" 
d="M342 185q0 -56 10.5 -83t40.5 -38t93 -11h128q78 0 122 31.5t71.5 113t47.5 243.5h47v-441h-846v51h145v1148h-145v51h431v-51h-145v-1014zM428 -423q73 23 105.5 55t32.5 68q0 27 -31 51t-94 40l41 110q88 -24 135 -67.5t47 -98.5q0 -61 -53 -118.5t-165 -94.5z" />
    <glyph glyph-name="uni013C" unicode="&#x13c;" horiz-adv-x="440" 
d="M287 48h118v-48h-371v48h118v1004q0 41 -5 60t-18.5 29t-44.5 19l-72 21v28l263 91h20l-8 -222v-1030zM86 -371q72 8 104.5 33t32.5 58t-28 56.5t-83 35.5l28 116q85 -22 129.5 -67.5t44.5 -102.5q0 -64 -56.5 -112t-166.5 -62z" />
    <glyph glyph-name="Lcaron" unicode="&#x13d;" horiz-adv-x="961" 
d="M342 185q0 -56 10.5 -83t40.5 -38t93 -11h128q78 0 122 31.5t71.5 113t47.5 243.5h47v-441h-846v51h145v1148h-145v51h431v-51h-145v-1014zM639 1250h150l-153 -382h-32z" />
    <glyph glyph-name="lcaron" unicode="&#x13e;" horiz-adv-x="440" 
d="M287 48h118v-48h-371v48h118v1004q0 41 -5 60t-18.5 29t-44.5 19l-72 21v28l263 91h20l-8 -222v-1030zM399 1289h150l-153 -382h-32z" />
    <glyph glyph-name="Ldot" unicode="&#x13f;" horiz-adv-x="977" 
d="M342 185q0 -56 10.5 -83t40.5 -38t93 -11h128q78 0 122 31.5t71.5 113t47.5 243.5h47v-441h-846v51h145v1148h-145v51h431v-51h-145v-1014zM677.5 702.5q-32.5 32.5 -32.5 76.5t32.5 76.5t76.5 32.5t76.5 -32.5t32.5 -76.5t-32.5 -76.5t-76.5 -32.5t-76.5 32.5z" />
    <glyph glyph-name="ldot" unicode="&#x140;" horiz-adv-x="542" 
d="M287 48h118v-48h-371v48h118v1004q0 41 -5 60t-18.5 29t-44.5 19l-72 21v28l263 91h20l-8 -222v-1030zM405.5 604.5q-32.5 32.5 -32.5 76.5t32.5 76.5t76.5 32.5t76.5 -32.5t32.5 -76.5t-32.5 -76.5t-76.5 -32.5t-76.5 32.5z" />
    <glyph glyph-name="Lslash" unicode="&#x141;" horiz-adv-x="972" 
d="M917 441v-441h-847v51h145v553l-128 -33v57l128 33v538h-145v51h431v-51h-145v-503l250 64v-56l-250 -64v-455q0 -56 10.5 -83t40.5 -38t93 -11h128q78 0 122 31.5t71.5 113t47.5 243.5h48z" />
    <glyph glyph-name="lslash" unicode="&#x142;" horiz-adv-x="464" 
d="M297 48h118v-48h-371v48h118v526l-95 -64v62l95 64v416q0 41 -5 60t-18.5 29t-44.5 19l-72 21v28l263 91h20l-8 -222v-362l114 78v-61l-114 -78v-607z" />
    <glyph glyph-name="Nacute" unicode="&#x143;" horiz-adv-x="1125" 
d="M694 1250h383v-51h-131l-5 -341v-858h-52l-619 988l11 -773q1 -68 10.5 -101t34.5 -47.5t77 -19.5l42 -4v-43h-382v51h131l5 328v635q0 65 -8 100.5t-27 54.5t-57 30l-56 15v36h220l528 -862l71 -126l-11 774q-1 68 -10.5 101t-34.5 47t-77 19l-43 4v43zM600 1588h179
l-196 -251h-39z" />
    <glyph glyph-name="nacute" unicode="&#x144;" horiz-adv-x="937" 
d="M351.5 688q-45.5 -69 -45.5 -185v-455h111v-48h-364v48h118v575q0 46 -15.5 70.5t-54.5 35.5l-68 17v28l253 93h20l-12 -194l9 -1q38 96 110.5 149.5t152.5 53.5q65 0 116 -29.5t79.5 -81t28.5 -116.5v-600h118v-48h-364v48h111v545q0 80 -42 122t-120 42
q-96 0 -141.5 -69zM507 953h-38l111 342h153z" />
    <glyph glyph-name="uni0145" unicode="&#x145;" horiz-adv-x="1125" 
d="M694 1250h383v-51h-131l-5 -341v-858h-52l-619 988l11 -773q1 -68 10.5 -101t34.5 -47.5t77 -19.5l42 -4v-43h-382v51h131l5 328v635q0 65 -8 100.5t-27 54.5t-57 30l-56 15v36h220l528 -862l71 -126l-11 774q-1 68 -10.5 101t-34.5 47t-77 19l-43 4v43zM452 -423
q73 23 105.5 55t32.5 68q0 27 -31 51t-94 40l41 110q88 -24 135 -67.5t47 -98.5q0 -61 -53 -118.5t-165 -94.5z" />
    <glyph glyph-name="uni0146" unicode="&#x146;" horiz-adv-x="937" 
d="M351.5 688q-45.5 -69 -45.5 -185v-455h111v-48h-364v48h118v575q0 46 -15.5 70.5t-54.5 35.5l-68 17v28l253 93h20l-12 -194l9 -1q38 96 110.5 149.5t152.5 53.5q65 0 116 -29.5t79.5 -81t28.5 -116.5v-600h118v-48h-364v48h111v545q0 80 -42 122t-120 42
q-96 0 -141.5 -69zM346 -371q72 8 104.5 33t32.5 58t-28 56.5t-83 35.5l28 116q85 -22 129.5 -67.5t44.5 -102.5q0 -64 -56.5 -112t-166.5 -62z" />
    <glyph glyph-name="Ncaron" unicode="&#x147;" horiz-adv-x="1125" 
d="M694 1250h383v-51h-131l-5 -341v-858h-52l-619 988l11 -773q1 -68 10.5 -101t34.5 -47.5t77 -19.5l42 -4v-43h-382v51h131l5 328v635q0 65 -8 100.5t-27 54.5t-57 30l-56 15v36h220l528 -862l71 -126l-11 774q-1 68 -10.5 101t-34.5 47t-77 19l-43 4v43zM525 1397
l217 189h37l-122 -251h-179l-123 251h66z" />
    <glyph glyph-name="ncaron" unicode="&#x148;" horiz-adv-x="937" 
d="M351.5 688q-45.5 -69 -45.5 -185v-455h111v-48h-364v48h118v575q0 46 -15.5 70.5t-54.5 35.5l-68 17v28l253 93h20l-12 -194l9 -1q38 96 110.5 149.5t152.5 53.5q65 0 116 -29.5t79.5 -81t28.5 -116.5v-600h118v-48h-364v48h111v545q0 80 -42 122t-120 42
q-96 0 -141.5 -69zM536 1059l131 236h65l-181 -342h-97l-182 342h50z" />
    <glyph glyph-name="Eng" unicode="&#x14a;" horiz-adv-x="1156" 
d="M732 1250h377v-51h-128l-9 -355v-710q0 -243 -78 -373.5t-232 -130.5h-101v114h94q222 0 238 307l-619 943l4 -783q0 -71 8.5 -102.5t31 -43.5t74.5 -18l44 -4v-43h-373v51h127l9 272v671q0 73 -8 113t-26 60.5t-51 29.5l-61 19v34h216l542 -840l84 -136l-2 765
q0 69 -9 101t-32.5 45t-76.5 18l-43 4v43z" />
    <glyph glyph-name="eng" unicode="&#x14b;" horiz-adv-x="908" 
d="M467 -391.5q-25 8.5 -49 27.5l40 120l16 4q63 -28 89.5 -37.5t47.5 -9.5q30 0 40.5 28t10.5 95v713q0 87 -41.5 133t-119.5 46q-96 0 -141.5 -69t-45.5 -185v-426h126v-48h-395v48h133v546q0 47 -15 71.5t-54 34.5l-68 17v28l253 94h20l-12 -195l9 -1q38 97 110 150
t152 53q66 0 117 -31.5t79.5 -88t28.5 -126.5v-662q0 -69 -39.5 -149t-104 -134.5t-132.5 -54.5q-30 0 -55 8.5z" />
    <glyph glyph-name="Omacron" unicode="&#x14c;" horiz-adv-x="1103" 
d="M311 62.5q-110 84.5 -173.5 230t-63.5 319.5q0 186 63 336.5t172.5 237t242.5 86.5q134 0 243 -82.5t171.5 -226.5t62.5 -320q0 -185 -63 -337.5t-172.5 -240t-241.5 -87.5q-131 0 -241 84.5zM757 126q66 59 101.5 169.5t35.5 261.5q0 164 -53.5 308.5t-143.5 231
t-194 86.5q-92 0 -158 -58t-100.5 -168t-34.5 -264q0 -159 54.5 -304t144.5 -233.5t191 -88.5q91 0 157 59zM816 1374h-529v60h529v-60z" />
    <glyph glyph-name="omacron" unicode="&#x14d;" horiz-adv-x="856" 
d="M618 813.5q85 -61.5 133 -164.5t48 -221q0 -120 -46.5 -223.5t-131.5 -165.5t-194 -62q-105 0 -189.5 61.5t-132.5 164.5t-48 222t46.5 222t131 165.5t192.5 62.5q106 0 191 -61.5zM308.5 771.5q-45.5 -38.5 -70.5 -112.5t-25 -178q0 -136 28.5 -235t80 -151t118.5 -52
q60 0 105.5 37.5t71 111t25.5 178.5q0 211 -59.5 325.5t-168.5 114.5q-60 0 -105.5 -38.5zM659 1012h-458v59h458v-59z" />
    <glyph glyph-name="Obreve" unicode="&#x14e;" horiz-adv-x="1103" 
d="M311 62.5q-110 84.5 -173.5 230t-63.5 319.5q0 186 63 336.5t172.5 237t242.5 86.5q134 0 243 -82.5t171.5 -226.5t62.5 -320q0 -185 -63 -337.5t-172.5 -240t-241.5 -87.5q-131 0 -241 84.5zM757 126q66 59 101.5 169.5t35.5 261.5q0 164 -53.5 308.5t-143.5 231
t-194 86.5q-92 0 -158 -58t-100.5 -168t-34.5 -264q0 -159 54.5 -304t144.5 -233.5t191 -88.5q91 0 157 59zM759 1589q-15 -127 -68.5 -190.5t-139.5 -63.5q-85 0 -138.5 63.5t-68.5 190.5h42l10 -37q13 -55 54.5 -81.5t100.5 -26.5q61 0 102 26.5t54 81.5l9 37h43z" />
    <glyph glyph-name="obreve" unicode="&#x14f;" horiz-adv-x="856" 
d="M618 813.5q85 -61.5 133 -164.5t48 -221q0 -120 -46.5 -223.5t-131.5 -165.5t-194 -62q-105 0 -189.5 61.5t-132.5 164.5t-48 222t46.5 222t131 165.5t192.5 62.5q106 0 191 -61.5zM308.5 771.5q-45.5 -38.5 -70.5 -112.5t-25 -178q0 -136 28.5 -235t80 -151t118.5 -52
q60 0 105.5 37.5t71 111t25.5 178.5q0 211 -59.5 325.5t-168.5 114.5q-60 0 -105.5 -38.5zM661 1295q-17 -174 -77 -260t-154 -86t-154 86t-76 260h42l10 -37q20 -100 66 -147t112 -47q139 0 179 194l9 37h43z" />
    <glyph glyph-name="Ohungarumlaut" unicode="&#x150;" horiz-adv-x="1103" 
d="M311 62.5q-110 84.5 -173.5 230t-63.5 319.5q0 186 63 336.5t172.5 237t242.5 86.5q134 0 243 -82.5t171.5 -226.5t62.5 -320q0 -185 -63 -337.5t-172.5 -240t-241.5 -87.5q-131 0 -241 84.5zM757 126q66 59 101.5 169.5t35.5 261.5q0 164 -53.5 308.5t-143.5 231
t-194 86.5q-92 0 -158 -58t-100.5 -168t-34.5 -264q0 -159 54.5 -304t144.5 -233.5t191 -88.5q91 0 157 59zM471 1588h165l-209 -251h-39zM735 1588h166l-209 -251h-40z" />
    <glyph glyph-name="ohungarumlaut" unicode="&#x151;" horiz-adv-x="856" 
d="M618 813.5q85 -61.5 133 -164.5t48 -221q0 -120 -46.5 -223.5t-131.5 -165.5t-194 -62q-105 0 -189.5 61.5t-132.5 164.5t-48 222t46.5 222t131 165.5t192.5 62.5q106 0 191 -61.5zM308.5 771.5q-45.5 -38.5 -70.5 -112.5t-25 -178q0 -136 28.5 -235t80 -151t118.5 -52
q60 0 105.5 37.5t71 111t25.5 178.5q0 211 -59.5 325.5t-168.5 114.5q-60 0 -105.5 -38.5zM397 1295h170l-241 -342h-37zM639 1295h170l-241 -342h-38z" />
    <glyph glyph-name="OE" unicode="&#x152;" horiz-adv-x="1651" 
d="M1583 421l-37 -421h-786q-214 0 -369.5 75.5t-237 211t-81.5 313.5q0 187 78.5 334.5t229.5 231.5t360 84h782v-395h-46q-17 140 -48.5 211.5t-98 102t-192.5 30.5h-158v-527h81q94 0 139 18t61.5 57.5t20.5 118.5h49v-469h-49q-4 89 -20.5 134t-62 66t-138.5 21h-81
v-433q0 -59 11 -85.5t43 -36.5t104 -10h65q108 0 168 32.5t96 109t72 230.5zM837 55v1064q0 43 -25.5 59.5t-90.5 16.5q-159 0 -269.5 -71t-166 -197t-55.5 -292q0 -277 142 -428.5t420 -151.5h45z" />
    <glyph glyph-name="oe" unicode="&#x153;" horiz-adv-x="1369" 
d="M1341 314q-64 -186 -144.5 -261.5t-186.5 -75.5q-95 0 -166.5 48t-113.5 136q-50 -85 -128 -134.5t-175 -49.5q-105 0 -189.5 61.5t-132.5 164.5t-48 222t46.5 222t131 165.5t192.5 62.5q100 0 181 -54.5t131 -146.5q46 94 120 147.5t160 53.5q78 0 138.5 -40.5
t96 -125.5t36.5 -215h-490q1 -118 33 -205.5t89.5 -135t135.5 -47.5t140.5 55.5t104.5 167.5zM545.5 80.5q45.5 37.5 71 111t25.5 178.5q0 211 -59.5 325.5t-168.5 114.5q-60 0 -105.5 -38.5t-70.5 -112.5t-25 -178q0 -136 28.5 -235t80 -151t118.5 -52q60 0 105.5 37.5z
M860.5 730.5q-50.5 -66.5 -58.5 -183.5l358 3q-6 122 -51 184.5t-122 62.5q-76 0 -126.5 -66.5z" />
    <glyph glyph-name="Racute" unicode="&#x154;" horiz-adv-x="1034" 
d="M1054 1q-73 -15 -135 -15q-50 0 -106 39t-114 127q-119 181 -263 443h-95v-544h144v-51h-427v51h143v1148h-143v51h437q181 0 282.5 -78.5t101.5 -231.5q0 -135 -87.5 -219.5t-230.5 -111.5q79 -123 132 -203t119 -173q76 -110 129.5 -151.5t110.5 -45.5zM341 1197v-542
h122q127 7 191.5 76.5t64.5 192.5q0 134 -60 203.5t-182 69.5h-136zM468 1588h179l-196 -251h-39z" />
    <glyph glyph-name="racute" unicode="&#x155;" horiz-adv-x="616" 
d="M543 860q29 -15 53 -44l-44 -103l-7 -4q-71 34 -112 34q-127 0 -127 -194v-501h145v-48h-399v48h119v571q0 51 -14.5 79.5t-56.5 39.5l-67 16v28l251 93h20l-18 -201h8q37 114 82 157.5t101 43.5q37 0 66 -15zM323 951h-38l111 342h153z" />
    <glyph glyph-name="uni0156" unicode="&#x156;" horiz-adv-x="1034" 
d="M1054 1q-73 -15 -135 -15q-50 0 -106 39t-114 127q-119 181 -263 443h-95v-544h144v-51h-427v51h143v1148h-143v51h437q181 0 282.5 -78.5t101.5 -231.5q0 -135 -87.5 -219.5t-230.5 -111.5q79 -123 132 -203t119 -173q76 -110 129.5 -151.5t110.5 -45.5zM341 1197v-542
h122q127 7 191.5 76.5t64.5 192.5q0 134 -60 203.5t-182 69.5h-136zM458 -423q73 23 105.5 55t32.5 68q0 27 -31 51t-94 40l41 110q88 -24 135 -67.5t47 -98.5q0 -61 -53 -118.5t-165 -94.5z" />
    <glyph glyph-name="uni0157" unicode="&#x157;" horiz-adv-x="616" 
d="M543 860q29 -15 53 -44l-44 -103l-7 -4q-71 34 -112 34q-127 0 -127 -194v-501h145v-48h-399v48h119v571q0 51 -14.5 79.5t-56.5 39.5l-67 16v28l251 93h20l-18 -201h8q37 114 82 157.5t101 43.5q37 0 66 -15zM112 -371q72 8 104.5 33t32.5 58t-28 56.5t-83 35.5l28 116
q85 -22 129.5 -67.5t44.5 -102.5q0 -64 -56.5 -112t-166.5 -62z" />
    <glyph glyph-name="Rcaron" unicode="&#x158;" horiz-adv-x="1034" 
d="M1054 1q-73 -15 -135 -15q-50 0 -106 39t-114 127q-119 181 -263 443h-95v-544h144v-51h-427v51h143v1148h-143v51h437q181 0 282.5 -78.5t101.5 -231.5q0 -135 -87.5 -219.5t-230.5 -111.5q79 -123 132 -203t119 -173q76 -110 129.5 -151.5t110.5 -45.5zM341 1197v-542
h122q127 7 191.5 76.5t64.5 192.5q0 134 -60 203.5t-182 69.5h-136zM393 1397l217 189h37l-122 -251h-179l-123 251h66z" />
    <glyph glyph-name="rcaron" unicode="&#x159;" horiz-adv-x="616" 
d="M543 860q29 -15 53 -44l-44 -103l-7 -4q-71 34 -112 34q-127 0 -127 -194v-501h145v-48h-399v48h119v571q0 51 -14.5 79.5t-56.5 39.5l-67 16v28l251 93h20l-18 -201h8q37 114 82 157.5t101 43.5q37 0 66 -15zM351 1057l131 236h65l-181 -342h-97l-182 342h50z" />
    <glyph glyph-name="Sacute" unicode="&#x15a;" horiz-adv-x="925" 
d="M594 670q138 -66 197 -148.5t59 -194.5q0 -100 -42.5 -179.5t-119.5 -124.5t-177 -45t-184 47.5t-139 131.5l-62 -167h-34v475h40q41 -204 140 -315t240 -111q105 0 165.5 59.5t60.5 165.5q0 89 -42.5 150t-142.5 108l-151 71q-152 71 -221.5 154.5t-69.5 204.5
q0 94 41.5 167t114 113t160.5 40q84 0 152 -39t121 -107l59 134h33v-443h-41q-40 198 -125 296t-195 98q-96 0 -152 -57t-56 -156q0 -55 18 -95.5t60 -76.5t117 -72zM472 1588h179l-196 -251h-39z" />
    <glyph glyph-name="sacute" unicode="&#x15b;" horiz-adv-x="684" 
d="M429 474q99 -43 143 -98.5t44 -135.5q0 -74 -35 -133.5t-97 -94t-139 -34.5q-69 0 -138 31t-121 92l-22 207l24 16q47 -137 117.5 -206.5t147.5 -69.5q69 0 108.5 39t39.5 109q0 49 -26 79.5t-83 56.5l-122 55q-98 44 -143 104.5t-45 138.5q0 72 32 128t87.5 86.5
t124.5 30.5q50 0 92.5 -19.5t84.5 -58.5l46 76h22v-297h-28q-53 127 -106.5 178.5t-120.5 51.5q-59 0 -92.5 -34.5t-33.5 -97.5q0 -51 29 -84.5t93 -62.5zM342 953h-38l111 342h153z" />
    <glyph glyph-name="Scircumflex" unicode="&#x15c;" horiz-adv-x="925" 
d="M594 670q138 -66 197 -148.5t59 -194.5q0 -100 -42.5 -179.5t-119.5 -124.5t-177 -45t-184 47.5t-139 131.5l-62 -167h-34v475h40q41 -204 140 -315t240 -111q105 0 165.5 59.5t60.5 165.5q0 89 -42.5 150t-142.5 108l-151 71q-152 71 -221.5 154.5t-69.5 204.5
q0 94 41.5 167t114 113t160.5 40q84 0 152 -39t121 -107l59 134h33v-443h-41q-40 198 -125 296t-195 98q-96 0 -152 -57t-56 -156q0 -55 18 -95.5t60 -76.5t117 -72zM529 1588l122 -251h-37l-217 189l-104 -189h-66l123 251h179z" />
    <glyph glyph-name="scircumflex" unicode="&#x15d;" horiz-adv-x="684" 
d="M429 474q99 -43 143 -98.5t44 -135.5q0 -74 -35 -133.5t-97 -94t-139 -34.5q-69 0 -138 31t-121 92l-22 207l24 16q47 -137 117.5 -206.5t147.5 -69.5q69 0 108.5 39t39.5 109q0 49 -26 79.5t-83 56.5l-122 55q-98 44 -143 104.5t-45 138.5q0 72 32 128t87.5 86.5
t124.5 30.5q50 0 92.5 -19.5t84.5 -58.5l46 76h22v-297h-28q-53 127 -106.5 178.5t-120.5 51.5q-59 0 -92.5 -34.5t-33.5 -97.5q0 -51 29 -84.5t93 -62.5zM386 1295l181 -342h-50l-214 233l-130 -233h-66l181 342h98z" />
    <glyph glyph-name="Scedilla" unicode="&#x15e;" horiz-adv-x="925" 
d="M808.5 149.5q-41.5 -78.5 -116.5 -124t-173 -47.5l-28 -65q85 -31 121.5 -70t36.5 -98q0 -43 -19 -77t-51.5 -53t-71.5 -19q-48 0 -92 31t-71 91l37 47h12q32 -53 66 -75t70 -22q30 0 47.5 12.5t17.5 39.5q0 34 -36.5 59.5t-131.5 50.5l-11 18l53 132q-87 10 -159 56
t-121 121l-62 -167h-34v475h40q41 -204 140 -315t240 -111q105 0 165.5 59.5t60.5 165.5q0 89 -42.5 150t-142.5 108l-151 71q-152 71 -221.5 154.5t-69.5 204.5q0 94 41.5 167t114 113t160.5 40q84 0 152 -39t121 -107l59 134h33v-443h-41q-40 198 -125 296t-195 98
q-96 0 -152 -57t-56 -156q0 -55 18 -95.5t60 -76.5t117 -72l176 -84q138 -66 197 -148.5t59 -194.5q0 -99 -41.5 -177.5z" />
    <glyph glyph-name="scedilla" unicode="&#x15f;" horiz-adv-x="684" 
d="M584.5 112q-31.5 -58 -88 -93t-128.5 -40l-28 -66q86 -32 122.5 -70.5t36.5 -97.5q0 -43 -19 -77t-52 -53t-72 -19q-47 0 -91 31t-71 91l36 47h13q32 -53 66 -75t70 -22q30 0 47 12.5t17 39.5q0 34 -36 59.5t-131 50.5l-12 18l52 131q-63 6 -123.5 37t-106.5 85l-22 207
l24 16q47 -137 117.5 -206.5t147.5 -69.5q69 0 108.5 39t39.5 109q0 49 -26 79.5t-83 56.5l-122 55q-98 44 -143 104.5t-45 138.5q0 72 32 128t87.5 86.5t124.5 30.5q50 0 92.5 -19.5t84.5 -58.5l46 76h22v-297h-28q-53 127 -106.5 178.5t-120.5 51.5q-59 0 -92.5 -34.5
t-33.5 -97.5q0 -51 29 -84.5t93 -62.5l117 -53q99 -43 143 -98.5t44 -135.5q0 -70 -31.5 -128z" />
    <glyph glyph-name="Scaron" unicode="&#x160;" horiz-adv-x="925" 
d="M594 670q138 -66 197 -148.5t59 -194.5q0 -100 -42.5 -179.5t-119.5 -124.5t-177 -45t-184 47.5t-139 131.5l-62 -167h-34v475h40q41 -204 140 -315t240 -111q105 0 165.5 59.5t60.5 165.5q0 89 -42.5 150t-142.5 108l-151 71q-152 71 -221.5 154.5t-69.5 204.5
q0 94 41.5 167t114 113t160.5 40q84 0 152 -39t121 -107l59 134h33v-443h-41q-40 198 -125 296t-195 98q-96 0 -152 -57t-56 -156q0 -55 18 -95.5t60 -76.5t117 -72zM397 1397l217 189h37l-122 -251h-179l-123 251h66z" />
    <glyph glyph-name="scaron" unicode="&#x161;" horiz-adv-x="684" 
d="M429 474q99 -43 143 -98.5t44 -135.5q0 -74 -35 -133.5t-97 -94t-139 -34.5q-69 0 -138 31t-121 92l-22 207l24 16q47 -137 117.5 -206.5t147.5 -69.5q69 0 108.5 39t39.5 109q0 49 -26 79.5t-83 56.5l-122 55q-98 44 -143 104.5t-45 138.5q0 72 32 128t87.5 86.5
t124.5 30.5q50 0 92.5 -19.5t84.5 -58.5l46 76h22v-297h-28q-53 127 -106.5 178.5t-120.5 51.5q-59 0 -92.5 -34.5t-33.5 -97.5q0 -51 29 -84.5t93 -62.5zM371 1059l131 236h65l-181 -342h-97l-182 342h50z" />
    <glyph glyph-name="uni0162" unicode="&#x162;" horiz-adv-x="1006" 
d="M950 846h-47q-12 149 -41 222.5t-81.5 98.5t-149.5 25h-57v-1141h175v-51h-213l-37 -87q86 -32 122.5 -70.5t36.5 -97.5q0 -43 -19 -77t-52 -53t-72 -19q-48 0 -91.5 31t-70.5 91l36 47h13q33 -53 66 -75t70 -22q30 0 47 12.5t17 39.5q0 34 -36 59.5t-131 50.5l-12 18
l60 152h-226v51h175v1141h-57q-97 0 -150 -24.5t-82 -98t-41 -223.5h-46v404h894v-404z" />
    <glyph glyph-name="uni0163" unicode="&#x163;" horiz-adv-x="554" 
d="M335 -87q85 -31 121.5 -70t36.5 -98q0 -43 -19 -77t-51.5 -53t-71.5 -19q-48 0 -92 31t-71 91l37 47h12q32 -53 66 -75t70 -22q30 0 47.5 12.5t17.5 39.5q0 34 -36.5 59.5t-131.5 50.5l-11 18l52 131q-73 8 -120.5 58t-47.5 136v607h-116v21q67 23 106.5 50t67.5 78.5
t45 143.5h34l-2 -220h243l-41 -73h-202v-572q0 -62 25 -91.5t74 -29.5q42 0 74.5 25.5t72.5 92.5l28 -19q-43 -100 -86.5 -148.5t-101.5 -57.5z" />
    <glyph glyph-name="Tcaron" unicode="&#x164;" horiz-adv-x="1006" 
d="M950 846h-47q-12 149 -41 222.5t-81.5 98.5t-149.5 25h-57v-1141h175v-51h-492v51h175v1141h-57q-97 0 -150 -24.5t-82 -98t-41 -223.5h-46v404h894v-404zM460 1397l217 189h37l-122 -251h-179l-123 251h66z" />
    <glyph glyph-name="tcaron" unicode="&#x165;" horiz-adv-x="554" 
d="M238.5 0q-43.5 22 -69.5 66t-26 107v607h-116v21q67 23 106.5 50t67.5 78.5t45 143.5h34l-2 -220h243l-41 -73h-202v-572q0 -62 25 -91.5t74 -29.5q42 0 74.5 25.5t72.5 92.5l28 -19q-47 -111 -97 -159.5t-120 -48.5q-53 0 -96.5 22zM415 1328h150l-153 -382h-32z" />
    <glyph glyph-name="Tbar" unicode="&#x166;" horiz-adv-x="1006" 
d="M950 846h-47q-12 149 -41 222.5t-81.5 98.5t-149.5 25h-57v-590h248v-54h-248v-497h175v-51h-492v51h175v497h-248v54h248v590h-57q-97 0 -150 -24.5t-82 -98t-41 -223.5h-46v404h894v-404z" />
    <glyph glyph-name="tbar" unicode="&#x167;" horiz-adv-x="554" 
d="M554 186q-47 -111 -97 -159.5t-120 -48.5q-53 0 -96.5 22t-69.5 66t-26 107v267h-103v50h103v290h-116v21q67 23 106.5 50t67.5 78.5t45 143.5h34l-2 -220h243l-41 -73h-202v-290h179v-50h-179v-232q0 -62 25 -91.5t74 -29.5q42 0 74.5 25.5t72.5 92.5z" />
    <glyph glyph-name="Utilde" unicode="&#x168;" horiz-adv-x="1136" 
d="M721 1250h368v-51h-114l-8 -333v-442q0 -145 -49 -246.5t-136 -153.5t-200 -52q-125 0 -217 53.5t-141.5 152t-49.5 232.5v789h-138v51h423v-51h-144v-752q0 -377 305 -377q138 0 205.5 89.5t67.5 282.5v594q0 69 -10.5 102t-36.5 46t-83 18l-42 4v44zM341 1333
q18 101 54.5 148t102.5 47q31 0 59 -8.5t69 -25.5q38 -15 61.5 -22.5t48.5 -7.5q35 0 57 19t32 61l35 -6q-35 -184 -154 -184q-26 0 -51 7.5t-62 23.5q-39 16 -65.5 24.5t-55.5 8.5q-39 0 -61 -21t-36 -68z" />
    <glyph glyph-name="utilde" unicode="&#x169;" horiz-adv-x="915" 
d="M631 192q-44 -113 -113.5 -163.5t-145.5 -50.5q-60 0 -110 30.5t-79.5 85t-29.5 123.5v412q0 40 -5 59t-19 29.5t-44 18.5l-70 18v28l258 93h12v-610q0 -85 40.5 -130.5t113.5 -45.5q89 0 137.5 76.5t48.5 206.5v257q0 38 -4 57t-18.5 30.5t-45.5 19.5l-70 18v28l257 93
h13v-648q0 -66 12 -100.5t41.5 -47t86.5 -10.5v-40l-235 -44h-23zM227 988q14 81 46.5 120t84.5 39q29 0 54 -7t57 -21q33 -14 54 -20t45 -6q29 0 46 15.5t27 53.5l33 -6q-32 -160 -132 -160q-27 0 -49.5 7t-54.5 21q-34 14 -54 20t-44 6q-32 0 -50 -15.5t-30 -50.5z" />
    <glyph glyph-name="Umacron" unicode="&#x16a;" horiz-adv-x="1136" 
d="M721 1250h368v-51h-114l-8 -333v-442q0 -145 -49 -246.5t-136 -153.5t-200 -52q-125 0 -217 53.5t-141.5 152t-49.5 232.5v789h-138v51h423v-51h-144v-752q0 -377 305 -377q138 0 205.5 89.5t67.5 282.5v594q0 69 -10.5 102t-36.5 46t-83 18l-42 4v44zM863 1374h-529v60
h529v-60z" />
    <glyph glyph-name="umacron" unicode="&#x16b;" horiz-adv-x="915" 
d="M631 192q-44 -113 -113.5 -163.5t-145.5 -50.5q-60 0 -110 30.5t-79.5 85t-29.5 123.5v412q0 40 -5 59t-19 29.5t-44 18.5l-70 18v28l258 93h12v-610q0 -85 40.5 -130.5t113.5 -45.5q89 0 137.5 76.5t48.5 206.5v257q0 38 -4 57t-18.5 30.5t-45.5 19.5l-70 18v28l257 93
h13v-648q0 -66 12 -100.5t41.5 -47t86.5 -10.5v-40l-235 -44h-23zM677 1012h-458v59h458v-59z" />
    <glyph glyph-name="Ubreve" unicode="&#x16c;" horiz-adv-x="1136" 
d="M721 1250h368v-51h-114l-8 -333v-442q0 -145 -49 -246.5t-136 -153.5t-200 -52q-125 0 -217 53.5t-141.5 152t-49.5 232.5v789h-138v51h423v-51h-144v-752q0 -377 305 -377q138 0 205.5 89.5t67.5 282.5v594q0 69 -10.5 102t-36.5 46t-83 18l-42 4v44zM806 1589
q-15 -127 -68.5 -190.5t-139.5 -63.5q-85 0 -138.5 63.5t-68.5 190.5h42l10 -37q13 -55 54.5 -81.5t100.5 -26.5q61 0 102 26.5t54 81.5l9 37h43z" />
    <glyph glyph-name="ubreve" unicode="&#x16d;" horiz-adv-x="915" 
d="M631 192q-44 -113 -113.5 -163.5t-145.5 -50.5q-60 0 -110 30.5t-79.5 85t-29.5 123.5v412q0 40 -5 59t-19 29.5t-44 18.5l-70 18v28l258 93h12v-610q0 -85 40.5 -130.5t113.5 -45.5q89 0 137.5 76.5t48.5 206.5v257q0 38 -4 57t-18.5 30.5t-45.5 19.5l-70 18v28l257 93
h13v-648q0 -66 12 -100.5t41.5 -47t86.5 -10.5v-40l-235 -44h-23zM679 1295q-17 -174 -77 -260t-154 -86t-154 86t-76 260h42l10 -37q20 -100 66 -147t112 -47q139 0 179 194l9 37h43z" />
    <glyph glyph-name="Uring" unicode="&#x16e;" horiz-adv-x="1136" 
d="M721 1250h368v-51h-114l-8 -333v-442q0 -145 -49 -246.5t-136 -153.5t-200 -52q-125 0 -217 53.5t-141.5 152t-49.5 232.5v789h-138v51h423v-51h-144v-752q0 -377 305 -377q138 0 205.5 89.5t67.5 282.5v594q0 69 -10.5 102t-36.5 46t-83 18l-42 4v44zM450.5 1596
q23.5 40 62.5 62t86 22t86 -22t62.5 -62t23.5 -92q0 -51 -23.5 -91.5t-63 -63.5t-85.5 -23t-85.5 23t-63 63.5t-23.5 91.5q0 52 23.5 92zM507.5 1423q35.5 -32 91.5 -32q59 0 93 31.5t34 81.5t-34 80.5t-93 30.5q-57 0 -92 -30.5t-35 -80.5q0 -49 35.5 -81z" />
    <glyph glyph-name="uring" unicode="&#x16f;" horiz-adv-x="915" 
d="M631 192q-44 -113 -113.5 -163.5t-145.5 -50.5q-60 0 -110 30.5t-79.5 85t-29.5 123.5v412q0 40 -5 59t-19 29.5t-44 18.5l-70 18v28l258 93h12v-610q0 -85 40.5 -130.5t113.5 -45.5q89 0 137.5 76.5t48.5 206.5v257q0 38 -4 57t-18.5 30.5t-45.5 19.5l-70 18v28l257 93
h13v-648q0 -66 12 -100.5t41.5 -47t86.5 -10.5v-40l-235 -44h-23zM299.5 1213q23.5 40 62.5 62t86 22t86 -22t62.5 -62t23.5 -92q0 -51 -23.5 -91.5t-63 -63.5t-85.5 -23t-85.5 23t-63 63.5t-23.5 91.5q0 52 23.5 92zM356.5 1040q35.5 -32 91.5 -32q59 0 93 31.5t34 81.5
t-34 80.5t-93 30.5q-57 0 -92 -30.5t-35 -80.5q0 -49 35.5 -81z" />
    <glyph glyph-name="Uhungarumlaut" unicode="&#x170;" horiz-adv-x="1136" 
d="M721 1250h368v-51h-114l-8 -333v-442q0 -145 -49 -246.5t-136 -153.5t-200 -52q-125 0 -217 53.5t-141.5 152t-49.5 232.5v789h-138v51h423v-51h-144v-752q0 -377 305 -377q138 0 205.5 89.5t67.5 282.5v594q0 69 -10.5 102t-36.5 46t-83 18l-42 4v44zM518 1588h165
l-209 -251h-39zM782 1588h166l-209 -251h-40z" />
    <glyph glyph-name="uhungarumlaut" unicode="&#x171;" horiz-adv-x="915" 
d="M631 192q-44 -113 -113.5 -163.5t-145.5 -50.5q-60 0 -110 30.5t-79.5 85t-29.5 123.5v412q0 40 -5 59t-19 29.5t-44 18.5l-70 18v28l258 93h12v-610q0 -85 40.5 -130.5t113.5 -45.5q89 0 137.5 76.5t48.5 206.5v257q0 38 -4 57t-18.5 30.5t-45.5 19.5l-70 18v28l257 93
h13v-648q0 -66 12 -100.5t41.5 -47t86.5 -10.5v-40l-235 -44h-23zM415 1295h170l-241 -342h-37zM657 1295h170l-241 -342h-38z" />
    <glyph glyph-name="Uogonek" unicode="&#x172;" horiz-adv-x="1136" 
d="M721 1250h368v-51h-114l-8 -333v-442q0 -164 -62 -272t-171 -152q-97 -54 -136.5 -96t-39.5 -88q0 -37 20 -56t56 -19q48 0 85 27l5 -5v-75q-49 -46 -113 -46q-57 0 -95.5 34t-38.5 95q0 47 28.5 94.5t101.5 107.5q-8 -1 -25 -1q-125 0 -217 53.5t-141.5 152t-49.5 232.5
v789h-138v51h423v-51h-144v-752q0 -377 305 -377q138 0 205.5 89.5t67.5 282.5v594q0 69 -10.5 102t-36.5 46t-83 18l-42 4v44z" />
    <glyph glyph-name="uogonek" unicode="&#x173;" horiz-adv-x="915" 
d="M897 29q-92 -76 -128.5 -121.5t-36.5 -91.5q0 -35 19 -53.5t51 -18.5q47 0 90 30l5 -5v-75q-45 -50 -111 -50q-53 0 -89.5 33.5t-36.5 94.5q0 42 25 88.5t96 142.5v4l-119 -22h-23l-8 207q-44 -113 -113.5 -163.5t-145.5 -50.5q-60 0 -110 30.5t-79.5 85t-29.5 123.5v412
q0 40 -5 59t-19 29.5t-44 18.5l-70 18v28l258 93h12v-610q0 -85 40.5 -130.5t113.5 -45.5q89 0 137.5 76.5t48.5 206.5v257q0 38 -4 57t-18.5 30.5t-45.5 19.5l-70 18v28l257 93h13v-648q0 -66 12 -100.5t41.5 -47t86.5 -10.5v-40z" />
    <glyph glyph-name="Wcircumflex" unicode="&#x174;" horiz-adv-x="1570" 
d="M1558 1250v-51h-103l-357 -1209h-71l-232 858l-250 -858h-72l-358 1209h-109v51h429v-51h-176l283 -996l220 767l-61 229h-145v51h452v-51h-161l250 -997l139 505q59 221 76 304.5t17 116.5q0 24 -8 37.5t-30 21.5t-67 14l-62 8v41h396zM871 1588l122 -251h-37l-217 189
l-104 -189h-66l123 251h179z" />
    <glyph glyph-name="wcircumflex" unicode="&#x175;" horiz-adv-x="1257" 
d="M914 853h330v-49h-80l-292 -834h-47l-182 574l-207 -574h-48l-299 834h-83v49h364v-49h-141l182 -532l29 -130l173 496l-52 166h-99v49h344v-49h-114l170 -553l13 -102l153 491q22 72 22 104q0 28 -14 41.5t-44 16.5l-78 8v43zM661 1295l181 -342h-50l-214 233l-130 -233
h-66l181 342h98z" />
    <glyph glyph-name="Ycircumflex" unicode="&#x176;" horiz-adv-x="1052" 
d="M930 1199l-329 -613v-535h130v-51h-401v51h130l1 512l-350 636h-101v51h455v-51h-197l263 -482l23 -88l144 290q54 105 73 150t19 71t-15.5 36.5t-59.5 18.5l-58 10v45h359v-51h-86zM638 1588l122 -251h-37l-217 189l-104 -189h-66l123 251h179z" />
    <glyph glyph-name="ycircumflex" unicode="&#x177;" horiz-adv-x="861" 
d="M865 805h-84l-466 -1125h166v-50h-426v50h127l173 420l-242 704l-88 1v48h378v-51l-145 1l175 -538l23 -81l164 437q17 45 25 73.5t8 46.5q0 26 -16.5 38.5t-53.5 17.5l-83 9v47h365v-48zM500 1295l181 -342h-50l-214 233l-130 -233h-66l181 342h98z" />
    <glyph glyph-name="Ydieresis" unicode="&#x178;" horiz-adv-x="1052" 
d="M930 1199l-329 -613v-535h130v-51h-401v51h130l1 512l-350 636h-101v51h455v-51h-197l263 -482l23 -88l144 290q54 105 73 150t19 71t-15.5 36.5t-59.5 18.5l-58 10v45h359v-51h-86zM324 1369q-30 30 -30 70t30 70.5t70 30.5t69 -30t29 -71q0 -40 -29 -70t-69 -30t-70 30
zM633 1369q-29 30 -29 70q0 41 29 71t69 30t70 -30t30 -71q0 -40 -30 -70t-70 -30t-69 30z" />
    <glyph glyph-name="Zacute" unicode="&#x179;" horiz-adv-x="929" 
d="M869 451l-44 -451h-766v52l598 1137h-188q-124 0 -183 -21.5t-90.5 -85.5t-56.5 -209h-52l22 377h699v-54l-590 -1133h214q142 0 213.5 30t108.5 109.5t63 248.5h52zM529 1588h179l-196 -251h-39z" />
    <glyph glyph-name="zacute" unicode="&#x17a;" horiz-adv-x="736" 
d="M689 315l-68 -315h-569v51l454 748l-132 -2q-82 -1 -131 -19t-80 -63t-54 -131l-39 4l30 265h559v-49l-458 -750l118 2q101 1 163.5 27t101.5 83.5t67 158.5zM389 953h-38l111 342h153z" />
    <glyph glyph-name="Zdotaccent" unicode="&#x17b;" horiz-adv-x="929" 
d="M869 451l-44 -451h-766v52l598 1137h-188q-124 0 -183 -21.5t-90.5 -85.5t-56.5 -209h-52l22 377h699v-54l-590 -1133h214q142 0 213.5 30t108.5 109.5t63 248.5h52zM423 1387.5q-31 31.5 -31 73.5q0 43 31 74t73 31q43 0 74 -31t31 -74q0 -42 -31 -73.5t-74 -31.5
q-42 0 -73 31.5z" />
    <glyph glyph-name="zdotaccent" unicode="&#x17c;" horiz-adv-x="736" 
d="M689 315l-68 -315h-569v51l454 748l-132 -2q-82 -1 -131 -19t-80 -63t-54 -131l-39 4l30 265h559v-49l-458 -750l118 2q101 1 163.5 27t101.5 83.5t67 158.5zM309 1030.5q-31 31.5 -31 74.5t31 74t74 31t74.5 -31t31.5 -74t-31.5 -74.5t-74.5 -31.5t-74 31.5z" />
    <glyph glyph-name="Zcaron" unicode="&#x17d;" horiz-adv-x="929" 
d="M869 451l-44 -451h-766v52l598 1137h-188q-124 0 -183 -21.5t-90.5 -85.5t-56.5 -209h-52l22 377h699v-54l-590 -1133h214q142 0 213.5 30t108.5 109.5t63 248.5h52zM454 1397l217 189h37l-122 -251h-179l-123 251h66z" />
    <glyph glyph-name="zcaron" unicode="&#x17e;" horiz-adv-x="736" 
d="M689 315l-68 -315h-569v51l454 748l-132 -2q-82 -1 -131 -19t-80 -63t-54 -131l-39 4l30 265h559v-49l-458 -750l118 2q101 1 163.5 27t101.5 83.5t67 158.5zM417 1059l131 236h65l-181 -342h-97l-182 342h50z" />
    <glyph glyph-name="uni018F" unicode="&#x18f;" horiz-adv-x="1069" 
d="M768 1203q107 -77 165.5 -221.5t58.5 -341.5q0 -204 -61 -356t-168 -233t-242 -81q-122 0 -220.5 63t-156.5 190.5t-58 312.5l786 -1v9q0 187 -49 328.5t-141 219.5t-217 78t-215.5 -90.5t-151.5 -282.5l-46 25q55 173 126 274t154.5 142.5t185.5 41.5q143 0 250 -77z
M712 105.5q67 45.5 108.5 139t49.5 230.5l-631 1q7 -123 47.5 -217t110.5 -146.5t162 -52.5q86 0 153 45.5z" />
    <glyph glyph-name="uni0191" unicode="&#x191;" horiz-adv-x="927" 
d="M42 1250h831v-395h-47q-21 148 -52 218.5t-97 98t-199 27.5h-150v-546h99q89 0 131 17t57 55.5t19 120.5h47v-468h-47q-4 92 -19 136.5t-57 64.5t-131 20h-99v-495q0 -128 -38.5 -221t-101.5 -141t-135 -48q-71 0 -132 38l49 138q50 -32 96 -49.5t79 -17.5q24 0 34 17
t10 61l-2 1318h-145v51z" />
    <glyph glyph-name="florin" unicode="&#x192;" horiz-adv-x="487" 
d="M245 1004q0 -41 10 -108l30 -121h196l-34 -81h-169v-666q0 -109 -39 -197t-106 -138.5t-149 -50.5q-28 0 -59.5 7t-52.5 19l32 122q57 -20 89 -29t61 -9q59 0 89 29.5t30 96.5q0 13 -4 51l-23 208v557h-120v13l120 68v25q0 147 41.5 255.5t110 165.5t148.5 57
q30 0 64 -12t60 -30l-35 -106q-38 19 -81 31t-83 12q-126 0 -126 -169z" />
    <glyph glyph-name="Ohorn" unicode="&#x1a0;" horiz-adv-x="1106" 
d="M965 972.5q65 -147.5 65 -329.5q0 -187 -63 -341.5t-172.5 -243t-241.5 -88.5q-131 0 -240.5 85.5t-173 232.5t-63.5 324q0 188 63 340.5t172 240t242 87.5q75 0 141 -27q10 -1 27 -1q87 0 118.5 32.5t31.5 82.5q0 34 -14.5 61.5t-44.5 53.5l29 37q66 -13 101.5 -47.5
t35.5 -78.5q0 -49 -43 -101t-146 -91q111 -81 176 -228.5zM758 119q66 60 101.5 172t35.5 266q0 167 -53 313t-143 233.5t-194 87.5q-92 0 -158 -59t-101 -171t-35 -268q0 -161 54.5 -308t145 -236.5t191.5 -89.5q90 0 156 60z" />
    <glyph glyph-name="ohorn" unicode="&#x1a1;" horiz-adv-x="856" 
d="M744 663.5q55 -108.5 55 -235.5q0 -120 -46.5 -223.5t-131.5 -165.5t-194 -62q-105 0 -189.5 61.5t-132.5 164.5t-48 222t46.5 222t131 165.5t192.5 62.5h8h1q26 -2 42 -4l12 -1q10 -1 30 -1q71 0 111.5 33.5t40.5 91.5q0 81 -74 128l17 26q165 -33 165 -139
q0 -58 -50 -106.5t-134 -74.5q93 -56 148 -164.5zM545.5 80.5q45.5 37.5 71 111t25.5 178.5q0 211 -59.5 325.5t-168.5 114.5q-60 0 -105.5 -38.5t-70.5 -112.5t-25 -178q0 -136 28.5 -235t80 -151t118.5 -52q60 0 105.5 37.5z" />
    <glyph glyph-name="Uhorn" unicode="&#x1af;" horiz-adv-x="1125" 
d="M1066 1519q68 -14 102.5 -48t34.5 -78q0 -62 -58.5 -116.5t-145.5 -80.5l-24 -7l-8 -323v-442q0 -145 -49 -246.5t-136 -153.5t-200 -52q-125 0 -217 53.5t-141.5 152t-49.5 232.5v789h-138v51h423v-51h-144v-752q0 -377 305 -377q138 0 205.5 89.5t67.5 282.5v594
q0 69 -10.5 102t-36.5 46t-83 18l-42 4v44h240q73 0 104 31t31 87q0 64 -59 114z" />
    <glyph glyph-name="uhorn" unicode="&#x1b0;" horiz-adv-x="908" 
d="M757 227q0 -66 12 -100.5t41.5 -47t86.5 -10.5v-40l-235 -44h-23l-8 207q-44 -113 -113.5 -163.5t-145.5 -50.5q-60 0 -110 30.5t-79.5 85t-29.5 123.5v412q0 40 -5 59t-19 29.5t-44 18.5l-70 18v28l258 93h12v-610q0 -85 40.5 -130.5t113.5 -45.5q89 0 137.5 76.5
t48.5 206.5v257q0 38 -4 57t-18.5 30.5t-45.5 19.5l-70 18v28l199 72q61 24 95 43t49.5 42t15.5 55q0 82 -75 128l18 26q164 -33 164 -139q0 -49 -40.5 -88t-114.5 -80q-25 -13 -33 -28.5t-8 -43.5v-542z" />
    <glyph glyph-name="uni01C4" unicode="&#x1c4;" horiz-adv-x="2055" 
d="M55 0v51h146v1148h-146v51h334q212 0 363 -70.5t230 -205.5t79 -324q0 -201 -72.5 -347t-212.5 -224.5t-337 -78.5h-384zM790.5 199.5q112.5 144.5 112.5 415.5q0 580 -516 580h-45v-1064q0 -43 26 -59.5t90 -16.5q220 0 332.5 144.5zM1996 451l-44 -451h-766v52
l598 1137h-188q-124 0 -183 -21.5t-90.5 -85.5t-56.5 -209h-52l22 377h699v-54l-590 -1133h214q142 0 213.5 30t108.5 109.5t63 248.5h52zM1581 1397l217 189h37l-122 -251h-179l-123 251h66z" />
    <glyph glyph-name="uni01C5" unicode="&#x1c5;" horiz-adv-x="1853" 
d="M55 0v51h146v1148h-146v51h334q212 0 363 -70.5t230 -205.5t79 -324q0 -201 -72.5 -347t-212.5 -224.5t-337 -78.5h-384zM790.5 199.5q112.5 144.5 112.5 415.5q0 580 -516 580h-45v-1064q0 -43 26 -59.5t90 -16.5q220 0 332.5 144.5zM1807 315l-68 -315h-569v51l454 748
l-132 -2q-82 -1 -131 -19t-80 -63t-54 -131l-39 4l30 265h559v-49l-458 -750l118 2q101 1 163.5 27t101.5 83.5t67 158.5zM1535 1059l131 236h65l-181 -342h-97l-182 342h50z" />
    <glyph glyph-name="uni01C6" unicode="&#x1c6;" horiz-adv-x="1600" 
d="M713 220q0 -55 11 -84t41.5 -43t91.5 -19v-32l-250 -58l-9 3l-17 172q-55 -97 -113 -139t-123 -42q-79 0 -144 48.5t-103.5 143t-38.5 225.5q0 156 54.5 264.5t140.5 162t180 53.5q77 0 144 -38v215q0 41 -5 60t-18.5 29t-44.5 19l-72 21v28l263 91h20l-8 -215v-865z
M534 161q44 53 44 170v349q-97 122 -199 122q-87 0 -139 -77t-52 -227q0 -123 31 -211t84.5 -133.5t119.5 -45.5q67 0 111 53zM1553 315l-68 -315h-569v51l454 748l-132 -2q-82 -1 -131 -19t-80 -63t-54 -131l-39 4l30 265h559v-49l-458 -750l118 2q101 1 163.5 27
t101.5 83.5t67 158.5zM1281 1059l131 236h65l-181 -342h-97l-182 342h50z" />
    <glyph glyph-name="uni01C7" unicode="&#x1c7;" horiz-adv-x="1491" 
d="M342 185q0 -56 10.5 -83t40.5 -38t93 -11h128q78 0 122 31.5t71.5 113t47.5 243.5h47v-441h-846v51h145v1148h-145v51h431v-51h-145v-1014zM1451 1199h-153v-1042q0 -113 -19 -175t-91.5 -125.5t-236.5 -150.5l-18 37q104 65 149 109.5t60.5 100.5t15.5 163v1083h-156v51
h449v-51z" />
    <glyph glyph-name="uni01C8" unicode="&#x1c8;" horiz-adv-x="1379" 
d="M342 185q0 -56 10.5 -83t40.5 -38t93 -11h128q78 0 122 31.5t71.5 113t47.5 243.5h47v-441h-846v51h145v1148h-145v51h431v-51h-145v-1014zM1123 1024.5q-26 15.5 -41 40.5t-15 54q0 45 33 78t78 33q28 0 53 -15t40.5 -41t15.5 -55q0 -28 -15.5 -53.5t-40.5 -41
t-53 -15.5q-29 0 -55 15.5zM920 -243l12 3q64 -29 90 -38t47 -9t34 16q10 15 13.5 37.5t3.5 81.5v782q0 41 -5 60t-18.5 28.5t-44.5 19.5l-72 21v28l265 88h20l-10 -205v-732q0 -69 -39.5 -149t-103.5 -134.5t-132 -54.5q-30 0 -55 8.5t-50 27.5z" />
    <glyph glyph-name="uni01C9" unicode="&#x1c9;" horiz-adv-x="826" 
d="M287 48h118v-48h-371v48h118v1004q0 41 -5 60t-18.5 29t-44.5 19l-72 21v28l263 91h20l-8 -222v-1030zM570 1024.5q-26 15.5 -41 40.5t-15 54q0 45 33 78t78 33q28 0 53 -15t40.5 -41t15.5 -55q0 -28 -15.5 -53.5t-40.5 -41t-53 -15.5q-29 0 -55 15.5zM367 -243l12 3
q64 -29 90 -38t47 -9t34 16q10 15 13.5 37.5t3.5 81.5v782q0 41 -5 60t-18.5 28.5t-44.5 19.5l-72 21v28l265 88h20l-10 -205v-732q0 -69 -39.5 -149t-103.5 -134.5t-132 -54.5q-30 0 -55 8.5t-50 27.5z" />
    <glyph glyph-name="uni01CA" unicode="&#x1ca;" horiz-adv-x="1636" 
d="M694 1250h383v-51h-131l-5 -341v-858h-52l-619 988l11 -773q1 -68 10.5 -101t34.5 -47.5t77 -19.5l42 -4v-43h-382v51h131l5 328v635q0 65 -8 100.5t-27 54.5t-57 30l-56 15v36h220l528 -862l71 -126l-11 774q-1 68 -10.5 101t-34.5 47t-77 19l-43 4v43zM1596 1199h-153
v-1042q0 -113 -19 -175t-91.5 -125.5t-236.5 -150.5l-18 37q104 65 149 109.5t60.5 100.5t15.5 163v1083h-156v51h449v-51z" />
    <glyph glyph-name="uni01CB" unicode="&#x1cb;" horiz-adv-x="1524" 
d="M694 1250h383v-51h-131l-5 -341v-858h-52l-619 988l11 -773q1 -68 10.5 -101t34.5 -47.5t77 -19.5l42 -4v-43h-382v51h131l5 328v635q0 65 -8 100.5t-27 54.5t-57 30l-56 15v36h220l528 -862l71 -126l-11 774q-1 68 -10.5 101t-34.5 47t-77 19l-43 4v43zM1268 1024.5
q-26 15.5 -41 40.5t-15 54q0 45 33 78t78 33q28 0 53 -15t40.5 -41t15.5 -55q0 -28 -15.5 -53.5t-40.5 -41t-53 -15.5q-29 0 -55 15.5zM1065 -243l12 3q64 -29 90 -38t47 -9t34 16q10 15 13.5 37.5t3.5 81.5v782q0 41 -5 60t-18.5 28.5t-44.5 19.5l-72 21v28l265 88h20
l-10 -205v-732q0 -69 -39.5 -149t-103.5 -134.5t-132 -54.5q-30 0 -55 8.5t-50 27.5z" />
    <glyph glyph-name="uni01CC" unicode="&#x1cc;" horiz-adv-x="1337" 
d="M351.5 688q-45.5 -69 -45.5 -185v-455h111v-48h-364v48h118v575q0 46 -15.5 70.5t-54.5 35.5l-68 17v28l253 93h20l-12 -194l9 -1q38 96 110.5 149.5t152.5 53.5q65 0 116 -29.5t79.5 -81t28.5 -116.5v-600h118v-48h-364v48h111v545q0 80 -42 122t-120 42
q-96 0 -141.5 -69zM1081 1024.5q-26 15.5 -41 40.5t-15 54q0 45 33 78t78 33q28 0 53 -15t40.5 -41t15.5 -55q0 -28 -15.5 -53.5t-40.5 -41t-53 -15.5q-29 0 -55 15.5zM878 -243l12 3q64 -29 90 -38t47 -9t34 16q10 15 13.5 37.5t3.5 81.5v782q0 41 -5 60t-18.5 28.5
t-44.5 19.5l-72 21v28l265 88h20l-10 -205v-732q0 -69 -39.5 -149t-103.5 -134.5t-132 -54.5q-30 0 -55 8.5t-50 27.5z" />
    <glyph glyph-name="Gcaron" unicode="&#x1e6;" horiz-adv-x="1067" 
d="M1021 576v-58h-92v-530h-34l-76 252q-44 -144 -118.5 -203t-174.5 -59q-126 0 -228.5 76t-162 220t-59.5 341q0 185 60.5 335t165.5 236t233 86q83 0 156.5 -41t127.5 -121l65 150h27v-429h-37q-68 168 -167.5 251.5t-216.5 83.5q-143 0 -222.5 -118t-79.5 -341
q0 -181 52 -316t143.5 -208t207.5 -73q92 0 146 67.5t54 216.5v124h-163v58h393zM481 1397l217 189h37l-122 -251h-179l-123 251h66z" />
    <glyph glyph-name="gcaron" unicode="&#x1e7;" horiz-adv-x="776" 
d="M771 853v-59l-204 9q47 -39 74 -94t27 -124q0 -101 -73.5 -179t-219.5 -119l-100 -23q-85 -23 -115 -36.5t-30 -34.5q0 -20 44 -34.5t131 -18.5l202 -8q131 -6 195.5 -46.5t64.5 -122.5q0 -84 -57.5 -166.5t-157 -135.5t-218.5 -53q-89 0 -160.5 25.5t-112 71.5
t-40.5 104q0 60 46.5 114t151.5 115q-71 35 -107.5 72.5t-36.5 69.5q0 25 16 46.5t50.5 46.5t104.5 67q-88 30 -132 96t-44 146t38 147t104.5 106.5t149.5 39.5q62 0 118 -22h291zM488.5 406.5q38.5 51.5 38.5 154.5q0 74 -22 133t-62.5 93t-92.5 34q-65 0 -101.5 -54.5
t-36.5 -150.5q0 -75 21.5 -134t60.5 -93t90 -34q66 0 104.5 51.5zM242 13q-59 -34 -84.5 -70t-25.5 -81t32 -80.5t91.5 -55t138.5 -19.5q84 0 148.5 22.5t100.5 64.5t36 97q0 64 -67.5 97.5t-199.5 33.5q-82 0 -170 -9zM399 1059l131 236h65l-181 -342h-97l-182 342h50z" />
    <glyph glyph-name="uni01EA" unicode="&#x1ea;" horiz-adv-x="1103" 
d="M582 -79q-34 -39 -34 -82q0 -37 20 -56t56 -19q47 0 86 27l5 -5v-75q-51 -46 -113 -46q-58 0 -96 34t-38 96q0 43 24 87t85 97q-8 -1 -25 -1q-131 0 -241 84.5t-173.5 230t-63.5 319.5q0 186 63 336.5t172.5 237t242.5 86.5q134 0 243 -82.5t171.5 -226.5t62.5 -320
q0 -150 -42 -279t-116.5 -221.5t-171.5 -133.5q-83 -49 -117 -88zM264.5 389q54.5 -145 144.5 -233.5t191 -88.5q91 0 157 59t101.5 169.5t35.5 261.5q0 164 -53.5 308.5t-143.5 231t-194 86.5q-92 0 -158 -58t-100.5 -168t-34.5 -264q0 -159 54.5 -304z" />
    <glyph glyph-name="uni01EB" unicode="&#x1eb;" horiz-adv-x="856" 
d="M422 -97q-37 -43 -37 -87q0 -35 19.5 -53.5t51.5 -18.5q46 0 89 30l5 -5v-75q-45 -50 -111 -50q-53 0 -89.5 33.5t-36.5 93.5q0 45 23.5 87t89.5 119q-105 0 -189.5 61.5t-132 164.5t-47.5 222t46.5 222t131 165.5t192.5 62.5q106 0 191 -61.5t133 -164.5t48 -221
q0 -97 -31.5 -185t-89.5 -152.5t-136 -93.5q-83 -51 -120 -94zM241.5 246q28.5 -99 80 -151t118.5 -52q60 0 105.5 37.5t71 111t25.5 178.5q0 211 -59.5 325.5t-168.5 114.5q-60 0 -105.5 -38.5t-70.5 -112.5t-25 -178q0 -136 28.5 -235z" />
    <glyph glyph-name="Aringacute" unicode="&#x1fa;" horiz-adv-x="1078" 
d="M415.5 1349q-39.5 23 -63 63.5t-23.5 91.5q0 48 20.5 86.5t56 61.5t78.5 27l54 244h179l-191 -245q64 -8 106 -56t42 -118q0 -51 -23.5 -91.5t-63 -63.5t-86.5 -23q-46 0 -85.5 23zM410 1584.5q-35 -30.5 -35 -80.5t35 -81.5t91 -31.5q59 0 93 31.5t34 81.5t-34 80.5
t-93 30.5q-56 0 -91 -30.5zM968 51h108v-51h-427v51h173l-132 400h-364q-90 -301 -90 -350q0 -21 16 -32t55 -14l100 -9v-46h-392v51h107l345 1076l-38 117l1 6h141zM500 1030l-156 -519h327z" />
    <glyph glyph-name="aringacute" unicode="&#x1fb;" horiz-adv-x="765" 
d="M287.5 966q-39.5 23 -63 63.5t-23.5 91.5q0 50 22 89.5t59 62t82 24.5l106 324h152l-216 -327q61 -11 100.5 -58t39.5 -115q0 -51 -23.5 -91.5t-63 -63.5t-86.5 -23q-46 0 -85.5 23zM282 1201.5q-35 -30.5 -35 -80.5q0 -49 35 -81t91 -32q59 0 93 31.5t34 81.5t-34 80.5
t-93 30.5q-56 0 -91 -30.5zM783 156q-36 -94 -73.5 -136t-87.5 -42q-45 0 -85 32.5t-57 96.5q-46 -70 -89 -99.5t-104 -29.5q-59 0 -111 29.5t-83 80t-31 111.5q0 69 47.5 114.5t155.5 71.5l201 47l6 119q5 99 -37 150.5t-131 51.5q-77 0 -135.5 -42.5t-113.5 -137.5l-24 26
q71 143 154.5 209.5t181.5 66.5q69 0 124 -30.5t86.5 -96t29.5 -166.5l-8 -376q-1 -62 15 -89.5t48 -27.5q30 0 52.5 20t42.5 60zM444 119q27 38 25 119l-2 145l-73 -17q-78 -17 -118 -33.5t-55.5 -38t-15.5 -56.5q0 -44 20 -79.5t55 -56.5t79 -21q58 0 85 38z" />
    <glyph glyph-name="AEacute" unicode="&#x1fc;" horiz-adv-x="1518" 
d="M1438 425v-425h-850v51h145v389h-356l-17 -37q-73 -153 -99 -217.5t-26 -86.5q0 -21 22 -31.5t89 -15.5l76 -6v-46h-430v51h118l549 1146h-158v53h884v-395h-46q-18 144 -49 215t-96.5 100t-193.5 29h-128v-527h50q94 0 139.5 18t62 57.5t20.5 118.5h48v-469h-48
q-4 89 -20.5 134t-62 66t-139.5 21h-50v-449q0 -50 12 -73.5t47 -33t110 -9.5h85q91 0 139.5 28t76.5 105.5t50 238.5h46zM733 1195l-328 -696h328v696zM795 1588h179l-196 -251h-39z" />
    <glyph glyph-name="aeacute" unicode="&#x1fd;" horiz-adv-x="1170" 
d="M1142 314q-64 -186 -144.5 -261.5t-186.5 -75.5q-92 0 -162.5 45t-112.5 129q-48 -69 -88.5 -107t-78 -52.5t-81.5 -14.5q-67 0 -119 31t-80.5 81t-28.5 105q0 72 48.5 118t137.5 65l219 47l3 102q4 115 -34.5 171t-129.5 56q-82 0 -139.5 -41t-112.5 -143l-25 26
q80 149 159.5 214.5t176.5 65.5q77 0 130.5 -37t79.5 -106q47 69 111 106t136 37q78 0 138.5 -40.5t96 -125.5t36.5 -215h-490q1 -118 33 -205.5t89.5 -135t135.5 -47.5t140.5 55.5t104.5 167.5zM661 731q-50 -66 -59 -184l359 3q-6 121 -51 184t-123 63q-76 0 -126 -66z
M444 114.5q24 39.5 23 115.5l-2 150l-96 -23q-67 -16 -102.5 -32.5t-49 -38t-13.5 -55.5q0 -46 21.5 -81.5t58 -55t79.5 -19.5q57 0 81 39.5zM611 953h-38l111 342h153z" />
    <glyph glyph-name="Oslashacute" unicode="&#x1fe;" horiz-adv-x="1139" 
d="M1081 1255l-148 -204q53 -83 81 -187t28 -221q0 -185 -63 -337.5t-172.5 -240t-241.5 -87.5q-86 0 -164 37.5t-141 106.5l-92 -127h-77l128 177q-62 86 -96.5 199.5t-34.5 240.5q0 186 63 336.5t172 237t242 86.5q96 0 180.5 -44t149.5 -124l109 151h77zM247 488
q24 -100 68 -184l487 673q-55 96 -129.5 151t-156.5 55q-92 0 -158 -58t-100.5 -168t-34.5 -264q0 -105 24 -205zM888 744q-19 91 -54 170l-485 -669q55 -83 123.5 -130.5t140.5 -47.5q91 0 157 59t101.5 169.5t35.5 261.5q0 96 -19 187zM597 1588h179l-196 -251h-39z" />
    <glyph glyph-name="oslashacute" unicode="&#x1ff;" horiz-adv-x="878" 
d="M810 844l-93 -118q45 -61 69 -138t24 -160q0 -120 -46.5 -223.5t-131 -165.5t-194.5 -62q-67 0 -126.5 25.5t-107.5 72.5l-63 -80h-67l95 120q-48 62 -74.5 142t-26.5 168q0 119 46.5 222t131 165.5t192.5 62.5q71 0 133 -28t111 -79l60 76h68zM258 229l347 441
q-29 68 -74.5 104t-105.5 36t-105.5 -38.5t-70.5 -112.5t-25 -178q0 -148 34 -252zM626 610l-345 -438q30 -63 73.5 -96t96.5 -33q60 0 105.5 37.5t71 111t25.5 178.5q0 143 -27 240zM445 953h-38l111 342h153z" />
    <glyph glyph-name="uni0200" unicode="&#x200;" horiz-adv-x="1078" 
d="M968 51h108v-51h-427v51h173l-132 400h-364q-90 -301 -90 -350q0 -21 16 -32t55 -14l100 -9v-46h-392v51h107l345 1076l-38 117l1 6h141zM500 1030l-156 -519h327zM414 1337h-40l-209 251h166zM678 1337h-39l-209 251h165z" />
    <glyph glyph-name="uni0201" unicode="&#x201;" horiz-adv-x="765" 
d="M391 7.5q-43 -29.5 -104 -29.5q-59 0 -111 29.5t-83 80t-31 111.5q0 69 47.5 114.5t155.5 71.5l201 47l6 119q5 99 -37 150.5t-131 51.5q-77 0 -135.5 -42.5t-113.5 -137.5l-24 26q71 143 154.5 209.5t181.5 66.5q69 0 124 -30.5t86.5 -96t29.5 -166.5l-8 -376
q-1 -62 15 -89.5t48 -27.5q30 0 52.5 20t42.5 60l26 -13q-36 -94 -73.5 -136t-87.5 -42q-45 0 -85 32.5t-57 96.5q-46 -70 -89 -99.5zM467 383l-73 -17q-78 -17 -118 -33.5t-55.5 -38t-15.5 -56.5q0 -44 20 -79.5t55 -56.5t79 -21q58 0 85 38t25 119zM235 953l-221 342h165
l93 -342h-37zM476 953l-221 342h165l94 -342h-38z" />
    <glyph glyph-name="uni0202" unicode="&#x202;" horiz-adv-x="1078" 
d="M968 51h108v-51h-427v51h173l-132 400h-364q-90 -301 -90 -350q0 -21 16 -32t55 -14l100 -9v-46h-392v51h107l345 1076l-38 117l1 6h141zM500 1030l-156 -519h327zM689 1337l-9 36q-17 84 -64 123.5t-115 39.5t-114.5 -39.5t-63.5 -123.5l-10 -36h-42q15 150 75.5 225.5
t154.5 75.5q95 0 155 -75.5t76 -225.5h-43z" />
    <glyph glyph-name="uni0203" unicode="&#x203;" horiz-adv-x="765" 
d="M391 7.5q-43 -29.5 -104 -29.5q-59 0 -111 29.5t-83 80t-31 111.5q0 69 47.5 114.5t155.5 71.5l201 47l6 119q5 99 -37 150.5t-131 51.5q-77 0 -135.5 -42.5t-113.5 -137.5l-24 26q71 143 154.5 209.5t181.5 66.5q69 0 124 -30.5t86.5 -96t29.5 -166.5l-8 -376
q-1 -62 15 -89.5t48 -27.5q30 0 52.5 20t42.5 60l26 -13q-36 -94 -73.5 -136t-87.5 -42q-45 0 -85 32.5t-57 96.5q-46 -70 -89 -99.5zM467 383l-73 -17q-78 -17 -118 -33.5t-55.5 -38t-15.5 -56.5q0 -44 20 -79.5t55 -56.5t79 -21q58 0 85 38t25 119zM561 953l-9 36
q-41 195 -179 195q-66 0 -112 -47.5t-66 -147.5l-10 -36h-42q16 173 76 259.5t154 86.5t154 -86t77 -260h-43z" />
    <glyph glyph-name="uni0204" unicode="&#x204;" horiz-adv-x="1001" 
d="M921 425v-425h-867v51h148v1148h-148v51h817v-395h-46q-17 140 -48.5 211.5t-98 102t-192.5 30.5h-145v-525h68q94 0 139 18t61.5 57.5t20.5 118.5h49v-469h-49q-4 89 -20.5 134t-62 66.5t-138.5 21.5h-68v-436q0 -59 11 -85.5t43 -36.5t104 -10h112q90 0 138.5 27.5
t77 105.5t49.5 239h45zM426 1337h-40l-209 251h166zM690 1337h-39l-209 251h165z" />
    <glyph glyph-name="uni0205" unicode="&#x205;" horiz-adv-x="747" 
d="M718 314q-63 -186 -143.5 -261.5t-186.5 -75.5q-99 0 -173.5 52.5t-115 149t-40.5 226.5q0 137 46 244.5t123.5 166.5t168.5 59q77 0 138 -40.5t96.5 -125.5t35.5 -215h-490q1 -118 33 -205.5t90 -135t135 -47.5q79 0 141.5 55.5t103.5 167.5zM237.5 730.5
q-50.5 -66.5 -58.5 -183.5l359 3q-6 121 -51 184t-123 63q-76 0 -126.5 -66.5zM254 953l-221 342h165l93 -342h-37zM495 953l-221 342h165l94 -342h-38z" />
    <glyph glyph-name="uni0206" unicode="&#x206;" horiz-adv-x="1001" 
d="M921 425v-425h-867v51h148v1148h-148v51h817v-395h-46q-17 140 -48.5 211.5t-98 102t-192.5 30.5h-145v-525h68q94 0 139 18t61.5 57.5t20.5 118.5h49v-469h-49q-4 89 -20.5 134t-62 66.5t-138.5 21.5h-68v-436q0 -59 11 -85.5t43 -36.5t104 -10h112q90 0 138.5 27.5
t77 105.5t49.5 239h45zM701 1337l-9 36q-17 84 -64 123.5t-115 39.5t-114.5 -39.5t-63.5 -123.5l-10 -36h-42q15 150 75.5 225.5t154.5 75.5q95 0 155 -75.5t76 -225.5h-43z" />
    <glyph glyph-name="uni0207" unicode="&#x207;" horiz-adv-x="747" 
d="M718 314q-63 -186 -143.5 -261.5t-186.5 -75.5q-99 0 -173.5 52.5t-115 149t-40.5 226.5q0 137 46 244.5t123.5 166.5t168.5 59q77 0 138 -40.5t96.5 -125.5t35.5 -215h-490q1 -118 33 -205.5t90 -135t135 -47.5q79 0 141.5 55.5t103.5 167.5zM237.5 730.5
q-50.5 -66.5 -58.5 -183.5l359 3q-6 121 -51 184t-123 63q-76 0 -126.5 -66.5zM579 953l-9 36q-41 195 -179 195q-66 0 -112 -47.5t-66 -147.5l-10 -36h-42q16 173 76 259.5t154 86.5t154 -86t77 -260h-43z" />
    <glyph glyph-name="uni0208" unicode="&#x208;" horiz-adv-x="544" 
d="M343 1199v-1148h148v-51h-437v51h148v1148h-148v51h437v-51h-148zM184 1337h-40l-209 251h166zM448 1337h-39l-209 251h165z" />
    <glyph glyph-name="uni0209" unicode="&#x209;" horiz-adv-x="461" 
d="M308 48h118v-48h-371v48h118v582q0 41 -5 60t-18.5 28.5t-44.5 19.5l-72 21v28l265 88h20l-10 -254v-573zM92 953l-221 342h165l93 -342h-37zM333 953l-221 342h165l94 -342h-38z" />
    <glyph glyph-name="uni020A" unicode="&#x20a;" horiz-adv-x="544" 
d="M343 1199v-1148h148v-51h-437v51h148v1148h-148v51h437v-51h-148zM460 1337l-9 36q-17 84 -64 123.5t-115 39.5t-114.5 -39.5t-63.5 -123.5l-10 -36h-42q15 150 75.5 225.5t154.5 75.5q95 0 155 -75.5t76 -225.5h-43z" />
    <glyph glyph-name="uni020B" unicode="&#x20b;" horiz-adv-x="461" 
d="M308 48h118v-48h-371v48h118v582q0 41 -5 60t-18.5 28.5t-44.5 19.5l-72 21v28l265 88h20l-10 -254v-573zM418 953l-9 36q-41 195 -179 195q-66 0 -112 -47.5t-66 -147.5l-10 -36h-42q16 173 76 259.5t154 86.5t154 -86t77 -260h-43z" />
    <glyph glyph-name="uni020C" unicode="&#x20c;" horiz-adv-x="1103" 
d="M311 62.5q-110 84.5 -173.5 230t-63.5 319.5q0 186 63 336.5t172.5 237t242.5 86.5q134 0 243 -82.5t171.5 -226.5t62.5 -320q0 -185 -63 -337.5t-172.5 -240t-241.5 -87.5q-131 0 -241 84.5zM757 126q66 59 101.5 169.5t35.5 261.5q0 164 -53.5 308.5t-143.5 231
t-194 86.5q-92 0 -158 -58t-100.5 -168t-34.5 -264q0 -159 54.5 -304t144.5 -233.5t191 -88.5q91 0 157 59zM464 1337h-40l-209 251h166zM728 1337h-39l-209 251h165z" />
    <glyph glyph-name="uni020D" unicode="&#x20d;" horiz-adv-x="856" 
d="M618 813.5q85 -61.5 133 -164.5t48 -221q0 -120 -46.5 -223.5t-131.5 -165.5t-194 -62q-105 0 -189.5 61.5t-132.5 164.5t-48 222t46.5 222t131 165.5t192.5 62.5q106 0 191 -61.5zM308.5 771.5q-45.5 -38.5 -70.5 -112.5t-25 -178q0 -136 28.5 -235t80 -151t118.5 -52
q60 0 105.5 37.5t71 111t25.5 178.5q0 211 -59.5 325.5t-168.5 114.5q-60 0 -105.5 -38.5zM293 953l-221 342h165l93 -342h-37zM534 953l-221 342h165l94 -342h-38z" />
    <glyph glyph-name="uni020E" unicode="&#x20e;" horiz-adv-x="1103" 
d="M311 62.5q-110 84.5 -173.5 230t-63.5 319.5q0 186 63 336.5t172.5 237t242.5 86.5q134 0 243 -82.5t171.5 -226.5t62.5 -320q0 -185 -63 -337.5t-172.5 -240t-241.5 -87.5q-131 0 -241 84.5zM757 126q66 59 101.5 169.5t35.5 261.5q0 164 -53.5 308.5t-143.5 231
t-194 86.5q-92 0 -158 -58t-100.5 -168t-34.5 -264q0 -159 54.5 -304t144.5 -233.5t191 -88.5q91 0 157 59zM739 1337l-9 36q-17 84 -64 123.5t-115 39.5t-114.5 -39.5t-63.5 -123.5l-10 -36h-42q15 150 75.5 225.5t154.5 75.5q95 0 155 -75.5t76 -225.5h-43z" />
    <glyph glyph-name="uni020F" unicode="&#x20f;" horiz-adv-x="856" 
d="M618 813.5q85 -61.5 133 -164.5t48 -221q0 -120 -46.5 -223.5t-131.5 -165.5t-194 -62q-105 0 -189.5 61.5t-132.5 164.5t-48 222t46.5 222t131 165.5t192.5 62.5q106 0 191 -61.5zM308.5 771.5q-45.5 -38.5 -70.5 -112.5t-25 -178q0 -136 28.5 -235t80 -151t118.5 -52
q60 0 105.5 37.5t71 111t25.5 178.5q0 211 -59.5 325.5t-168.5 114.5q-60 0 -105.5 -38.5zM618 953l-9 36q-41 195 -179 195q-66 0 -112 -47.5t-66 -147.5l-10 -36h-42q16 173 76 259.5t154 86.5t154 -86t77 -260h-43z" />
    <glyph glyph-name="uni0210" unicode="&#x210;" horiz-adv-x="1034" 
d="M1054 1q-73 -15 -135 -15q-50 0 -106 39t-114 127q-119 181 -263 443h-95v-544h144v-51h-427v51h143v1148h-143v51h437q181 0 282.5 -78.5t101.5 -231.5q0 -135 -87.5 -219.5t-230.5 -111.5q79 -123 132 -203t119 -173q76 -110 129.5 -151.5t110.5 -45.5zM341 1197v-542
h122q127 7 191.5 76.5t64.5 192.5q0 134 -60 203.5t-182 69.5h-136zM348 1337h-40l-209 251h166zM612 1337h-39l-209 251h165z" />
    <glyph glyph-name="uni0211" unicode="&#x211;" horiz-adv-x="616" 
d="M543 860q29 -15 53 -44l-44 -103l-7 -4q-71 34 -112 34q-127 0 -127 -194v-501h145v-48h-399v48h119v571q0 51 -14.5 79.5t-56.5 39.5l-67 16v28l251 93h20l-18 -201h8q37 114 82 157.5t101 43.5q37 0 66 -15zM180 951l-221 342h165l93 -342h-37zM421 951l-221 342h165
l94 -342h-38z" />
    <glyph glyph-name="uni0212" unicode="&#x212;" horiz-adv-x="1034" 
d="M1054 1q-73 -15 -135 -15q-50 0 -106 39t-114 127q-119 181 -263 443h-95v-544h144v-51h-427v51h143v1148h-143v51h437q181 0 282.5 -78.5t101.5 -231.5q0 -135 -87.5 -219.5t-230.5 -111.5q79 -123 132 -203t119 -173q76 -110 129.5 -151.5t110.5 -45.5zM341 1197v-542
h122q127 7 191.5 76.5t64.5 192.5q0 134 -60 203.5t-182 69.5h-136zM623 1337l-9 36q-17 84 -64 123.5t-115 39.5t-114.5 -39.5t-63.5 -123.5l-10 -36h-42q15 150 75.5 225.5t154.5 75.5q95 0 155 -75.5t76 -225.5h-43z" />
    <glyph glyph-name="uni0213" unicode="&#x213;" horiz-adv-x="616" 
d="M543 860q29 -15 53 -44l-44 -103l-7 -4q-71 34 -112 34q-127 0 -127 -194v-501h145v-48h-399v48h119v571q0 51 -14.5 79.5t-56.5 39.5l-67 16v28l251 93h20l-18 -201h8q37 114 82 157.5t101 43.5q37 0 66 -15zM505 951l-9 36q-41 195 -179 195q-66 0 -112 -47.5
t-66 -147.5l-10 -36h-42q16 173 76 259.5t154 86.5t154 -86t77 -260h-43z" />
    <glyph glyph-name="uni0214" unicode="&#x214;" horiz-adv-x="1136" 
d="M721 1250h368v-51h-114l-8 -333v-442q0 -145 -49 -246.5t-136 -153.5t-200 -52q-125 0 -217 53.5t-141.5 152t-49.5 232.5v789h-138v51h423v-51h-144v-752q0 -377 305 -377q138 0 205.5 89.5t67.5 282.5v594q0 69 -10.5 102t-36.5 46t-83 18l-42 4v44zM511 1337h-40
l-209 251h166zM775 1337h-39l-209 251h165z" />
    <glyph glyph-name="uni0215" unicode="&#x215;" horiz-adv-x="915" 
d="M631 192q-44 -113 -113.5 -163.5t-145.5 -50.5q-60 0 -110 30.5t-79.5 85t-29.5 123.5v412q0 40 -5 59t-19 29.5t-44 18.5l-70 18v28l258 93h12v-610q0 -85 40.5 -130.5t113.5 -45.5q89 0 137.5 76.5t48.5 206.5v257q0 38 -4 57t-18.5 30.5t-45.5 19.5l-70 18v28l257 93
h13v-648q0 -66 12 -100.5t41.5 -47t86.5 -10.5v-40l-235 -44h-23zM310 953l-221 342h165l93 -342h-37zM551 953l-221 342h165l94 -342h-38z" />
    <glyph glyph-name="uni0216" unicode="&#x216;" horiz-adv-x="1136" 
d="M721 1250h368v-51h-114l-8 -333v-442q0 -145 -49 -246.5t-136 -153.5t-200 -52q-125 0 -217 53.5t-141.5 152t-49.5 232.5v789h-138v51h423v-51h-144v-752q0 -377 305 -377q138 0 205.5 89.5t67.5 282.5v594q0 69 -10.5 102t-36.5 46t-83 18l-42 4v44zM786 1337l-9 36
q-17 84 -64 123.5t-115 39.5t-114.5 -39.5t-63.5 -123.5l-10 -36h-42q15 150 75.5 225.5t154.5 75.5q95 0 155 -75.5t76 -225.5h-43z" />
    <glyph glyph-name="uni0217" unicode="&#x217;" horiz-adv-x="915" 
d="M631 192q-44 -113 -113.5 -163.5t-145.5 -50.5q-60 0 -110 30.5t-79.5 85t-29.5 123.5v412q0 40 -5 59t-19 29.5t-44 18.5l-70 18v28l258 93h12v-610q0 -85 40.5 -130.5t113.5 -45.5q89 0 137.5 76.5t48.5 206.5v257q0 38 -4 57t-18.5 30.5t-45.5 19.5l-70 18v28l257 93
h13v-648q0 -66 12 -100.5t41.5 -47t86.5 -10.5v-40l-235 -44h-23zM636 953l-9 36q-41 195 -179 195q-66 0 -112 -47.5t-66 -147.5l-10 -36h-42q16 173 76 259.5t154 86.5t154 -86t77 -260h-43z" />
    <glyph glyph-name="uni0218" unicode="&#x218;" horiz-adv-x="925" 
d="M594 670q138 -66 197 -148.5t59 -194.5q0 -100 -42.5 -179.5t-119.5 -124.5t-177 -45t-184 47.5t-139 131.5l-62 -167h-34v475h40q41 -204 140 -315t240 -111q105 0 165.5 59.5t60.5 165.5q0 89 -42.5 150t-142.5 108l-151 71q-152 71 -221.5 154.5t-69.5 204.5
q0 94 41.5 167t114 113t160.5 40q84 0 152 -39t121 -107l59 134h33v-443h-41q-40 198 -125 296t-195 98q-96 0 -152 -57t-56 -156q0 -55 18 -95.5t60 -76.5t117 -72zM373 -423q73 23 105.5 55t32.5 68q0 27 -31 51t-94 40l41 110q88 -24 135 -67.5t47 -98.5
q0 -61 -53 -118.5t-165 -94.5z" />
    <glyph glyph-name="uni0219" unicode="&#x219;" horiz-adv-x="684" 
d="M429 474q99 -43 143 -98.5t44 -135.5q0 -74 -35 -133.5t-97 -94t-139 -34.5q-69 0 -138 31t-121 92l-22 207l24 16q47 -137 117.5 -206.5t147.5 -69.5q69 0 108.5 39t39.5 109q0 49 -26 79.5t-83 56.5l-122 55q-98 44 -143 104.5t-45 138.5q0 72 32 128t87.5 86.5
t124.5 30.5q50 0 92.5 -19.5t84.5 -58.5l46 76h22v-297h-28q-53 127 -106.5 178.5t-120.5 51.5q-59 0 -92.5 -34.5t-33.5 -97.5q0 -51 29 -84.5t93 -62.5zM212 -371q72 8 104.5 33t32.5 58t-28 56.5t-83 35.5l28 116q85 -22 129.5 -67.5t44.5 -102.5q0 -64 -56.5 -112
t-166.5 -62z" />
    <glyph glyph-name="uni021A" unicode="&#x21a;" horiz-adv-x="1006" 
d="M950 846h-47q-12 149 -41 222.5t-81.5 98.5t-149.5 25h-57v-1141h175v-51h-492v51h175v1141h-57q-97 0 -150 -24.5t-82 -98t-41 -223.5h-46v404h894v-404zM382 -423q73 23 105.5 55t32.5 68q0 27 -31 51t-94 40l41 110q88 -24 135 -67.5t47 -98.5q0 -61 -53 -118.5
t-165 -94.5z" />
    <glyph glyph-name="uni021B" unicode="&#x21b;" horiz-adv-x="554" 
d="M238.5 0q-43.5 22 -69.5 66t-26 107v607h-116v21q67 23 106.5 50t67.5 78.5t45 143.5h34l-2 -220h243l-41 -73h-202v-572q0 -62 25 -91.5t74 -29.5q42 0 74.5 25.5t72.5 92.5l28 -19q-47 -111 -97 -159.5t-120 -48.5q-53 0 -96.5 22zM206 -371q72 8 104.5 33t32.5 58
t-28 56.5t-83 35.5l28 116q85 -22 129.5 -67.5t44.5 -102.5q0 -64 -56.5 -112t-166.5 -62z" />
    <glyph glyph-name="uni022A" unicode="&#x22a;" horiz-adv-x="1103" 
d="M311 62.5q-110 84.5 -173.5 230t-63.5 319.5q0 186 63 336.5t172.5 237t242.5 86.5q134 0 243 -82.5t171.5 -226.5t62.5 -320q0 -185 -63 -337.5t-172.5 -240t-241.5 -87.5q-131 0 -241 84.5zM757 126q66 59 101.5 169.5t35.5 261.5q0 164 -53.5 308.5t-143.5 231
t-194 86.5q-92 0 -158 -58t-100.5 -168t-34.5 -264q0 -159 54.5 -304t144.5 -233.5t191 -88.5q91 0 157 59zM327 1369q-30 30 -30 70t30 70.5t70 30.5t69 -30t29 -71q0 -40 -29 -70t-69 -30t-70 30zM636 1369q-29 30 -29 70q0 41 29 71t69 30t70 -30t30 -71q0 -40 -30 -70
t-70 -30t-69 30zM816 1619h-529v60h529v-60z" />
    <glyph glyph-name="uni022B" unicode="&#x22b;" horiz-adv-x="856" 
d="M618 813.5q85 -61.5 133 -164.5t48 -221q0 -120 -46.5 -223.5t-131.5 -165.5t-194 -62q-105 0 -189.5 61.5t-132.5 164.5t-48 222t46.5 222t131 165.5t192.5 62.5q106 0 191 -61.5zM308.5 771.5q-45.5 -38.5 -70.5 -112.5t-25 -178q0 -136 28.5 -235t80 -151t118.5 -52
q60 0 105.5 37.5t71 111t25.5 178.5q0 211 -59.5 325.5t-168.5 114.5q-60 0 -105.5 -38.5zM207.5 1049q-28.5 29 -28.5 70t28.5 70t68.5 29t68 -29t28 -70t-28 -70t-68 -29t-68.5 29zM516.5 1049q-27.5 29 -27.5 70t27.5 70t67.5 29t68.5 -29t28.5 -70t-28.5 -70t-68.5 -29
t-67.5 29zM659 1303h-458v59h458v-59z" />
    <glyph glyph-name="uni022C" unicode="&#x22c;" horiz-adv-x="1103" 
d="M311 62.5q-110 84.5 -173.5 230t-63.5 319.5q0 186 63 336.5t172.5 237t242.5 86.5q134 0 243 -82.5t171.5 -226.5t62.5 -320q0 -185 -63 -337.5t-172.5 -240t-241.5 -87.5q-131 0 -241 84.5zM757 126q66 59 101.5 169.5t35.5 261.5q0 164 -53.5 308.5t-143.5 231
t-194 86.5q-92 0 -158 -58t-100.5 -168t-34.5 -264q0 -159 54.5 -304t144.5 -233.5t191 -88.5q91 0 157 59zM294 1333q18 101 54.5 148t102.5 47q31 0 59 -8.5t69 -25.5q38 -15 61.5 -22.5t48.5 -7.5q35 0 57 19t32 61l35 -6q-35 -184 -154 -184q-26 0 -51 7.5t-62 23.5
q-39 16 -65.5 24.5t-55.5 8.5q-39 0 -61 -21t-36 -68zM818 1619h-529v60h529v-60z" />
    <glyph glyph-name="uni022D" unicode="&#x22d;" horiz-adv-x="856" 
d="M618 813.5q85 -61.5 133 -164.5t48 -221q0 -120 -46.5 -223.5t-131.5 -165.5t-194 -62q-105 0 -189.5 61.5t-132.5 164.5t-48 222t46.5 222t131 165.5t192.5 62.5q106 0 191 -61.5zM308.5 771.5q-45.5 -38.5 -70.5 -112.5t-25 -178q0 -136 28.5 -235t80 -151t118.5 -52
q60 0 105.5 37.5t71 111t25.5 178.5q0 211 -59.5 325.5t-168.5 114.5q-60 0 -105.5 -38.5zM209 988q14 81 46.5 120t84.5 39q29 0 54 -7t57 -21q33 -14 54 -20t45 -6q29 0 46 15.5t27 53.5l33 -6q-32 -160 -132 -160q-27 0 -49.5 7t-54.5 21q-34 14 -54 20t-44 6
q-32 0 -50 -15.5t-30 -50.5zM659 1279h-458v59h458v-59z" />
    <glyph glyph-name="uni0230" unicode="&#x230;" horiz-adv-x="1103" 
d="M311 62.5q-110 84.5 -173.5 230t-63.5 319.5q0 186 63 336.5t172.5 237t242.5 86.5q134 0 243 -82.5t171.5 -226.5t62.5 -320q0 -185 -63 -337.5t-172.5 -240t-241.5 -87.5q-131 0 -241 84.5zM757 126q66 59 101.5 169.5t35.5 261.5q0 164 -53.5 308.5t-143.5 231
t-194 86.5q-92 0 -158 -58t-100.5 -168t-34.5 -264q0 -159 54.5 -304t144.5 -233.5t191 -88.5q91 0 157 59zM478 1387.5q-31 31.5 -31 73.5q0 43 31 74t73 31q43 0 74 -31t31 -74q0 -42 -31 -73.5t-74 -31.5q-42 0 -73 31.5zM816 1618h-529v60h529v-60z" />
    <glyph glyph-name="uni0231" unicode="&#x231;" horiz-adv-x="856" 
d="M618 813.5q85 -61.5 133 -164.5t48 -221q0 -120 -46.5 -223.5t-131.5 -165.5t-194 -62q-105 0 -189.5 61.5t-132.5 164.5t-48 222t46.5 222t131 165.5t192.5 62.5q106 0 191 -61.5zM308.5 771.5q-45.5 -38.5 -70.5 -112.5t-25 -178q0 -136 28.5 -235t80 -151t118.5 -52
q60 0 105.5 37.5t71 111t25.5 178.5q0 211 -59.5 325.5t-168.5 114.5q-60 0 -105.5 -38.5zM356 1030.5q-31 31.5 -31 74.5t31 74t74 31t74.5 -31t31.5 -74t-31.5 -74.5t-74.5 -31.5t-74 31.5zM659 1303h-458v59h458v-59z" />
    <glyph glyph-name="uni0232" unicode="&#x232;" horiz-adv-x="1052" 
d="M930 1199l-329 -613v-535h130v-51h-401v51h130l1 512l-350 636h-101v51h455v-51h-197l263 -482l23 -88l144 290q54 105 73 150t19 71t-15.5 36.5t-59.5 18.5l-58 10v45h359v-51h-86zM813 1374h-529v60h529v-60z" />
    <glyph glyph-name="uni0233" unicode="&#x233;" horiz-adv-x="861" 
d="M865 805h-84l-466 -1125h166v-50h-426v50h127l173 420l-242 704l-88 1v48h378v-51l-145 1l175 -538l23 -81l164 437q17 45 25 73.5t8 46.5q0 26 -16.5 38.5t-53.5 17.5l-83 9v47h365v-48zM680 1012h-458v59h458v-59z" />
    <glyph glyph-name="uni0237" unicode="&#x237;" horiz-adv-x="422" 
d="M-37 -243l12 3q64 -29 90 -38t47 -9t34 16q10 15 13.5 37.5t3.5 81.5v782q0 41 -5 60t-18.5 28.5t-44.5 19.5l-72 21v28l265 88h20l-10 -205v-732q0 -69 -39.5 -149t-103.5 -134.5t-132 -54.5q-30 0 -55 8.5t-50 27.5z" />
    <glyph glyph-name="uni0259" unicode="&#x259;" horiz-adv-x="752" 
d="M537 823.5q74 -52.5 114.5 -149t40.5 -226.5q0 -138 -46 -245t-123 -166t-168 -59q-77 0 -138 40.5t-96.5 125.5t-36.5 214h491q-1 118 -33 206t-90 135.5t-136 47.5t-140.5 -55.5t-103.5 -167.5l-39 15q64 186 145 261.5t186 75.5q99 0 173 -52.5zM514.5 122
q50.5 66 59.5 184l-360 -3q6 -121 51 -184t123 -63q76 0 126.5 66z" />
    <glyph glyph-name="circumflex" unicode="&#x2c6;" horiz-adv-x="1005" 
d="M551 1295l181 -342h-50l-214 233l-130 -233h-66l181 342h98z" />
    <glyph glyph-name="caron" unicode="&#x2c7;" horiz-adv-x="1005" 
d="M536 1059l131 236h65l-181 -342h-97l-182 342h50z" />
    <glyph glyph-name="breve" unicode="&#x2d8;" horiz-adv-x="1005" 
d="M733 1295q-17 -174 -77 -260t-154 -86t-154 86t-76 260h42l10 -37q20 -100 66 -147t112 -47q139 0 179 194l9 37h43z" />
    <glyph glyph-name="dotaccent" unicode="&#x2d9;" horiz-adv-x="1005" 
d="M428 1030.5q-31 31.5 -31 74.5t31 74t74 31t74.5 -31t31.5 -74t-31.5 -74.5t-74.5 -31.5t-74 31.5z" />
    <glyph glyph-name="ring" unicode="&#x2da;" horiz-adv-x="1000" 
d="M351.5 1213q23.5 40 62.5 62t86 22t86 -22t62.5 -62t23.5 -92q0 -51 -23.5 -91.5t-63 -63.5t-85.5 -23t-85.5 23t-63 63.5t-23.5 91.5q0 52 23.5 92zM408.5 1040q35.5 -32 91.5 -32q59 0 93 31.5t34 81.5t-34 80.5t-93 30.5q-57 0 -92 -30.5t-35 -80.5q0 -49 35.5 -81z
" />
    <glyph glyph-name="ogonek" unicode="&#x2db;" horiz-adv-x="1005" 
d="M566 -231v-75q-47 -50 -112 -50q-53 0 -89.5 33.5t-36.5 93.5q0 46 25 89t96 125v38l47 15l66 -38q-86 -53 -124 -96t-38 -88q0 -35 19 -53.5t52 -18.5q47 0 90 30z" />
    <glyph glyph-name="tilde" unicode="&#x2dc;" horiz-adv-x="1005" 
d="M279 988q14 81 46.5 120t84.5 39q29 0 54 -7t57 -21q33 -14 54 -20t45 -6q29 0 46 15.5t27 53.5l33 -6q-32 -160 -132 -160q-27 0 -49.5 7t-54.5 21q-34 14 -54 20t-44 6q-32 0 -50 -15.5t-30 -50.5z" />
    <glyph glyph-name="hungarumlaut" unicode="&#x2dd;" horiz-adv-x="1005" 
d="M380 1295h170l-241 -342h-37zM622 1295h170l-241 -342h-38z" />
    <glyph glyph-name="gravecomb" unicode="&#x300;" 
d="M-475 953l-212 342h153l97 -342h-38z" />
    <glyph glyph-name="acutecomb" unicode="&#x301;" 
d="M-548 953h-38l111 342h153z" />
    <glyph glyph-name="uni0302" unicode="&#x302;" 
d="M-454 1295l181 -342h-50l-214 233l-130 -233h-66l181 342h98z" />
    <glyph glyph-name="tildecomb" unicode="&#x303;" 
d="M-726 988q14 81 46.5 120t84.5 39q29 0 54 -7t57 -21q33 -14 54 -20t45 -6q29 0 46 15.5t27 53.5l33 -6q-32 -160 -132 -160q-27 0 -49.5 7t-54.5 21q-34 14 -54 20t-44 6q-32 0 -50 -15.5t-30 -50.5z" />
    <glyph glyph-name="uni0304" unicode="&#x304;" 
d="M-274 1012h-458v59h458v-59z" />
    <glyph glyph-name="uni0306" unicode="&#x306;" 
d="M-272 1295q-17 -174 -77 -260t-154 -86t-154 86t-76 260h42l10 -37q20 -100 66 -147t112 -47q139 0 179 194l9 37h43z" />
    <glyph glyph-name="uni0307" unicode="&#x307;" 
d="M-577 1030.5q-31 31.5 -31 74.5t31 74t74 31t74.5 -31t31.5 -74t-31.5 -74.5t-74.5 -31.5t-74 31.5z" />
    <glyph glyph-name="uni0308" unicode="&#x308;" 
d="M-725.5 1049q-28.5 29 -28.5 70t28.5 70t68.5 29t68 -29t28 -70t-28 -70t-68 -29t-68.5 29zM-416.5 1049q-27.5 29 -27.5 70t27.5 70t67.5 29t68.5 -29t28.5 -70t-28.5 -70t-68.5 -29t-67.5 29z" />
    <glyph glyph-name="hookabovecomb" unicode="&#x309;" 
d="M-476 1113q-35 -40 -106 -74l-7 -86h-41l-27 111q64 28 91 52.5t27 50.5q0 21 -15 33.5t-44 12.5q-64 0 -119 -68l-23 23q40 69 81.5 101.5t94.5 32.5q54 0 88.5 -30t34.5 -76q0 -43 -35 -83z" />
    <glyph glyph-name="uni030A" unicode="&#x30a;" 
d="M-648.5 1213q23.5 40 62.5 62t86 22t86 -22t62.5 -62t23.5 -92q0 -51 -23.5 -91.5t-63 -63.5t-85.5 -23t-85.5 23t-63 63.5t-23.5 91.5q0 52 23.5 92zM-591.5 1040q35.5 -32 91.5 -32q59 0 93 31.5t34 81.5t-34 80.5t-93 30.5q-57 0 -92 -30.5t-35 -80.5q0 -49 35.5 -81z
" />
    <glyph glyph-name="uni030B" unicode="&#x30b;" 
d="M-625 1295h170l-241 -342h-37zM-383 1295h170l-241 -342h-38z" />
    <glyph glyph-name="uni030C" unicode="&#x30c;" 
d="M-469 1059l131 236h65l-181 -342h-97l-182 342h50z" />
    <glyph glyph-name="uni030F" unicode="&#x30f;" 
d="M-554 953l-221 342h165l93 -342h-37zM-313 953l-221 342h165l94 -342h-38z" />
    <glyph glyph-name="uni0311" unicode="&#x311;" 
d="M-315 953l-9 36q-41 195 -179 195q-66 0 -112 -47.5t-66 -147.5l-10 -36h-42q16 173 76 259.5t154 86.5t154 -86t77 -260h-43z" />
    <glyph glyph-name="uni0312" unicode="&#x312;" 
d="M-442 949q-85 22 -129 67.5t-44 101.5q0 65 56 113t167 62l4 -45q-72 -8 -104.5 -33t-32.5 -58t28 -56.5t83 -35.5z" />
    <glyph glyph-name="uni031B" unicode="&#x31b;" 
d="M-757 773l-41 39l98 42q62 26 85.5 55.5t23.5 71.5q0 34 -19 65.5t-62 52.5l7 28q94 -5 142 -41t48 -95q0 -61 -55.5 -110t-151.5 -82z" />
    <glyph glyph-name="dotbelowcomb" unicode="&#x323;" 
d="M-568.5 -295.5q-27.5 27.5 -27.5 65.5t27.5 66t65.5 28t66 -28t28 -66t-28 -65.5t-66 -27.5t-65.5 27.5z" />
    <glyph glyph-name="uni0324" unicode="&#x324;" 
d="M-725.5 -289.5q-28.5 28.5 -28.5 71.5q0 42 28.5 70.5t68.5 28.5q41 0 68.5 -28t27.5 -71t-27.5 -71.5t-68.5 -28.5q-40 0 -68.5 28.5zM-416.5 -289.5q-27.5 28.5 -27.5 71.5q0 42 27.5 70.5t67.5 28.5q41 0 69 -28.5t28 -70.5q0 -43 -28 -71.5t-69 -28.5
q-40 0 -67.5 28.5z" />
    <glyph glyph-name="uni0326" unicode="&#x326;" 
d="M-608 -371q72 8 104.5 33t32.5 58t-28 56.5t-83 35.5l28 116q85 -22 129.5 -67.5t44.5 -102.5q0 -64 -56.5 -112t-166.5 -62z" />
    <glyph glyph-name="uni0327" unicode="&#x327;" 
d="M-521 -87q86 -32 122.5 -70.5t36.5 -97.5q0 -43 -19 -77t-52 -53t-72 -19q-48 0 -92 31t-71 91l37 47h13q33 -53 66 -75t70 -22q30 0 47 12.5t17 39.5q0 35 -36.5 60t-131.5 50l-11 18l62 156h53z" />
    <glyph glyph-name="uni0328" unicode="&#x328;" 
d="M-439 -231v-75q-47 -50 -112 -50q-53 0 -89.5 33.5t-36.5 93.5q0 46 25 89t96 125v38l47 15l66 -38q-86 -53 -124 -96t-38 -88q0 -35 19 -53.5t52 -18.5q47 0 90 30z" />
    <glyph glyph-name="uni032E" unicode="&#x32e;" 
d="M-369 -143q-17 -174 -77 -260t-154 -86t-154 86t-76 260h42l10 -37q20 -100 66 -147t112 -47q139 0 179 194l9 37h43z" />
    <glyph glyph-name="uni0331" unicode="&#x331;" 
d="M-371 -226h-458v59h458v-59z" />
    <glyph glyph-name="uni0394" unicode="&#x394;" horiz-adv-x="899" 
d="M344 1250h122l426 -1250h-870v50l357 1066l-40 123zM411 1020l-298 -967h617z" />
    <glyph glyph-name="uni03A9" unicode="&#x3a9;" horiz-adv-x="1204" 
d="M1132 422l-39 -422h-429v399h16q154 21 237 102.5t83 212.5q0 119 -63.5 210t-169.5 140t-229 49q-108 0 -185.5 -39t-118 -111t-40.5 -169q0 -151 98 -250t262 -137v-407h-415l-61 422l56 6q28 -133 52 -198.5t60.5 -93t99.5 -27.5q56 0 85 17t41.5 60t14.5 128
q-109 27 -194 93.5t-132.5 166t-47.5 220.5q0 145 64.5 255.5t175 170.5t243.5 60q135 0 246 -66t175.5 -185.5t64.5 -272.5q0 -167 -95 -284.5t-255 -167.5q8 -109 54 -152t124 -43q49 0 80 27t51 95.5t35 196.5z" />
    <glyph glyph-name="uni03BC" unicode="&#x3bc;" horiz-adv-x="943" 
d="M781 219q0 -49 12.5 -78t43 -43t84.5 -16v-33l-237 -71h-24l-9 217q-27 -118 -90 -171.5t-140 -53.5q-74 0 -134 44l16 -384h-141v970q0 47 -14.5 71.5t-53.5 35.5l-70 18v28l253 93h20v-573q0 -87 42 -135t117 -48q91 0 140.5 74.5t49.5 200.5v235q0 47 -14.5 71.5
t-53.5 35.5l-70 18v28l253 93h20v-627z" />
    <glyph glyph-name="pi" unicode="&#x3c0;" horiz-adv-x="962" 
d="M836 114q25 19 50 64l29 -14q-32 -102 -72 -148t-101 -46q-40 0 -78 21t-62.5 75t-20.5 146l22 496l-42 2q-35 2 -98 2q-56 0 -81 -2v-4q4 -108 4 -152q0 -200 -29.5 -330.5t-79 -191t-111.5 -60.5q-58 0 -90.5 60.5t-31.5 176.5l26 10q15 -51 40.5 -80t60.5 -29
q47 0 84 41.5t57.5 116t20.5 169.5q0 133 -40 264q-62 -11 -99.5 -31.5t-58.5 -47t-44 -70.5l-30 7q31 111 81.5 175t126 91.5t186.5 27.5h461l10 -19q-4 -40 -67 -137l-132 6l-35 -488q-1 -7 -1 -20q0 -51 24 -75.5t62 -24.5q34 0 59 19z" />
    <glyph glyph-name="uni1E08" unicode="&#x1e08;" horiz-adv-x="1007" 
d="M547 1588h180l-197 -251h-39zM964 526q-45 -269 -142.5 -402.5t-262.5 -144.5l-28 -66q86 -32 122.5 -70.5t36.5 -97.5q0 -43 -19 -77t-52 -53t-72 -19q-48 0 -91.5 31t-70.5 91l36 47h13q33 -53 66 -75t70 -22q30 0 47 12.5t17 39.5q0 34 -36 59.5t-131 50.5l-12 18
l52 131q-126 6 -224 85t-152.5 218t-54.5 319q0 192 60.5 345.5t162 239.5t218.5 86q84 0 148.5 -41t118.5 -123l65 144h27v-423h-36q-78 183 -171.5 260t-199.5 77q-82 0 -145.5 -51t-100 -156.5t-36.5 -262.5q0 -171 52.5 -305t145.5 -209t210 -75q131 0 209 111t113 319z
" />
    <glyph glyph-name="uni1E09" unicode="&#x1e09;" horiz-adv-x="707" 
d="M474 1295h153l-226 -342h-37zM676 288q-70 -286 -264 -308l-29 -67q85 -31 121.5 -70t36.5 -98q0 -43 -19 -77t-51.5 -53t-71.5 -19q-48 0 -92 31t-71 91l37 47h12q32 -53 66 -75t70 -22q30 0 47.5 12.5t17.5 39.5q0 34 -36.5 59.5t-131.5 50.5l-11 18l51 131
q-90 6 -157.5 62.5t-104.5 151t-37 209.5q0 143 48.5 250.5t129 165t173.5 57.5q74 0 135.5 -40.5t100.5 -117.5l-72 -73h-14q-89 150 -202 150q-53 0 -93.5 -35t-63 -103t-22.5 -164q0 -118 35 -204.5t95 -132t134 -45.5q71 0 120.5 50.5t73.5 139.5z" />
    <glyph glyph-name="uni1E0C" unicode="&#x1e0c;" horiz-adv-x="1136" 
d="M55 0v51h146v1148h-146v51h334q212 0 363 -70.5t230 -205.5t79 -324q0 -201 -72.5 -347t-212.5 -224.5t-337 -78.5h-384zM790.5 199.5q112.5 144.5 112.5 415.5q0 580 -516 580h-45v-1064q0 -43 26 -59.5t90 -16.5q220 0 332.5 144.5zM503.5 -296.5
q-27.5 27.5 -27.5 65.5t27.5 66t65.5 28t66 -28t28 -66t-28 -65.5t-66 -27.5t-65.5 27.5z" />
    <glyph glyph-name="uni1E0D" unicode="&#x1e0d;" horiz-adv-x="870" 
d="M713 220q0 -55 11 -84t41.5 -43t91.5 -19v-32l-250 -58l-9 3l-17 172q-55 -97 -113 -139t-123 -42q-79 0 -144 48.5t-103.5 143t-38.5 225.5q0 156 54.5 264.5t140.5 162t180 53.5q77 0 144 -38v215q0 41 -5 60t-18.5 29t-44.5 19l-72 21v28l263 91h20l-8 -215v-865z
M534 161q44 53 44 170v349q-97 122 -199 122q-87 0 -139 -77t-52 -227q0 -123 31 -211t84.5 -133.5t119.5 -45.5q67 0 111 53zM367.5 -295.5q-27.5 27.5 -27.5 65.5t27.5 66t65.5 28t66 -28t28 -66t-28 -65.5t-66 -27.5t-65.5 27.5z" />
    <glyph glyph-name="uni1E0E" unicode="&#x1e0e;" horiz-adv-x="1136" 
d="M55 0v51h146v1148h-146v51h334q212 0 363 -70.5t230 -205.5t79 -324q0 -201 -72.5 -347t-212.5 -224.5t-337 -78.5h-384zM790.5 199.5q112.5 144.5 112.5 415.5q0 580 -516 580h-45v-1064q0 -43 26 -59.5t90 -16.5q220 0 332.5 144.5zM798 -226h-458v59h458v-59z" />
    <glyph glyph-name="uni1E0F" unicode="&#x1e0f;" horiz-adv-x="870" 
d="M713 220q0 -55 11 -84t41.5 -43t91.5 -19v-32l-250 -58l-9 3l-17 172q-55 -97 -113 -139t-123 -42q-79 0 -144 48.5t-103.5 143t-38.5 225.5q0 156 54.5 264.5t140.5 162t180 53.5q77 0 144 -38v215q0 41 -5 60t-18.5 29t-44.5 19l-72 21v28l263 91h20l-8 -215v-865z
M534 161q44 53 44 170v349q-97 122 -199 122q-87 0 -139 -77t-52 -227q0 -123 31 -211t84.5 -133.5t119.5 -45.5q67 0 111 53zM663 -226h-458v59h458v-59z" />
    <glyph glyph-name="uni1E14" unicode="&#x1e14;" horiz-adv-x="1001" 
d="M921 425v-425h-867v51h148v1148h-148v51h817v-395h-46q-17 140 -48.5 211.5t-98 102t-192.5 30.5h-145v-525h68q94 0 139 18t61.5 57.5t20.5 118.5h49v-469h-49q-4 89 -20.5 134t-62 66.5t-138.5 21.5h-68v-436q0 -59 11 -85.5t43 -36.5t104 -10h112q90 0 138.5 27.5
t77 105.5t49.5 239h45zM778 1374h-529v60h529v-60zM485 1501l-196 251h179l56 -251h-39z" />
    <glyph glyph-name="uni1E15" unicode="&#x1e15;" horiz-adv-x="747" 
d="M718 314q-63 -186 -143.5 -261.5t-186.5 -75.5q-99 0 -173.5 52.5t-115 149t-40.5 226.5q0 137 46 244.5t123.5 166.5t168.5 59q77 0 138 -40.5t96.5 -125.5t35.5 -215h-490q1 -118 33 -205.5t90 -135t135 -47.5q79 0 141.5 55.5t103.5 167.5zM237.5 730.5
q-50.5 -66.5 -58.5 -183.5l359 3q-6 121 -51 184t-123 63q-76 0 -126.5 -66.5zM620 1012h-458v59h458v-59zM386 1161l-212 342h153l97 -342h-38z" />
    <glyph glyph-name="uni1E16" unicode="&#x1e16;" horiz-adv-x="1001" 
d="M921 425v-425h-867v51h148v1148h-148v51h817v-395h-46q-17 140 -48.5 211.5t-98 102t-192.5 30.5h-145v-525h68q94 0 139 18t61.5 57.5t20.5 118.5h49v-469h-49q-4 89 -20.5 134t-62 66.5t-138.5 21.5h-68v-436q0 -59 11 -85.5t43 -36.5t104 -10h112q90 0 138.5 27.5
t77 105.5t49.5 239h45zM778 1374h-529v60h529v-60zM546 1752h179l-196 -251h-39z" />
    <glyph glyph-name="uni1E17" unicode="&#x1e17;" horiz-adv-x="747" 
d="M718 314q-63 -186 -143.5 -261.5t-186.5 -75.5q-99 0 -173.5 52.5t-115 149t-40.5 226.5q0 137 46 244.5t123.5 166.5t168.5 59q77 0 138 -40.5t96.5 -125.5t35.5 -215h-490q1 -118 33 -205.5t90 -135t135 -47.5q79 0 141.5 55.5t103.5 167.5zM237.5 730.5
q-50.5 -66.5 -58.5 -183.5l359 3q-6 121 -51 184t-123 63q-76 0 -126.5 -66.5zM620 1012h-458v59h458v-59zM397 1161h-38l111 342h153z" />
    <glyph glyph-name="uni1E1C" unicode="&#x1e1c;" horiz-adv-x="1001" 
d="M374.5 1398.5q-53.5 63.5 -68.5 190.5h42l10 -37q13 -55 54.5 -81.5t100.5 -26.5q61 0 102 26.5t54 81.5l9 37h43q-15 -127 -68.5 -190.5t-139.5 -63.5q-85 0 -138.5 63.5zM921 0h-350l-37 -87q85 -31 121.5 -70t36.5 -98q0 -43 -19 -77t-51.5 -53t-71.5 -19
q-48 0 -92 31t-71 91l37 47h12q32 -53 66 -75t71 -22q29 0 46.5 12.5t17.5 39.5q0 34 -36.5 59.5t-131.5 50.5l-11 18l60 152h-464v51h148v1148h-148v51h817v-395h-46q-17 140 -48.5 211.5t-98 102t-192.5 30.5h-145v-525h68q94 0 139 18t61.5 57.5t20.5 118.5h49v-469h-49
q-4 89 -20.5 134t-62 66.5t-138.5 21.5h-68v-436q0 -59 11 -85.5t43 -36.5t104 -10h112q90 0 138.5 27.5t77 105.5t49.5 239h45v-425z" />
    <glyph glyph-name="uni1E1D" unicode="&#x1e1d;" horiz-adv-x="747" 
d="M238 1035q-60 86 -77 260h43l9 -37q40 -194 179 -194q66 0 112 47t66 147l9 37h43q-16 -174 -76 -260t-154 -86t-154 86zM718 314q-59 -171 -132 -248t-166 -87l-28 -66q85 -31 121.5 -70t36.5 -98q0 -43 -19 -77t-51.5 -53t-71.5 -19q-48 0 -92 31t-71 91l37 47h12
q32 -53 66 -75t71 -22q29 0 46.5 12.5t17.5 39.5q0 34 -36.5 59.5t-131.5 50.5l-11 18l52 130q-94 5 -163.5 59t-107.5 148.5t-38 219.5q0 137 46 244.5t123.5 166.5t168.5 59q77 0 138 -40.5t96.5 -125.5t35.5 -215h-490q1 -118 33 -205.5t90 -135t135 -47.5
q79 0 141.5 55.5t103.5 167.5zM237.5 730.5q-50.5 -66.5 -58.5 -183.5l359 3q-6 121 -51 184t-123 63q-76 0 -126.5 -66.5z" />
    <glyph glyph-name="uni1E20" unicode="&#x1e20;" horiz-adv-x="1067" 
d="M1021 576v-58h-92v-530h-34l-76 252q-44 -144 -118.5 -203t-174.5 -59q-126 0 -228.5 76t-162 220t-59.5 341q0 185 60.5 335t165.5 236t233 86q83 0 156.5 -41t127.5 -121l65 150h27v-429h-37q-68 168 -167.5 251.5t-216.5 83.5q-143 0 -222.5 -118t-79.5 -341
q0 -181 52 -316t143.5 -208t207.5 -73q92 0 146 67.5t54 216.5v124h-163v58h393zM788 1374h-529v60h529v-60z" />
    <glyph glyph-name="uni1E21" unicode="&#x1e21;" horiz-adv-x="776" 
d="M771 853v-59l-204 9q47 -39 74 -94t27 -124q0 -101 -73.5 -179t-219.5 -119l-100 -23q-85 -23 -115 -36.5t-30 -34.5q0 -20 44 -34.5t131 -18.5l202 -8q131 -6 195.5 -46.5t64.5 -122.5q0 -84 -57.5 -166.5t-157 -135.5t-218.5 -53q-89 0 -160.5 25.5t-112 71.5
t-40.5 104q0 60 46.5 114t151.5 115q-71 35 -107.5 72.5t-36.5 69.5q0 25 16 46.5t50.5 46.5t104.5 67q-88 30 -132 96t-44 146t38 147t104.5 106.5t149.5 39.5q62 0 118 -22h291zM488.5 406.5q38.5 51.5 38.5 154.5q0 74 -22 133t-62.5 93t-92.5 34q-65 0 -101.5 -54.5
t-36.5 -150.5q0 -75 21.5 -134t60.5 -93t90 -34q66 0 104.5 51.5zM242 13q-59 -34 -84.5 -70t-25.5 -81t32 -80.5t91.5 -55t138.5 -19.5q84 0 148.5 22.5t100.5 64.5t36 97q0 64 -67.5 97.5t-199.5 33.5q-82 0 -170 -9zM594 1012h-458v59h458v-59z" />
    <glyph glyph-name="uni1E24" unicode="&#x1e24;" horiz-adv-x="1187" 
d="M1133 1250v-51h-148v-1148h148v-51h-434v51h145v557h-501v-557h145v-51h-434v51h148v1148h-148v51h434v-51h-145v-528h501v528h-145v51h434zM529.5 -296.5q-27.5 27.5 -27.5 65.5t27.5 66t65.5 28t66 -28t28 -66t-28 -65.5t-66 -27.5t-65.5 27.5z" />
    <glyph glyph-name="uni1E25" unicode="&#x1e25;" horiz-adv-x="917" 
d="M30 0v48h120v1017q0 46 -12.5 64t-47.5 30l-80 22v28l263 91h20l-8 -254v-177l-14 -196l12 -1q44 103 112.5 153t152.5 50q63 0 113 -31.5t79 -89t29 -131.5v-575h120v-48h-366v48h111v539q0 85 -41.5 127.5t-118.5 42.5q-96 0 -142.5 -67.5t-46.5 -192.5v-449h111v-48
h-366zM402.5 -295.5q-27.5 27.5 -27.5 65.5t27.5 66t65.5 28t66 -28t28 -66t-28 -65.5t-66 -27.5t-65.5 27.5z" />
    <glyph glyph-name="uni1E2A" unicode="&#x1e2a;" horiz-adv-x="1187" 
d="M1133 1250v-51h-148v-1148h148v-51h-434v51h145v557h-501v-557h145v-51h-434v51h148v1148h-148v51h434v-51h-145v-528h501v528h-145v51h434zM803 -82q-15 -127 -68.5 -190.5t-139.5 -63.5q-85 0 -138.5 63.5t-68.5 190.5h42l10 -37q13 -55 54.5 -81.5t100.5 -26.5
q61 0 102 26.5t54 81.5l9 37h43z" />
    <glyph glyph-name="uni1E2B" unicode="&#x1e2b;" horiz-adv-x="917" 
d="M30 0v48h120v1017q0 46 -12.5 64t-47.5 30l-80 22v28l263 91h20l-8 -254v-177l-14 -196l12 -1q44 103 112.5 153t152.5 50q63 0 113 -31.5t79 -89t29 -131.5v-575h120v-48h-366v48h111v539q0 85 -41.5 127.5t-118.5 42.5q-96 0 -142.5 -67.5t-46.5 -192.5v-449h111v-48
h-366zM699 -143q-17 -174 -77 -260t-154 -86t-154 86t-76 260h42l10 -37q20 -100 66 -147t112 -47q139 0 179 194l9 37h43z" />
    <glyph glyph-name="uni1E2E" unicode="&#x1e2e;" horiz-adv-x="544" 
d="M343 1199v-1148h148v-51h-437v51h148v1148h-148v51h437v-51h-148zM48 1369q-30 30 -30 70t30 70.5t70 30.5t69 -30t29 -71q0 -40 -29 -70t-69 -30t-70 30zM357 1369q-29 30 -29 70q0 41 29 71t69 30t70 -30t30 -71q0 -40 -30 -70t-70 -30t-69 30zM305 1833h179l-196 -251
h-39z" />
    <glyph glyph-name="uni1E2F" unicode="&#x1e2f;" horiz-adv-x="461" 
d="M323 1563h153l-226 -342h-38zM166.5 1049q-27.5 -29 -66.5 -29q-40 0 -68.5 29t-28.5 70t28.5 70t68.5 29q39 0 66.5 -29t27.5 -70t-27.5 -70zM429.5 1188.5q28.5 -29.5 28.5 -69.5q0 -41 -28.5 -70t-67.5 -29q-40 0 -67.5 29t-27.5 70t27.5 70t67.5 29q39 0 67.5 -29.5z
M308 621v-573h118v-48h-371v48h118v582q0 41 -5 60t-18.5 28.5t-44.5 19.5l-72 21v28l265 88h20z" />
    <glyph glyph-name="uni1E36" unicode="&#x1e36;" horiz-adv-x="958" 
d="M342 185q0 -56 10.5 -83t40.5 -38t93 -11h128q78 0 122 31.5t71.5 113t47.5 243.5h47v-441h-846v51h145v1148h-145v51h431v-51h-145v-1014zM486.5 -295.5q-27.5 27.5 -27.5 65.5t27.5 66t65.5 28t66 -28t28 -66t-28 -65.5t-66 -27.5t-65.5 27.5z" />
    <glyph glyph-name="uni1E37" unicode="&#x1e37;" horiz-adv-x="440" 
d="M287 48h118v-48h-371v48h118v1004q0 41 -5 60t-18.5 29t-44.5 19l-72 21v28l263 91h20l-8 -222v-1030zM157.5 -295.5q-27.5 27.5 -27.5 65.5t27.5 66t65.5 28t66 -28t28 -66t-28 -65.5t-66 -27.5t-65.5 27.5z" />
    <glyph glyph-name="uni1E3A" unicode="&#x1e3a;" horiz-adv-x="958" 
d="M342 185q0 -56 10.5 -83t40.5 -38t93 -11h128q78 0 122 31.5t71.5 113t47.5 243.5h47v-441h-846v51h145v1148h-145v51h431v-51h-145v-1014zM781 -226h-458v59h458v-59z" />
    <glyph glyph-name="uni1E3B" unicode="&#x1e3b;" horiz-adv-x="440" 
d="M287 48h118v-48h-371v48h118v1004q0 41 -5 60t-18.5 29t-44.5 19l-72 21v28l263 91h20l-8 -222v-1030zM453 -226h-458v59h458v-59z" />
    <glyph glyph-name="uni1E42" unicode="&#x1e42;" horiz-adv-x="1374" 
d="M1209 51h142v-51h-429v51h143l-58 985h-6l-330 -1028h-32l-335 1028h-4l-51 -811q-2 -40 -2 -52q0 -50 11 -75t35 -35t72 -15l48 -5v-43h-381v51h132l73 1039q1 8 1 23q0 45 -19 65.5t-68 24.5l-46 4v43h277l308 -968l304 968h257v-51h-117zM593.5 -296.5
q-27.5 27.5 -27.5 65.5t27.5 66t65.5 28t66 -28t28 -66t-28 -65.5t-66 -27.5t-65.5 27.5z" />
    <glyph glyph-name="uni1E43" unicode="&#x1e43;" horiz-adv-x="1396" 
d="M53 0v48h118v575q0 46 -15.5 70.5t-54.5 35.5l-68 17v28l253 92h20l-12 -209h9q41 108 103.5 163t143.5 55q91 0 149.5 -57.5t74.5 -153.5h3q41 104 103 157.5t142 53.5q69 0 120.5 -33.5t79 -93t27.5 -134.5v-566h118v-48h-361v48h108v530q0 87 -41 133t-118 46
q-90 0 -133.5 -74t-43.5 -196v-439h108v-48h-352v48h108v530q0 87 -41 133t-118 46q-89 0 -133 -74t-44 -196v-439h108v-48h-361zM630.5 -295.5q-27.5 27.5 -27.5 65.5t27.5 66t65.5 28t66 -28t28 -66t-28 -65.5t-66 -27.5t-65.5 27.5z" />
    <glyph glyph-name="uni1E44" unicode="&#x1e44;" horiz-adv-x="1125" 
d="M694 1250h383v-51h-131l-5 -341v-858h-52l-619 988l11 -773q1 -68 10.5 -101t34.5 -47.5t77 -19.5l42 -4v-43h-382v51h131l5 328v635q0 65 -8 100.5t-27 54.5t-57 30l-56 15v36h220l528 -862l71 -126l-11 774q-1 68 -10.5 101t-34.5 47t-77 19l-43 4v43zM494 1387.5
q-31 31.5 -31 73.5q0 43 31 74t73 31q43 0 74 -31t31 -74q0 -42 -31 -73.5t-74 -31.5q-42 0 -73 31.5z" />
    <glyph glyph-name="uni1E45" unicode="&#x1e45;" horiz-adv-x="937" 
d="M351.5 688q-45.5 -69 -45.5 -185v-455h111v-48h-364v48h118v575q0 46 -15.5 70.5t-54.5 35.5l-68 17v28l253 93h20l-12 -194l9 -1q38 96 110.5 149.5t152.5 53.5q65 0 116 -29.5t79.5 -81t28.5 -116.5v-600h118v-48h-364v48h111v545q0 80 -42 122t-120 42
q-96 0 -141.5 -69zM428 1030.5q-31 31.5 -31 74.5t31 74t74 31t74.5 -31t31.5 -74t-31.5 -74.5t-74.5 -31.5t-74 31.5z" />
    <glyph glyph-name="uni1E46" unicode="&#x1e46;" horiz-adv-x="1125" 
d="M694 1250h383v-51h-131l-5 -341v-858h-52l-619 988l11 -773q1 -68 10.5 -101t34.5 -47.5t77 -19.5l42 -4v-43h-382v51h131l5 328v635q0 65 -8 100.5t-27 54.5t-57 30l-56 15v36h220l528 -862l71 -126l-11 774q-1 68 -10.5 101t-34.5 47t-77 19l-43 4v43zM510.5 -295.5
q-27.5 27.5 -27.5 65.5t27.5 66t65.5 28t66 -28t28 -66t-28 -65.5t-66 -27.5t-65.5 27.5z" />
    <glyph glyph-name="uni1E47" unicode="&#x1e47;" horiz-adv-x="937" 
d="M351.5 688q-45.5 -69 -45.5 -185v-455h111v-48h-364v48h118v575q0 46 -15.5 70.5t-54.5 35.5l-68 17v28l253 93h20l-12 -194l9 -1q38 96 110.5 149.5t152.5 53.5q65 0 116 -29.5t79.5 -81t28.5 -116.5v-600h118v-48h-364v48h111v545q0 80 -42 122t-120 42
q-96 0 -141.5 -69zM417.5 -295.5q-27.5 27.5 -27.5 65.5t27.5 66t65.5 28t66 -28t28 -66t-28 -65.5t-66 -27.5t-65.5 27.5z" />
    <glyph glyph-name="uni1E48" unicode="&#x1e48;" horiz-adv-x="1125" 
d="M694 1250h383v-51h-131l-5 -341v-858h-52l-619 988l11 -773q1 -68 10.5 -101t34.5 -47.5t77 -19.5l42 -4v-43h-382v51h131l5 328v635q0 65 -8 100.5t-27 54.5t-57 30l-56 15v36h220l528 -862l71 -126l-11 774q-1 68 -10.5 101t-34.5 47t-77 19l-43 4v43zM806 -226h-458
v59h458v-59z" />
    <glyph glyph-name="uni1E49" unicode="&#x1e49;" horiz-adv-x="937" 
d="M351.5 688q-45.5 -69 -45.5 -185v-455h111v-48h-364v48h118v575q0 46 -15.5 70.5t-54.5 35.5l-68 17v28l253 93h20l-12 -194l9 -1q38 96 110.5 149.5t152.5 53.5q65 0 116 -29.5t79.5 -81t28.5 -116.5v-600h118v-48h-364v48h111v545q0 80 -42 122t-120 42
q-96 0 -141.5 -69zM713 -226h-458v59h458v-59z" />
    <glyph glyph-name="uni1E4C" unicode="&#x1e4c;" horiz-adv-x="1103" 
d="M311 62.5q-110 84.5 -173.5 230t-63.5 319.5q0 186 63 336.5t172.5 237t242.5 86.5q134 0 243 -82.5t171.5 -226.5t62.5 -320q0 -185 -63 -337.5t-172.5 -240t-241.5 -87.5q-131 0 -241 84.5zM757 126q66 59 101.5 169.5t35.5 261.5q0 164 -53.5 308.5t-143.5 231
t-194 86.5q-92 0 -158 -58t-100.5 -168t-34.5 -264q0 -159 54.5 -304t144.5 -233.5t191 -88.5q91 0 157 59zM294 1333q18 101 54.5 148t102.5 47q31 0 59 -8.5t69 -25.5q38 -15 61.5 -22.5t48.5 -7.5q35 0 57 19t32 61l35 -6q-35 -184 -154 -184q-26 0 -51 7.5t-62 23.5
q-39 16 -65.5 24.5t-55.5 8.5q-39 0 -61 -21t-36 -68zM586 1833h179l-196 -251h-39z" />
    <glyph glyph-name="uni1E4D" unicode="&#x1e4d;" horiz-adv-x="856" 
d="M618 813.5q85 -61.5 133 -164.5t48 -221q0 -120 -46.5 -223.5t-131.5 -165.5t-194 -62q-105 0 -189.5 61.5t-132.5 164.5t-48 222t46.5 222t131 165.5t192.5 62.5q106 0 191 -61.5zM308.5 771.5q-45.5 -38.5 -70.5 -112.5t-25 -178q0 -136 28.5 -235t80 -151t118.5 -52
q60 0 105.5 37.5t71 111t25.5 178.5q0 211 -59.5 325.5t-168.5 114.5q-60 0 -105.5 -38.5zM209 988q14 81 46.5 120t84.5 39q29 0 54 -7t57 -21q33 -14 54 -20t45 -6q29 0 46 15.5t27 53.5l33 -6q-32 -160 -132 -160q-27 0 -49.5 7t-54.5 21q-34 14 -54 20t-44 6
q-32 0 -50 -15.5t-30 -50.5zM436 1220h-38l111 342h153z" />
    <glyph glyph-name="uni1E4E" unicode="&#x1e4e;" horiz-adv-x="1103" 
d="M311 62.5q-110 84.5 -173.5 230t-63.5 319.5q0 186 63 336.5t172.5 237t242.5 86.5q134 0 243 -82.5t171.5 -226.5t62.5 -320q0 -185 -63 -337.5t-172.5 -240t-241.5 -87.5q-131 0 -241 84.5zM757 126q66 59 101.5 169.5t35.5 261.5q0 164 -53.5 308.5t-143.5 231
t-194 86.5q-92 0 -158 -58t-100.5 -168t-34.5 -264q0 -159 54.5 -304t144.5 -233.5t191 -88.5q91 0 157 59zM294 1333q18 101 54.5 148t102.5 47q31 0 59 -8.5t69 -25.5q38 -15 61.5 -22.5t48.5 -7.5q35 0 57 19t32 61l35 -6q-35 -184 -154 -184q-26 0 -51 7.5t-62 23.5
q-39 16 -65.5 24.5t-55.5 8.5q-39 0 -61 -21t-36 -68zM329 1614q-30 30 -30 70t30 70.5t70 30.5t69 -30t29 -71q0 -40 -29 -70t-69 -30t-70 30zM638 1614q-29 30 -29 70q0 41 29 71t69 30t70 -30t30 -71q0 -40 -30 -70t-70 -30t-69 30z" />
    <glyph glyph-name="uni1E4F" unicode="&#x1e4f;" horiz-adv-x="856" 
d="M618 813.5q85 -61.5 133 -164.5t48 -221q0 -120 -46.5 -223.5t-131.5 -165.5t-194 -62q-105 0 -189.5 61.5t-132.5 164.5t-48 222t46.5 222t131 165.5t192.5 62.5q106 0 191 -61.5zM308.5 771.5q-45.5 -38.5 -70.5 -112.5t-25 -178q0 -136 28.5 -235t80 -151t118.5 -52
q60 0 105.5 37.5t71 111t25.5 178.5q0 211 -59.5 325.5t-168.5 114.5q-60 0 -105.5 -38.5zM209 988q14 81 46.5 120t84.5 39q29 0 54 -7t57 -21q33 -14 54 -20t45 -6q29 0 46 15.5t27 53.5l33 -6q-32 -160 -132 -160q-27 0 -49.5 7t-54.5 21q-34 14 -54 20t-44 6
q-32 0 -50 -15.5t-30 -50.5zM207.5 1316q-28.5 29 -28.5 70t28.5 70t68.5 29t68 -29t28 -70t-28 -70t-68 -29t-68.5 29zM516.5 1316q-27.5 29 -27.5 70t27.5 70t67.5 29t68.5 -29t28.5 -70t-28.5 -70t-68.5 -29t-67.5 29z" />
    <glyph glyph-name="uni1E50" unicode="&#x1e50;" horiz-adv-x="1103" 
d="M311 62.5q-110 84.5 -173.5 230t-63.5 319.5q0 186 63 336.5t172.5 237t242.5 86.5q134 0 243 -82.5t171.5 -226.5t62.5 -320q0 -185 -63 -337.5t-172.5 -240t-241.5 -87.5q-131 0 -241 84.5zM757 126q66 59 101.5 169.5t35.5 261.5q0 164 -53.5 308.5t-143.5 231
t-194 86.5q-92 0 -158 -58t-100.5 -168t-34.5 -264q0 -159 54.5 -304t144.5 -233.5t191 -88.5q91 0 157 59zM816 1374h-529v60h529v-60zM523 1501l-196 251h179l56 -251h-39z" />
    <glyph glyph-name="uni1E51" unicode="&#x1e51;" horiz-adv-x="856" 
d="M618 813.5q85 -61.5 133 -164.5t48 -221q0 -120 -46.5 -223.5t-131.5 -165.5t-194 -62q-105 0 -189.5 61.5t-132.5 164.5t-48 222t46.5 222t131 165.5t192.5 62.5q106 0 191 -61.5zM308.5 771.5q-45.5 -38.5 -70.5 -112.5t-25 -178q0 -136 28.5 -235t80 -151t118.5 -52
q60 0 105.5 37.5t71 111t25.5 178.5q0 211 -59.5 325.5t-168.5 114.5q-60 0 -105.5 -38.5zM659 1012h-458v59h458v-59zM425 1161l-212 342h153l97 -342h-38z" />
    <glyph glyph-name="uni1E52" unicode="&#x1e52;" horiz-adv-x="1103" 
d="M311 62.5q-110 84.5 -173.5 230t-63.5 319.5q0 186 63 336.5t172.5 237t242.5 86.5q134 0 243 -82.5t171.5 -226.5t62.5 -320q0 -185 -63 -337.5t-172.5 -240t-241.5 -87.5q-131 0 -241 84.5zM757 126q66 59 101.5 169.5t35.5 261.5q0 164 -53.5 308.5t-143.5 231
t-194 86.5q-92 0 -158 -58t-100.5 -168t-34.5 -264q0 -159 54.5 -304t144.5 -233.5t191 -88.5q91 0 157 59zM816 1374h-529v60h529v-60zM584 1752h179l-196 -251h-39z" />
    <glyph glyph-name="uni1E53" unicode="&#x1e53;" horiz-adv-x="856" 
d="M618 813.5q85 -61.5 133 -164.5t48 -221q0 -120 -46.5 -223.5t-131.5 -165.5t-194 -62q-105 0 -189.5 61.5t-132.5 164.5t-48 222t46.5 222t131 165.5t192.5 62.5q106 0 191 -61.5zM308.5 771.5q-45.5 -38.5 -70.5 -112.5t-25 -178q0 -136 28.5 -235t80 -151t118.5 -52
q60 0 105.5 37.5t71 111t25.5 178.5q0 211 -59.5 325.5t-168.5 114.5q-60 0 -105.5 -38.5zM659 1012h-458v59h458v-59zM436 1161h-38l111 342h153z" />
    <glyph glyph-name="uni1E5A" unicode="&#x1e5a;" horiz-adv-x="1034" 
d="M1054 1q-73 -15 -135 -15q-50 0 -106 39t-114 127q-119 181 -263 443h-95v-544h144v-51h-427v51h143v1148h-143v51h437q181 0 282.5 -78.5t101.5 -231.5q0 -135 -87.5 -219.5t-230.5 -111.5q79 -123 132 -203t119 -173q76 -110 129.5 -151.5t110.5 -45.5zM341 1197v-542
h122q127 7 191.5 76.5t64.5 192.5q0 134 -60 203.5t-182 69.5h-136zM517.5 -296.5q-27.5 27.5 -27.5 65.5t27.5 66t65.5 28t66 -28t28 -66t-28 -65.5t-66 -27.5t-65.5 27.5z" />
    <glyph glyph-name="uni1E5B" unicode="&#x1e5b;" horiz-adv-x="616" 
d="M543 860q29 -15 53 -44l-44 -103l-7 -4q-71 34 -112 34q-127 0 -127 -194v-501h145v-48h-399v48h119v571q0 51 -14.5 79.5t-56.5 39.5l-67 16v28l251 93h20l-18 -201h8q37 114 82 157.5t101 43.5q37 0 66 -15zM182.5 -295.5q-27.5 27.5 -27.5 65.5t27.5 66t65.5 28
t66 -28t28 -66t-28 -65.5t-66 -27.5t-65.5 27.5z" />
    <glyph glyph-name="uni1E5E" unicode="&#x1e5e;" horiz-adv-x="1034" 
d="M1054 1q-73 -15 -135 -15q-50 0 -106 39t-114 127q-119 181 -263 443h-95v-544h144v-51h-427v51h143v1148h-143v51h437q181 0 282.5 -78.5t101.5 -231.5q0 -135 -87.5 -219.5t-230.5 -111.5q79 -123 132 -203t119 -173q76 -110 129.5 -151.5t110.5 -45.5zM341 1197v-542
h122q127 7 191.5 76.5t64.5 192.5q0 134 -60 203.5t-182 69.5h-136zM812 -226h-458v59h458v-59z" />
    <glyph glyph-name="uni1E5F" unicode="&#x1e5f;" horiz-adv-x="616" 
d="M543 860q29 -15 53 -44l-44 -103l-7 -4q-71 34 -112 34q-127 0 -127 -194v-501h145v-48h-399v48h119v571q0 51 -14.5 79.5t-56.5 39.5l-67 16v28l251 93h20l-18 -201h8q37 114 82 157.5t101 43.5q37 0 66 -15zM478 -226h-458v59h458v-59z" />
    <glyph glyph-name="uni1E60" unicode="&#x1e60;" horiz-adv-x="925" 
d="M594 670q138 -66 197 -148.5t59 -194.5q0 -100 -42.5 -179.5t-119.5 -124.5t-177 -45t-184 47.5t-139 131.5l-62 -167h-34v475h40q41 -204 140 -315t240 -111q105 0 165.5 59.5t60.5 165.5q0 89 -42.5 150t-142.5 108l-151 71q-152 71 -221.5 154.5t-69.5 204.5
q0 94 41.5 167t114 113t160.5 40q84 0 152 -39t121 -107l59 134h33v-443h-41q-40 198 -125 296t-195 98q-96 0 -152 -57t-56 -156q0 -55 18 -95.5t60 -76.5t117 -72zM366 1387.5q-31 31.5 -31 73.5q0 43 31 74t73 31q43 0 74 -31t31 -74q0 -42 -31 -73.5t-74 -31.5
q-42 0 -73 31.5z" />
    <glyph glyph-name="uni1E61" unicode="&#x1e61;" horiz-adv-x="684" 
d="M429 474q99 -43 143 -98.5t44 -135.5q0 -74 -35 -133.5t-97 -94t-139 -34.5q-69 0 -138 31t-121 92l-22 207l24 16q47 -137 117.5 -206.5t147.5 -69.5q69 0 108.5 39t39.5 109q0 49 -26 79.5t-83 56.5l-122 55q-98 44 -143 104.5t-45 138.5q0 72 32 128t87.5 86.5
t124.5 30.5q50 0 92.5 -19.5t84.5 -58.5l46 76h22v-297h-28q-53 127 -106.5 178.5t-120.5 51.5q-59 0 -92.5 -34.5t-33.5 -97.5q0 -51 29 -84.5t93 -62.5zM263 1030.5q-31 31.5 -31 74.5t31 74t74 31t74.5 -31t31.5 -74t-31.5 -74.5t-74.5 -31.5t-74 31.5z" />
    <glyph glyph-name="uni1E62" unicode="&#x1e62;" horiz-adv-x="925" 
d="M594 670q138 -66 197 -148.5t59 -194.5q0 -100 -42.5 -179.5t-119.5 -124.5t-177 -45t-184 47.5t-139 131.5l-62 -167h-34v475h40q41 -204 140 -315t240 -111q105 0 165.5 59.5t60.5 165.5q0 89 -42.5 150t-142.5 108l-151 71q-152 71 -221.5 154.5t-69.5 204.5
q0 94 41.5 167t114 113t160.5 40q84 0 152 -39t121 -107l59 134h33v-443h-41q-40 198 -125 296t-195 98q-96 0 -152 -57t-56 -156q0 -55 18 -95.5t60 -76.5t117 -72zM432.5 -296.5q-27.5 27.5 -27.5 65.5t27.5 66t65.5 28t66 -28t28 -66t-28 -65.5t-66 -27.5t-65.5 27.5z
" />
    <glyph glyph-name="uni1E63" unicode="&#x1e63;" horiz-adv-x="684" 
d="M429 474q99 -43 143 -98.5t44 -135.5q0 -74 -35 -133.5t-97 -94t-139 -34.5q-69 0 -138 31t-121 92l-22 207l24 16q47 -137 117.5 -206.5t147.5 -69.5q69 0 108.5 39t39.5 109q0 49 -26 79.5t-83 56.5l-122 55q-98 44 -143 104.5t-45 138.5q0 72 32 128t87.5 86.5
t124.5 30.5q50 0 92.5 -19.5t84.5 -58.5l46 76h22v-297h-28q-53 127 -106.5 178.5t-120.5 51.5q-59 0 -92.5 -34.5t-33.5 -97.5q0 -51 29 -84.5t93 -62.5zM283.5 -295.5q-27.5 27.5 -27.5 65.5t27.5 66t65.5 28t66 -28t28 -66t-28 -65.5t-66 -27.5t-65.5 27.5z" />
    <glyph glyph-name="uni1E64" unicode="&#x1e64;" horiz-adv-x="925" 
d="M594 670q138 -66 197 -148.5t59 -194.5q0 -100 -42.5 -179.5t-119.5 -124.5t-177 -45t-184 47.5t-139 131.5l-62 -167h-34v475h40q41 -204 140 -315t240 -111q105 0 165.5 59.5t60.5 165.5q0 89 -42.5 150t-142.5 108l-151 71q-152 71 -221.5 154.5t-69.5 204.5
q0 94 41.5 167t114 113t160.5 40q84 0 152 -39t121 -107l59 134h33v-443h-41q-40 198 -125 296t-195 98q-96 0 -152 -57t-56 -156q0 -55 18 -95.5t60 -76.5t117 -72zM522 1588h179l-196 -251h-39zM266 1514.5q-31 31.5 -31 73.5q0 43 31 74t73 31q43 0 74 -31t31 -74
q0 -42 -31 -73.5t-74 -31.5q-42 0 -73 31.5z" />
    <glyph glyph-name="uni1E65" unicode="&#x1e65;" horiz-adv-x="684" 
d="M429 474q99 -43 143 -98.5t44 -135.5q0 -74 -35 -133.5t-97 -94t-139 -34.5q-69 0 -138 31t-121 92l-22 207l24 16q47 -137 117.5 -206.5t147.5 -69.5q69 0 108.5 39t39.5 109q0 49 -26 79.5t-83 56.5l-122 55q-98 44 -143 104.5t-45 138.5q0 72 32 128t87.5 86.5
t124.5 30.5q50 0 92.5 -19.5t84.5 -58.5l46 76h22v-297h-28q-53 127 -106.5 178.5t-120.5 51.5q-59 0 -92.5 -34.5t-33.5 -97.5q0 -51 29 -84.5t93 -62.5zM342 953h-38l111 342h153zM142 1208.5q-31 31.5 -31 74.5t31 74t74 31t74.5 -31t31.5 -74t-31.5 -74.5t-74.5 -31.5
t-74 31.5z" />
    <glyph glyph-name="uni1E66" unicode="&#x1e66;" horiz-adv-x="925" 
d="M594 670q138 -66 197 -148.5t59 -194.5q0 -100 -42.5 -179.5t-119.5 -124.5t-177 -45t-184 47.5t-139 131.5l-62 -167h-34v475h40q41 -204 140 -315t240 -111q105 0 165.5 59.5t60.5 165.5q0 89 -42.5 150t-142.5 108l-151 71q-152 71 -221.5 154.5t-69.5 204.5
q0 94 41.5 167t114 113t160.5 40q84 0 152 -39t121 -107l59 134h33v-443h-41q-40 198 -125 296t-195 98q-96 0 -152 -57t-56 -156q0 -55 18 -95.5t60 -76.5t117 -72zM397 1397l217 189h37l-122 -251h-179l-123 251h66zM369 1608.5q-31 31.5 -31 73.5q0 43 31 74t73 31
q43 0 74 -31t31 -74q0 -42 -31 -73.5t-74 -31.5q-42 0 -73 31.5z" />
    <glyph glyph-name="uni1E67" unicode="&#x1e67;" horiz-adv-x="684" 
d="M429 474q99 -43 143 -98.5t44 -135.5q0 -74 -35 -133.5t-97 -94t-139 -34.5q-69 0 -138 31t-121 92l-22 207l24 16q47 -137 117.5 -206.5t147.5 -69.5q69 0 108.5 39t39.5 109q0 49 -26 79.5t-83 56.5l-122 55q-98 44 -143 104.5t-45 138.5q0 72 32 128t87.5 86.5
t124.5 30.5q50 0 92.5 -19.5t84.5 -58.5l46 76h22v-297h-28q-53 127 -106.5 178.5t-120.5 51.5q-59 0 -92.5 -34.5t-33.5 -97.5q0 -51 29 -84.5t93 -62.5zM371 1059l131 236h65l-181 -342h-97l-182 342h50zM263 1325.5q-31 31.5 -31 74.5t31 74t74 31t74.5 -31t31.5 -74
t-31.5 -74.5t-74.5 -31.5t-74 31.5z" />
    <glyph glyph-name="uni1E68" unicode="&#x1e68;" horiz-adv-x="925" 
d="M594 670q138 -66 197 -148.5t59 -194.5q0 -100 -42.5 -179.5t-119.5 -124.5t-177 -45t-184 47.5t-139 131.5l-62 -167h-34v475h40q41 -204 140 -315t240 -111q105 0 165.5 59.5t60.5 165.5q0 89 -42.5 150t-142.5 108l-151 71q-152 71 -221.5 154.5t-69.5 204.5
q0 94 41.5 167t114 113t160.5 40q84 0 152 -39t121 -107l59 134h33v-443h-41q-40 198 -125 296t-195 98q-96 0 -152 -57t-56 -156q0 -55 18 -95.5t60 -76.5t117 -72zM432.5 -296.5q-27.5 27.5 -27.5 65.5t27.5 66t65.5 28t66 -28t28 -66t-28 -65.5t-66 -27.5t-65.5 27.5z
M366 1387.5q-31 31.5 -31 73.5q0 43 31 74t73 31q43 0 74 -31t31 -74q0 -42 -31 -73.5t-74 -31.5q-42 0 -73 31.5z" />
    <glyph glyph-name="uni1E69" unicode="&#x1e69;" horiz-adv-x="684" 
d="M429 474q99 -43 143 -98.5t44 -135.5q0 -74 -35 -133.5t-97 -94t-139 -34.5q-69 0 -138 31t-121 92l-22 207l24 16q47 -137 117.5 -206.5t147.5 -69.5q69 0 108.5 39t39.5 109q0 49 -26 79.5t-83 56.5l-122 55q-98 44 -143 104.5t-45 138.5q0 72 32 128t87.5 86.5
t124.5 30.5q50 0 92.5 -19.5t84.5 -58.5l46 76h22v-297h-28q-53 127 -106.5 178.5t-120.5 51.5q-59 0 -92.5 -34.5t-33.5 -97.5q0 -51 29 -84.5t93 -62.5zM283.5 -295.5q-27.5 27.5 -27.5 65.5t27.5 66t65.5 28t66 -28t28 -66t-28 -65.5t-66 -27.5t-65.5 27.5zM263 1030.5
q-31 31.5 -31 74.5t31 74t74 31t74.5 -31t31.5 -74t-31.5 -74.5t-74.5 -31.5t-74 31.5z" />
    <glyph glyph-name="uni1E6C" unicode="&#x1e6c;" horiz-adv-x="1006" 
d="M950 846h-47q-12 149 -41 222.5t-81.5 98.5t-149.5 25h-57v-1141h175v-51h-492v51h175v1141h-57q-97 0 -150 -24.5t-82 -98t-41 -223.5h-46v404h894v-404zM440.5 -296.5q-27.5 27.5 -27.5 65.5t27.5 66t65.5 28t66 -28t28 -66t-28 -65.5t-66 -27.5t-65.5 27.5z" />
    <glyph glyph-name="uni1E6D" unicode="&#x1e6d;" horiz-adv-x="554" 
d="M238.5 0q-43.5 22 -69.5 66t-26 107v607h-116v21q67 23 106.5 50t67.5 78.5t45 143.5h34l-2 -220h243l-41 -73h-202v-572q0 -62 25 -91.5t74 -29.5q42 0 74.5 25.5t72.5 92.5l28 -19q-47 -111 -97 -159.5t-120 -48.5q-53 0 -96.5 22zM278.5 -295.5q-27.5 27.5 -27.5 65.5
t27.5 66t65.5 28t66 -28t28 -66t-28 -65.5t-66 -27.5t-65.5 27.5z" />
    <glyph glyph-name="uni1E6E" unicode="&#x1e6e;" horiz-adv-x="1006" 
d="M950 846h-47q-12 149 -41 222.5t-81.5 98.5t-149.5 25h-57v-1141h175v-51h-492v51h175v1141h-57q-97 0 -150 -24.5t-82 -98t-41 -223.5h-46v404h894v-404zM735 -226h-458v59h458v-59z" />
    <glyph glyph-name="uni1E6F" unicode="&#x1e6f;" horiz-adv-x="554" 
d="M238.5 0q-43.5 22 -69.5 66t-26 107v607h-116v21q67 23 106.5 50t67.5 78.5t45 143.5h34l-2 -220h243l-41 -73h-202v-572q0 -62 25 -91.5t74 -29.5q42 0 74.5 25.5t72.5 92.5l28 -19q-47 -111 -97 -159.5t-120 -48.5q-53 0 -96.5 22zM573 -226h-458v59h458v-59z" />
    <glyph glyph-name="uni1E78" unicode="&#x1e78;" horiz-adv-x="1136" 
d="M721 1250h368v-51h-114l-8 -333v-442q0 -145 -49 -246.5t-136 -153.5t-200 -52q-125 0 -217 53.5t-141.5 152t-49.5 232.5v789h-138v51h423v-51h-144v-752q0 -377 305 -377q138 0 205.5 89.5t67.5 282.5v594q0 69 -10.5 102t-36.5 46t-83 18l-42 4v44zM341 1333
q18 101 54.5 148t102.5 47q31 0 59 -8.5t69 -25.5q38 -15 61.5 -22.5t48.5 -7.5q35 0 57 19t32 61l35 -6q-35 -184 -154 -184q-26 0 -51 7.5t-62 23.5q-39 16 -65.5 24.5t-55.5 8.5q-39 0 -61 -21t-36 -68zM635 1862h179l-196 -251h-39z" />
    <glyph glyph-name="uni1E79" unicode="&#x1e79;" horiz-adv-x="915" 
d="M631 192q-44 -113 -113.5 -163.5t-145.5 -50.5q-60 0 -110 30.5t-79.5 85t-29.5 123.5v412q0 40 -5 59t-19 29.5t-44 18.5l-70 18v28l258 93h12v-610q0 -85 40.5 -130.5t113.5 -45.5q89 0 137.5 76.5t48.5 206.5v257q0 38 -4 57t-18.5 30.5t-45.5 19.5l-70 18v28l257 93
h13v-648q0 -66 12 -100.5t41.5 -47t86.5 -10.5v-40l-235 -44h-23zM227 988q14 81 46.5 120t84.5 39q29 0 54 -7t57 -21q33 -14 54 -20t45 -6q29 0 46 15.5t27 53.5l33 -6q-32 -160 -132 -160q-27 0 -49.5 7t-54.5 21q-34 14 -54 20t-44 6q-32 0 -50 -15.5t-30 -50.5z
M453 1220h-38l111 342h153z" />
    <glyph glyph-name="uni1E7A" unicode="&#x1e7a;" horiz-adv-x="1136" 
d="M721 1250h368v-51h-114l-8 -333v-442q0 -145 -49 -246.5t-136 -153.5t-200 -52q-125 0 -217 53.5t-141.5 152t-49.5 232.5v789h-138v51h423v-51h-144v-752q0 -377 305 -377q138 0 205.5 89.5t67.5 282.5v594q0 69 -10.5 102t-36.5 46t-83 18l-42 4v44zM863 1374h-529v60
h529v-60zM374 1533q-30 30 -30 70t30 70.5t70 30.5t69 -30t29 -71q0 -40 -29 -70t-69 -30t-70 30zM683 1533q-29 30 -29 70q0 41 29 71t69 30t70 -30t30 -71q0 -40 -30 -70t-70 -30t-69 30z" />
    <glyph glyph-name="uni1E7B" unicode="&#x1e7b;" horiz-adv-x="915" 
d="M631 192q-44 -113 -113.5 -163.5t-145.5 -50.5q-60 0 -110 30.5t-79.5 85t-29.5 123.5v412q0 40 -5 59t-19 29.5t-44 18.5l-70 18v28l258 93h12v-610q0 -85 40.5 -130.5t113.5 -45.5q89 0 137.5 76.5t48.5 206.5v257q0 38 -4 57t-18.5 30.5t-45.5 19.5l-70 18v28l257 93
h13v-648q0 -66 12 -100.5t41.5 -47t86.5 -10.5v-40l-235 -44h-23zM677 1012h-458v59h458v-59zM225.5 1257q-28.5 29 -28.5 70t28.5 70t68.5 29t68 -29t28 -70t-28 -70t-68 -29t-68.5 29zM534.5 1257q-27.5 29 -27.5 70t27.5 70t67.5 29t68.5 -29t28.5 -70t-28.5 -70
t-68.5 -29t-67.5 29z" />
    <glyph glyph-name="Wgrave" unicode="&#x1e80;" horiz-adv-x="1570" 
d="M1558 1250v-51h-103l-357 -1209h-71l-232 858l-250 -858h-72l-358 1209h-109v51h429v-51h-176l283 -996l220 767l-61 229h-145v51h452v-51h-161l250 -997l139 505q59 221 76 304.5t17 116.5q0 24 -8 37.5t-30 21.5t-67 14l-62 8v41h396zM753 1337l-196 251h179l56 -251
h-39z" />
    <glyph glyph-name="wgrave" unicode="&#x1e81;" horiz-adv-x="1257" 
d="M914 853h330v-49h-80l-292 -834h-47l-182 574l-207 -574h-48l-299 834h-83v49h364v-49h-141l182 -532l29 -130l173 496l-52 166h-99v49h344v-49h-114l170 -553l13 -102l153 491q22 72 22 104q0 28 -14 41.5t-44 16.5l-78 8v43zM608 953l-212 342h153l97 -342h-38z" />
    <glyph glyph-name="Wacute" unicode="&#x1e82;" horiz-adv-x="1570" 
d="M1558 1250v-51h-103l-357 -1209h-71l-232 858l-250 -858h-72l-358 1209h-109v51h429v-51h-176l283 -996l220 767l-61 229h-145v51h452v-51h-161l250 -997l139 505q59 221 76 304.5t17 116.5q0 24 -8 37.5t-30 21.5t-67 14l-62 8v41h396zM814 1588h179l-196 -251h-39z" />
    <glyph glyph-name="wacute" unicode="&#x1e83;" horiz-adv-x="1257" 
d="M914 853h330v-49h-80l-292 -834h-47l-182 574l-207 -574h-48l-299 834h-83v49h364v-49h-141l182 -532l29 -130l173 496l-52 166h-99v49h344v-49h-114l170 -553l13 -102l153 491q22 72 22 104q0 28 -14 41.5t-44 16.5l-78 8v43zM618 953h-38l111 342h153z" />
    <glyph glyph-name="Wdieresis" unicode="&#x1e84;" horiz-adv-x="1570" 
d="M1558 1250v-51h-103l-357 -1209h-71l-232 858l-250 -858h-72l-358 1209h-109v51h429v-51h-176l283 -996l220 767l-61 229h-145v51h452v-51h-161l250 -997l139 505q59 221 76 304.5t17 116.5q0 24 -8 37.5t-30 21.5t-67 14l-62 8v41h396zM557 1369q-30 30 -30 70t30 70.5
t70 30.5t69 -30t29 -71q0 -40 -29 -70t-69 -30t-70 30zM866 1369q-29 30 -29 70q0 41 29 71t69 30t70 -30t30 -71q0 -40 -30 -70t-70 -30t-69 30z" />
    <glyph glyph-name="wdieresis" unicode="&#x1e85;" horiz-adv-x="1257" 
d="M914 853h330v-49h-80l-292 -834h-47l-182 574l-207 -574h-48l-299 834h-83v49h364v-49h-141l182 -532l29 -130l173 496l-52 166h-99v49h344v-49h-114l170 -553l13 -102l153 491q22 72 22 104q0 28 -14 41.5t-44 16.5l-78 8v43zM389.5 1049q-28.5 29 -28.5 70t28.5 70
t68.5 29t68 -29t28 -70t-28 -70t-68 -29t-68.5 29zM698.5 1049q-27.5 29 -27.5 70t27.5 70t67.5 29t68.5 -29t28.5 -70t-28.5 -70t-68.5 -29t-67.5 29z" />
    <glyph glyph-name="uni1E8E" unicode="&#x1e8e;" horiz-adv-x="1052" 
d="M930 1199l-329 -613v-535h130v-51h-401v51h130l1 512l-350 636h-101v51h455v-51h-197l263 -482l23 -88l144 290q54 105 73 150t19 71t-15.5 36.5t-59.5 18.5l-58 10v45h359v-51h-86zM475 1387.5q-31 31.5 -31 73.5q0 43 31 74t73 31q43 0 74 -31t31 -74q0 -42 -31 -73.5
t-74 -31.5q-42 0 -73 31.5z" />
    <glyph glyph-name="uni1E8F" unicode="&#x1e8f;" horiz-adv-x="861" 
d="M865 805h-84l-466 -1125h166v-50h-426v50h127l173 420l-242 704l-88 1v48h378v-51l-145 1l175 -538l23 -81l164 437q17 45 25 73.5t8 46.5q0 26 -16.5 38.5t-53.5 17.5l-83 9v47h365v-48zM377 1030.5q-31 31.5 -31 74.5t31 74t74 31t74.5 -31t31.5 -74t-31.5 -74.5
t-74.5 -31.5t-74 31.5z" />
    <glyph glyph-name="uni1E92" unicode="&#x1e92;" horiz-adv-x="929" 
d="M869 451l-44 -451h-766v52l598 1137h-188q-124 0 -183 -21.5t-90.5 -85.5t-56.5 -209h-52l22 377h699v-54l-590 -1133h214q142 0 213.5 30t108.5 109.5t63 248.5h52zM400.5 -296.5q-27.5 27.5 -27.5 65.5t27.5 66t65.5 28t66 -28t28 -66t-28 -65.5t-66 -27.5t-65.5 27.5z
" />
    <glyph glyph-name="uni1E93" unicode="&#x1e93;" horiz-adv-x="736" 
d="M689 315l-68 -315h-569v51l454 748l-132 -2q-82 -1 -131 -19t-80 -63t-54 -131l-39 4l30 265h559v-49l-458 -750l118 2q101 1 163.5 27t101.5 83.5t67 158.5zM302.5 -295.5q-27.5 27.5 -27.5 65.5t27.5 66t65.5 28t66 -28t28 -66t-28 -65.5t-66 -27.5t-65.5 27.5z" />
    <glyph glyph-name="uni1E97" unicode="&#x1e97;" horiz-adv-x="554" 
d="M238.5 0q-43.5 22 -69.5 66t-26 107v607h-116v21q67 23 106.5 50t67.5 78.5t45 143.5h34l-2 -220h243l-41 -73h-202v-572q0 -62 25 -91.5t74 -29.5q42 0 74.5 25.5t72.5 92.5l28 -19q-47 -111 -97 -159.5t-120 -48.5q-53 0 -96.5 22zM35.5 1156q-28.5 29 -28.5 70
t28.5 70t68.5 29t68 -29t28 -70t-28 -70t-68 -29t-68.5 29zM344.5 1156q-27.5 29 -27.5 70t27.5 70t67.5 29t68.5 -29t28.5 -70t-28.5 -70t-68.5 -29t-67.5 29z" />
    <glyph glyph-name="uni1E9E" unicode="&#x1e9e;" horiz-adv-x="1213" 
d="M990 740.5q75 -47.5 115 -135.5t40 -208q0 -131 -42 -227.5t-117 -148t-172 -51.5q-77 0 -142.5 39.5t-105.5 103.5l-50 -129h-29v345h39q36 -140 106 -217.5t163 -77.5t145.5 84.5t52.5 262.5q0 171 -49 259t-171 88q-52 0 -99 -19.5t-113 -70.5l-32 24l313 536h-498
v-1198h-292v50h150v1149h-150v51h931v-43l-258 -434q38 15 89 15q101 0 176 -47.5z" />
    <glyph glyph-name="uni1EA0" unicode="&#x1ea0;" horiz-adv-x="1078" 
d="M968 51h108v-51h-427v51h173l-132 400h-364q-90 -301 -90 -350q0 -21 16 -32t55 -14l100 -9v-46h-392v51h107l345 1076l-38 117l1 6h141zM500 1030l-156 -519h327zM464.5 -296.5q-27.5 27.5 -27.5 65.5t27.5 66t65.5 28t66 -28t28 -66t-28 -65.5t-66 -27.5t-65.5 27.5z
" />
    <glyph glyph-name="uni1EA1" unicode="&#x1ea1;" horiz-adv-x="765" 
d="M391 7.5q-43 -29.5 -104 -29.5q-59 0 -111 29.5t-83 80t-31 111.5q0 69 47.5 114.5t155.5 71.5l201 47l6 119q5 99 -37 150.5t-131 51.5q-77 0 -135.5 -42.5t-113.5 -137.5l-24 26q71 143 154.5 209.5t181.5 66.5q69 0 124 -30.5t86.5 -96t29.5 -166.5l-8 -376
q-1 -62 15 -89.5t48 -27.5q30 0 52.5 20t42.5 60l26 -13q-36 -94 -73.5 -136t-87.5 -42q-45 0 -85 32.5t-57 96.5q-46 -70 -89 -99.5zM467 383l-73 -17q-78 -17 -118 -33.5t-55.5 -38t-15.5 -56.5q0 -44 20 -79.5t55 -56.5t79 -21q58 0 85 38t25 119zM353.5 -295.5
q-27.5 27.5 -27.5 65.5t27.5 66t65.5 28t66 -28t28 -66t-28 -65.5t-66 -27.5t-65.5 27.5z" />
    <glyph glyph-name="uni1EA2" unicode="&#x1ea2;" horiz-adv-x="1078" 
d="M968 51h108v-51h-427v51h173l-132 400h-364q-90 -301 -90 -350q0 -21 16 -32t55 -14l100 -9v-46h-392v51h107l345 1076l-38 117l1 6h141zM500 1030l-156 -519h327zM501 1408l17 -47l-23 -24l-49 81l12 6l-18 18q56 20 81.5 41t25.5 51q0 44 -53 44q-28 0 -52.5 -13.5
t-61.5 -49.5l-23 19q34 66 76.5 100.5t91.5 34.5q53 0 90.5 -28.5t37.5 -77.5q0 -96 -152 -155z" />
    <glyph glyph-name="uni1EA3" unicode="&#x1ea3;" horiz-adv-x="765" 
d="M391 7.5q-43 -29.5 -104 -29.5q-59 0 -111 29.5t-83 80t-31 111.5q0 69 47.5 114.5t155.5 71.5l201 47l6 119q5 99 -37 150.5t-131 51.5q-77 0 -135.5 -42.5t-113.5 -137.5l-24 26q71 143 154.5 209.5t181.5 66.5q69 0 124 -30.5t86.5 -96t29.5 -166.5l-8 -376
q-1 -62 15 -89.5t48 -27.5q30 0 52.5 20t42.5 60l26 -13q-36 -94 -73.5 -136t-87.5 -42q-45 0 -85 32.5t-57 96.5q-46 -70 -89 -99.5zM467 383l-73 -17q-78 -17 -118 -33.5t-55.5 -38t-15.5 -56.5q0 -44 20 -79.5t55 -56.5t79 -21q58 0 85 38t25 119zM505 1113
q-35 -40 -106 -74l-7 -86h-41l-27 111q64 28 91 52.5t27 50.5q0 21 -15 33.5t-44 12.5q-64 0 -119 -68l-23 23q40 69 81.5 101.5t94.5 32.5q54 0 88.5 -30t34.5 -76q0 -43 -35 -83z" />
    <glyph glyph-name="uni1EA4" unicode="&#x1ea4;" horiz-adv-x="1078" 
d="M968 51h108v-51h-427v51h173l-132 400h-364q-90 -301 -90 -350q0 -21 16 -32t55 -14l100 -9v-46h-392v51h107l345 1076l-38 117l1 6h141zM500 1030l-156 -519h327zM735 1733h159l-183 -236h-39zM591 1588l122 -251h-37l-217 189l-104 -189h-66l123 251h179z" />
    <glyph glyph-name="uni1EA5" unicode="&#x1ea5;" horiz-adv-x="765" 
d="M391 7.5q-43 -29.5 -104 -29.5q-59 0 -111 29.5t-83 80t-31 111.5q0 69 47.5 114.5t155.5 71.5l201 47l6 119q5 99 -37 150.5t-131 51.5q-77 0 -135.5 -42.5t-113.5 -137.5l-24 26q71 143 154.5 209.5t181.5 66.5q69 0 124 -30.5t86.5 -96t29.5 -166.5l-8 -376
q-1 -62 15 -89.5t48 -27.5q30 0 52.5 20t42.5 60l26 -13q-36 -94 -73.5 -136t-87.5 -42q-45 0 -85 32.5t-57 96.5q-46 -70 -89 -99.5zM467 383l-73 -17q-78 -17 -118 -33.5t-55.5 -38t-15.5 -56.5q0 -44 20 -79.5t55 -56.5t79 -21q58 0 85 38t25 119zM628 1494h153
l-210 -311h-38zM136 953l181 342h98l181 -342h-49l-215 233l-130 -233h-66z" />
    <glyph glyph-name="uni1EA6" unicode="&#x1ea6;" horiz-adv-x="1078" 
d="M968 51h108v-51h-427v51h173l-132 400h-364q-90 -301 -90 -350q0 -21 16 -32t55 -14l100 -9v-46h-392v51h107l345 1076l-38 117l1 6h141zM500 1030l-156 -519h327zM578 1733h159l63 -236h-39zM591 1588l122 -251h-37l-217 189l-104 -189h-66l123 251h179z" />
    <glyph glyph-name="uni1EA7" unicode="&#x1ea7;" horiz-adv-x="765" 
d="M391 7.5q-43 -29.5 -104 -29.5q-59 0 -111 29.5t-83 80t-31 111.5q0 69 47.5 114.5t155.5 71.5l201 47l6 119q5 99 -37 150.5t-131 51.5q-77 0 -135.5 -42.5t-113.5 -137.5l-24 26q71 143 154.5 209.5t181.5 66.5q69 0 124 -30.5t86.5 -96t29.5 -166.5l-8 -376
q-1 -62 15 -89.5t48 -27.5q30 0 52.5 20t42.5 60l26 -13q-36 -94 -73.5 -136t-87.5 -42q-45 0 -85 32.5t-57 96.5q-46 -70 -89 -99.5zM467 383l-73 -17q-78 -17 -118 -33.5t-55.5 -38t-15.5 -56.5q0 -44 20 -79.5t55 -56.5t79 -21q58 0 85 38t25 119zM420 1494h153l81 -311
h-38zM143 954l181 342h98l181 -342h-50l-214 233l-130 -233h-66z" />
    </font>
</defs>
</svg>
